<?xml version="1.0" encoding="UTF-8" standalone="no"?>
<!DOCTYPE svg PUBLIC "-//W3C//DTD SVG 1.1//EN"
 "http://www.w3.org/Graphics/SVG/1.1/DTD/svg11.dtd">
<!-- Generated by graphviz version 2.42.3 (0)
 -->
<!-- Title: Circ Pages: 1 -->
<svg width="914pt" height="987pt"
 viewBox="0.00 0.00 913.59 987.00" xmlns="http://www.w3.org/2000/svg" xmlns:xlink="http://www.w3.org/1999/xlink">
<g id="graph0" class="graph" transform="scale(1 1) rotate(0) translate(4 983)">
<title>Circ</title>
<polygon fill="white" stroke="transparent" points="-4,4 -4,-983 909.59,-983 909.59,4 -4,4"/>
<!-- x0 -->
<g id="node1" class="node">
<title>x0</title>
<ellipse fill="none" stroke="black" cx="266.3" cy="-18" rx="27" ry="18"/>
<text text-anchor="middle" x="266.3" y="-14.3" font-family="Times,serif" font-size="14.00">x0</text>
</g>
<!-- x3 -->
<g id="node4" class="node">
<title>x3</title>
<ellipse fill="none" stroke="black" cx="438.3" cy="-105" rx="47.39" ry="18"/>
<text text-anchor="middle" x="438.3" y="-101.3" font-family="Times,serif" font-size="14.00">f3: AND</text>
</g>
<!-- x0&#45;&gt;x3 -->
<g id="edge1" class="edge">
<title>x0&#45;&gt;x3</title>
<path fill="none" stroke="black" d="M287.75,-29.15C302.33,-36.07 322.02,-45.5 339.3,-54 360.13,-64.26 383.31,-75.95 402,-85.45"/>
<polygon fill="black" stroke="black" points="400.56,-88.64 411.06,-90.05 403.73,-82.4 400.56,-88.64"/>
<text text-anchor="middle" x="380.8" y="-57.8" font-family="Times,serif" font-size="14.00">in1</text>
</g>
<!-- x4 -->
<g id="node5" class="node">
<title>x4</title>
<ellipse fill="none" stroke="black" cx="506.3" cy="-192" rx="40.09" ry="18"/>
<text text-anchor="middle" x="506.3" y="-188.3" font-family="Times,serif" font-size="14.00">f4: OR</text>
</g>
<!-- x0&#45;&gt;x4 -->
<g id="edge3" class="edge">
<title>x0&#45;&gt;x4</title>
<path fill="none" stroke="black" d="M288.91,-28.28C296.82,-31.18 305.84,-34.12 314.3,-36 354.18,-44.89 468.87,-24.64 497.3,-54 525.18,-82.8 520.31,-132.88 513.69,-163.86"/>
<polygon fill="black" stroke="black" points="510.2,-163.42 511.33,-173.95 517.01,-165.01 510.2,-163.42"/>
<text text-anchor="middle" x="529.8" y="-101.3" font-family="Times,serif" font-size="14.00">in1</text>
</g>
<!-- x8 -->
<g id="node9" class="node">
<title>x8</title>
<ellipse fill="none" stroke="black" cx="274.3" cy="-105" rx="40.09" ry="18"/>
<text text-anchor="middle" x="274.3" y="-101.3" font-family="Times,serif" font-size="14.00">f8: OR</text>
</g>
<!-- x0&#45;&gt;x8 -->
<g id="edge11" class="edge">
<title>x0&#45;&gt;x8</title>
<path fill="none" stroke="black" d="M265.89,-36.17C265.85,-45.84 266.11,-58.12 267.3,-69 267.58,-71.59 267.96,-74.27 268.39,-76.94"/>
<polygon fill="black" stroke="black" points="264.99,-77.82 270.27,-87 271.87,-76.53 264.99,-77.82"/>
<text text-anchor="middle" x="278.8" y="-57.8" font-family="Times,serif" font-size="14.00">in1</text>
</g>
<!-- x11 -->
<g id="node12" class="node">
<title>x11</title>
<ellipse fill="none" stroke="black" cx="170.3" cy="-105" rx="46.29" ry="18"/>
<text text-anchor="middle" x="170.3" y="-101.3" font-family="Times,serif" font-size="14.00">f11: OR</text>
</g>
<!-- x0&#45;&gt;x11 -->
<g id="edge17" class="edge">
<title>x0&#45;&gt;x11</title>
<path fill="none" stroke="black" d="M239.56,-21.32C217.94,-24.74 188.65,-33.17 173.3,-54 168.56,-60.42 166.83,-68.67 166.57,-76.6"/>
<polygon fill="black" stroke="black" points="163.07,-76.81 166.93,-86.67 170.07,-76.55 163.07,-76.81"/>
<text text-anchor="middle" x="184.8" y="-57.8" font-family="Times,serif" font-size="14.00">in1</text>
</g>
<!-- x12 -->
<g id="node13" class="node">
<title>x12</title>
<ellipse fill="none" stroke="black" cx="53.3" cy="-105" rx="53.09" ry="18"/>
<text text-anchor="middle" x="53.3" y="-101.3" font-family="Times,serif" font-size="14.00">f12: AND</text>
</g>
<!-- x0&#45;&gt;x12 -->
<g id="edge19" class="edge">
<title>x0&#45;&gt;x12</title>
<path fill="none" stroke="black" d="M240.57,-24.16C214.65,-29.81 173.81,-39.98 140.3,-54 121.18,-62 101.04,-73.36 84.96,-83.23"/>
<polygon fill="black" stroke="black" points="83.1,-80.27 76.47,-88.54 86.81,-86.21 83.1,-80.27"/>
<text text-anchor="middle" x="151.8" y="-57.8" font-family="Times,serif" font-size="14.00">in1</text>
</g>
<!-- x1 -->
<g id="node2" class="node">
<title>x1</title>
<ellipse fill="none" stroke="black" cx="675.3" cy="-18" rx="27" ry="18"/>
<text text-anchor="middle" x="675.3" y="-14.3" font-family="Times,serif" font-size="14.00">x1</text>
</g>
<!-- x1&#45;&gt;x3 -->
<g id="edge2" class="edge">
<title>x1&#45;&gt;x3</title>
<path fill="none" stroke="black" d="M652.14,-27.3C612.61,-41.48 531.53,-70.56 481.35,-88.56"/>
<polygon fill="black" stroke="black" points="479.98,-85.33 471.75,-92 482.34,-91.92 479.98,-85.33"/>
<text text-anchor="middle" x="581.8" y="-57.8" font-family="Times,serif" font-size="14.00">in2</text>
</g>
<!-- x1&#45;&gt;x4 -->
<g id="edge4" class="edge">
<title>x1&#45;&gt;x4</title>
<path fill="none" stroke="black" d="M669.46,-35.85C661.13,-57.96 644.06,-97.03 619.3,-123 597.96,-145.38 567.68,-163.08 543.83,-174.8"/>
<polygon fill="black" stroke="black" points="542.23,-171.68 534.71,-179.15 545.25,-178 542.23,-171.68"/>
<text text-anchor="middle" x="655.8" y="-101.3" font-family="Times,serif" font-size="14.00">in2</text>
</g>
<!-- x1&#45;&gt;x8 -->
<g id="edge12" class="edge">
<title>x1&#45;&gt;x8</title>
<path fill="none" stroke="black" d="M648.96,-23.13C590.69,-32.49 446.68,-56.86 328.3,-87 324,-88.09 319.54,-89.33 315.11,-90.62"/>
<polygon fill="black" stroke="black" points="314.1,-87.27 305.54,-93.52 316.12,-93.97 314.1,-87.27"/>
<text text-anchor="middle" x="481.8" y="-57.8" font-family="Times,serif" font-size="14.00">in2</text>
</g>
<!-- x10 -->
<g id="node11" class="node">
<title>x10</title>
<ellipse fill="none" stroke="black" cx="852.3" cy="-105" rx="53.09" ry="18"/>
<text text-anchor="middle" x="852.3" y="-101.3" font-family="Times,serif" font-size="14.00">f10: AND</text>
</g>
<!-- x1&#45;&gt;x10 -->
<g id="edge15" class="edge">
<title>x1&#45;&gt;x10</title>
<path fill="none" stroke="black" d="M700.69,-24.52C723.61,-30.1 757.84,-39.9 785.3,-54 799.88,-61.49 814.63,-72.1 826.57,-81.63"/>
<polygon fill="black" stroke="black" points="824.39,-84.37 834.35,-87.99 828.83,-78.95 824.39,-84.37"/>
<text text-anchor="middle" x="819.8" y="-57.8" font-family="Times,serif" font-size="14.00">in1</text>
</g>
<!-- x13 -->
<g id="node14" class="node">
<title>x13</title>
<ellipse fill="none" stroke="black" cx="770.3" cy="-279" rx="46.29" ry="18"/>
<text text-anchor="middle" x="770.3" y="-275.3" font-family="Times,serif" font-size="14.00">f13: OR</text>
</g>
<!-- x1&#45;&gt;x13 -->
<g id="edge21" class="edge">
<title>x1&#45;&gt;x13</title>
<path fill="none" stroke="black" d="M691.01,-33.11C696.84,-39.06 703.05,-46.37 707.3,-54 743.58,-119.26 760.31,-207.06 766.81,-250.82"/>
<polygon fill="black" stroke="black" points="763.38,-251.55 768.25,-260.96 770.31,-250.57 763.38,-251.55"/>
<text text-anchor="middle" x="757.8" y="-144.8" font-family="Times,serif" font-size="14.00">in1</text>
</g>
<!-- x14 -->
<g id="node15" class="node">
<title>x14</title>
<ellipse fill="none" stroke="black" cx="616.3" cy="-366" rx="58.49" ry="18"/>
<text text-anchor="middle" x="616.3" y="-362.3" font-family="Times,serif" font-size="14.00">f14: NOT2</text>
</g>
<!-- x1&#45;&gt;x14 -->
<g id="edge23" class="edge">
<title>x1&#45;&gt;x14</title>
<path fill="none" stroke="black" d="M680.42,-35.85C693.17,-81.07 722.19,-207.75 677.3,-297 668.86,-313.78 655.17,-329.58 642.9,-341.73"/>
<polygon fill="black" stroke="black" points="640.32,-339.35 635.5,-348.79 645.15,-344.42 640.32,-339.35"/>
<text text-anchor="middle" x="712.8" y="-188.3" font-family="Times,serif" font-size="14.00">in1</text>
</g>
<!-- x2 -->
<g id="node3" class="node">
<title>x2</title>
<ellipse fill="none" stroke="black" cx="350.3" cy="-18" rx="27" ry="18"/>
<text text-anchor="middle" x="350.3" y="-14.3" font-family="Times,serif" font-size="14.00">x2</text>
</g>
<!-- x5 -->
<g id="node6" class="node">
<title>x5</title>
<ellipse fill="none" stroke="black" cx="605.3" cy="-192" rx="40.09" ry="18"/>
<text text-anchor="middle" x="605.3" y="-188.3" font-family="Times,serif" font-size="14.00">f5: OR</text>
</g>
<!-- x2&#45;&gt;x5 -->
<g id="edge5" class="edge">
<title>x2&#45;&gt;x5</title>
<path fill="none" stroke="black" d="M377.33,-19.39C431.37,-20.75 549.96,-26.84 578.3,-54 578.8,-54.48 592.4,-124.38 600.1,-164.14"/>
<polygon fill="black" stroke="black" points="596.67,-164.85 602.01,-174 603.55,-163.52 596.67,-164.85"/>
<text text-anchor="middle" x="602.8" y="-101.3" font-family="Times,serif" font-size="14.00">in1</text>
</g>
<!-- x9 -->
<g id="node10" class="node">
<title>x9</title>
<ellipse fill="none" stroke="black" cx="350.3" cy="-192" rx="47.39" ry="18"/>
<text text-anchor="middle" x="350.3" y="-188.3" font-family="Times,serif" font-size="14.00">f9: AND</text>
</g>
<!-- x2&#45;&gt;x9 -->
<g id="edge13" class="edge">
<title>x2&#45;&gt;x9</title>
<path fill="none" stroke="black" d="M350.3,-36.12C350.3,-66 350.3,-127.89 350.3,-163.73"/>
<polygon fill="black" stroke="black" points="346.8,-163.95 350.3,-173.95 353.8,-163.95 346.8,-163.95"/>
<text text-anchor="middle" x="361.8" y="-101.3" font-family="Times,serif" font-size="14.00">in1</text>
</g>
<!-- x2&#45;&gt;x10 -->
<g id="edge16" class="edge">
<title>x2&#45;&gt;x10</title>
<path fill="none" stroke="black" d="M376.92,-22.06C423.54,-27.56 522.93,-39.84 606.3,-54 673.02,-65.33 749.32,-81.31 799.02,-92.14"/>
<polygon fill="black" stroke="black" points="798.39,-95.58 808.91,-94.3 799.88,-88.74 798.39,-95.58"/>
<text text-anchor="middle" x="691.8" y="-57.8" font-family="Times,serif" font-size="14.00">in2</text>
</g>
<!-- x2&#45;&gt;x11 -->
<g id="edge18" class="edge">
<title>x2&#45;&gt;x11</title>
<path fill="none" stroke="black" d="M336.3,-33.67C324.88,-44.84 307.83,-59.82 290.3,-69 263.74,-82.91 254.06,-78.57 225.3,-87 221.93,-87.99 218.46,-89.02 214.97,-90.07"/>
<polygon fill="black" stroke="black" points="213.71,-86.79 205.16,-93.05 215.75,-93.49 213.71,-86.79"/>
<text text-anchor="middle" x="322.8" y="-57.8" font-family="Times,serif" font-size="14.00">in2</text>
</g>
<!-- x2&#45;&gt;x12 -->
<g id="edge20" class="edge">
<title>x2&#45;&gt;x12</title>
<path fill="none" stroke="black" d="M326.96,-27.61C319.16,-30.4 310.38,-33.43 302.3,-36 274.13,-44.94 266.45,-45.03 238.3,-54 219.41,-60.02 215.34,-63.51 196.3,-69 160.86,-79.22 151.09,-78.12 115.3,-87 111.21,-88.01 106.99,-89.1 102.75,-90.21"/>
<polygon fill="black" stroke="black" points="101.67,-86.87 92.91,-92.83 103.47,-93.64 101.67,-86.87"/>
<text text-anchor="middle" x="249.8" y="-57.8" font-family="Times,serif" font-size="14.00">in2</text>
</g>
<!-- x3&#45;&gt;x5 -->
<g id="edge6" class="edge">
<title>x3&#45;&gt;x5</title>
<path fill="none" stroke="black" d="M465.5,-119.85C494.14,-134.43 539.34,-157.43 570.55,-173.31"/>
<polygon fill="black" stroke="black" points="569.25,-176.58 579.75,-178 572.42,-170.34 569.25,-176.58"/>
<text text-anchor="middle" x="542.8" y="-144.8" font-family="Times,serif" font-size="14.00">in2</text>
</g>
<!-- x3&#45;&gt;x9 -->
<g id="edge14" class="edge">
<title>x3&#45;&gt;x9</title>
<path fill="none" stroke="black" d="M414.24,-120.63C405.61,-126.43 396.09,-133.51 388.3,-141 380.6,-148.4 373.22,-157.46 367.06,-165.83"/>
<polygon fill="black" stroke="black" points="364.05,-164.02 361.1,-174.19 369.75,-168.08 364.05,-164.02"/>
<text text-anchor="middle" x="399.8" y="-144.8" font-family="Times,serif" font-size="14.00">in2</text>
</g>
<!-- x20 -->
<g id="node21" class="node">
<title>x20</title>
<ellipse fill="none" stroke="black" cx="502.3" cy="-714" rx="53.09" ry="18"/>
<text text-anchor="middle" x="502.3" y="-710.3" font-family="Times,serif" font-size="14.00">f20: AND</text>
</g>
<!-- x3&#45;&gt;x20 -->
<g id="edge35" class="edge">
<title>x3&#45;&gt;x20</title>
<path fill="none" stroke="black" d="M437.74,-123.15C436.81,-156.63 435.5,-233.01 440.3,-297 447.24,-389.64 433.11,-418.44 469.3,-504 473.24,-513.33 479.54,-512.59 483.3,-522 505.24,-576.92 505.89,-647.49 504.22,-685.62"/>
<polygon fill="black" stroke="black" points="500.71,-685.74 503.68,-695.91 507.7,-686.11 500.71,-685.74"/>
<text text-anchor="middle" x="455.8" y="-405.8" font-family="Times,serif" font-size="14.00">in1</text>
</g>
<!-- x6 -->
<g id="node7" class="node">
<title>x6</title>
<ellipse fill="none" stroke="black" cx="621.3" cy="-279" rx="47.39" ry="18"/>
<text text-anchor="middle" x="621.3" y="-275.3" font-family="Times,serif" font-size="14.00">f6: AND</text>
</g>
<!-- x4&#45;&gt;x6 -->
<g id="edge7" class="edge">
<title>x4&#45;&gt;x6</title>
<path fill="none" stroke="black" d="M509.86,-210.29C512.87,-220.97 518.19,-234.26 527.3,-243 534.64,-250.05 554.87,-257.95 574.69,-264.47"/>
<polygon fill="black" stroke="black" points="573.74,-267.84 584.33,-267.54 575.87,-261.17 573.74,-267.84"/>
<text text-anchor="middle" x="538.8" y="-231.8" font-family="Times,serif" font-size="14.00">in1</text>
</g>
<!-- x7 -->
<g id="node8" class="node">
<title>x7</title>
<ellipse fill="none" stroke="black" cx="515.3" cy="-279" rx="40.09" ry="18"/>
<text text-anchor="middle" x="515.3" y="-275.3" font-family="Times,serif" font-size="14.00">f7: OR</text>
</g>
<!-- x4&#45;&gt;x7 -->
<g id="edge9" class="edge">
<title>x4&#45;&gt;x7</title>
<path fill="none" stroke="black" d="M490.64,-208.92C483.07,-218.6 476.55,-231.31 481.3,-243 483.06,-247.36 485.66,-251.47 488.65,-255.24"/>
<polygon fill="black" stroke="black" points="486.31,-257.87 495.64,-262.91 491.49,-253.16 486.31,-257.87"/>
<text text-anchor="middle" x="492.8" y="-231.8" font-family="Times,serif" font-size="14.00">in1</text>
</g>
<!-- x17 -->
<g id="node18" class="node">
<title>x17</title>
<ellipse fill="none" stroke="black" cx="409.3" cy="-627" rx="58.49" ry="18"/>
<text text-anchor="middle" x="409.3" y="-623.3" font-family="Times,serif" font-size="14.00">f17: NOT2</text>
</g>
<!-- x4&#45;&gt;x17 -->
<g id="edge29" class="edge">
<title>x4&#45;&gt;x17</title>
<path fill="none" stroke="black" d="M490.81,-208.63C485.52,-214.43 479.81,-221.25 475.3,-228 432.44,-292.12 453.24,-328.88 399.3,-384 387.06,-396.5 374.8,-388.02 364.3,-402 313.03,-470.23 283.75,-519.46 330.3,-591 336.06,-599.86 344.64,-606.5 354.05,-611.46"/>
<polygon fill="black" stroke="black" points="352.71,-614.7 363.25,-615.72 355.65,-608.34 352.71,-614.7"/>
<text text-anchor="middle" x="375.8" y="-405.8" font-family="Times,serif" font-size="14.00">in1</text>
</g>
<!-- x5&#45;&gt;x6 -->
<g id="edge8" class="edge">
<title>x5&#45;&gt;x6</title>
<path fill="none" stroke="black" d="M608.53,-210.2C610.72,-221.84 613.66,-237.45 616.17,-250.76"/>
<polygon fill="black" stroke="black" points="612.77,-251.64 618.06,-260.82 619.65,-250.35 612.77,-251.64"/>
<text text-anchor="middle" x="624.8" y="-231.8" font-family="Times,serif" font-size="14.00">in2</text>
</g>
<!-- x5&#45;&gt;x7 -->
<g id="edge10" class="edge">
<title>x5&#45;&gt;x7</title>
<path fill="none" stroke="black" d="M588.79,-208.59C574.83,-221.77 554.67,-240.82 538.99,-255.62"/>
<polygon fill="black" stroke="black" points="536.56,-253.1 531.7,-262.51 541.37,-258.19 536.56,-253.1"/>
<text text-anchor="middle" x="576.8" y="-231.8" font-family="Times,serif" font-size="14.00">in2</text>
</g>
<!-- x5&#45;&gt;x13 -->
<g id="edge22" class="edge">
<title>x5&#45;&gt;x13</title>
<path fill="none" stroke="black" d="M630.71,-206.09C658.4,-220.36 702.92,-243.29 734.22,-259.42"/>
<polygon fill="black" stroke="black" points="732.98,-262.72 743.48,-264.18 736.19,-256.49 732.98,-262.72"/>
<text text-anchor="middle" x="708.8" y="-231.8" font-family="Times,serif" font-size="14.00">in2</text>
</g>
<!-- x6&#45;&gt;x14 -->
<g id="edge24" class="edge">
<title>x6&#45;&gt;x14</title>
<path fill="none" stroke="black" d="M620.28,-297.2C619.6,-308.84 618.68,-324.45 617.9,-337.76"/>
<polygon fill="black" stroke="black" points="614.4,-337.64 617.31,-347.82 621.39,-338.05 614.4,-337.64"/>
<text text-anchor="middle" x="629.8" y="-318.8" font-family="Times,serif" font-size="14.00">in2</text>
</g>
<!-- x15 -->
<g id="node16" class="node">
<title>x15</title>
<ellipse fill="none" stroke="black" cx="532.3" cy="-453" rx="53.09" ry="18"/>
<text text-anchor="middle" x="532.3" y="-449.3" font-family="Times,serif" font-size="14.00">f15: AND</text>
</g>
<!-- x7&#45;&gt;x15 -->
<g id="edge25" class="edge">
<title>x7&#45;&gt;x15</title>
<path fill="none" stroke="black" d="M516.99,-297.12C519.94,-327 526.06,-388.89 529.6,-424.73"/>
<polygon fill="black" stroke="black" points="526.14,-425.34 530.61,-434.95 533.11,-424.65 526.14,-425.34"/>
<text text-anchor="middle" x="536.8" y="-362.3" font-family="Times,serif" font-size="14.00">in1</text>
</g>
<!-- x24 -->
<g id="node25" class="node">
<title>x24</title>
<ellipse fill="none" stroke="black" cx="385.3" cy="-714" rx="46.29" ry="18"/>
<text text-anchor="middle" x="385.3" y="-710.3" font-family="Times,serif" font-size="14.00">f24: OR</text>
</g>
<!-- x8&#45;&gt;x24 -->
<g id="edge43" class="edge">
<title>x8&#45;&gt;x24</title>
<path fill="none" stroke="black" d="M274.62,-123.26C274.91,-140.43 275.3,-167.53 275.3,-191 275.3,-191 275.3,-191 275.3,-367 275.3,-508.58 264.3,-561.18 344.3,-678 347.47,-682.63 351.41,-687.02 355.58,-691.01"/>
<polygon fill="black" stroke="black" points="353.4,-693.77 363.22,-697.76 358.04,-688.52 353.4,-693.77"/>
<text text-anchor="middle" x="285.8" y="-405.8" font-family="Times,serif" font-size="14.00">in1</text>
</g>
<!-- x16 -->
<g id="node17" class="node">
<title>x16</title>
<ellipse fill="none" stroke="black" cx="428.3" cy="-540" rx="46.29" ry="18"/>
<text text-anchor="middle" x="428.3" y="-536.3" font-family="Times,serif" font-size="14.00">f16: OR</text>
</g>
<!-- x9&#45;&gt;x16 -->
<g id="edge27" class="edge">
<title>x9&#45;&gt;x16</title>
<path fill="none" stroke="black" d="M351.45,-210.25C353.88,-243.89 360.32,-320.53 372.3,-384 379.71,-423.3 383.34,-432.83 395.3,-471 399.96,-485.89 400.58,-489.91 407.3,-504 408.8,-507.17 410.51,-510.42 412.29,-513.6"/>
<polygon fill="black" stroke="black" points="409.3,-515.41 417.37,-522.27 415.34,-511.87 409.3,-515.41"/>
<text text-anchor="middle" x="383.8" y="-362.3" font-family="Times,serif" font-size="14.00">in1</text>
</g>
<!-- x22 -->
<g id="node23" class="node">
<title>x22</title>
<ellipse fill="none" stroke="black" cx="795.3" cy="-453" rx="46.29" ry="18"/>
<text text-anchor="middle" x="795.3" y="-449.3" font-family="Times,serif" font-size="14.00">f22: OR</text>
</g>
<!-- x10&#45;&gt;x22 -->
<g id="edge39" class="edge">
<title>x10&#45;&gt;x22</title>
<path fill="none" stroke="black" d="M852.3,-123.26C852.3,-140.43 852.3,-167.54 852.3,-191 852.3,-191 852.3,-191 852.3,-367 852.3,-391.13 836.26,-413.57 821.2,-429.33"/>
<polygon fill="black" stroke="black" points="818.6,-426.98 813.96,-436.51 823.52,-431.95 818.6,-426.98"/>
<text text-anchor="middle" x="863.8" y="-275.3" font-family="Times,serif" font-size="14.00">in1</text>
</g>
<!-- x19 -->
<g id="node20" class="node">
<title>x19</title>
<ellipse fill="none" stroke="black" cx="231.3" cy="-714" rx="46.29" ry="18"/>
<text text-anchor="middle" x="231.3" y="-710.3" font-family="Times,serif" font-size="14.00">f19: OR</text>
</g>
<!-- x11&#45;&gt;x19 -->
<g id="edge33" class="edge">
<title>x11&#45;&gt;x19</title>
<path fill="none" stroke="black" d="M179.95,-122.65C188.72,-139.35 200.3,-166.12 200.3,-191 200.3,-191 200.3,-191 200.3,-628 200.3,-648.88 208.65,-670.99 216.69,-687.43"/>
<polygon fill="black" stroke="black" points="213.62,-689.11 221.32,-696.39 219.84,-685.9 213.62,-689.11"/>
<text text-anchor="middle" x="211.8" y="-405.8" font-family="Times,serif" font-size="14.00">in1</text>
</g>
<!-- x18 -->
<g id="node19" class="node">
<title>x18</title>
<ellipse fill="none" stroke="black" cx="114.3" cy="-714" rx="53.09" ry="18"/>
<text text-anchor="middle" x="114.3" y="-710.3" font-family="Times,serif" font-size="14.00">f18: AND</text>
</g>
<!-- x12&#45;&gt;x18 -->
<g id="edge31" class="edge">
<title>x12&#45;&gt;x18</title>
<path fill="none" stroke="black" d="M61.34,-122.83C68.65,-139.68 78.3,-166.54 78.3,-191 78.3,-191 78.3,-191 78.3,-628 78.3,-649.17 87.88,-671.12 97.16,-687.41"/>
<polygon fill="black" stroke="black" points="94.35,-689.54 102.51,-696.3 100.35,-685.93 94.35,-689.54"/>
<text text-anchor="middle" x="89.8" y="-405.8" font-family="Times,serif" font-size="14.00">in1</text>
</g>
<!-- x21 -->
<g id="node22" class="node">
<title>x21</title>
<ellipse fill="none" stroke="black" cx="707.3" cy="-540" rx="53.09" ry="18"/>
<text text-anchor="middle" x="707.3" y="-536.3" font-family="Times,serif" font-size="14.00">f21: AND</text>
</g>
<!-- x13&#45;&gt;x21 -->
<g id="edge37" class="edge">
<title>x13&#45;&gt;x21</title>
<path fill="none" stroke="black" d="M766.16,-296.99C755.46,-340.99 726.78,-458.89 713.82,-512.19"/>
<polygon fill="black" stroke="black" points="710.41,-511.4 711.44,-521.94 717.21,-513.05 710.41,-511.4"/>
<text text-anchor="middle" x="750.8" y="-405.8" font-family="Times,serif" font-size="14.00">in1</text>
</g>
<!-- x14&#45;&gt;x15 -->
<g id="edge26" class="edge">
<title>x14&#45;&gt;x15</title>
<path fill="none" stroke="black" d="M597.27,-383.34C590.8,-389.09 583.6,-395.7 577.3,-402 569.15,-410.13 560.61,-419.41 553.19,-427.74"/>
<polygon fill="black" stroke="black" points="550.44,-425.57 546.46,-435.38 555.7,-430.19 550.44,-425.57"/>
<text text-anchor="middle" x="588.8" y="-405.8" font-family="Times,serif" font-size="14.00">in2</text>
</g>
<!-- x14&#45;&gt;x22 -->
<g id="edge40" class="edge">
<title>x14&#45;&gt;x22</title>
<path fill="none" stroke="black" d="M632.27,-383.46C643.64,-394.35 659.79,-408.19 676.3,-417 697.55,-428.35 722.95,-436.46 744.82,-442"/>
<polygon fill="black" stroke="black" points="744.04,-445.41 754.59,-444.37 745.69,-438.61 744.04,-445.41"/>
<text text-anchor="middle" x="687.8" y="-405.8" font-family="Times,serif" font-size="14.00">in2</text>
</g>
<!-- x25 -->
<g id="node26" class="node">
<title>x25</title>
<ellipse fill="none" stroke="black" cx="502.3" cy="-801" rx="46.29" ry="18"/>
<text text-anchor="middle" x="502.3" y="-797.3" font-family="Times,serif" font-size="14.00">f25: OR</text>
</g>
<!-- x14&#45;&gt;x25 -->
<g id="edge45" class="edge">
<title>x14&#45;&gt;x25</title>
<path fill="none" stroke="black" d="M615.65,-384.25C615.07,-401.42 614.3,-428.53 614.3,-452 614.3,-452 614.3,-452 614.3,-715 614.3,-750.28 578.59,-772.82 547.5,-785.76"/>
<polygon fill="black" stroke="black" points="546.07,-782.56 538.04,-789.47 548.63,-789.07 546.07,-782.56"/>
<text text-anchor="middle" x="625.8" y="-579.8" font-family="Times,serif" font-size="14.00">in1</text>
</g>
<!-- x26 -->
<g id="node27" class="node">
<title>x26</title>
<ellipse fill="none" stroke="black" cx="231.3" cy="-801" rx="53.09" ry="18"/>
<text text-anchor="middle" x="231.3" y="-797.3" font-family="Times,serif" font-size="14.00">f26: AND</text>
</g>
<!-- x14&#45;&gt;x26 -->
<g id="edge47" class="edge">
<title>x14&#45;&gt;x26</title>
<path fill="none" stroke="black" d="M580.24,-380.31C549.7,-392.39 505.41,-411.82 470.3,-435 421.97,-466.91 406.77,-474.74 373.3,-522 314.91,-604.44 337.93,-645.16 286.3,-732 277,-747.63 264.37,-763.52 253.55,-776"/>
<polygon fill="black" stroke="black" points="250.76,-773.87 246.76,-783.68 256.01,-778.51 250.76,-773.87"/>
<text text-anchor="middle" x="353.8" y="-579.8" font-family="Times,serif" font-size="14.00">in1</text>
</g>
<!-- x15&#45;&gt;x16 -->
<g id="edge28" class="edge">
<title>x15&#45;&gt;x16</title>
<path fill="none" stroke="black" d="M512.73,-469.99C496.51,-483.25 473.27,-502.25 455.27,-516.95"/>
<polygon fill="black" stroke="black" points="452.95,-514.33 447.42,-523.37 457.38,-519.75 452.95,-514.33"/>
<text text-anchor="middle" x="497.8" y="-492.8" font-family="Times,serif" font-size="14.00">in2</text>
</g>
<!-- x15&#45;&gt;x21 -->
<g id="edge38" class="edge">
<title>x15&#45;&gt;x21</title>
<path fill="none" stroke="black" d="M561.59,-468.23C591.08,-482.55 636.71,-504.72 669.04,-520.42"/>
<polygon fill="black" stroke="black" points="667.68,-523.65 678.2,-524.87 670.73,-517.35 667.68,-523.65"/>
<text text-anchor="middle" x="640.8" y="-492.8" font-family="Times,serif" font-size="14.00">in2</text>
</g>
<!-- x16&#45;&gt;x17 -->
<g id="edge30" class="edge">
<title>x16&#45;&gt;x17</title>
<path fill="none" stroke="black" d="M424.45,-558.2C421.85,-569.84 418.36,-585.45 415.38,-598.76"/>
<polygon fill="black" stroke="black" points="411.9,-598.3 413.13,-608.82 418.73,-599.83 411.9,-598.3"/>
<text text-anchor="middle" x="430.8" y="-579.8" font-family="Times,serif" font-size="14.00">in2</text>
</g>
<!-- x17&#45;&gt;x18 -->
<g id="edge32" class="edge">
<title>x17&#45;&gt;x18</title>
<path fill="none" stroke="black" d="M366.9,-639.45C342.19,-646.19 310.44,-654.94 282.3,-663 241.87,-674.59 196.13,-688.23 162.59,-698.34"/>
<polygon fill="black" stroke="black" points="161.16,-695.12 152.6,-701.36 163.18,-701.82 161.16,-695.12"/>
<text text-anchor="middle" x="293.8" y="-666.8" font-family="Times,serif" font-size="14.00">in2</text>
</g>
<!-- x17&#45;&gt;x19 -->
<g id="edge34" class="edge">
<title>x17&#45;&gt;x19</title>
<path fill="none" stroke="black" d="M379.1,-642.42C348.59,-656.99 301.38,-679.53 268.56,-695.21"/>
<polygon fill="black" stroke="black" points="266.8,-692.16 259.29,-699.63 269.82,-698.48 266.8,-692.16"/>
<text text-anchor="middle" x="341.8" y="-666.8" font-family="Times,serif" font-size="14.00">in2</text>
</g>
<!-- x17&#45;&gt;x20 -->
<g id="edge36" class="edge">
<title>x17&#45;&gt;x20</title>
<path fill="none" stroke="black" d="M427.23,-644.39C441.34,-657.29 461.19,-675.43 476.93,-689.82"/>
<polygon fill="black" stroke="black" points="474.99,-692.79 484.73,-696.95 479.71,-687.62 474.99,-692.79"/>
<text text-anchor="middle" x="472.8" y="-666.8" font-family="Times,serif" font-size="14.00">in2</text>
</g>
<!-- x23 -->
<g id="node24" class="node">
<title>x23</title>
<ellipse fill="none" stroke="black" cx="707.3" cy="-714" rx="46.29" ry="18"/>
<text text-anchor="middle" x="707.3" y="-710.3" font-family="Times,serif" font-size="14.00">f23: OR</text>
</g>
<!-- x17&#45;&gt;x23 -->
<g id="edge41" class="edge">
<title>x17&#45;&gt;x23</title>
<path fill="none" stroke="black" d="M450.73,-639.82C505.95,-655.57 603.37,-683.36 660.96,-699.78"/>
<polygon fill="black" stroke="black" points="660.31,-703.24 670.89,-702.61 662.23,-696.51 660.31,-703.24"/>
<text text-anchor="middle" x="586.8" y="-666.8" font-family="Times,serif" font-size="14.00">in1</text>
</g>
<!-- x17&#45;&gt;x24 -->
<g id="edge44" class="edge">
<title>x17&#45;&gt;x24</title>
<path fill="none" stroke="black" d="M404.44,-645.2C401.12,-656.95 396.66,-672.76 392.87,-686.16"/>
<polygon fill="black" stroke="black" points="389.49,-685.25 390.14,-695.82 396.23,-687.15 389.49,-685.25"/>
<text text-anchor="middle" x="409.8" y="-666.8" font-family="Times,serif" font-size="14.00">in2</text>
</g>
<!-- x28 -->
<g id="node29" class="node">
<title>x28</title>
<ellipse fill="none" stroke="black" cx="164.3" cy="-888" rx="46.29" ry="18"/>
<text text-anchor="middle" x="164.3" y="-884.3" font-family="Times,serif" font-size="14.00">f28: OR</text>
</g>
<!-- x18&#45;&gt;x28 -->
<g id="edge51" class="edge">
<title>x18&#45;&gt;x28</title>
<path fill="none" stroke="black" d="M119.27,-732.12C128,-762.13 146.1,-824.42 156.5,-860.19"/>
<polygon fill="black" stroke="black" points="153.19,-861.32 159.34,-869.95 159.91,-859.37 153.19,-861.32"/>
<text text-anchor="middle" x="154.8" y="-797.3" font-family="Times,serif" font-size="14.00">in1</text>
</g>
<!-- x19&#45;&gt;x26 -->
<g id="edge48" class="edge">
<title>x19&#45;&gt;x26</title>
<path fill="none" stroke="black" d="M231.3,-732.2C231.3,-743.84 231.3,-759.45 231.3,-772.76"/>
<polygon fill="black" stroke="black" points="227.8,-772.82 231.3,-782.82 234.8,-772.82 227.8,-772.82"/>
<text text-anchor="middle" x="242.8" y="-753.8" font-family="Times,serif" font-size="14.00">in2</text>
</g>
<!-- x20&#45;&gt;x25 -->
<g id="edge46" class="edge">
<title>x20&#45;&gt;x25</title>
<path fill="none" stroke="black" d="M502.3,-732.2C502.3,-743.84 502.3,-759.45 502.3,-772.76"/>
<polygon fill="black" stroke="black" points="498.8,-772.82 502.3,-782.82 505.8,-772.82 498.8,-772.82"/>
<text text-anchor="middle" x="513.8" y="-753.8" font-family="Times,serif" font-size="14.00">in2</text>
</g>
<!-- x21&#45;&gt;x23 -->
<g id="edge42" class="edge">
<title>x21&#45;&gt;x23</title>
<path fill="none" stroke="black" d="M707.3,-558.12C707.3,-588 707.3,-649.89 707.3,-685.73"/>
<polygon fill="black" stroke="black" points="703.8,-685.95 707.3,-695.95 710.8,-685.95 703.8,-685.95"/>
<text text-anchor="middle" x="718.8" y="-623.3" font-family="Times,serif" font-size="14.00">in2</text>
</g>
<!-- x29 -->
<g id="node30" class="node">
<title>x29</title>
<ellipse fill="none" stroke="black" cx="772.3" cy="-801" rx="53.09" ry="18"/>
<text text-anchor="middle" x="772.3" y="-797.3" font-family="Times,serif" font-size="14.00">f29: AND</text>
</g>
<!-- x22&#45;&gt;x29 -->
<g id="edge53" class="edge">
<title>x22&#45;&gt;x29</title>
<path fill="none" stroke="black" d="M794.97,-471.26C794.68,-488.43 794.3,-515.53 794.3,-539 794.3,-539 794.3,-539 794.3,-715 794.3,-735.07 788.48,-756.98 782.82,-773.53"/>
<polygon fill="black" stroke="black" points="779.48,-772.48 779.38,-783.08 786.06,-774.86 779.48,-772.48"/>
<text text-anchor="middle" x="805.8" y="-623.3" font-family="Times,serif" font-size="14.00">in1</text>
</g>
<!-- x23&#45;&gt;x29 -->
<g id="edge54" class="edge">
<title>x23&#45;&gt;x29</title>
<path fill="none" stroke="black" d="M719.83,-731.39C729.3,-743.77 742.46,-760.99 753.24,-775.08"/>
<polygon fill="black" stroke="black" points="750.72,-777.55 759.58,-783.37 756.29,-773.3 750.72,-777.55"/>
<text text-anchor="middle" x="754.8" y="-753.8" font-family="Times,serif" font-size="14.00">in2</text>
</g>
<!-- x27 -->
<g id="node28" class="node">
<title>x27</title>
<ellipse fill="none" stroke="black" cx="423.3" cy="-888" rx="53.09" ry="18"/>
<text text-anchor="middle" x="423.3" y="-884.3" font-family="Times,serif" font-size="14.00">f27: AND</text>
</g>
<!-- x24&#45;&gt;x27 -->
<g id="edge49" class="edge">
<title>x24&#45;&gt;x27</title>
<path fill="none" stroke="black" d="M389.08,-732.12C395.68,-762 409.35,-823.89 417.27,-859.73"/>
<polygon fill="black" stroke="black" points="413.95,-860.94 419.53,-869.95 420.79,-859.43 413.95,-860.94"/>
<text text-anchor="middle" x="418.8" y="-797.3" font-family="Times,serif" font-size="14.00">in1</text>
</g>
<!-- x25&#45;&gt;x27 -->
<g id="edge50" class="edge">
<title>x25&#45;&gt;x27</title>
<path fill="none" stroke="black" d="M487.06,-818.39C475.26,-831.09 458.74,-848.87 445.47,-863.14"/>
<polygon fill="black" stroke="black" points="442.72,-860.95 438.48,-870.66 447.85,-865.72 442.72,-860.95"/>
<text text-anchor="middle" x="478.8" y="-840.8" font-family="Times,serif" font-size="14.00">in2</text>
</g>
<!-- x26&#45;&gt;x28 -->
<g id="edge52" class="edge">
<title>x26&#45;&gt;x28</title>
<path fill="none" stroke="black" d="M218.06,-818.79C208.27,-831.21 194.78,-848.33 183.76,-862.3"/>
<polygon fill="black" stroke="black" points="180.72,-860.51 177.28,-870.53 186.22,-864.84 180.72,-860.51"/>
<text text-anchor="middle" x="212.8" y="-840.8" font-family="Times,serif" font-size="14.00">in2</text>
</g>
<!-- g2 -->
<g id="node33" class="node">
<title>g2</title>
<ellipse fill="none" stroke="black" cx="423.3" cy="-961" rx="27" ry="18"/>
<text text-anchor="middle" x="423.3" y="-957.3" font-family="Times,serif" font-size="14.00">g2</text>
</g>
<!-- x27&#45;&gt;g2 -->
<g id="edge57" class="edge">
<title>x27&#45;&gt;g2</title>
<path fill="none" stroke="black" d="M423.3,-906.19C423.3,-914.21 423.3,-923.95 423.3,-932.93"/>
<polygon fill="black" stroke="black" points="419.8,-932.97 423.3,-942.97 426.8,-932.97 419.8,-932.97"/>
</g>
<!-- g1 -->
<g id="node32" class="node">
<title>g1</title>
<ellipse fill="none" stroke="black" cx="164.3" cy="-961" rx="27" ry="18"/>
<text text-anchor="middle" x="164.3" y="-957.3" font-family="Times,serif" font-size="14.00">g1</text>
</g>
<!-- x28&#45;&gt;g1 -->
<g id="edge56" class="edge">
<title>x28&#45;&gt;g1</title>
<path fill="none" stroke="black" d="M164.3,-906.19C164.3,-914.21 164.3,-923.95 164.3,-932.93"/>
<polygon fill="black" stroke="black" points="160.8,-932.97 164.3,-942.97 167.8,-932.97 160.8,-932.97"/>
</g>
<!-- g0 -->
<g id="node31" class="node">
<title>g0</title>
<ellipse fill="none" stroke="black" cx="772.3" cy="-961" rx="27" ry="18"/>
<text text-anchor="middle" x="772.3" y="-957.3" font-family="Times,serif" font-size="14.00">g0</text>
</g>
<!-- x29&#45;&gt;g0 -->
<g id="edge55" class="edge">
<title>x29&#45;&gt;g0</title>
<path fill="none" stroke="black" d="M772.3,-819.21C772.3,-846.52 772.3,-900.01 772.3,-932.62"/>
<polygon fill="black" stroke="black" points="768.8,-932.81 772.3,-942.81 775.8,-932.81 768.8,-932.81"/>
</g>
</g>
</svg>
