<?xml version="1.0" encoding="UTF-8"?>
<svg width="715px" height="740px" viewBox="0 0 715 740" version="1.1" xmlns="http://www.w3.org/2000/svg" xmlns:xlink="http://www.w3.org/1999/xlink">
    <!-- Generator: Sketch 54.1 (76490) - https://sketchapp.com -->
    <title>12x12_q104_wordgraph</title>
    <desc>Created with Sketch.</desc>
    <g id="Page-1" stroke="none" stroke-width="1" fill="none" fill-rule="evenodd">
        <g id="Group" transform="translate(315.000000, 0.000000)">
            <rect id="Rectangle" stroke="#000000" fill="#FFFFFF" x="0.5" y="0.5" width="239" height="59" rx="8"></rect>
            <text id="WARCRAFT" font-family="RobotoSlab-Regular, Roboto Slab" font-size="36" font-weight="normal" fill="#000000">
                <tspan x="18.6005859" y="44">WARCRAFT</tspan>
            </text>
        </g>
        <g id="Group" transform="translate(95.000000, 180.000000)">
            <rect id="Rectangle" stroke="#000000" fill="#FFFFFF" x="0.5" y="0.5" width="319" height="59" rx="8"></rect>
            <text id="STARCONTROL" font-family="RobotoSlab-Regular, Roboto Slab" font-size="36" font-weight="normal" fill="#000000">
                <tspan x="29.2451172" y="44">STARCONTROL</tspan>
            </text>
        </g>
        <g id="Group-Copy" transform="translate(35.000000, 280.000000)">
            <rect id="Rectangle" stroke="#000000" fill="#FFFFFF" x="0.5" y="0.5" width="179" height="59" rx="8"></rect>
            <text id="GIANTS" font-family="RobotoSlab-Regular, Roboto Slab" font-size="36" font-weight="normal" fill="#000000">
                <tspan x="22.9921875" y="44">GIANTS</tspan>
            </text>
        </g>
        <g id="Group-Copy-8" transform="translate(195.000000, 520.000000)">
            <rect id="Rectangle" stroke="#000000" fill="#FFFFFF" x="0.5" y="0.5" width="219" height="59" rx="8"></rect>
            <text id="EXAPUNKS" font-family="RobotoSlab-Regular, Roboto Slab" font-size="36" font-weight="normal" fill="#000000">
                <tspan x="10.5869141" y="44">EXAPUNKS</tspan>
            </text>
        </g>
        <g id="Group-Copy-5" transform="translate(455.000000, 260.000000)">
            <rect id="Rectangle" stroke="#000000" fill="#FFFFFF" x="0.5" y="0.5" width="199" height="59" rx="8"></rect>
            <text id="LOTUS" font-family="RobotoSlab-Regular, Roboto Slab" font-size="36" font-weight="normal" fill="#000000">
                <tspan x="41.78125" y="44">LOTUS</tspan>
            </text>
        </g>
        <g id="Group" transform="translate(125.000000, 70.000000) rotate(-90.000000) translate(-125.000000, -70.000000) translate(55.000000, 40.000000)">
            <rect id="Rectangle" stroke="#000000" fill="#FFFFFF" x="0.5" y="0.5" width="139" height="59" rx="8"></rect>
            <text id="MYST" font-family="RobotoSlab-Regular, Roboto Slab" font-size="36" font-weight="normal" fill="#000000">
                <tspan x="18.953125" y="44">MYST</tspan>
            </text>
        </g>
        <g id="Group-Copy-2" transform="translate(285.000000, 380.000000) rotate(-90.000000) translate(-285.000000, -380.000000) translate(185.000000, 350.000000)">
            <rect id="Rectangle" stroke="#000000" fill="#FFFFFF" x="0.5" y="0.5" width="199" height="59" rx="8"></rect>
            <text id="CONTRA" font-family="RobotoSlab-Regular, Roboto Slab" font-size="36" font-weight="normal" fill="#000000">
                <tspan x="25.328125" y="44">CONTRA</tspan>
            </text>
        </g>
        <g id="Group-Copy-7" transform="translate(85.000000, 480.000000) rotate(-90.000000) translate(-85.000000, -480.000000) translate(-15.000000, 450.000000)">
            <rect id="Rectangle" stroke="#000000" fill="#FFFFFF" x="0.5" y="0.5" width="199" height="59" rx="8"></rect>
            <text id="GOBLINS" font-family="RobotoSlab-Regular, Roboto Slab" font-size="36" font-weight="normal" fill="#000000">
                <tspan x="22.2607422" y="44">GOBLINS</tspan>
            </text>
        </g>
        <g id="Group-Copy-4" transform="translate(625.000000, 110.000000) rotate(-90.000000) translate(-625.000000, -110.000000) translate(515.000000, 80.000000)">
            <rect id="Rectangle" stroke="#000000" fill="#FFFFFF" x="0.5" y="0.5" width="219" height="59" rx="8"></rect>
            <text id="FALLOUT" font-family="RobotoSlab-Regular, Roboto Slab" font-size="36" font-weight="normal" fill="#000000">
                <tspan x="30.2216797" y="44">FALLOUT</tspan>
            </text>
        </g>
        <g id="Group-Copy-3" transform="translate(385.000000, 340.000000) rotate(-90.000000) translate(-385.000000, -340.000000) translate(325.000000, 310.000000)">
            <rect id="Rectangle" stroke="#000000" fill="#FFFFFF" x="0.5" y="0.5" width="119" height="59" rx="8"></rect>
            <text id="NOX" font-family="RobotoSlab-Regular, Roboto Slab" font-size="36" font-weight="normal" fill="#000000">
                <tspan x="21.6884766" y="44">NOX</tspan>
            </text>
        </g>
        <g id="Group-Copy-6" transform="translate(485.000000, 430.000000) rotate(-90.000000) translate(-485.000000, -430.000000) translate(415.000000, 400.000000)">
            <rect id="Rectangle" stroke="#000000" fill="#FFFFFF" x="0.5" y="0.5" width="139" height="59" rx="8"></rect>
            <text id="ZORK" font-family="RobotoSlab-Regular, Roboto Slab" font-size="36" font-weight="normal" fill="#000000">
                <tspan x="21.8623047" y="44">ZORK</tspan>
            </text>
        </g>
        <g id="Group-Copy-11" transform="translate(485.000000, 670.000000) rotate(-90.000000) translate(-485.000000, -670.000000) translate(415.000000, 640.000000)">
            <rect id="Rectangle" stroke="#000000" fill="#FFFFFF" x="0.5" y="0.5" width="139" height="59" rx="8"></rect>
            <text id="DUNE" font-family="RobotoSlab-Regular, Roboto Slab" font-size="36" font-weight="normal" fill="#000000">
                <tspan x="18.7949219" y="44">DUNE</tspan>
            </text>
        </g>
        <g id="Group-Copy-12" transform="translate(35.000000, 620.000000)">
            <rect id="Rectangle" stroke="#000000" fill="#FFFFFF" x="0.5" y="0.5" width="179" height="59" rx="8"></rect>
            <text id="SIMCITY" font-family="RobotoSlab-Regular, Roboto Slab" font-size="36" font-weight="normal" fill="#000000">
                <tspan x="15.1787109" y="44">SIMCITY</tspan>
            </text>
        </g>
        <g id="Group-Copy-13" transform="translate(255.000000, 680.000000)">
            <rect id="Rectangle" stroke="#000000" fill="#FFFFFF" x="0.5" y="0.5" width="159" height="59" rx="8"></rect>
            <text id="QUAKE" font-family="RobotoSlab-Regular, Roboto Slab" font-size="36" font-weight="normal" fill="#000000">
                <tspan x="16.8505859" y="44">QUAKE</tspan>
            </text>
        </g>
        <g id="Group-Copy-14" transform="translate(555.000000, 660.000000)">
            <rect id="Rectangle" stroke="#000000" fill="#FFFFFF" x="0.5" y="0.5" width="159" height="59" rx="8"></rect>
            <text id="MARIO" font-family="RobotoSlab-Regular, Roboto Slab" font-size="36" font-weight="normal" fill="#000000">
                <tspan x="19.3730469" y="44">MARIO</tspan>
            </text>
        </g>
        <g id="Group-Copy-9" transform="translate(585.000000, 540.000000) rotate(-90.000000) translate(-585.000000, -540.000000) translate(505.000000, 510.000000)">
            <rect id="Rectangle" stroke="#000000" fill="#FFFFFF" x="0.5" y="0.5" width="159" height="59" rx="8"></rect>
            <text id="SPYRO" font-family="RobotoSlab-Regular, Roboto Slab" font-size="36" font-weight="normal" fill="#000000">
                <tspan x="20.2783203" y="44">SPYRO</tspan>
            </text>
        </g>
        <g id="Group-Copy-10" transform="translate(685.000000, 540.000000) rotate(-90.000000) translate(-685.000000, -540.000000) translate(605.000000, 510.000000)">
            <rect id="Rectangle" stroke="#000000" fill="#FFFFFF" x="0.5" y="0.5" width="159" height="59" rx="8"></rect>
            <text id="BLOOD" font-family="RobotoSlab-Regular, Roboto Slab" font-size="36" font-weight="normal" fill="#000000">
                <tspan x="20.3398438" y="44">BLOOD</tspan>
            </text>
        </g>
        <g id="Group" transform="translate(225.000000, 70.000000) rotate(-90.000000) translate(-225.000000, -70.000000) translate(155.000000, 40.000000)">
            <rect id="Rectangle" stroke="#000000" fill="#FFFFFF" x="0.5" y="0.5" width="139" height="59" rx="8"></rect>
            <text id="CLAW" font-family="RobotoSlab-Regular, Roboto Slab" font-size="36" font-weight="normal" fill="#000000">
                <tspan x="19.0234375" y="44">CLAW</tspan>
            </text>
        </g>
        <path d="" id="Path" stroke="#979797"></path>
        <path d="M125,140 L125,180" id="Line" stroke="#000000" stroke-linecap="square"></path>
        <path d="M225,140 L225,180" id="Line-Copy" stroke="#000000" stroke-linecap="square"></path>
        <path d="M575,10 L575,50" id="Line-Copy-11" stroke="#000000" stroke-linecap="square" transform="translate(575.000000, 30.000000) rotate(-270.000000) translate(-575.000000, -30.000000) "></path>
        <path d="M485,480 L485,620" id="Line-Copy-11" stroke="#000000" stroke-linecap="square" transform="translate(485.000000, 550.000000) rotate(-270.000000) translate(-485.000000, -550.000000) "></path>
        <path d="M285,240 L285,280" id="Line-Copy-3" stroke="#000000" stroke-linecap="square"></path>
        <path d="M85,340 L85,380" id="Line-Copy-9" stroke="#000000" stroke-linecap="square"></path>
        <path d="M85,580 L85,620" id="Line-Copy-10" stroke="#000000" stroke-linecap="square"></path>
        <path d="M285,480 L285,520" id="Line-Copy-5" stroke="#000000" stroke-linecap="square"></path>
        <path d="M385,240 L385,280" id="Line-Copy-4" stroke="#000000" stroke-linecap="square"></path>
        <path d="M485,320 L485,360" id="Line-Copy-6" stroke="#000000" stroke-linecap="square"></path>
        <path d="M585,620 L585,660" id="Line-Copy-7" stroke="#000000" stroke-linecap="square"></path>
        <path d="M685,620 L685,660" id="Line-Copy-8" stroke="#000000" stroke-linecap="square"></path>
        <path d="M625,220 L625,260" id="Line-Copy-2" stroke="#000000" stroke-linecap="square"></path>
        <path d="M435,690 L435,730" id="Line-Copy-11" stroke="#000000" stroke-linecap="square" transform="translate(435.000000, 710.000000) rotate(-270.000000) translate(-435.000000, -710.000000) "></path>
        <path d="M235,290 L235,330" id="Line-Copy-11" stroke="#000000" stroke-linecap="square" transform="translate(235.000000, 310.000000) rotate(-270.000000) translate(-235.000000, -310.000000) "></path>
        <path d="M405,470 L445,529.5" id="Line-Copy-11" stroke="#000000" stroke-linecap="square" transform="translate(425.000000, 500.000000) rotate(-270.000000) translate(-425.000000, -500.000000) "></path>
        <path d="M445,570 L405,629.5" id="Line-Copy-11" stroke="#000000" stroke-linecap="square" transform="translate(425.000000, 600.000000) rotate(-270.000000) translate(-425.000000, -600.000000) "></path>
    </g>
</svg>