<svg xmlns="http://www.w3.org/2000/svg" viewBox="0 0 721 721.22"><defs><style>.a,.b{fill:none;}.a{stroke:#ccc;}.b{stroke:#000;}.c{isolation:isolate;}</style></defs><title>12x12_q104</title><path class="a" d="M550,370h60m-60,0h60m0,0v60m0-60v60m0,0H550m60,0H550m0,0V370m0,60V370" transform="translate(-9.5 -9.28)"/><path class="a" d="M670,370h60m-60,0h60m0,0v60m0-60v60m0,0H670m60,0H670m0,0V370m0,60V370" transform="translate(-9.5 -9.28)"/><path class="a" d="M610,430h60m-60,0h60m0,0v60m0-60v60m0,0H610m60,0H610m0,0V430m0,60V430" transform="translate(-9.5 -9.28)"/><path class="a" d="M430,490h60m-60,0h60m0,0v60m0-60v60m0,0H430m60,0H430m0,0V490m0,60V490" transform="translate(-9.5 -9.28)"/><path class="a" d="M490,490h60m-60,0h60m0,0v60m0-60v60m0,0H490m60,0H490m0,0V490m0,60V490" transform="translate(-9.5 -9.28)"/><path class="a" d="M610,490h60m-60,0h60m0,0v60m0-60v60m0,0H610m60,0H610m0,0V490m0,60V490" transform="translate(-9.5 -9.28)"/><path class="a" d="M430,550h60m-60,0h60m0,0v60m0-60v60m0,0H430m60,0H430m0,0V550m0,60V550" transform="translate(-9.5 -9.28)"/><path class="a" d="M490,550h60m-60,0h60m0,0v60m0-60v60m0,0H490m60,0H490m0,0V550m0,60V550" transform="translate(-9.5 -9.28)"/><path class="a" d="M610,550h60m-60,0h60m0,0v60m0-60v60m0,0H610m60,0H610m0,0V550m0,60V550" transform="translate(-9.5 -9.28)"/><path class="a" d="M430,670h60m-60,0h60m0,0v60m0-60v60m0,0H430m60,0H430m0,0V670m0,60V670" transform="translate(-9.5 -9.28)"/><path class="a" d="M490,670h60m-60,0h60m0,0v60m0-60v60m0,0H490m60,0H490m0,0V670m0,60V670" transform="translate(-9.5 -9.28)"/><path class="a" d="M610,670h60m-60,0h60m0,0v60m0-60v60m0,0H610m60,0H610m0,0V670m0,60V670" transform="translate(-9.5 -9.28)"/><path class="a" d="M70,370h60m-60,0h60m0,0v60m0-60v60m0,0H70m60,0H70m0,0V370m0,60V370" transform="translate(-9.5 -9.28)"/><path class="a" d="M130,370h60m-60,0h60m0,0v60m0-60v60m0,0H130m60,0H130m0,0V370m0,60V370" transform="translate(-9.5 -9.28)"/><path class="a" d="M190,370h60m-60,0h60m0,0v60m0-60v60m0,0H190m60,0H190m0,0V370m0,60V370" transform="translate(-9.5 -9.28)"/><path class="a" d="M70,430h60m-60,0h60m0,0v60m0-60v60m0,0H70m60,0H70m0,0V430m0,60V430" transform="translate(-9.5 -9.28)"/><path class="a" d="M70,490h60m-60,0h60m0,0v60m0-60v60m0,0H70m60,0H70m0,0V490m0,60V490" transform="translate(-9.5 -9.28)"/><path class="a" d="M130,490h60m-60,0h60m0,0v60m0-60v60m0,0H130m60,0H130m0,0V490m0,60V490" transform="translate(-9.5 -9.28)"/><path class="a" d="M190,490h60m-60,0h60m0,0v60m0-60v60m0,0H190m60,0H190m0,0V490m0,60V490" transform="translate(-9.5 -9.28)"/><path class="a" d="M250,490h60m-60,0h60m0,0v60m0-60v60m0,0H250m60,0H250m0,0V490m0,60V490" transform="translate(-9.5 -9.28)"/><path class="a" d="M310,490h60m-60,0h60m0,0v60m0-60v60m0,0H310m60,0H310m0,0V490m0,60V490" transform="translate(-9.5 -9.28)"/><path class="a" d="M70,550h60m-60,0h60m0,0v60m0-60v60m0,0H70m60,0H70m0,0V550m0,60V550" transform="translate(-9.5 -9.28)"/><path class="a" d="M70,610h60m-60,0h60m0,0v60m0-60v60m0,0H70m60,0H70m0,0V610m0,60V610" transform="translate(-9.5 -9.28)"/><path class="a" d="M130,610h60m-60,0h60m0,0v60m0-60v60m0,0H130m60,0H130m0,0V610m0,60V610" transform="translate(-9.5 -9.28)"/><path class="a" d="M190,610h60m-60,0h60m0,0v60m0-60v60m0,0H190m60,0H190m0,0V610m0,60V610" transform="translate(-9.5 -9.28)"/><path class="a" d="M250,610h60m-60,0h60m0,0v60m0-60v60m0,0H250m60,0H250m0,0V610m0,60V610" transform="translate(-9.5 -9.28)"/><path class="a" d="M310,610h60m-60,0h60m0,0v60m0-60v60m0,0H310m60,0H310m0,0V610m0,60V610" transform="translate(-9.5 -9.28)"/><path class="a" d="M370,610h60m-60,0h60m0,0v60m0-60v60m0,0H370m60,0H370m0,0V610m0,60V610" transform="translate(-9.5 -9.28)"/><path class="a" d="M370,310h60m-60,0h60m0,0v60m0-60v60m0,0H370m60,0H370m0,0V310m0,60V310" transform="translate(-9.5 -9.28)"/><path class="a" d="M310,370h60m-60,0h60m0,0v60m0-60v60m0,0H310m60,0H310m0,0V370m0,60V370" transform="translate(-9.5 -9.28)"/><path class="a" d="M430,370h60m-60,0h60m0,0v60m0-60v60m0,0H430m60,0H430m0,0V370m0,60V370" transform="translate(-9.5 -9.28)"/><path class="a" d="M310,190h60m-60,0h60m0,0v60m0-60v60m0,0H310m60,0H310m0,0V190m0,60V190" transform="translate(-9.5 -9.28)"/><path class="a" d="M430,190h60m-60,0h60m0,0v60m0-60v60m0,0H430m60,0H430m0,0V190m0,60V190" transform="translate(-9.5 -9.28)"/><path class="a" d="M490,190h60m-60,0h60m0,0v60m0-60v60m0,0H490m60,0H490m0,0V190m0,60V190" transform="translate(-9.5 -9.28)"/><path class="a" d="M550,190h60m-60,0h60m0,0v60m0-60v60m0,0H550m60,0H550m0,0V190m0,60V190" transform="translate(-9.5 -9.28)"/><path class="a" d="M310,250h60m-60,0h60m0,0v60m0-60v60m0,0H310m60,0H310m0,0V250m0,60V250" transform="translate(-9.5 -9.28)"/><path class="a" d="M430,250h60m-60,0h60m0,0v60m0-60v60m0,0H430m60,0H430m0,0V250m0,60V250" transform="translate(-9.5 -9.28)"/><path class="a" d="M550,250h60m-60,0h60m0,0v60m0-60v60m0,0H550m60,0H550m0,0V250m0,60V250" transform="translate(-9.5 -9.28)"/><path class="a" d="M70,190h60m-60,0h60m0,0v60m0-60v60m0,0H70m60,0H70m0,0V190m0,60V190" transform="translate(-9.5 -9.28)"/><path class="a" d="M190,190h60m-60,0h60m0,0v60m0-60v60m0,0H190m60,0H190m0,0V190m0,60V190" transform="translate(-9.5 -9.28)"/><path class="a" d="M10,250H70m-60,0H70m0,0v60m0-60v60m0,0H10m60,0H10m0,0V250m0,60V250" transform="translate(-9.5 -9.28)"/><path class="a" d="M70,250h60m-60,0h60m0,0v60m0-60v60m0,0H70m60,0H70m0,0V250m0,60V250" transform="translate(-9.5 -9.28)"/><path class="a" d="M130,250h60m-60,0h60m0,0v60m0-60v60m0,0H130m60,0H130m0,0V250m0,60V250" transform="translate(-9.5 -9.28)"/><path class="a" d="M190,250h60m-60,0h60m0,0v60m0-60v60m0,0H190m60,0H190m0,0V250m0,60V250" transform="translate(-9.5 -9.28)"/><path class="a" d="M670,70h60m-60,0h60m0,0v60m0-60v60m0,0H670m60,0H670m0,0V70m0,60V70" transform="translate(-9.5 -9.28)"/><path class="a" d="M670,130h60m-60,0h60m0,0v60m0-60v60m0,0H670m60,0H670m0,0V130m0,60V130" transform="translate(-9.5 -9.28)"/><path class="a" d="M670,190h60m-60,0h60m0,0v60m0-60v60m0,0H670m60,0H670m0,0V190m0,60V190" transform="translate(-9.5 -9.28)"/><path class="a" d="M670,250h60m-60,0h60m0,0v60m0-60v60m0,0H670m60,0H670m0,0V250m0,60V250" transform="translate(-9.5 -9.28)"/><path class="a" d="M250,70h60m-60,0h60m0,0v60m0-60v60m0,0H250m60,0H250m0,0V70m0,60V70" transform="translate(-9.5 -9.28)"/><path class="a" d="M190,9.78h60m-60,0h60m0,0v60m0-60v60m0,0H190m60,0H190m0,0v-60m0,60v-60" transform="translate(-9.5 -9.28)"/><path class="a" d="M190,70h60m-60,0h60m0,0v60m0-60v60m0,0H190m60,0H190m0,0V70m0,60V70" transform="translate(-9.5 -9.28)"/><path class="a" d="M310,70h60m-60,0h60m0,0v60m0-60v60m0,0H310m60,0H310m0,0V70m0,60V70" transform="translate(-9.5 -9.28)"/><path class="a" d="M370,70h60m-60,0h60m0,0v60m0-60v60m0,0H370m60,0H370m0,0V70m0,60V70" transform="translate(-9.5 -9.28)"/><path class="a" d="M430,70h60m-60,0h60m0,0v60m0-60v60m0,0H430m60,0H430m0,0V70m0,60V70" transform="translate(-9.5 -9.28)"/><path class="a" d="M490,70h60m-60,0h60m0,0v60m0-60v60m0,0H490m60,0H490m0,0V70m0,60V70" transform="translate(-9.5 -9.28)"/><path class="a" d="M550,70h60m-60,0h60m0,0v60m0-60v60m0,0H550m60,0H550m0,0V70m0,60V70" transform="translate(-9.5 -9.28)"/><path class="a" d="M70,9.78h60m-60,0h60m0,0v60m0-60v60m0,0H70m60,0H70m0,0v-60m0,60v-60" transform="translate(-9.5 -9.28)"/><path class="a" d="M70,70h60M70,70h60m0,0v60m0-60v60m0,0H70m60,0H70m0,0V70m0,60V70" transform="translate(-9.5 -9.28)"/><path class="b" d="M10,9.78H70m-60,0H70m0,0v60m0-60v60m0,0H10m60,0H10m0,0v-60m0,60v-60" transform="translate(-9.5 -9.28)"/><path class="b" d="M130,9.78h60m-60,0h60m0,0v60m0-60v60m0,0H130m60,0H130m0,0v-60m0,60v-60" transform="translate(-9.5 -9.28)"/><path class="b" d="M310,9.78h60m-60,0h60m0,0v60m0-60v60m0,0H310m60,0H310m0,0v-60m0,60v-60" transform="translate(-9.5 -9.28)"/><path class="b" d="M250,9.78h60m-60,0h60m0,0v60m0-60v60m0,0H250m60,0H250m0,0v-60m0,60v-60" transform="translate(-9.5 -9.28)"/><path class="b" d="M370,9.78h60m-60,0h60m0,0v60m0-60v60m0,0H370m60,0H370m0,0v-60m0,60v-60" transform="translate(-9.5 -9.28)"/><path class="b" d="M430,9.78h60m-60,0h60m0,0v60m0-60v60m0,0H430m60,0H430m0,0v-60m0,60v-60" transform="translate(-9.5 -9.28)"/><path class="b" d="M490,9.78h60m-60,0h60m0,0v60m0-60v60m0,0H490m60,0H490m0,0v-60m0,60v-60" transform="translate(-9.5 -9.28)"/><path class="b" d="M550,9.78h60m-60,0h60m0,0v60m0-60v60m0,0H550m60,0H550m0,0v-60m0,60v-60" transform="translate(-9.5 -9.28)"/><path class="b" d="M610,9.78h60m-60,0h60m0,0v60m0-60v60m0,0H610m60,0H610m0,0v-60m0,60v-60" transform="translate(-9.5 -9.28)"/><path class="b" d="M670,9.78h60m-60,0h60m0,0v60m0-60v60m0,0H670m60,0H670m0,0v-60m0,60v-60" transform="translate(-9.5 -9.28)"/><path class="b" d="M10,70H70M10,70H70m0,0v60m0-60v60m0,0H10m60,0H10m0,0V70m0,60V70" transform="translate(-9.5 -9.28)"/><path class="b" d="M130,70h60m-60,0h60m0,0v60m0-60v60m0,0H130m60,0H130m0,0V70m0,60V70" transform="translate(-9.5 -9.28)"/><path class="b" d="M610,70h60m-60,0h60m0,0v60m0-60v60m0,0H610m60,0H610m0,0V70m0,60V70" transform="translate(-9.5 -9.28)"/><path class="b" d="M10,130H70m-60,0H70m0,0v60m0-60v60m0,0H10m60,0H10m0,0V130m0,60V130" transform="translate(-9.5 -9.28)"/><path class="b" d="M70,130h60m-60,0h60m0,0v60m0-60v60m0,0H70m60,0H70m0,0V130m0,60V130" transform="translate(-9.5 -9.28)"/><path class="b" d="M130,130h60m-60,0h60m0,0v60m0-60v60m0,0H130m60,0H130m0,0V130m0,60V130" transform="translate(-9.5 -9.28)"/><path class="b" d="M190,130h60m-60,0h60m0,0v60m0-60v60m0,0H190m60,0H190m0,0V130m0,60V130" transform="translate(-9.5 -9.28)"/><path class="b" d="M250,130h60m-60,0h60m0,0v60m0-60v60m0,0H250m60,0H250m0,0V130m0,60V130" transform="translate(-9.5 -9.28)"/><path class="b" d="M310,130h60m-60,0h60m0,0v60m0-60v60m0,0H310m60,0H310m0,0V130m0,60V130" transform="translate(-9.5 -9.28)"/><path class="b" d="M370,130h60m-60,0h60m0,0v60m0-60v60m0,0H370m60,0H370m0,0V130m0,60V130" transform="translate(-9.5 -9.28)"/><path class="b" d="M430,130h60m-60,0h60m0,0v60m0-60v60m0,0H430m60,0H430m0,0V130m0,60V130" transform="translate(-9.5 -9.28)"/><path class="b" d="M490,130h60m-60,0h60m0,0v60m0-60v60m0,0H490m60,0H490m0,0V130m0,60V130" transform="translate(-9.5 -9.28)"/><path class="b" d="M550,130h60m-60,0h60m0,0v60m0-60v60m0,0H550m60,0H550m0,0V130m0,60V130" transform="translate(-9.5 -9.28)"/><path class="b" d="M610,130h60m-60,0h60m0,0v60m0-60v60m0,0H610m60,0H610m0,0V130m0,60V130" transform="translate(-9.5 -9.28)"/><path class="b" d="M10,190H70m-60,0H70m0,0v60m0-60v60m0,0H10m60,0H10m0,0V190m0,60V190" transform="translate(-9.5 -9.28)"/><path class="b" d="M130,190h60m-60,0h60m0,0v60m0-60v60m0,0H130m60,0H130m0,0V190m0,60V190" transform="translate(-9.5 -9.28)"/><path class="b" d="M250,190h60m-60,0h60m0,0v60m0-60v60m0,0H250m60,0H250m0,0V190m0,60V190" transform="translate(-9.5 -9.28)"/><path class="b" d="M370,190h60m-60,0h60m0,0v60m0-60v60m0,0H370m60,0H370m0,0V190m0,60V190" transform="translate(-9.5 -9.28)"/><path class="b" d="M610,190h60m-60,0h60m0,0v60m0-60v60m0,0H610m60,0H610m0,0V190m0,60V190" transform="translate(-9.5 -9.28)"/><path class="b" d="M250,250h60m-60,0h60m0,0v60m0-60v60m0,0H250m60,0H250m0,0V250m0,60V250" transform="translate(-9.5 -9.28)"/><path class="b" d="M370,250h60m-60,0h60m0,0v60m0-60v60m0,0H370m60,0H370m0,0V250m0,60V250" transform="translate(-9.5 -9.28)"/><path class="b" d="M490,250h60m-60,0h60m0,0v60m0-60v60m0,0H490m60,0H490m0,0V250m0,60V250" transform="translate(-9.5 -9.28)"/><path class="b" d="M610,250h60m-60,0h60m0,0v60m0-60v60m0,0H610m60,0H610m0,0V250m0,60V250" transform="translate(-9.5 -9.28)"/><path class="b" d="M10,310H70m-60,0H70m0,0v60m0-60v60m0,0H10m60,0H10m0,0V310m0,60V310" transform="translate(-9.5 -9.28)"/><path class="b" d="M70,310h60m-60,0h60m0,0v60m0-60v60m0,0H70m60,0H70m0,0V310m0,60V310" transform="translate(-9.5 -9.28)"/><path class="b" d="M130,310h60m-60,0h60m0,0v60m0-60v60m0,0H130m60,0H130m0,0V310m0,60V310" transform="translate(-9.5 -9.28)"/><path class="b" d="M190,310h60m-60,0h60m0,0v60m0-60v60m0,0H190m60,0H190m0,0V310m0,60V310" transform="translate(-9.5 -9.28)"/><path class="b" d="M250,310h60m-60,0h60m0,0v60m0-60v60m0,0H250m60,0H250m0,0V310m0,60V310" transform="translate(-9.5 -9.28)"/><path class="b" d="M310,310h60m-60,0h60m0,0v60m0-60v60m0,0H310m60,0H310m0,0V310m0,60V310" transform="translate(-9.5 -9.28)"/><path class="b" d="M430,310h60m-60,0h60m0,0v60m0-60v60m0,0H430m60,0H430m0,0V310m0,60V310" transform="translate(-9.5 -9.28)"/><path class="b" d="M490,310h60m-60,0h60m0,0v60m0-60v60m0,0H490m60,0H490m0,0V310m0,60V310" transform="translate(-9.5 -9.28)"/><path class="b" d="M550,310h60m-60,0h60m0,0v60m0-60v60m0,0H550m60,0H550m0,0V310m0,60V310" transform="translate(-9.5 -9.28)"/><path class="b" d="M610,310h60m-60,0h60m0,0v60m0-60v60m0,0H610m60,0H610m0,0V310m0,60V310" transform="translate(-9.5 -9.28)"/><path class="b" d="M670,310h60m-60,0h60m0,0v60m0-60v60m0,0H670m60,0H670m0,0V310m0,60V310" transform="translate(-9.5 -9.28)"/><path class="b" d="M10,370H70m-60,0H70m0,0v60m0-60v60m0,0H10m60,0H10m0,0V370m0,60V370" transform="translate(-9.5 -9.28)"/><path class="b" d="M250,370h60m-60,0h60m0,0v60m0-60v60m0,0H250m60,0H250m0,0V370m0,60V370" transform="translate(-9.5 -9.28)"/><path class="b" d="M370,370h60m-60,0h60m0,0v60m0-60v60m0,0H370m60,0H370m0,0V370m0,60V370" transform="translate(-9.5 -9.28)"/><path class="b" d="M490,370h60m-60,0h60m0,0v60m0-60v60m0,0H490m60,0H490m0,0V370m0,60V370" transform="translate(-9.5 -9.28)"/><path class="b" d="M610,370h60m-60,0h60m0,0v60m0-60v60m0,0H610m60,0H610m0,0V370m0,60V370" transform="translate(-9.5 -9.28)"/><path class="b" d="M10,430H70m-60,0H70m0,0v60m0-60v60m0,0H10m60,0H10m0,0V430m0,60V430" transform="translate(-9.5 -9.28)"/><path class="b" d="M130,430h60m-60,0h60m0,0v60m0-60v60m0,0H130m60,0H130m0,0V430m0,60V430" transform="translate(-9.5 -9.28)"/><path class="b" d="M190,430h60m-60,0h60m0,0v60m0-60v60m0,0H190m60,0H190m0,0V430m0,60V430" transform="translate(-9.5 -9.28)"/><path class="b" d="M250,430h60m-60,0h60m0,0v60m0-60v60m0,0H250m60,0H250m0,0V430m0,60V430" transform="translate(-9.5 -9.28)"/><path class="b" d="M310,430h60m-60,0h60m0,0v60m0-60v60m0,0H310m60,0H310m0,0V430m0,60V430" transform="translate(-9.5 -9.28)"/><path class="b" d="M370,430h60m-60,0h60m0,0v60m0-60v60m0,0H370m60,0H370m0,0V430m0,60V430" transform="translate(-9.5 -9.28)"/><path class="b" d="M430,430h60m-60,0h60m0,0v60m0-60v60m0,0H430m60,0H430m0,0V430m0,60V430" transform="translate(-9.5 -9.28)"/><path class="b" d="M490,430h60m-60,0h60m0,0v60m0-60v60m0,0H490m60,0H490m0,0V430m0,60V430" transform="translate(-9.5 -9.28)"/><path class="b" d="M550,430h60m-60,0h60m0,0v60m0-60v60m0,0H550m60,0H550m0,0V430m0,60V430" transform="translate(-9.5 -9.28)"/><path class="b" d="M670,430h60m-60,0h60m0,0v60m0-60v60m0,0H670m60,0H670m0,0V430m0,60V430" transform="translate(-9.5 -9.28)"/><path class="b" d="M10,490H70m-60,0H70m0,0v60m0-60v60m0,0H10m60,0H10m0,0V490m0,60V490" transform="translate(-9.5 -9.28)"/><path class="b" d="M370,490h60m-60,0h60m0,0v60m0-60v60m0,0H370m60,0H370m0,0V490m0,60V490" transform="translate(-9.5 -9.28)"/><path class="b" d="M550,490h60m-60,0h60m0,0v60m0-60v60m0,0H550m60,0H550m0,0V490m0,60V490" transform="translate(-9.5 -9.28)"/><path class="b" d="M670,490h60m-60,0h60m0,0v60m0-60v60m0,0H670m60,0H670m0,0V490m0,60V490" transform="translate(-9.5 -9.28)"/><path class="b" d="M10,550H70m-60,0H70m0,0v60m0-60v60m0,0H10m60,0H10m0,0V550m0,60V550" transform="translate(-9.5 -9.28)"/><path class="b" d="M130,550h60m-60,0h60m0,0v60m0-60v60m0,0H130m60,0H130m0,0V550m0,60V550" transform="translate(-9.5 -9.28)"/><path class="b" d="M190,550h60m-60,0h60m0,0v60m0-60v60m0,0H190m60,0H190m0,0V550m0,60V550" transform="translate(-9.5 -9.28)"/><path class="b" d="M250,550h60m-60,0h60m0,0v60m0-60v60m0,0H250m60,0H250m0,0V550m0,60V550" transform="translate(-9.5 -9.28)"/><path class="b" d="M310,550h60m-60,0h60m0,0v60m0-60v60m0,0H310m60,0H310m0,0V550m0,60V550" transform="translate(-9.5 -9.28)"/><path class="b" d="M370,550h60m-60,0h60m0,0v60m0-60v60m0,0H370m60,0H370m0,0V550m0,60V550" transform="translate(-9.5 -9.28)"/><path class="b" d="M550,550h60m-60,0h60m0,0v60m0-60v60m0,0H550m60,0H550m0,0V550m0,60V550" transform="translate(-9.5 -9.28)"/><path class="b" d="M670,550h60m-60,0h60m0,0v60m0-60v60m0,0H670m60,0H670m0,0V550m0,60V550" transform="translate(-9.5 -9.28)"/><path class="b" d="M10,610H70m-60,0H70m0,0v60m0-60v60m0,0H10m60,0H10m0,0V610m0,60V610" transform="translate(-9.5 -9.28)"/><path class="b" d="M430,610h60m-60,0h60m0,0v60m0-60v60m0,0H430m60,0H430m0,0V610m0,60V610" transform="translate(-9.5 -9.28)"/><path class="b" d="M490,610h60m-60,0h60m0,0v60m0-60v60m0,0H490m60,0H490m0,0V610m0,60V610" transform="translate(-9.5 -9.28)"/><path class="b" d="M550,610h60m-60,0h60m0,0v60m0-60v60m0,0H550m60,0H550m0,0V610m0,60V610" transform="translate(-9.5 -9.28)"/><path class="b" d="M610,610h60m-60,0h60m0,0v60m0-60v60m0,0H610m60,0H610m0,0V610m0,60V610" transform="translate(-9.5 -9.28)"/><path class="b" d="M670,610h60m-60,0h60m0,0v60m0-60v60m0,0H670m60,0H670m0,0V610m0,60V610" transform="translate(-9.5 -9.28)"/><path class="b" d="M10,670H70m-60,0H70m0,0v60m0-60v60m0,0H10m60,0H10m0,0V670m0,60V670" transform="translate(-9.5 -9.28)"/><path class="b" d="M70,670h60m-60,0h60m0,0v60m0-60v60m0,0H70m60,0H70m0,0V670m0,60V670" transform="translate(-9.5 -9.28)"/><path class="b" d="M130,670h60m-60,0h60m0,0v60m0-60v60m0,0H130m60,0H130m0,0V670m0,60V670" transform="translate(-9.5 -9.28)"/><path class="b" d="M190,670h60m-60,0h60m0,0v60m0-60v60m0,0H190m60,0H190m0,0V670m0,60V670" transform="translate(-9.5 -9.28)"/><path class="b" d="M250,670h60m-60,0h60m0,0v60m0-60v60m0,0H250m60,0H250m0,0V670m0,60V670" transform="translate(-9.5 -9.28)"/><path class="b" d="M310,670h60m-60,0h60m0,0v60m0-60v60m0,0H310m60,0H310m0,0V670m0,60V670" transform="translate(-9.5 -9.28)"/><path class="b" d="M370,670h60m-60,0h60m0,0v60m0-60v60m0,0H370m60,0H370m0,0V670m0,60V670" transform="translate(-9.5 -9.28)"/><path class="b" d="M550,670h60m-60,0h60m0,0v60m0-60v60m0,0H550m60,0H550m0,0V670m0,60V670" transform="translate(-9.5 -9.28)"/><path class="b" d="M670,670h60m-60,0h60m0,0v60m0-60v60m0,0H670m60,0H670m0,0V670m0,60V670" transform="translate(-9.5 -9.28)"/><g class="c"><path d="M49.52,32.27l-.09,0L41.15,52.76h-2.3L30.57,32.27l-.09,0,.35,10.35v7.42l2.87.49v2.21H24.5V50.55l2.87-.49V29.9l-2.87-.5V27.17h7.3L40,48h.1l8.14-20.8h7.31V29.4l-2.86.5V50.06l2.86.49v2.21H46.32V50.55l2.86-.49V42.64Z" transform="translate(-9.5 -9.28)"/></g><g class="c"><path d="M37.31,89.14l-2.76.33,5.36,10.44,5.36-10.44-2.74-.33V86.91h8.79v2.23l-2.16.33-7.6,14v6.29l2.87.5v2.21H35.25v-2.21l2.87-.5v-6.55L30.67,89.47l-2.15-.33V86.91h8.79Z" transform="translate(-9.5 -9.28)"/></g><g class="c"><path d="M48.82,154.46H46.2l-.65-3.65a6.25,6.25,0,0,0-2.11-1.11,9.78,9.78,0,0,0-3.06-.44,6.71,6.71,0,0,0-4.24,1.17,3.72,3.72,0,0,0-1.47,3,3.37,3.37,0,0,0,1.5,2.79,14.5,14.5,0,0,0,4.86,2,13.71,13.71,0,0,1,6.14,3,6.33,6.33,0,0,1,2.1,4.83,5.92,5.92,0,0,1-2.52,5,10.78,10.78,0,0,1-6.6,1.88,13.32,13.32,0,0,1-5.25-1,10.51,10.51,0,0,1-3.73-2.53v-4.76h2.6l.67,3.67a8.23,8.23,0,0,0,2.39,1.35,9.14,9.14,0,0,0,3.32.53,6.87,6.87,0,0,0,4.14-1.11,3.52,3.52,0,0,0,1.52-3,3.83,3.83,0,0,0-1.32-3,11.09,11.09,0,0,0-4.66-2,15.56,15.56,0,0,1-6.34-2.85,5.86,5.86,0,0,1-2.29-4.73,6.11,6.11,0,0,1,2.55-5,10.45,10.45,0,0,1,6.63-2,12.46,12.46,0,0,1,4.89.92,11.26,11.26,0,0,1,3.55,2.24Z" transform="translate(-9.5 -9.28)"/></g><g class="c"><path d="M50.63,206.91v5.66h-3l-.26-2.94H41.74v20.16l2.87.5v2.21h-9.2v-2.21l2.87-.5V209.63h-5.7l-.24,2.94h-3v-5.66Z" transform="translate(-9.5 -9.28)"/></g><g class="c"><path d="M169.48,35H167l-.65-3.62a6.65,6.65,0,0,0-2.07-1.36,7.47,7.47,0,0,0-2.94-.52,7.15,7.15,0,0,0-6.13,2.89,12,12,0,0,0-2.15,7.34v.4a12.25,12.25,0,0,0,2.1,7.36A6.78,6.78,0,0,0,161,50.43a8.84,8.84,0,0,0,3.16-.55,6.16,6.16,0,0,0,2.2-1.33l.65-3.63h2.44v4.56A9.53,9.53,0,0,1,166.16,52,11.33,11.33,0,0,1,161,53.13a10.34,10.34,0,0,1-8.19-3.69,13.62,13.62,0,0,1-3.2-9.28v-.37a13.87,13.87,0,0,1,3.14-9.31A10.35,10.35,0,0,1,161,26.8a11.08,11.08,0,0,1,5.13,1.14,9.65,9.65,0,0,1,3.32,2.54Z" transform="translate(-9.5 -9.28)"/></g><g class="c"><path d="M150.71,112.5v-2.21l2.87-.5V89.63l-2.87-.49V86.91h9.19v2.23l-2.86.49v20.16h8.89l.27-2.93h3v5.64Z" transform="translate(-9.5 -9.28)"/></g><g class="c"><path d="M147.78,170.29l1.9-.27,8.95-23.11h3L170.39,170l1.88.27v2.21h-7.35v-2.21l1.94-.34-1.69-4.71H154.92L153.18,170l1.93.34v2.21h-7.33Zm8.21-7.95h8.12l-4-11H160Z" transform="translate(-9.5 -9.28)"/></g><g class="c"><path d="M151.81,209.14l-2.6.4,3.28,14.1.48,3.2.1,0,.69-3.22,4.71-16.73h3.06l4.73,16.73.7,3.29h.11l.51-3.29,3.21-14.1-2.62-.4v-2.23h8.14v2.23l-2.05.26-5.58,23.1h-3.09l-5.06-17.75-.46-2.31H160l-.43,2.31-5.14,17.75h-3.07l-5.58-23.1-2.05-.26v-2.23h8.12Z" transform="translate(-9.5 -9.28)"/></g><g class="c"><path d="M110.63,146.91v5.66h-2.95l-.26-2.94h-5.68v20.16l2.87.5v2.21h-9.2v-2.21l2.87-.5V149.63h-5.7l-.24,2.94h-3v-5.66Z" transform="translate(-9.5 -9.28)"/></g><g class="c"><path d="M220.3,146.92q4.19,0,6.41,1.86A6.45,6.45,0,0,1,229,154a5.52,5.52,0,0,1-1,3.31,6.94,6.94,0,0,1-3,2.27,5.19,5.19,0,0,1,3,2.23,7.27,7.27,0,0,1,.93,3.81v2.06a3.88,3.88,0,0,0,.3,1.74,1.26,1.26,0,0,0,1,.67l.84.1v2.27h-1.86a3.07,3.07,0,0,1-2.87-1.41,6.42,6.42,0,0,1-.86-3.41v-2a4.63,4.63,0,0,0-1.21-3.36,4.31,4.31,0,0,0-3.25-1.27h-5.56v8.72l2.87.5v2.21h-9.19v-2.21l2.86-.5V149.63l-2.86-.49v-2.22H220.3Zm-4.91,11.43H220a6.52,6.52,0,0,0,4.22-1.11,4,4,0,0,0,1.31-3.23,4.16,4.16,0,0,0-1.26-3.2,5.57,5.57,0,0,0-3.92-1.18h-4.91Z" transform="translate(-9.5 -9.28)"/></g><g class="c"><path d="M289.48,154.76H287l-.65-3.62a6.63,6.63,0,0,0-2.07-1.35,7.46,7.46,0,0,0-2.94-.53,7.18,7.18,0,0,0-6.13,2.89,12,12,0,0,0-2.15,7.34v.41a12.24,12.24,0,0,0,2.1,7.35,6.78,6.78,0,0,0,5.83,2.91,8.84,8.84,0,0,0,3.16-.54,6.16,6.16,0,0,0,2.2-1.34l.65-3.62h2.44v4.55a9.41,9.41,0,0,1-3.32,2.54,11.2,11.2,0,0,1-5.13,1.12,10.34,10.34,0,0,1-8.19-3.69,13.64,13.64,0,0,1-3.2-9.28v-.37a13.86,13.86,0,0,1,3.14-9.31,10.32,10.32,0,0,1,8.25-3.68,11.2,11.2,0,0,1,5.13,1.13,9.77,9.77,0,0,1,3.32,2.54Z" transform="translate(-9.5 -9.28)"/></g><g class="c"><path d="M351.35,159.9a13.64,13.64,0,0,1-3.21,9.28,10.5,10.5,0,0,1-8.31,3.69,10,10,0,0,1-8.05-3.69,14,14,0,0,1-3.09-9.28v-.37a14,14,0,0,1,3.09-9.28,10,10,0,0,1,8.05-3.71,10.46,10.46,0,0,1,8.31,3.71,13.66,13.66,0,0,1,3.21,9.28Zm-3.47-.41a11.76,11.76,0,0,0-2.13-7.28,7,7,0,0,0-5.92-2.83,6.59,6.59,0,0,0-5.65,2.83,12.24,12.24,0,0,0-2,7.28v.41a12.26,12.26,0,0,0,2,7.32,6.58,6.58,0,0,0,5.65,2.82,7,7,0,0,0,5.94-2.81,11.89,11.89,0,0,0,2.11-7.33Z" transform="translate(-9.5 -9.28)"/></g><g class="c"><path d="M412.6,146.91v2.23l-2.86.49V172.5h-3.46L394,152.74l-.1,0v17l2.86.5v2.21h-9.19v-2.21l2.86-.5V149.63l-2.86-.49v-2.23h6.33l12.3,19.74.11,0v-17l-2.87-.49v-2.23h9.19Z" transform="translate(-9.5 -9.28)"/></g><g class="c"><path d="M470.63,146.91v5.66h-2.95l-.26-2.94h-5.68v20.16l2.87.5v2.21h-9.2v-2.21l2.87-.5V149.63h-5.7l-.24,2.94h-3v-5.66Z" transform="translate(-9.5 -9.28)"/></g><g class="c"><path d="M520.3,146.92q4.19,0,6.41,1.86A6.45,6.45,0,0,1,529,154a5.52,5.52,0,0,1-1,3.31,6.94,6.94,0,0,1-3,2.27,5.19,5.19,0,0,1,3,2.23,7.27,7.27,0,0,1,.93,3.81v2.06a3.88,3.88,0,0,0,.3,1.74,1.26,1.26,0,0,0,1,.67l.84.1v2.27h-1.86a3.07,3.07,0,0,1-2.87-1.41,6.42,6.42,0,0,1-.86-3.41v-2a4.63,4.63,0,0,0-1.21-3.36,4.31,4.31,0,0,0-3.25-1.27h-5.56v8.72l2.87.5v2.21h-9.19v-2.21l2.86-.5V149.63l-2.86-.49v-2.22H520.3Zm-4.91,11.43H520a6.52,6.52,0,0,0,4.22-1.11,4,4,0,0,0,1.31-3.23,4.16,4.16,0,0,0-1.26-3.2,5.57,5.57,0,0,0-3.92-1.18h-4.91Z" transform="translate(-9.5 -9.28)"/></g><g class="c"><path d="M591.35,159.9a13.64,13.64,0,0,1-3.21,9.28,10.5,10.5,0,0,1-8.31,3.69,10,10,0,0,1-8.05-3.69,14,14,0,0,1-3.09-9.28v-.37a14,14,0,0,1,3.09-9.28,10,10,0,0,1,8.05-3.71,10.46,10.46,0,0,1,8.31,3.71,13.66,13.66,0,0,1,3.21,9.28Zm-3.47-.41a11.76,11.76,0,0,0-2.13-7.28,7,7,0,0,0-5.92-2.83,6.59,6.59,0,0,0-5.65,2.83,12.24,12.24,0,0,0-2,7.28v.41a12.26,12.26,0,0,0,2,7.32,6.58,6.58,0,0,0,5.65,2.82,7,7,0,0,0,5.94-2.81,11.89,11.89,0,0,0,2.11-7.33Z" transform="translate(-9.5 -9.28)"/></g><g class="c"><path d="M630.71,172.5v-2.21l2.87-.5V149.63l-2.87-.49v-2.23h9.19v2.23l-2.86.49v20.16h8.89l.27-2.93h2.95v5.64Z" transform="translate(-9.5 -9.28)"/></g><g class="c"><path d="M627.78,110.29l1.9-.27,9-23.11h3L650.39,110l1.88.27v2.21h-7.35v-2.21l1.94-.34-1.69-4.71H634.92L633.18,110l1.93.34v2.21h-7.33Zm8.21-8h8.12l-4-11H640Z" transform="translate(-9.5 -9.28)"/></g><g class="c"><path d="M271.81,29.4l-2.6.41,3.28,14.09.48,3.2.1,0,.69-3.22,4.71-16.73h3.06l4.73,16.73.7,3.29h.11l.51-3.29,3.21-14.09-2.62-.41V27.17h8.14V29.4l-2.05.27-5.58,23.09h-3.09L280.53,35l-.46-2.3H280l-.43,2.3-5.14,17.75h-3.07l-5.58-23.09-2.05-.27V27.17h8.12Z" transform="translate(-9.5 -9.28)"/></g><g class="c"><path d="M327.78,50.55l1.9-.26,8.95-23.12h3l8.79,23.12,1.88.26v2.21h-7.35V50.55l1.94-.33-1.69-4.72H334.92l-1.74,4.72,1.93.33v2.21h-7.33ZM336,42.6h8.12l-4-11H340Z" transform="translate(-9.5 -9.28)"/></g><g class="c"><path d="M400.3,27.19q4.18,0,6.41,1.85A6.47,6.47,0,0,1,409,34.31a5.51,5.51,0,0,1-1,3.3,6.87,6.87,0,0,1-3,2.27,5.23,5.23,0,0,1,3,2.23,7.28,7.28,0,0,1,.93,3.82v2a3.82,3.82,0,0,0,.3,1.74,1.24,1.24,0,0,0,1,.67l.84.11v2.26h-1.86a3.06,3.06,0,0,1-2.87-1.4,6.47,6.47,0,0,1-.86-3.41V46a4.67,4.67,0,0,0-1.21-3.36A4.3,4.3,0,0,0,401,41.34h-5.56v8.72l2.87.49v2.21h-9.19V50.55l2.86-.49V29.9l-2.86-.5V27.19H400.3Zm-4.91,11.42H400a6.58,6.58,0,0,0,4.22-1.1,4,4,0,0,0,1.31-3.24,4.17,4.17,0,0,0-1.26-3.2,5.62,5.62,0,0,0-3.92-1.17h-4.91Z" transform="translate(-9.5 -9.28)"/></g><g class="c"><path d="M469.48,35H467l-.65-3.62a6.65,6.65,0,0,0-2.07-1.36,7.47,7.47,0,0,0-2.94-.52,7.15,7.15,0,0,0-6.13,2.89,12,12,0,0,0-2.15,7.34v.4a12.25,12.25,0,0,0,2.1,7.36A6.78,6.78,0,0,0,461,50.43a8.84,8.84,0,0,0,3.16-.55,6.16,6.16,0,0,0,2.2-1.33l.65-3.63h2.44v4.56A9.53,9.53,0,0,1,466.16,52,11.33,11.33,0,0,1,461,53.13a10.34,10.34,0,0,1-8.19-3.69,13.62,13.62,0,0,1-3.2-9.28v-.37a13.87,13.87,0,0,1,3.14-9.31A10.35,10.35,0,0,1,461,26.8a11.08,11.08,0,0,1,5.13,1.14,9.65,9.65,0,0,1,3.32,2.54Z" transform="translate(-9.5 -9.28)"/></g><g class="c"><path d="M520.3,27.19q4.19,0,6.41,1.85A6.47,6.47,0,0,1,529,34.31a5.51,5.51,0,0,1-1,3.3,6.87,6.87,0,0,1-3,2.27,5.23,5.23,0,0,1,3,2.23,7.28,7.28,0,0,1,.93,3.82v2a3.82,3.82,0,0,0,.3,1.74,1.24,1.24,0,0,0,1,.67l.84.11v2.26h-1.86a3.06,3.06,0,0,1-2.87-1.4,6.47,6.47,0,0,1-.86-3.41V46a4.67,4.67,0,0,0-1.21-3.36A4.3,4.3,0,0,0,521,41.34h-5.56v8.72l2.87.49v2.21h-9.19V50.55l2.86-.49V29.9l-2.86-.5V27.19H520.3Zm-4.91,11.42H520a6.58,6.58,0,0,0,4.22-1.1,4,4,0,0,0,1.31-3.24,4.17,4.17,0,0,0-1.26-3.2,5.62,5.62,0,0,0-3.92-1.17h-4.91Z" transform="translate(-9.5 -9.28)"/></g><g class="c"><path d="M567.78,50.55l1.9-.26,9-23.12h3l8.79,23.12,1.88.26v2.21h-7.35V50.55l1.94-.33-1.69-4.72H574.92l-1.74,4.72,1.93.33v2.21h-7.33ZM576,42.6h8.12l-4-11H580Z" transform="translate(-9.5 -9.28)"/></g><g class="c"><path d="M630.06,50.55l2.86-.49V29.9l-2.86-.5V27.17h19.77v6.15h-3l-.28-3.42H636.39v8.82h9.89v2.72h-9.89v8.62l2.86.49v2.21h-9.19Z" transform="translate(-9.5 -9.28)"/></g><g class="c"><path d="M710.63,27.17v5.66h-3l-.26-2.93h-5.68V50.06l2.87.49v2.21h-9.2V50.55l2.87-.49V29.9h-5.7l-.24,2.93h-3V27.17Z" transform="translate(-9.5 -9.28)"/></g><g class="c"><path d="M630.71,232.5v-2.21l2.87-.5V209.63l-2.87-.49v-2.23h9.19v2.23l-2.86.49v20.16h8.89l.27-2.93h2.95v5.64Z" transform="translate(-9.5 -9.28)"/></g><g class="c"><path d="M651.35,279.9a13.64,13.64,0,0,1-3.21,9.28,10.5,10.5,0,0,1-8.31,3.69,10,10,0,0,1-8.05-3.69,14,14,0,0,1-3.09-9.28v-.37a14,14,0,0,1,3.09-9.28,10,10,0,0,1,8.05-3.71,10.46,10.46,0,0,1,8.31,3.71,13.66,13.66,0,0,1,3.21,9.28Zm-3.47-.41a11.76,11.76,0,0,0-2.13-7.28,7,7,0,0,0-5.92-2.83,6.59,6.59,0,0,0-5.65,2.83,12.24,12.24,0,0,0-2,7.28v.41a12.26,12.26,0,0,0,2,7.32,6.58,6.58,0,0,0,5.65,2.82,7,7,0,0,0,5.94-2.81,11.89,11.89,0,0,0,2.11-7.33Z" transform="translate(-9.5 -9.28)"/></g><g class="c"><path d="M636.7,326.91v2.23l-2.86.49v14.63a5.65,5.65,0,0,0,1.65,4.4,6.24,6.24,0,0,0,4.36,1.5,6.83,6.83,0,0,0,4.59-1.49,5.5,5.5,0,0,0,1.74-4.41V329.63l-2.87-.49v-2.23h9.2v2.23l-2.87.49v14.63a7.8,7.8,0,0,1-2.71,6.39,10.83,10.83,0,0,1-7.08,2.22,10.22,10.22,0,0,1-6.85-2.22,7.93,7.93,0,0,1-2.62-6.39V329.63l-2.87-.49v-2.23h9.19Z" transform="translate(-9.5 -9.28)"/></g><g class="c"><path d="M650.63,386.91v5.66h-3l-.26-2.94h-5.68v20.16l2.87.5v2.21h-9.2v-2.21l2.87-.5V389.63h-5.7l-.24,2.94h-3v-5.66Z" transform="translate(-9.5 -9.28)"/></g><g class="c"><path d="M450.71,352.5v-2.21l2.87-.5V329.63l-2.87-.49v-2.23h9.19v2.23l-2.86.49v20.16h8.89l.27-2.93h2.95v5.64Z" transform="translate(-9.5 -9.28)"/></g><g class="c"><path d="M531.35,339.9a13.64,13.64,0,0,1-3.21,9.28,10.5,10.5,0,0,1-8.31,3.69,10,10,0,0,1-8.05-3.69,14,14,0,0,1-3.09-9.28v-.37a14,14,0,0,1,3.09-9.28,10,10,0,0,1,8.05-3.71,10.46,10.46,0,0,1,8.31,3.71,13.66,13.66,0,0,1,3.21,9.28Zm-3.47-.41a11.76,11.76,0,0,0-2.13-7.28,7,7,0,0,0-5.92-2.83,6.59,6.59,0,0,0-5.65,2.83,12.24,12.24,0,0,0-2,7.28v.41a12.26,12.26,0,0,0,2,7.32,6.58,6.58,0,0,0,5.65,2.82,7,7,0,0,0,5.94-2.81,11.89,11.89,0,0,0,2.11-7.33Z" transform="translate(-9.5 -9.28)"/></g><g class="c"><path d="M590.63,326.91v5.66h-3l-.26-2.94h-5.68v20.16l2.87.5v2.21h-9.2v-2.21l2.87-.5V329.63h-5.7l-.24,2.94h-3v-5.66Z" transform="translate(-9.5 -9.28)"/></g><g class="c"><path d="M708.82,334.46H706.2l-.65-3.65a6.25,6.25,0,0,0-2.11-1.11,9.78,9.78,0,0,0-3.06-.44,6.71,6.71,0,0,0-4.24,1.17,3.72,3.72,0,0,0-1.47,3.05,3.37,3.37,0,0,0,1.5,2.79,14.5,14.5,0,0,0,4.86,2,13.71,13.71,0,0,1,6.14,2.95,6.33,6.33,0,0,1,2.1,4.83,5.92,5.92,0,0,1-2.52,5,10.78,10.78,0,0,1-6.6,1.88,13.32,13.32,0,0,1-5.25-1,10.51,10.51,0,0,1-3.73-2.53v-4.76h2.6l.67,3.67a8.23,8.23,0,0,0,2.39,1.35,9.14,9.14,0,0,0,3.32.53,6.87,6.87,0,0,0,4.14-1.11,3.52,3.52,0,0,0,1.52-3,3.83,3.83,0,0,0-1.32-2.95,11.09,11.09,0,0,0-4.66-2,15.56,15.56,0,0,1-6.34-2.85,5.86,5.86,0,0,1-2.29-4.73,6.11,6.11,0,0,1,2.55-5,10.45,10.45,0,0,1,6.63-2,12.46,12.46,0,0,1,4.89.92,11.26,11.26,0,0,1,3.55,2.24Z" transform="translate(-9.5 -9.28)"/></g><g class="c"><path d="M514.78,289.79h11.09l.28-2.93h3v5.64H510.89v-2.57l13.66-20.3H514.29l-.25,2.94h-3v-5.66h17.46v2.47Z" transform="translate(-9.5 -9.28)"/></g><g class="c"><path d="M520.3,386.92q4.19,0,6.41,1.86A6.45,6.45,0,0,1,529,394a5.52,5.52,0,0,1-1,3.31,6.94,6.94,0,0,1-3,2.27,5.19,5.19,0,0,1,3,2.23,7.27,7.27,0,0,1,.93,3.81v2.06a3.88,3.88,0,0,0,.3,1.74,1.26,1.26,0,0,0,1,.67l.84.1v2.27h-1.86a3.07,3.07,0,0,1-2.87-1.41,6.42,6.42,0,0,1-.86-3.41v-2a4.63,4.63,0,0,0-1.21-3.36,4.31,4.31,0,0,0-3.25-1.27h-5.56v8.72l2.87.5v2.21h-9.19v-2.21l2.86-.5V389.63l-2.86-.49v-2.22H520.3Zm-4.91,11.43H520a6.52,6.52,0,0,0,4.22-1.11,4,4,0,0,0,1.31-3.23,4.16,4.16,0,0,0-1.26-3.2,5.57,5.57,0,0,0-3.92-1.18h-4.91Z" transform="translate(-9.5 -9.28)"/></g><g class="c"><path d="M508.49,470.29l2.86-.5V449.63l-2.86-.49v-2.23h9.19v2.23l-2.87.49v8.6h2.66l7.15-8.85-1.91-.24v-2.23h8.12v2.23l-2.41.44-7.82,9.7,8.54,10.57,2.41.44v2.21h-8.4v-2.21l2-.25L517.8,461h-3v8.84l2.87.5v2.21h-9.19Z" transform="translate(-9.5 -9.28)"/></g><g class="c"><path d="M291.35,219.9a13.64,13.64,0,0,1-3.21,9.28,10.5,10.5,0,0,1-8.31,3.69,10,10,0,0,1-8.05-3.69,14,14,0,0,1-3.09-9.28v-.37a14,14,0,0,1,3.09-9.28,10,10,0,0,1,8.05-3.71,10.46,10.46,0,0,1,8.31,3.71,13.66,13.66,0,0,1,3.21,9.28Zm-3.47-.41a11.76,11.76,0,0,0-2.13-7.28,7,7,0,0,0-5.92-2.83,6.59,6.59,0,0,0-5.65,2.83,12.24,12.24,0,0,0-2,7.28v.41a12.26,12.26,0,0,0,2,7.32,6.58,6.58,0,0,0,5.65,2.82,7,7,0,0,0,5.94-2.81,11.89,11.89,0,0,0,2.11-7.33Z" transform="translate(-9.5 -9.28)"/></g><g class="c"><path d="M292.6,266.91v2.23l-2.86.49V292.5h-3.46L274,272.74l-.1,0v17l2.86.5v2.21h-9.19v-2.21l2.86-.5V269.63l-2.86-.49v-2.23h6.33l12.3,19.74.11,0v-17l-2.87-.49v-2.23h9.19Z" transform="translate(-9.5 -9.28)"/></g><g class="c"><path d="M290.63,326.91v5.66h-2.95l-.26-2.94h-5.68v20.16l2.87.5v2.21h-9.2v-2.21l2.87-.5V329.63h-5.7l-.24,2.94h-3v-5.66Z" transform="translate(-9.5 -9.28)"/></g><g class="c"><path d="M280.3,386.92q4.18,0,6.41,1.86A6.45,6.45,0,0,1,289,394a5.52,5.52,0,0,1-1,3.31,6.94,6.94,0,0,1-3,2.27,5.19,5.19,0,0,1,3,2.23,7.27,7.27,0,0,1,.93,3.81v2.06a3.88,3.88,0,0,0,.3,1.74,1.26,1.26,0,0,0,1,.67l.84.1v2.27h-1.86a3.07,3.07,0,0,1-2.87-1.41,6.42,6.42,0,0,1-.86-3.41v-2a4.63,4.63,0,0,0-1.21-3.36,4.31,4.31,0,0,0-3.25-1.27h-5.56v8.72l2.87.5v2.21h-9.19v-2.21l2.86-.5V389.63l-2.86-.49v-2.22H280.3Zm-4.91,11.43H280a6.52,6.52,0,0,0,4.22-1.11,4,4,0,0,0,1.31-3.23,4.16,4.16,0,0,0-1.26-3.2,5.57,5.57,0,0,0-3.92-1.18h-4.91Z" transform="translate(-9.5 -9.28)"/></g><g class="c"><path d="M267.78,470.29l1.9-.27,8.95-23.11h3L290.39,470l1.88.27v2.21h-7.35v-2.21l1.94-.34-1.69-4.71H274.92L273.18,470l1.93.34v2.21h-7.33Zm8.21-8h8.12l-4-11H280Z" transform="translate(-9.5 -9.28)"/></g><g class="c"><path d="M49.43,349.6a11.3,11.3,0,0,1-3.32,2.22,13.33,13.33,0,0,1-5.71,1.05,10.75,10.75,0,0,1-8.38-3.6,13.48,13.48,0,0,1-3.24-9.36v-.42a13.57,13.57,0,0,1,3.2-9.37,10.9,10.9,0,0,1,8.54-3.58,13.09,13.09,0,0,1,5,.88,11.21,11.21,0,0,1,3.63,2.35v4.64H46.72l-.84-3.53a7.16,7.16,0,0,0-2.08-1.16,8.27,8.27,0,0,0-2.93-.46,7.66,7.66,0,0,0-6.39,2.84,11.55,11.55,0,0,0-2.24,7.36v.45a11.83,11.83,0,0,0,2.17,7.42,7.12,7.12,0,0,0,6,2.83,10.93,10.93,0,0,0,3.42-.44,9.31,9.31,0,0,0,2.15-1v-5.61l-4.2-.18v-2.55h7.66Z" transform="translate(-9.5 -9.28)"/></g><g class="c"><path d="M95.41,329.14v-2.23h9.2v2.23l-2.87.49v20.16l2.87.5v2.21h-9.2v-2.21l2.87-.5V329.63Z" transform="translate(-9.5 -9.28)"/></g><g class="c"><path d="M147.78,350.29l1.9-.27,8.95-23.11h3L170.39,350l1.88.27v2.21h-7.35v-2.21l1.94-.34-1.69-4.71H154.92L153.18,350l1.93.34v2.21h-7.33Zm8.21-8h8.12l-4-11H160Z" transform="translate(-9.5 -9.28)"/></g><g class="c"><path d="M232.6,326.91v2.23l-2.86.49V352.5h-3.46L214,332.74l-.1,0v17l2.86.5v2.21h-9.19v-2.21l2.86-.5V329.63l-2.86-.49v-2.23h6.33l12.3,19.74.11,0v-17l-2.87-.49v-2.23h9.19Z" transform="translate(-9.5 -9.28)"/></g><g class="c"><path d="M348.82,334.46H346.2l-.65-3.65a6.25,6.25,0,0,0-2.11-1.11,9.78,9.78,0,0,0-3.06-.44,6.71,6.71,0,0,0-4.24,1.17,3.72,3.72,0,0,0-1.47,3.05,3.37,3.37,0,0,0,1.5,2.79,14.5,14.5,0,0,0,4.86,2,13.71,13.71,0,0,1,6.14,2.95,6.33,6.33,0,0,1,2.1,4.83,5.92,5.92,0,0,1-2.52,5,10.78,10.78,0,0,1-6.6,1.88,13.32,13.32,0,0,1-5.25-1,10.51,10.51,0,0,1-3.73-2.53v-4.76h2.6l.67,3.67a8.23,8.23,0,0,0,2.39,1.35,9.14,9.14,0,0,0,3.32.53,6.87,6.87,0,0,0,4.14-1.11,3.52,3.52,0,0,0,1.52-3,3.83,3.83,0,0,0-1.32-2.95,11.09,11.09,0,0,0-4.66-2,15.56,15.56,0,0,1-6.34-2.85,5.86,5.86,0,0,1-2.29-4.73,6.11,6.11,0,0,1,2.55-5,10.45,10.45,0,0,1,6.63-2,12.46,12.46,0,0,1,4.89.92,11.26,11.26,0,0,1,3.55,2.24Z" transform="translate(-9.5 -9.28)"/></g><g class="c"><path d="M51.35,399.9a13.64,13.64,0,0,1-3.21,9.28,10.5,10.5,0,0,1-8.31,3.69,10,10,0,0,1-8-3.69,14,14,0,0,1-3.09-9.28v-.37a14,14,0,0,1,3.09-9.28,10,10,0,0,1,8-3.71,10.46,10.46,0,0,1,8.31,3.71,13.66,13.66,0,0,1,3.21,9.28Zm-3.47-.41a11.76,11.76,0,0,0-2.13-7.28,7,7,0,0,0-5.92-2.83,6.59,6.59,0,0,0-5.65,2.83,12.24,12.24,0,0,0-2,7.28v.41a12.26,12.26,0,0,0,2,7.32A6.58,6.58,0,0,0,39.83,410a7,7,0,0,0,5.94-2.81,11.89,11.89,0,0,0,2.11-7.33Z" transform="translate(-9.5 -9.28)"/></g><g class="c"><path d="M40.64,446.91a10.07,10.07,0,0,1,6.27,1.73,6.14,6.14,0,0,1,2.26,5.19,4.72,4.72,0,0,1-1.08,3.05,6.45,6.45,0,0,1-2.86,2,6,6,0,0,1,3.64,2.26,6.72,6.72,0,0,1,1.33,4.14,6.53,6.53,0,0,1-2.28,5.37,9.58,9.58,0,0,1-6.19,1.85H29.43v-2.21l2.86-.5V449.63l-2.86-.49v-2.23H40.64Zm-4.89,10.88h5.79a4.5,4.5,0,0,0,3-1.11,3.75,3.75,0,0,0,1.15-2.92,3.7,3.7,0,0,0-1.3-3.1,5.91,5.91,0,0,0-3.76-1H35.75Zm0,2.7v9.3h6a5.33,5.33,0,0,0,3.68-1.17,4.18,4.18,0,0,0,1.31-3.31,5.2,5.2,0,0,0-1.1-3.53,4.16,4.16,0,0,0-3.36-1.29Z" transform="translate(-9.5 -9.28)"/></g><g class="c"><path d="M30.71,532.5v-2.21l2.87-.5V509.63l-2.87-.49v-2.23H39.9v2.23l-2.86.49v20.16h8.89l.27-2.93h2.95v5.64Z" transform="translate(-9.5 -9.28)"/></g><g class="c"><path d="M35.41,569.14v-2.23h9.2v2.23l-2.87.49v20.16l2.87.5v2.21h-9.2v-2.21l2.87-.5V569.63Z" transform="translate(-9.5 -9.28)"/></g><g class="c"><path d="M52.6,626.91v2.23l-2.86.49V652.5H46.28L34,632.74l-.1,0v17l2.86.5v2.21H27.54v-2.21l2.86-.5V629.63l-2.86-.49v-2.23h6.33l12.3,19.74.11,0v-17l-2.87-.49v-2.23H52.6Z" transform="translate(-9.5 -9.28)"/></g><g class="c"><path d="M48.82,694.46H46.2l-.65-3.65a6.25,6.25,0,0,0-2.11-1.11,9.78,9.78,0,0,0-3.06-.44,6.71,6.71,0,0,0-4.24,1.17,3.72,3.72,0,0,0-1.47,3.05,3.37,3.37,0,0,0,1.5,2.79,14.5,14.5,0,0,0,4.86,2,13.71,13.71,0,0,1,6.14,2.95,6.33,6.33,0,0,1,2.1,4.83,5.92,5.92,0,0,1-2.52,5,10.78,10.78,0,0,1-6.6,1.88,13.32,13.32,0,0,1-5.25-1,10.51,10.51,0,0,1-3.73-2.53v-4.76h2.6l.67,3.67a8.23,8.23,0,0,0,2.39,1.35,9.14,9.14,0,0,0,3.32.53,6.87,6.87,0,0,0,4.14-1.11,3.52,3.52,0,0,0,1.52-3,3.83,3.83,0,0,0-1.32-2.95,11.09,11.09,0,0,0-4.66-2,15.56,15.56,0,0,1-6.34-2.85,5.86,5.86,0,0,1-2.29-4.73,6.11,6.11,0,0,1,2.55-5,10.45,10.45,0,0,1,6.63-2,12.46,12.46,0,0,1,4.89.92,11.26,11.26,0,0,1,3.55,2.24Z" transform="translate(-9.5 -9.28)"/></g><g class="c"><path d="M95.41,689.14v-2.23h9.2v2.23l-2.87.49v20.16l2.87.5v2.21h-9.2v-2.21l2.87-.5V689.63Z" transform="translate(-9.5 -9.28)"/></g><g class="c"><path d="M169.52,692h-.09l-8.28,20.51h-2.3L150.57,692l-.09,0,.35,10.36v7.41l2.87.5v2.21h-9.2v-2.21l2.87-.5V689.63l-2.87-.49v-2.23h7.3L160,707.7h.1l8.14-20.79h7.31v2.23l-2.86.49v20.16l2.86.5v2.21h-9.19v-2.21l2.86-.5v-7.41Z" transform="translate(-9.5 -9.28)"/></g><g class="c"><path d="M229.48,694.76H227l-.65-3.62a6.63,6.63,0,0,0-2.07-1.35,7.46,7.46,0,0,0-2.94-.53,7.18,7.18,0,0,0-6.13,2.89,12,12,0,0,0-2.15,7.34v.41a12.24,12.24,0,0,0,2.1,7.35,6.78,6.78,0,0,0,5.83,2.91,8.84,8.84,0,0,0,3.16-.54,6.16,6.16,0,0,0,2.2-1.34l.65-3.62h2.44v4.55a9.41,9.41,0,0,1-3.32,2.54,11.2,11.2,0,0,1-5.13,1.12,10.34,10.34,0,0,1-8.19-3.69,13.64,13.64,0,0,1-3.2-9.28v-.37a13.86,13.86,0,0,1,3.14-9.31,10.32,10.32,0,0,1,8.25-3.68,11.2,11.2,0,0,1,5.13,1.13,9.77,9.77,0,0,1,3.32,2.54Z" transform="translate(-9.5 -9.28)"/></g><g class="c"><path d="M275.41,689.14v-2.23h9.2v2.23l-2.87.49v20.16l2.87.5v2.21h-9.2v-2.21l2.87-.5V689.63Z" transform="translate(-9.5 -9.28)"/></g><g class="c"><path d="M350.63,686.91v5.66h-2.95l-.26-2.94h-5.68v20.16l2.87.5v2.21h-9.2v-2.21l2.87-.5V689.63h-5.7l-.24,2.94h-3v-5.66Z" transform="translate(-9.5 -9.28)"/></g><g class="c"><path d="M397.31,689.14l-2.76.33,5.36,10.44,5.36-10.44-2.74-.33v-2.23h8.79v2.23l-2.16.33-7.6,14v6.29l2.87.5v2.21h-9.18v-2.21l2.87-.5v-6.55l-7.45-13.77-2.15-.33v-2.23h8.79Z" transform="translate(-9.5 -9.28)"/></g><g class="c"><path d="M149.77,472.5v-2.21l2.86-.5V449.63l-2.86-.49v-2.23h19.65v6.15h-3l-.28-3.43H156.1v8.28h9.79v2.72H156.1v9.16h10.28l.28-3.42h3v6.13Z" transform="translate(-9.5 -9.28)"/></g><g class="c"><path d="M208.42,470.29l2.3-.39L218,459.6l-7.11-10.07-2.3-.39v-2.23h8.3v2.23l-2.06.23,5.12,7.68,5.17-7.68-2.06-.23v-2.23h8.35v2.23l-2.3.39L222,459.6l7.26,10.3,2.32.39v2.21H223.3v-2.21l2-.23L220,462.18l-5.33,7.88,2.06.23v2.21h-8.33Z" transform="translate(-9.5 -9.28)"/></g><g class="c"><path d="M341.57,446.91A9,9,0,0,1,348,449a7.94,7.94,0,0,1,0,11.12,9.07,9.07,0,0,1-6.38,2.09h-5.43v7.56l2.87.5v2.21h-9.2v-2.21l2.87-.5V449.63l-2.87-.49v-2.23h11.76Zm-5.43,12.62h5.43a5.06,5.06,0,0,0,3.9-1.4,5,5,0,0,0,1.29-3.52,5.11,5.11,0,0,0-1.29-3.56,5,5,0,0,0-3.9-1.42h-5.43Z" transform="translate(-9.5 -9.28)"/></g><g class="c"><path d="M396.7,446.91v2.23l-2.86.49v14.63a5.65,5.65,0,0,0,1.65,4.4,6.24,6.24,0,0,0,4.36,1.5,6.83,6.83,0,0,0,4.59-1.49,5.5,5.5,0,0,0,1.74-4.41V449.63l-2.87-.49v-2.23h9.2v2.23l-2.87.49v14.63a7.8,7.8,0,0,1-2.71,6.39,10.83,10.83,0,0,1-7.08,2.22,10.22,10.22,0,0,1-6.85-2.22,7.93,7.93,0,0,1-2.62-6.39V449.63l-2.87-.49v-2.23h9.19Z" transform="translate(-9.5 -9.28)"/></g><g class="c"><path d="M472.6,446.91v2.23l-2.86.49V472.5h-3.46L454,452.74l-.1,0v17l2.86.5v2.21h-9.19v-2.21l2.86-.5V449.63l-2.86-.49v-2.23h6.33l12.3,19.74.11,0v-17l-2.87-.49v-2.23h9.19Z" transform="translate(-9.5 -9.28)"/></g><g class="c"><path d="M588.82,454.46H586.2l-.65-3.65a6.25,6.25,0,0,0-2.11-1.11,9.78,9.78,0,0,0-3.06-.44,6.71,6.71,0,0,0-4.24,1.17,3.72,3.72,0,0,0-1.47,3.05,3.37,3.37,0,0,0,1.5,2.79,14.5,14.5,0,0,0,4.86,2,13.71,13.71,0,0,1,6.14,2.95,6.33,6.33,0,0,1,2.1,4.83,5.92,5.92,0,0,1-2.52,5,10.78,10.78,0,0,1-6.6,1.88,13.32,13.32,0,0,1-5.25-1,10.51,10.51,0,0,1-3.73-2.53v-4.76h2.6l.67,3.67a8.23,8.23,0,0,0,2.39,1.35,9.14,9.14,0,0,0,3.32.53,6.87,6.87,0,0,0,4.14-1.11,3.52,3.52,0,0,0,1.52-3,3.83,3.83,0,0,0-1.32-2.95,11.09,11.09,0,0,0-4.66-2,15.56,15.56,0,0,1-6.34-2.85,5.86,5.86,0,0,1-2.29-4.73,6.11,6.11,0,0,1,2.55-5,10.45,10.45,0,0,1,6.63-2,12.46,12.46,0,0,1,4.89.92,11.26,11.26,0,0,1,3.55,2.24Z" transform="translate(-9.5 -9.28)"/></g><g class="c"><path d="M399.5,386.91a10.52,10.52,0,0,1,11.11,11v3.5a10.5,10.5,0,0,1-11.11,11H388.78v-2.21l2.86-.5V389.63l-2.86-.49v-2.23H399.5Zm-4.4,2.72v20.16h4.4a7.09,7.09,0,0,0,5.6-2.33,8.81,8.81,0,0,0,2-6v-3.53a8.73,8.73,0,0,0-2-6,7.06,7.06,0,0,0-5.6-2.34Z" transform="translate(-9.5 -9.28)"/></g><g class="c"><path d="M412.6,506.91v2.23l-2.86.49V532.5h-3.46L394,512.74l-.1,0v17l2.86.5v2.21h-9.19v-2.21l2.86-.5V509.63l-2.86-.49v-2.23h6.33l12.3,19.74.11,0v-17l-2.87-.49v-2.23h9.19Z" transform="translate(-9.5 -9.28)"/></g><g class="c"><path d="M389.77,592.5v-2.21l2.86-.5V569.63l-2.86-.49v-2.23h19.65v6.15h-3l-.28-3.43H396.1v8.28h9.79v2.72H396.1v9.16h10.28l.28-3.42h3v6.13Z" transform="translate(-9.5 -9.28)"/></g><g class="c"><path d="M171.34,579.9a14.91,14.91,0,0,1-1.27,6.22,11.43,11.43,0,0,1-3.53,4.53l5.18,3.66-2.37,2.11-5.82-4.15a12,12,0,0,1-1.81.44,10.83,10.83,0,0,1-1.9.16,10,10,0,0,1-8-3.69,14,14,0,0,1-3.09-9.28v-.37a14,14,0,0,1,3.09-9.28,10,10,0,0,1,8-3.71,10.46,10.46,0,0,1,8.31,3.71,13.66,13.66,0,0,1,3.21,9.28Zm-3.46-.41a11.76,11.76,0,0,0-2.14-7.28,7,7,0,0,0-5.92-2.83,6.59,6.59,0,0,0-5.65,2.83,12.24,12.24,0,0,0-2,7.28v.41a12.26,12.26,0,0,0,2,7.32,6.58,6.58,0,0,0,5.65,2.82,7,7,0,0,0,6-2.81,12,12,0,0,0,2.11-7.33Z" transform="translate(-9.5 -9.28)"/></g><g class="c"><path d="M216.7,566.91v2.23l-2.86.49v14.63a5.65,5.65,0,0,0,1.65,4.4,6.24,6.24,0,0,0,4.36,1.5,6.83,6.83,0,0,0,4.59-1.49,5.5,5.5,0,0,0,1.74-4.41V569.63l-2.87-.49v-2.23h9.2v2.23l-2.87.49v14.63a7.8,7.8,0,0,1-2.71,6.39,10.83,10.83,0,0,1-7.08,2.22,10.22,10.22,0,0,1-6.85-2.22,7.93,7.93,0,0,1-2.62-6.39V569.63l-2.87-.49v-2.23h9.19Z" transform="translate(-9.5 -9.28)"/></g><g class="c"><path d="M267.78,590.29l1.9-.27,8.95-23.11h3L290.39,590l1.88.27v2.21h-7.35v-2.21l1.94-.34-1.69-4.71H274.92L273.18,590l1.93.34v2.21h-7.33Zm8.21-7.95h8.12l-4-11H280Z" transform="translate(-9.5 -9.28)"/></g><g class="c"><path d="M328.49,590.29l2.86-.5V569.63l-2.86-.49v-2.23h9.19v2.23l-2.87.49v8.6h2.66l7.15-8.85-1.91-.24v-2.23h8.12v2.23l-2.41.44-7.82,9.7,8.54,10.57,2.41.44v2.21h-8.4v-2.21l2-.25L337.8,581h-3v8.84l2.87.5v2.21h-9.19Z" transform="translate(-9.5 -9.28)"/></g><g class="c"><path d="M469.52,632h-.09l-8.28,20.51h-2.3L450.57,632l-.09,0,.35,10.36v7.41l2.87.5v2.21h-9.2v-2.21l2.87-.5V629.63l-2.87-.49v-2.23h7.3L460,647.7h.1l8.14-20.79h7.31v2.23l-2.86.49v20.16l2.86.5v2.21h-9.19v-2.21l2.86-.5v-7.41Z" transform="translate(-9.5 -9.28)"/></g><g class="c"><path d="M507.78,650.29l1.9-.27,8.95-23.11h3L530.39,650l1.88.27v2.21h-7.35v-2.21l1.94-.34-1.69-4.71H514.92L513.18,650l1.93.34v2.21h-7.33Zm8.21-7.95h8.12l-4-11H520Z" transform="translate(-9.5 -9.28)"/></g><g class="c"><path d="M580.3,626.92q4.19,0,6.41,1.86A6.45,6.45,0,0,1,589,634a5.52,5.52,0,0,1-1,3.31,6.94,6.94,0,0,1-3,2.27,5.19,5.19,0,0,1,3,2.23,7.27,7.27,0,0,1,.93,3.81v2.06a3.88,3.88,0,0,0,.3,1.74,1.26,1.26,0,0,0,1,.67l.84.1v2.27h-1.86a3.07,3.07,0,0,1-2.87-1.41,6.42,6.42,0,0,1-.86-3.41v-2a4.63,4.63,0,0,0-1.21-3.36,4.31,4.31,0,0,0-3.25-1.27h-5.56v8.72l2.87.5v2.21h-9.19v-2.21l2.86-.5V629.63l-2.86-.49v-2.22H580.3Zm-4.91,11.43H580a6.52,6.52,0,0,0,4.22-1.11,4,4,0,0,0,1.31-3.23,4.16,4.16,0,0,0-1.26-3.2,5.57,5.57,0,0,0-3.92-1.18h-4.91Z" transform="translate(-9.5 -9.28)"/></g><g class="c"><path d="M635.41,629.14v-2.23h9.2v2.23l-2.87.49v20.16l2.87.5v2.21h-9.2v-2.21l2.87-.5V629.63Z" transform="translate(-9.5 -9.28)"/></g><g class="c"><path d="M711.35,639.9a13.64,13.64,0,0,1-3.21,9.28,10.5,10.5,0,0,1-8.31,3.69,10,10,0,0,1-8.05-3.69,14,14,0,0,1-3.09-9.28v-.37a14,14,0,0,1,3.09-9.28,10,10,0,0,1,8.05-3.71,10.46,10.46,0,0,1,8.31,3.71,13.66,13.66,0,0,1,3.21,9.28Zm-3.47-.41a11.76,11.76,0,0,0-2.13-7.28,7,7,0,0,0-5.92-2.83,6.59,6.59,0,0,0-5.65,2.83,12.24,12.24,0,0,0-2,7.28v.41a12.26,12.26,0,0,0,2,7.32,6.58,6.58,0,0,0,5.65,2.82,7,7,0,0,0,5.94-2.81,11.89,11.89,0,0,0,2.11-7.33Z" transform="translate(-9.5 -9.28)"/></g><g class="c"><path d="M581.57,506.91A9,9,0,0,1,588,509a7.94,7.94,0,0,1,0,11.12,9.07,9.07,0,0,1-6.38,2.09h-5.43v7.56l2.87.5v2.21h-9.2v-2.21l2.87-.5V509.63l-2.87-.49v-2.23h11.76Zm-5.43,12.62h5.43a5.06,5.06,0,0,0,3.9-1.4,5,5,0,0,0,1.29-3.52,5.11,5.11,0,0,0-1.29-3.56,5,5,0,0,0-3.9-1.42h-5.43Z" transform="translate(-9.5 -9.28)"/></g><g class="c"><path d="M577.31,569.14l-2.76.33,5.36,10.44,5.36-10.44-2.74-.33v-2.23h8.79v2.23l-2.16.33-7.6,14v6.29l2.87.5v2.21h-9.18v-2.21l2.87-.5v-6.55l-7.45-13.77-2.15-.33v-2.23h8.79Z" transform="translate(-9.5 -9.28)"/></g><g class="c"><path d="M591.35,699.9a13.64,13.64,0,0,1-3.21,9.28,10.5,10.5,0,0,1-8.31,3.69,10,10,0,0,1-8.05-3.69,14,14,0,0,1-3.09-9.28v-.37a14,14,0,0,1,3.09-9.28,10,10,0,0,1,8.05-3.71,10.46,10.46,0,0,1,8.31,3.71,13.66,13.66,0,0,1,3.21,9.28Zm-3.47-.41a11.76,11.76,0,0,0-2.13-7.28,7,7,0,0,0-5.92-2.83,6.59,6.59,0,0,0-5.65,2.83,12.24,12.24,0,0,0-2,7.28v.41a12.26,12.26,0,0,0,2,7.32,6.58,6.58,0,0,0,5.65,2.82,7,7,0,0,0,5.94-2.81,11.89,11.89,0,0,0,2.11-7.33Z" transform="translate(-9.5 -9.28)"/></g><g class="c"><path d="M700.64,446.91a10.07,10.07,0,0,1,6.27,1.73,6.14,6.14,0,0,1,2.26,5.19,4.72,4.72,0,0,1-1.08,3.05,6.45,6.45,0,0,1-2.86,2,6,6,0,0,1,3.64,2.26,6.72,6.72,0,0,1,1.33,4.14,6.53,6.53,0,0,1-2.28,5.37,9.58,9.58,0,0,1-6.19,1.85h-12.3v-2.21l2.86-.5V449.63l-2.86-.49v-2.23h11.21Zm-4.89,10.88h5.79a4.5,4.5,0,0,0,3-1.11,3.75,3.75,0,0,0,1.15-2.92,3.7,3.7,0,0,0-1.3-3.1,5.91,5.91,0,0,0-3.76-1h-4.89Zm0,2.7v9.3h6a5.33,5.33,0,0,0,3.68-1.17,4.18,4.18,0,0,0,1.31-3.31,5.2,5.2,0,0,0-1.1-3.53,4.16,4.16,0,0,0-3.36-1.29Z" transform="translate(-9.5 -9.28)"/></g><g class="c"><path d="M690.71,532.5v-2.21l2.87-.5V509.63l-2.87-.49v-2.23h9.19v2.23l-2.86.49v20.16h8.89l.27-2.93h2.95v5.64Z" transform="translate(-9.5 -9.28)"/></g><g class="c"><path d="M711.35,579.9a13.64,13.64,0,0,1-3.21,9.28,10.5,10.5,0,0,1-8.31,3.69,10,10,0,0,1-8.05-3.69,14,14,0,0,1-3.09-9.28v-.37a14,14,0,0,1,3.09-9.28,10,10,0,0,1,8.05-3.71,10.46,10.46,0,0,1,8.31,3.71,13.66,13.66,0,0,1,3.21,9.28Zm-3.47-.41a11.76,11.76,0,0,0-2.13-7.28,7,7,0,0,0-5.92-2.83,6.59,6.59,0,0,0-5.65,2.83,12.24,12.24,0,0,0-2,7.28v.41a12.26,12.26,0,0,0,2,7.32,6.58,6.58,0,0,0,5.65,2.82,7,7,0,0,0,5.94-2.81,11.89,11.89,0,0,0,2.11-7.33Z" transform="translate(-9.5 -9.28)"/></g><g class="c"><path d="M699.5,686.91A10.52,10.52,0,0,1,710.61,698v3.5a10.5,10.5,0,0,1-11.11,11H688.78v-2.21l2.86-.5V689.63l-2.86-.49v-2.23H699.5Zm-4.4,2.72v20.16h4.4a7.09,7.09,0,0,0,5.6-2.33,8.81,8.81,0,0,0,2-6v-3.53a8.73,8.73,0,0,0-2-6,7.06,7.06,0,0,0-5.6-2.34Z" transform="translate(-9.5 -9.28)"/></g><g class="c"><path d="M411.35,219.9a13.64,13.64,0,0,1-3.21,9.28,10.5,10.5,0,0,1-8.31,3.69,10,10,0,0,1-8.05-3.69,14,14,0,0,1-3.09-9.28v-.37a14,14,0,0,1,3.09-9.28,10,10,0,0,1,8.05-3.71,10.46,10.46,0,0,1,8.31,3.71,13.66,13.66,0,0,1,3.21,9.28Zm-3.47-.41a11.76,11.76,0,0,0-2.13-7.28,7,7,0,0,0-5.92-2.83,6.59,6.59,0,0,0-5.65,2.83,12.24,12.24,0,0,0-2,7.28v.41a12.26,12.26,0,0,0,2,7.32,6.58,6.58,0,0,0,5.65,2.82,7,7,0,0,0,5.94-2.81,11.89,11.89,0,0,0,2.11-7.33Z" transform="translate(-9.5 -9.28)"/></g><g class="c"><path d="M388.42,290.29l2.3-.39L398,279.6l-7.11-10.07-2.3-.39v-2.23h8.3v2.23l-2.06.23,5.12,7.68,5.17-7.68-2.06-.23v-2.23h8.35v2.23l-2.3.39L402,279.6l7.26,10.3,2.32.39v2.21H403.3v-2.21l2-.23L400,282.18l-5.33,7.88,2.06.23v2.21h-8.33Z" transform="translate(-9.5 -9.28)"/></g></svg>