<svg version="1.1" xmlns="http://www.w3.org/2000/svg" viewBox="0 0 740 740">
  <!-- svg-source:excalidraw -->
  <defs>
    <style>
      @font-face {
        font-family: "Virgil";
        src: url("https://excalidraw.com/FG_Virgil.woff2");
      }
      @font-face {
        font-family: "Cascadia";
        src: url("https://excalidraw.com/Cascadia.woff2");
      }
    </style>
  </defs>
  <rect x="0" y="0" width="740" height="740" fill="#ffffff"></rect><g transform="translate(10 10) rotate(0 30 30)"><path d="M0 0 C19.931669522076845 0, 39.86333904415369 0, 60 0 M0 0 C14.980094086378813 0, 29.960188172757626 0, 60 0 M60 0 C60 16.365059304982424, 60 32.73011860996485, 60 60 M60 0 C60 18.052142154425386, 60 36.10428430885077, 60 60 M60 60 C36.52514023706317 60, 13.050280474126339 60, 0 60 M60 60 C36.101109612733126 60, 12.202219225466251 60, 0 60 M0 60 C0 37.534705471247435, 0 15.069410942494862, 0 0 M0 60 C0 46.03740047290921, 0 32.074800945818424, 0 0" stroke="#000000" stroke-width="1" fill="none"></path></g><g transform="translate(70 10) rotate(0 30 30)"><path d="M0 0 C21.619500171393156 0, 43.23900034278631 0, 60 0 M0 0 C20.121643591672186 0, 40.24328718334437 0, 60 0 M60 0 C60 21.7777108065784, 60 43.5554216131568, 60 60 M60 0 C60 14.953936267644167, 60 29.907872535288334, 60 60 M60 60 C41.04438327625394 60, 22.088766552507877 60, 0 60 M60 60 C44.66211624071002 60, 29.324232481420037 60, 0 60 M0 60 C0 41.76780258491635, 0 23.535605169832706, 0 0 M0 60 C0 39.35822780057788, 0 18.71645560115575, 0 0" stroke="#ccc" stroke-width="1" fill="none"></path></g><g transform="translate(130 10) rotate(0 30 30)"><path d="M0 0 C14.892773319035769 0, 29.785546638071537 0, 60 0 M0 0 C23.857813607901335 0, 47.71562721580267 0, 60 0 M60 0 C60 19.87834434583783, 60 39.75668869167566, 60 60 M60 0 C60 17.45757545158267, 60 34.91515090316534, 60 60 M60 60 C41.42512805387378 60, 22.850256107747548 60, 0 60 M60 60 C37.01305531337857 60, 14.026110626757145 60, 0 60 M0 60 C0 41.59857649728656, 0 23.197152994573116, 0 0 M0 60 C0 45.01416169479489, 0 30.028323389589783, 0 0" stroke="#000000" stroke-width="1" fill="none"></path></g><g transform="translate(190 10) rotate(0 30 30)"><path d="M0 0 C17.060883175581694 0, 34.12176635116339 0, 60 0 M0 0 C12.520667005330324 0, 25.04133401066065 0, 60 0 M60 0 C60 15.559917937964201, 60 31.119835875928402, 60 60 M60 0 C60 18.624623347073797, 60 37.249246694147594, 60 60 M60 60 C36.35628854110837 60, 12.71257708221674 60, 0 60 M60 60 C37.19303209707141 60, 14.386064194142818 60, 0 60 M0 60 C0 44.88610051944852, 0 29.772201038897034, 0 0 M0 60 C0 38.599169444292784, 0 17.198338888585567, 0 0" stroke="#ccc" stroke-width="1" fill="none"></path></g><g transform="translate(250 10) rotate(0 30 30)"><path d="M0 0 C21.89176850393415 0, 43.7835370078683 0, 60 0 M0 0 C17.117014300078154 0, 34.23402860015631 0, 60 0 M60 0 C60 12.798783469945192, 60 25.597566939890385, 60 60 M60 0 C60 13.193586599081755, 60 26.38717319816351, 60 60 M60 60 C38.40416784211993 60, 16.808335684239857 60, 0 60 M60 60 C36.85235773399472 60, 13.704715467989445 60, 0 60 M0 60 C0 36.95817429944873, 0 13.916348598897457, 0 0 M0 60 C0 40.50824545696378, 0 21.016490913927555, 0 0" stroke="#ccc" stroke-width="1" fill="none"></path></g><g transform="translate(310 10) rotate(0 30 30)"><path d="M0 0 C17.55745340511203 0, 35.11490681022406 0, 60 0 M0 0 C19.397279072552923 0, 38.794558145105846 0, 60 0 M60 0 C60 14.076877724379301, 60 28.153755448758602, 60 60 M60 0 C60 15.618724275380377, 60 31.237448550760753, 60 60 M60 60 C47.585906971246004 60, 35.17181394249201 60, 0 60 M60 60 C44.160177659243345 60, 28.320355318486683 60, 0 60 M0 60 C0 40.03160868957639, 0 20.063217379152775, 0 0 M0 60 C0 45.516453098505735, 0 31.03290619701147, 0 0" stroke="#000000" stroke-width="1" fill="none"></path></g><g transform="translate(370 10) rotate(0 30 30)"><path d="M0 0 C15.833318162709476 0, 31.666636325418953 0, 60 0 M0 0 C14.05811120197177 0, 28.11622240394354 0, 60 0 M60 0 C60 16.96463351324201, 60 33.92926702648402, 60 60 M60 0 C60 19.43949688598514, 60 38.87899377197028, 60 60 M60 60 C39.315409015864134 60, 18.63081803172826 60, 0 60 M60 60 C47.935789335519075 60, 35.87157867103815 60, 0 60 M0 60 C0 41.783054541796446, 0 23.566109083592885, 0 0 M0 60 C0 44.707517970353365, 0 29.41503594070673, 0 0" stroke="#000000" stroke-width="1" fill="none"></path></g><g transform="translate(430 10) rotate(0 30 30)"><path d="M0 0 C22.101032149046663 0, 44.202064298093326 0, 60 0 M0 0 C23.085830379277468 0, 46.171660758554935 0, 60 0 M60 0 C60 19.8243177048862, 60 39.6486354097724, 60 60 M60 0 C60 23.95418338850141, 60 47.90836677700282, 60 60 M60 60 C42.10860477760434 60, 24.217209555208683 60, 0 60 M60 60 C44.48701484128833 60, 28.974029682576656 60, 0 60 M0 60 C0 45.82578705623746, 0 31.65157411247492, 0 0 M0 60 C0 44.599946927279234, 0 29.199893854558464, 0 0" stroke="#000000" stroke-width="1" fill="none"></path></g><g transform="translate(490 10) rotate(0 30 30)"><path d="M0 0 C14.922866631299259 0, 29.845733262598518 0, 60 0 M0 0 C20.118238102644682 0, 40.236476205289364 0, 60 0 M60 0 C60 23.639932561665773, 60 47.27986512333155, 60 60 M60 0 C60 20.386346351355314, 60 40.77269270271063, 60 60 M60 60 C40.46121973916888 60, 20.922439478337765 60, 0 60 M60 60 C44.69340382888913 60, 29.386807657778256 60, 0 60 M0 60 C0 36.56699163839221, 0 13.13398327678442, 0 0 M0 60 C0 36.038126695901155, 0 12.076253391802311, 0 0" stroke="#000000" stroke-width="1" fill="none"></path></g><g transform="translate(550 10) rotate(0 30 30)"><path d="M0 0 C17.695159446448088 0, 35.390318892896175 0, 60 0 M0 0 C15.47145276144147 0, 30.94290552288294 0, 60 0 M60 0 C60 19.184684168547395, 60 38.36936833709479, 60 60 M60 0 C60 21.324726272374395, 60 42.64945254474879, 60 60 M60 60 C43.53802942112088 60, 27.076058842241764 60, 0 60 M60 60 C47.29622430726886 60, 34.592448614537716 60, 0 60 M0 60 C0 45.253376830369234, 0 30.506753660738468, 0 0 M0 60 C0 40.41373784467578, 0 20.82747568935155, 0 0" stroke="#000000" stroke-width="1" fill="none"></path></g><g transform="translate(610 10) rotate(0 30 30)"><path d="M0 0 C15.041639495640993 0, 30.083278991281986 0, 60 0 M0 0 C14.496247541159393 0, 28.992495082318786 0, 60 0 M60 0 C60 23.889499951153997, 60 47.778999902307994, 60 60 M60 0 C60 17.861893784254793, 60 35.723787568509586, 60 60 M60 60 C40.21818692609668 60, 20.43637385219335 60, 0 60 M60 60 C36.04353617504239 60, 12.087072350084775 60, 0 60 M0 60 C0 41.75297875329852, 0 23.505957506597042, 0 0 M0 60 C0 43.53950034454465, 0 27.07900068908929, 0 0" stroke="#000000" stroke-width="1" fill="none"></path></g><g transform="translate(670 10) rotate(0 30 30)"><path d="M0 0 C14.980094086378813 0, 29.960188172757626 0, 60 0 M0 0 C16.365059304982424 0, 32.73011860996485 0, 60 0 M60 0 C60 18.052142154425386, 60 36.10428430885077, 60 60 M60 0 C60 23.47485976293683, 60 46.94971952587366, 60 60 M60 60 C36.101109612733126 60, 12.202219225466251 60, 0 60 M60 60 C37.534705471247435 60, 15.069410942494862 60, 0 60 M0 60 C0 46.03740047290921, 0 32.074800945818424, 0 0 M0 60 C0 39.22113151475787, 0 18.442263029515743, 0 0" stroke="#000000" stroke-width="1" fill="none"></path></g><g transform="translate(10 70) rotate(0 30 30)"><path d="M0 0 C20.121643591672186 0, 40.24328718334437 0, 60 0 M0 0 C21.7777108065784 0, 43.5554216131568 0, 60 0 M60 0 C60 14.953936267644167, 60 29.907872535288334, 60 60 M60 0 C60 18.95561672374606, 60 37.91123344749212, 60 60 M60 60 C44.66211624071002 60, 29.324232481420037 60, 0 60 M60 60 C41.76780258491635 60, 23.535605169832706 60, 0 60 M0 60 C0 39.35822780057788, 0 18.71645560115575, 0 0 M0 60 C0 39.239348877221346, 0 18.478697754442692, 0 0" stroke="#000000" stroke-width="1" fill="none"></path></g><g transform="translate(70 70) rotate(0 30 30)"><path d="M0 0 C23.857813607901335 0, 47.71562721580267 0, 60 0 M0 0 C19.87834434583783 0, 39.75668869167566 0, 60 0 M60 0 C60 17.45757545158267, 60 34.91515090316534, 60 60 M60 0 C60 18.574871946126226, 60 37.14974389225245, 60 60 M60 60 C37.01305531337857 60, 14.026110626757145 60, 0 60 M60 60 C41.59857649728656 60, 23.197152994573116 60, 0 60 M0 60 C0 45.01416169479489, 0 30.028323389589783, 0 0 M0 60 C0 42.60965235158801, 0 25.219304703176014, 0 0" stroke="#000000" stroke-width="1" fill="none"></path></g><g transform="translate(130 70) rotate(0 30 30)"><path d="M0 0 C12.520667005330324 0, 25.04133401066065 0, 60 0 M0 0 C15.559917937964201 0, 31.119835875928402 0, 60 0 M60 0 C60 18.624623347073797, 60 37.249246694147594, 60 60 M60 0 C60 23.64371145889163, 60 47.28742291778326, 60 60 M60 60 C37.19303209707141 60, 14.386064194142818 60, 0 60 M60 60 C44.88610051944852 60, 29.772201038897034 60, 0 60 M0 60 C0 38.599169444292784, 0 17.198338888585567, 0 0 M0 60 C0 46.528663504868746, 0 33.05732700973749, 0 0" stroke="#000000" stroke-width="1" fill="none"></path></g><g transform="translate(190 70) rotate(0 30 30)"><path d="M0 0 C17.117014300078154 0, 34.23402860015631 0, 60 0 M0 0 C12.798783469945192 0, 25.597566939890385 0, 60 0 M60 0 C60 13.193586599081755, 60 26.38717319816351, 60 60 M60 0 C60 21.59583215788007, 60 43.19166431576014, 60 60 M60 60 C36.85235773399472 60, 13.704715467989445 60, 0 60 M60 60 C36.95817429944873 60, 13.916348598897457 60, 0 60 M0 60 C0 40.50824545696378, 0 21.016490913927555, 0 0 M0 60 C0 41.1160435192287, 0 22.232087038457394, 0 0" stroke="#000000" stroke-width="1" fill="none"></path></g><g transform="translate(250 70) rotate(0 30 30)"><path d="M0 0 C19.397279072552923 0, 38.794558145105846 0, 60 0 M0 0 C14.076877724379301 0, 28.153755448758602 0, 60 0 M60 0 C60 15.618724275380377, 60 31.237448550760753, 60 60 M60 0 C60 12.414093028753998, 60 24.828186057507995, 60 60 M60 60 C44.160177659243345 60, 28.320355318486683 60, 0 60 M60 60 C40.03160868957639 60, 20.063217379152775 60, 0 60 M0 60 C0 45.516453098505735, 0 31.03290619701147, 0 0 M0 60 C0 44.53671668842435, 0 29.073433376848698, 0 0" stroke="#ccc" stroke-width="1" fill="none"></path></g><g transform="translate(310 70) rotate(0 30 30)"><path d="M0 0 C14.05811120197177 0, 28.11622240394354 0, 60 0 M0 0 C16.96463351324201 0, 33.92926702648402 0, 60 0 M60 0 C60 19.43949688598514, 60 38.87899377197028, 60 60 M60 0 C60 20.68459098413587, 60 41.36918196827174, 60 60 M60 60 C47.935789335519075 60, 35.87157867103815 60, 0 60 M60 60 C41.783054541796446 60, 23.566109083592885 60, 0 60 M0 60 C0 44.707517970353365, 0 29.41503594070673, 0 0 M0 60 C0 43.85126693174243, 0 27.70253386348486, 0 0" stroke="#ccc" stroke-width="1" fill="none"></path></g><g transform="translate(370 70) rotate(0 30 30)"><path d="M0 0 C23.085830379277468 0, 46.171660758554935 0, 60 0 M0 0 C19.8243177048862 0, 39.6486354097724 0, 60 0 M60 0 C60 23.95418338850141, 60 47.90836677700282, 60 60 M60 0 C60 17.89139522239566, 60 35.78279044479132, 60 60 M60 60 C44.48701484128833 60, 28.974029682576656 60, 0 60 M60 60 C45.82578705623746 60, 31.65157411247492 60, 0 60 M0 60 C0 44.599946927279234, 0 29.199893854558464, 0 0 M0 60 C0 40.506062138825655, 0 21.01212427765131, 0 0" stroke="#ccc" stroke-width="1" fill="none"></path></g><g transform="translate(430 70) rotate(0 30 30)"><path d="M0 0 C20.118238102644682 0, 40.236476205289364 0, 60 0 M0 0 C23.639932561665773 0, 47.27986512333155 0, 60 0 M60 0 C60 20.386346351355314, 60 40.77269270271063, 60 60 M60 0 C60 19.538780260831118, 60 39.077560521662235, 60 60 M60 60 C44.69340382888913 60, 29.386807657778256 60, 0 60 M60 60 C36.56699163839221 60, 13.13398327678442 60, 0 60 M0 60 C0 36.038126695901155, 0 12.076253391802311, 0 0 M0 60 C0 36.12550325319171, 0 12.251006506383412, 0 0" stroke="#000000" stroke-width="1" fill="none"></path></g><g transform="translate(490 70) rotate(0 30 30)"><path d="M0 0 C15.47145276144147 0, 30.94290552288294 0, 60 0 M0 0 C19.184684168547395 0, 38.36936833709479 0, 60 0 M60 0 C60 21.324726272374395, 60 42.64945254474879, 60 60 M60 0 C60 16.461970578879118, 60 32.923941157758236, 60 60 M60 60 C47.29622430726886 60, 34.592448614537716 60, 0 60 M60 60 C45.253376830369234 60, 30.506753660738468 60, 0 60 M0 60 C0 40.41373784467578, 0 20.82747568935155, 0 0 M0 60 C0 46.167534817010164, 0 32.33506963402033, 0 0" stroke="#ccc" stroke-width="1" fill="none"></path></g><g transform="translate(550 70) rotate(0 30 30)"><path d="M0 0 C14.496247541159393 0, 28.992495082318786 0, 60 0 M0 0 C23.889499951153997 0, 47.778999902307994 0, 60 0 M60 0 C60 17.861893784254793, 60 35.723787568509586, 60 60 M60 0 C60 19.781813073903326, 60 39.56362614780665, 60 60 M60 60 C36.04353617504239 60, 12.087072350084775 60, 0 60 M60 60 C41.75297875329852 60, 23.505957506597042 60, 0 60 M0 60 C0 43.53950034454465, 0 27.07900068908929, 0 0 M0 60 C0 45.073151897639036, 0 30.146303795278072, 0 0" stroke="#ccc" stroke-width="1" fill="none"></path></g><g transform="translate(610 70) rotate(0 30 30)"><path d="M0 0 C16.365059304982424 0, 32.73011860996485 0, 60 0 M0 0 C18.052142154425386 0, 36.10428430885077 0, 60 0 M60 0 C60 23.47485976293683, 60 46.94971952587366, 60 60 M60 0 C60 23.898890387266874, 60 47.79778077453375, 60 60 M60 60 C37.534705471247435 60, 15.069410942494862 60, 0 60 M60 60 C46.03740047290921 60, 32.074800945818424 60, 0 60 M0 60 C0 39.22113151475787, 0 18.442263029515743, 0 0 M0 60 C0 42.11525093391538, 0 24.230501867830746, 0 0" stroke="#ccc" stroke-width="1" fill="none"></path></g><g transform="translate(670 70) rotate(0 30 30)"><path d="M0 0 C21.7777108065784 0, 43.5554216131568 0, 60 0 M0 0 C14.953936267644167 0, 29.907872535288334 0, 60 0 M60 0 C60 18.95561672374606, 60 37.91123344749212, 60 60 M60 0 C60 15.337883759289982, 60 30.675767518579963, 60 60 M60 60 C41.76780258491635 60, 23.535605169832706 60, 0 60 M60 60 C39.35822780057788 60, 18.71645560115575 60, 0 60 M0 60 C0 39.239348877221346, 0 18.478697754442692, 0 0 M0 60 C0 37.27783102914691, 0 14.55566205829382, 0 0" stroke="#000000" stroke-width="1" fill="none"></path></g><g transform="translate(10 130) rotate(0 30 30)"><path d="M0 0 C19.87834434583783 0, 39.75668869167566 0, 60 0 M0 0 C17.45757545158267 0, 34.91515090316534 0, 60 0 M60 0 C60 18.574871946126226, 60 37.14974389225245, 60 60 M60 0 C60 22.986944686621428, 60 45.973889373242855, 60 60 M60 60 C41.59857649728656 60, 23.197152994573116 60, 0 60 M60 60 C45.01416169479489 60, 30.028323389589783 60, 0 60 M0 60 C0 42.60965235158801, 0 25.219304703176014, 0 0 M0 60 C0 38.18160795047879, 0 16.363215900957584, 0 0" stroke="#000000" stroke-width="1" fill="none"></path></g><g transform="translate(70 130) rotate(0 30 30)"><path d="M0 0 C15.559917937964201 0, 31.119835875928402 0, 60 0 M0 0 C18.624623347073797 0, 37.249246694147594 0, 60 0 M60 0 C60 23.64371145889163, 60 47.28742291778326, 60 60 M60 0 C60 22.80696790292859, 60 45.61393580585718, 60 60 M60 60 C44.88610051944852 60, 29.772201038897034 60, 0 60 M60 60 C38.599169444292784 60, 17.198338888585567 60, 0 60 M0 60 C0 46.528663504868746, 0 33.05732700973749, 0 0 M0 60 C0 44.39737756177783, 0 28.794755123555657, 0 0" stroke="#ccc" stroke-width="1" fill="none"></path></g><g transform="translate(130 130) rotate(0 30 30)"><path d="M0 0 C12.798783469945192 0, 25.597566939890385 0, 60 0 M0 0 C13.193586599081755 0, 26.38717319816351 0, 60 0 M60 0 C60 21.59583215788007, 60 43.19166431576014, 60 60 M60 0 C60 23.147642266005278, 60 46.295284532010555, 60 60 M60 60 C36.95817429944873 60, 13.916348598897457 60, 0 60 M60 60 C40.50824545696378 60, 21.016490913927555 60, 0 60 M0 60 C0 41.1160435192287, 0 22.232087038457394, 0 0 M0 60 C0 37.81228457763791, 0 15.624569155275822, 0 0" stroke="#000000" stroke-width="1" fill="none"></path></g><g transform="translate(190 130) rotate(0 30 30)"><path d="M0 0 C14.076877724379301 0, 28.153755448758602 0, 60 0 M0 0 C15.618724275380377 0, 31.237448550760753 0, 60 0 M60 0 C60 12.414093028753998, 60 24.828186057507995, 60 60 M60 0 C60 15.839822340756658, 60 31.679644681513317, 60 60 M60 60 C40.03160868957639 60, 20.063217379152775 60, 0 60 M60 60 C45.516453098505735 60, 31.03290619701147 60, 0 60 M0 60 C0 44.53671668842435, 0 29.073433376848698, 0 0 M0 60 C0 36.7888471595943, 0 13.577694319188595, 0 0" stroke="#ccc" stroke-width="1" fill="none"></path></g><g transform="translate(250 130) rotate(0 30 30)"><path d="M0 0 C16.96463351324201 0, 33.92926702648402 0, 60 0 M0 0 C19.43949688598514 0, 38.87899377197028 0, 60 0 M60 0 C60 20.68459098413587, 60 41.36918196827174, 60 60 M60 0 C60 12.064210664480925, 60 24.12842132896185, 60 60 M60 60 C41.783054541796446 60, 23.566109083592885 60, 0 60 M60 60 C44.707517970353365 60, 29.41503594070673 60, 0 60 M0 60 C0 43.85126693174243, 0 27.70253386348486, 0 0 M0 60 C0 38.44124077633023, 0 16.882481552660458, 0 0" stroke="#ccc" stroke-width="1" fill="none"></path></g><g transform="translate(310 130) rotate(0 30 30)"><path d="M0 0 C19.8243177048862 0, 39.6486354097724 0, 60 0 M0 0 C23.95418338850141 0, 47.90836677700282 0, 60 0 M60 0 C60 17.89139522239566, 60 35.78279044479132, 60 60 M60 0 C60 15.512985158711672, 60 31.025970317423344, 60 60 M60 60 C45.82578705623746 60, 31.65157411247492 60, 0 60 M60 60 C44.599946927279234 60, 29.199893854558464 60, 0 60 M0 60 C0 40.506062138825655, 0 21.01212427765131, 0 0 M0 60 C0 37.13351423665881, 0 14.267028473317616, 0 0" stroke="#ccc" stroke-width="1" fill="none"></path></g><g transform="translate(370 130) rotate(0 30 30)"><path d="M0 0 C23.639932561665773 0, 47.27986512333155 0, 60 0 M0 0 C20.386346351355314 0, 40.77269270271063 0, 60 0 M60 0 C60 19.538780260831118, 60 39.077560521662235, 60 60 M60 0 C60 15.306596171110872, 60 30.613192342221744, 60 60 M60 60 C36.56699163839221 60, 13.13398327678442 60, 0 60 M60 60 C36.038126695901155 60, 12.076253391802311 60, 0 60 M0 60 C0 36.12550325319171, 0 12.251006506383412, 0 0 M0 60 C0 43.86571775749326, 0 27.731435514986508, 0 0" stroke="#ccc" stroke-width="1" fill="none"></path></g><g transform="translate(430 130) rotate(0 30 30)"><path d="M0 0 C19.184684168547395 0, 38.36936833709479 0, 60 0 M0 0 C21.324726272374395 0, 42.64945254474879 0, 60 0 M60 0 C60 16.461970578879118, 60 32.923941157758236, 60 60 M60 0 C60 12.703775692731142, 60 25.407551385462284, 60 60 M60 60 C45.253376830369234 60, 30.506753660738468 60, 0 60 M60 60 C40.41373784467578 60, 20.82747568935155 60, 0 60 M0 60 C0 46.167534817010164, 0 32.33506963402033, 0 0 M0 60 C0 42.06187195703387, 0 24.123743914067738, 0 0" stroke="#000000" stroke-width="1" fill="none"></path></g><g transform="translate(490 130) rotate(0 30 30)"><path d="M0 0 C23.889499951153997 0, 47.778999902307994 0, 60 0 M0 0 C17.861893784254793 0, 35.723787568509586 0, 60 0 M60 0 C60 19.781813073903326, 60 39.56362614780665, 60 60 M60 0 C60 23.956463824957613, 60 47.912927649915225, 60 60 M60 60 C41.75297875329852 60, 23.505957506597042 60, 0 60 M60 60 C43.53950034454465 60, 27.07900068908929 60, 0 60 M0 60 C0 45.073151897639036, 0 30.146303795278072, 0 0 M0 60 C0 40.621237982064486, 0 21.24247596412897, 0 0" stroke="#ccc" stroke-width="1" fill="none"></path></g><g transform="translate(550 130) rotate(0 30 30)"><path d="M0 0 C18.052142154425386 0, 36.10428430885077 0, 60 0 M0 0 C23.47485976293683 0, 46.94971952587366 0, 60 0 M60 0 C60 23.898890387266874, 60 47.79778077453375, 60 60 M60 0 C60 22.46529452875257, 60 44.93058905750514, 60 60 M60 60 C46.03740047290921 60, 32.074800945818424 60, 0 60 M60 60 C39.22113151475787 60, 18.442263029515743 60, 0 60 M0 60 C0 42.11525093391538, 0 24.230501867830746, 0 0 M0 60 C0 39.77863223478198, 0 19.55726446956396, 0 0" stroke="#000000" stroke-width="1" fill="none"></path></g><g transform="translate(610 130) rotate(0 30 30)"><path d="M0 0 C14.953936267644167 0, 29.907872535288334 0, 60 0 M0 0 C18.95561672374606 0, 37.91123344749212 0, 60 0 M60 0 C60 15.337883759289982, 60 30.675767518579963, 60 60 M60 0 C60 18.232197415083647, 60 36.46439483016729, 60 60 M60 60 C39.35822780057788 60, 18.71645560115575 60, 0 60 M60 60 C39.239348877221346 60, 18.478697754442692 60, 0 60 M0 60 C0 37.27783102914691, 0 14.55566205829382, 0 0 M0 60 C0 46.35660516098142, 0 32.71321032196283, 0 0" stroke="#ccc" stroke-width="1" fill="none"></path></g><g transform="translate(670 130) rotate(0 30 30)"><path d="M0 0 C17.45757545158267 0, 34.91515090316534 0, 60 0 M0 0 C18.574871946126226 0, 37.14974389225245 0, 60 0 M60 0 C60 22.986944686621428, 60 45.973889373242855, 60 60 M60 0 C60 18.401423502713442, 60 36.802847005426884, 60 60 M60 60 C45.01416169479489 60, 30.028323389589783 60, 0 60 M60 60 C42.60965235158801 60, 25.219304703176014 60, 0 60 M0 60 C0 38.18160795047879, 0 16.363215900957584, 0 0 M0 60 C0 39.687725733965635, 0 19.37545146793127, 0 0" stroke="#000000" stroke-width="1" fill="none"></path></g><g transform="translate(10 190) rotate(0 30 30)"><path d="M0 0 C18.624623347073797 0, 37.249246694147594 0, 60 0 M0 0 C23.64371145889163 0, 47.28742291778326 0, 60 0 M60 0 C60 22.80696790292859, 60 45.61393580585718, 60 60 M60 0 C60 15.113899480551483, 60 30.227798961102966, 60 60 M60 60 C38.599169444292784 60, 17.198338888585567 60, 0 60 M60 60 C46.528663504868746 60, 33.05732700973749 60, 0 60 M0 60 C0 44.39737756177783, 0 28.794755123555657, 0 0 M0 60 C0 38.20890425518155, 0 16.417808510363095, 0 0" stroke="#000000" stroke-width="1" fill="none"></path></g><g transform="translate(70 190) rotate(0 30 30)"><path d="M0 0 C13.193586599081755 0, 26.38717319816351 0, 60 0 M0 0 C21.59583215788007 0, 43.19166431576014 0, 60 0 M60 0 C60 23.147642266005278, 60 46.295284532010555, 60 60 M60 0 C60 23.04182570055127, 60 46.08365140110254, 60 60 M60 60 C40.50824545696378 60, 21.016490913927555 60, 0 60 M60 60 C41.1160435192287 60, 22.232087038457394 60, 0 60 M0 60 C0 37.81228457763791, 0 15.624569155275822, 0 0 M0 60 C0 42.01730186864734, 0 24.034603737294667, 0 0" stroke="#ccc" stroke-width="1" fill="none"></path></g><g transform="translate(130 190) rotate(0 30 30)"><path d="M0 0 C15.618724275380377 0, 31.237448550760753 0, 60 0 M0 0 C12.414093028753998 0, 24.828186057507995 0, 60 0 M60 0 C60 15.839822340756658, 60 31.679644681513317, 60 60 M60 0 C60 19.968391310423613, 60 39.936782620847225, 60 60 M60 60 C45.516453098505735 60, 31.03290619701147 60, 0 60 M60 60 C44.53671668842435 60, 29.073433376848698 60, 0 60 M0 60 C0 36.7888471595943, 0 13.577694319188595, 0 0 M0 60 C0 37.17850147560239, 0 14.35700295120477, 0 0" stroke="#000000" stroke-width="1" fill="none"></path></g><g transform="translate(190 190) rotate(0 30 30)"><path d="M0 0 C19.43949688598514 0, 38.87899377197028 0, 60 0 M0 0 C20.68459098413587 0, 41.36918196827174 0, 60 0 M60 0 C60 12.064210664480925, 60 24.12842132896185, 60 60 M60 0 C60 18.216945458203558, 60 36.433890916407115, 60 60 M60 60 C44.707517970353365 60, 29.41503594070673 60, 0 60 M60 60 C43.85126693174243 60, 27.70253386348486 60, 0 60 M0 60 C0 38.44124077633023, 0 16.882481552660458, 0 0 M0 60 C0 43.444728802889585, 0 26.889457605779164, 0 0" stroke="#ccc" stroke-width="1" fill="none"></path></g><g transform="translate(250 190) rotate(0 30 30)"><path d="M0 0 C23.95418338850141 0, 47.90836677700282 0, 60 0 M0 0 C17.89139522239566 0, 35.78279044479132 0, 60 0 M60 0 C60 15.512985158711672, 60 31.025970317423344, 60 60 M60 0 C60 14.17421294376254, 60 28.34842588752508, 60 60 M60 60 C44.599946927279234 60, 29.199893854558464 60, 0 60 M60 60 C40.506062138825655 60, 21.01212427765131 60, 0 60 M0 60 C0 37.13351423665881, 0 14.267028473317616, 0 0 M0 60 C0 36.50404428318143, 0 13.008088566362858, 0 0" stroke="#ccc" stroke-width="1" fill="none"></path></g><g transform="translate(310 190) rotate(0 30 30)"><path d="M0 0 C20.386346351355314 0, 40.77269270271063 0, 60 0 M0 0 C19.538780260831118 0, 39.077560521662235 0, 60 0 M60 0 C60 15.306596171110872, 60 30.613192342221744, 60 60 M60 0 C60 23.43300836160779, 60 46.86601672321558, 60 60 M60 60 C36.038126695901155 60, 12.076253391802311 60, 0 60 M60 60 C36.12550325319171 60, 12.251006506383412 60, 0 60 M0 60 C0 43.86571775749326, 0 27.731435514986508, 0 0 M0 60 C0 42.72159345075488, 0 25.443186901509755, 0 0" stroke="#000" stroke-width="1" fill="none"></path></g><g transform="translate(370 190) rotate(0 30 30)"><path d="M0 0 C21.324726272374395 0, 42.64945254474879 0, 60 0 M0 0 C16.461970578879118 0, 32.923941157758236 0, 60 0 M60 0 C60 12.703775692731142, 60 25.407551385462284, 60 60 M60 0 C60 14.746623169630766, 60 29.493246339261532, 60 60 M60 60 C40.41373784467578 60, 20.82747568935155 60, 0 60 M60 60 C46.167534817010164 60, 32.33506963402033 60, 0 60 M0 60 C0 42.06187195703387, 0 24.123743914067738, 0 0 M0 60 C0 38.03746138885617, 0 16.074922777712345, 0 0" stroke="#ccc" stroke-width="1" fill="none"></path></g><g transform="translate(430 190) rotate(0 30 30)"><path d="M0 0 C17.861893784254793 0, 35.723787568509586 0, 60 0 M0 0 C19.781813073903326 0, 39.56362614780665 0, 60 0 M60 0 C60 23.956463824957613, 60 47.912927649915225, 60 60 M60 0 C60 18.24702124670148, 60 36.49404249340296, 60 60 M60 60 C43.53950034454465 60, 27.07900068908929 60, 0 60 M60 60 C45.073151897639036 60, 30.146303795278072 60, 0 60 M0 60 C0 40.621237982064486, 0 21.24247596412897, 0 0 M0 60 C0 46.29870147630572, 0 32.597402952611446, 0 0" stroke="#000000" stroke-width="1" fill="none"></path></g><g transform="translate(490 190) rotate(0 30 30)"><path d="M0 0 C23.47485976293683 0, 46.94971952587366 0, 60 0 M0 0 C23.898890387266874 0, 47.79778077453375 0, 60 0 M60 0 C60 22.46529452875257, 60 44.93058905750514, 60 60 M60 0 C60 13.962599527090788, 60 27.925199054181576, 60 60 M60 60 C39.22113151475787 60, 18.442263029515743 60, 0 60 M60 60 C42.11525093391538 60, 24.230501867830746 60, 0 60 M0 60 C0 39.77863223478198, 0 19.55726446956396, 0 0 M0 60 C0 40.61896275356412, 0 21.23792550712823, 0 0" stroke="#ccc" stroke-width="1" fill="none"></path></g><g transform="translate(550 190) rotate(0 30 30)"><path d="M0 0 C18.95561672374606 0, 37.91123344749212 0, 60 0 M0 0 C15.337883759289982 0, 30.675767518579963 0, 60 0 M60 0 C60 18.232197415083647, 60 36.46439483016729, 60 60 M60 0 C60 20.641772199422125, 60 41.28354439884425, 60 60 M60 60 C39.239348877221346 60, 18.478697754442692 60, 0 60 M60 60 C37.27783102914691 60, 14.55566205829382 60, 0 60 M0 60 C0 46.35660516098142, 0 32.71321032196283, 0 0 M0 60 C0 37.95107729360461, 0 15.902154587209218, 0 0" stroke="#000000" stroke-width="1" fill="none"></path></g><g transform="translate(610 190) rotate(0 30 30)"><path d="M0 0 C18.574871946126226 0, 37.14974389225245 0, 60 0 M0 0 C22.986944686621428 0, 45.973889373242855 0, 60 0 M60 0 C60 18.401423502713442, 60 36.802847005426884, 60 60 M60 0 C60 14.985838305205109, 60 29.971676610410217, 60 60 M60 60 C42.60965235158801 60, 25.219304703176014 60, 0 60 M60 60 C38.18160795047879 60, 16.363215900957584 60, 0 60 M0 60 C0 39.687725733965635, 0 19.37545146793127, 0 0 M0 60 C0 40.45203958824277, 0 20.90407917648554, 0 0" stroke="#ccc" stroke-width="1" fill="none"></path></g><g transform="translate(670 190) rotate(0 30 30)"><path d="M0 0 C23.64371145889163 0, 47.28742291778326 0, 60 0 M0 0 C22.80696790292859 0, 45.61393580585718 0, 60 0 M60 0 C60 15.113899480551483, 60 30.227798961102966, 60 60 M60 0 C60 21.400830555707216, 60 42.80166111141443, 60 60 M60 60 C46.528663504868746 60, 33.05732700973749 60, 0 60 M60 60 C44.39737756177783 60, 28.794755123555657 60, 0 60 M0 60 C0 38.20890425518155, 0 16.417808510363095, 0 0 M0 60 C0 44.40296406671405, 0 28.80592813342809, 0 0" stroke="#000000" stroke-width="1" fill="none"></path></g><g transform="translate(10 250) rotate(0 30 30)"><path d="M0 0 C21.59583215788007 0, 43.19166431576014 0, 60 0 M0 0 C23.147642266005278 0, 46.295284532010555 0, 60 0 M60 0 C60 23.04182570055127, 60 46.08365140110254, 60 60 M60 0 C60 19.491754543036222, 60 38.983509086072445, 60 60 M60 60 C41.1160435192287 60, 22.232087038457394 60, 0 60 M60 60 C37.81228457763791 60, 15.624569155275822 60, 0 60 M0 60 C0 42.01730186864734, 0 24.034603737294667, 0 0 M0 60 C0 43.47846435382962, 0 26.956928707659245, 0 0" stroke="#ccc" stroke-width="1" fill="none"></path></g><g transform="translate(70 250) rotate(0 30 30)"><path d="M0 0 C12.414093028753998 0, 24.828186057507995 0, 60 0 M0 0 C15.839822340756658 0, 31.679644681513317 0, 60 0 M60 0 C60 19.968391310423613, 60 39.936782620847225, 60 60 M60 0 C60 14.483546901494265, 60 28.96709380298853, 60 60 M60 60 C44.53671668842435 60, 29.073433376848698 60, 0 60 M60 60 C36.7888471595943 60, 13.577694319188595 60, 0 60 M0 60 C0 37.17850147560239, 0 14.35700295120477, 0 0 M0 60 C0 44.95282370969653, 0 29.90564741939306, 0 0" stroke="#000000" stroke-width="1" fill="none"></path></g><g transform="translate(130 250) rotate(0 30 30)"><path d="M0 0 C20.68459098413587 0, 41.36918196827174 0, 60 0 M0 0 C12.064210664480925 0, 24.12842132896185 0, 60 0 M60 0 C60 18.216945458203558, 60 36.433890916407115, 60 60 M60 0 C60 15.292482029646635, 60 30.58496405929327, 60 60 M60 60 C43.85126693174243 60, 27.70253386348486 60, 0 60 M60 60 C38.44124077633023 60, 16.882481552660458 60, 0 60 M0 60 C0 43.444728802889585, 0 26.889457605779164, 0 0 M0 60 C0 41.75329076126218, 0 23.506581522524357, 0 0" stroke="#000000" stroke-width="1" fill="none"></path></g><g transform="translate(190 250) rotate(0 30 30)"><path d="M0 0 C17.89139522239566 0, 35.78279044479132 0, 60 0 M0 0 C15.512985158711672 0, 31.025970317423344 0, 60 0 M60 0 C60 14.17421294376254, 60 28.34842588752508, 60 60 M60 0 C60 15.400053072720768, 60 30.800106145441536, 60 60 M60 60 C40.506062138825655 60, 21.01212427765131 60, 0 60 M60 60 C37.13351423665881 60, 14.267028473317616 60, 0 60 M0 60 C0 36.50404428318143, 0 13.008088566362858, 0 0 M0 60 C0 37.09833688661456, 0 14.196673773229115, 0 0" stroke="#000000" stroke-width="1" fill="none"></path></g><g transform="translate(250 250) rotate(0 30 30)"><path d="M0 0 C19.538780260831118 0, 39.077560521662235 0, 60 0 M0 0 C15.306596171110872 0, 30.613192342221744 0, 60 0 M60 0 C60 23.43300836160779, 60 46.86601672321558, 60 60 M60 0 C60 23.961873304098845, 60 47.92374660819769, 60 60 M60 60 C36.12550325319171 60, 12.251006506383412 60, 0 60 M60 60 C43.86571775749326 60, 27.731435514986508 60, 0 60 M0 60 C0 42.72159345075488, 0 25.443186901509755, 0 0 M0 60 C0 37.81985377147794, 0 15.639707542955875, 0 0" stroke="#000000" stroke-width="1" fill="none"></path></g><g transform="translate(310 250) rotate(0 30 30)"><path d="M0 0 C16.461970578879118 0, 32.923941157758236 0, 60 0 M0 0 C12.703775692731142 0, 25.407551385462284 0, 60 0 M60 0 C60 14.746623169630766, 60 29.493246339261532, 60 60 M60 0 C60 19.586262155324224, 60 39.17252431064845, 60 60 M60 60 C46.167534817010164 60, 32.33506963402033 60, 0 60 M60 60 C42.06187195703387 60, 24.123743914067738 60, 0 60 M0 60 C0 38.03746138885617, 0 16.074922777712345, 0 0 M0 60 C0 42.16140301153064, 0 24.322806023061275, 0 0" stroke="#000000" stroke-width="1" fill="none"></path></g><g transform="translate(370 250) rotate(0 30 30)"><path d="M0 0 C19.781813073903326 0, 39.56362614780665 0, 60 0 M0 0 C23.956463824957613 0, 47.912927649915225 0, 60 0 M60 0 C60 18.24702124670148, 60 36.49404249340296, 60 60 M60 0 C60 16.460499655455354, 60 32.92099931091071, 60 60 M60 60 C45.073151897639036 60, 30.146303795278072 60, 0 60 M60 60 C40.621237982064486 60, 21.24247596412897 60, 0 60 M0 60 C0 46.29870147630572, 0 32.597402952611446, 0 0 M0 60 C0 45.0847695954144, 0 30.1695391908288, 0 0" stroke="#000000" stroke-width="1" fill="none"></path></g><g transform="translate(430 250) rotate(0 30 30)"><path d="M0 0 C23.898890387266874 0, 47.79778077453375 0, 60 0 M0 0 C22.46529452875257 0, 44.93058905750514 0, 60 0 M60 0 C60 13.962599527090788, 60 27.925199054181576, 60 60 M60 0 C60 20.77886848524213, 60 41.55773697048426, 60 60 M60 60 C42.11525093391538 60, 24.230501867830746 60, 0 60 M60 60 C39.77863223478198 60, 19.55726446956396 60, 0 60 M0 60 C0 40.61896275356412, 0 21.23792550712823, 0 0 M0 60 C0 38.91314024850726, 0 17.826280497014515, 0 0" stroke="#000000" stroke-width="1" fill="none"></path></g><g transform="translate(490 250) rotate(0 30 30)"><path d="M0 0 C15.337883759289982 0, 30.675767518579963 0, 60 0 M0 0 C18.232197415083647 0, 36.46439483016729 0, 60 0 M60 0 C60 20.641772199422125, 60 41.28354439884425, 60 60 M60 0 C60 20.760651122778654, 60 41.52130224555731, 60 60 M60 60 C37.27783102914691 60, 14.55566205829382 60, 0 60 M60 60 C46.35660516098142 60, 32.71321032196283 60, 0 60 M0 60 C0 37.95107729360461, 0 15.902154587209218, 0 0 M0 60 C0 40.192935694009066, 0 20.38587138801813, 0 0" stroke="#000000" stroke-width="1" fill="none"></path></g><g transform="translate(550 250) rotate(0 30 30)"><path d="M0 0 C22.986944686621428 0, 45.973889373242855 0, 60 0 M0 0 C18.401423502713442 0, 36.802847005426884 0, 60 0 M60 0 C60 14.985838305205109, 60 29.971676610410217, 60 60 M60 0 C60 17.390347648411993, 60 34.780695296823986, 60 60 M60 60 C38.18160795047879 60, 16.363215900957584 60, 0 60 M60 60 C39.687725733965635 60, 19.37545146793127 60, 0 60 M0 60 C0 40.45203958824277, 0 20.90407917648554, 0 0 M0 60 C0 41.19888551160693, 0 22.397771023213856, 0 0" stroke="#000000" stroke-width="1" fill="none"></path></g><g transform="translate(610 250) rotate(0 30 30)"><path d="M0 0 C22.80696790292859 0, 45.61393580585718 0, 60 0 M0 0 C15.113899480551483 0, 30.227798961102966 0, 60 0 M60 0 C60 21.400830555707216, 60 42.80166111141443, 60 60 M60 0 C60 13.471336495131254, 60 26.94267299026251, 60 60 M60 60 C44.39737756177783 60, 28.794755123555657 60, 0 60 M60 60 C38.20890425518155 60, 16.417808510363095 60, 0 60 M0 60 C0 44.40296406671405, 0 28.80592813342809, 0 0 M0 60 C0 47.402530778199434, 0 34.80506155639887, 0 0" stroke="#ccc" stroke-width="1" fill="none"></path></g><g transform="translate(670 250) rotate(0 30 30)"><path d="M0 0 C23.147642266005278 0, 46.295284532010555 0, 60 0 M0 0 C23.04182570055127 0, 46.08365140110254 0, 60 0 M60 0 C60 19.491754543036222, 60 38.983509086072445, 60 60 M60 0 C60 18.883956480771303, 60 37.767912961542606, 60 60 M60 60 C37.81228457763791 60, 15.624569155275822 60, 0 60 M60 60 C42.01730186864734 60, 24.034603737294667 60, 0 60 M0 60 C0 43.47846435382962, 0 26.956928707659245, 0 0 M0 60 C0 43.56319446489215, 0 27.126388929784298, 0 0" stroke="#000000" stroke-width="1" fill="none"></path></g><g transform="translate(10 310) rotate(0 30 30)"><path d="M0 0 C15.839822340756658 0, 31.679644681513317 0, 60 0 M0 0 C19.968391310423613 0, 39.936782620847225 0, 60 0 M60 0 C60 14.483546901494265, 60 28.96709380298853, 60 60 M60 0 C60 15.463283311575651, 60 30.926566623151302, 60 60 M60 60 C36.7888471595943 60, 13.577694319188595 60, 0 60 M60 60 C37.17850147560239 60, 14.35700295120477 60, 0 60 M0 60 C0 44.95282370969653, 0 29.90564741939306, 0 0 M0 60 C0 42.960014808923006, 0 25.920029617846012, 0 0" stroke="#ccc" stroke-width="1" fill="none"></path></g><g transform="translate(70 310) rotate(0 30 30)"><path d="M0 0 C12.064210664480925 0, 24.12842132896185 0, 60 0 M0 0 C18.216945458203558 0, 36.433890916407115 0, 60 0 M60 0 C60 15.292482029646635, 60 30.58496405929327, 60 60 M60 0 C60 16.14873306825757, 60 32.29746613651514, 60 60 M60 60 C38.44124077633023 60, 16.882481552660458 60, 0 60 M60 60 C43.444728802889585 60, 26.889457605779164 60, 0 60 M0 60 C0 41.75329076126218, 0 23.506581522524357, 0 0 M0 60 C0 38.87484152242541, 0 17.749683044850826, 0 0" stroke="#ccc" stroke-width="1" fill="none"></path></g><g transform="translate(130 310) rotate(0 30 30)"><path d="M0 0 C15.512985158711672 0, 31.025970317423344 0, 60 0 M0 0 C14.17421294376254 0, 28.34842588752508 0, 60 0 M60 0 C60 15.400053072720768, 60 30.800106145441536, 60 60 M60 0 C60 19.493937861174345, 60 38.98787572234869, 60 60 M60 60 C37.13351423665881 60, 14.267028473317616 60, 0 60 M60 60 C36.50404428318143 60, 13.008088566362858 60, 0 60 M0 60 C0 37.09833688661456, 0 14.196673773229115, 0 0 M0 60 C0 39.47512899711728, 0 18.950257994234562, 0 0" stroke="#000000" stroke-width="1" fill="none"></path></g><g transform="translate(190 310) rotate(0 30 30)"><path d="M0 0 C15.306596171110872 0, 30.613192342221744 0, 60 0 M0 0 C23.43300836160779 0, 46.86601672321558 0, 60 0 M60 0 C60 23.961873304098845, 60 47.92374660819769, 60 60 M60 0 C60 23.874496746808294, 60 47.74899349361659, 60 60 M60 60 C43.86571775749326 60, 27.731435514986508 60, 0 60 M60 60 C42.72159345075488 60, 25.443186901509755 60, 0 60 M0 60 C0 37.81985377147794, 0 15.639707542955875, 0 0 M0 60 C0 47.951819848269224, 0 35.90363969653845, 0 0" stroke="#ccc" stroke-width="1" fill="none"></path></g><g transform="translate(250 310) rotate(0 30 30)"><path d="M0 0 C12.703775692731142 0, 25.407551385462284 0, 60 0 M0 0 C14.746623169630766 0, 29.493246339261532 0, 60 0 M60 0 C60 19.586262155324224, 60 39.17252431064845, 60 60 M60 0 C60 13.832465182989838, 60 27.664930365979675, 60 60 M60 60 C42.06187195703387 60, 24.123743914067738 60, 0 60 M60 60 C38.03746138885617 60, 16.074922777712345 60, 0 60 M0 60 C0 42.16140301153064, 0 24.322806023061275, 0 0 M0 60 C0 38.29589580371976, 0 16.591791607439518, 0 0" stroke="#ccc" stroke-width="1" fill="none"></path></g><g transform="translate(310 310) rotate(0 30 30)"><path d="M0 0 C23.956463824957613 0, 47.912927649915225 0, 60 0 M0 0 C18.24702124670148 0, 36.49404249340296 0, 60 0 M60 0 C60 16.460499655455354, 60 32.92099931091071, 60 60 M60 0 C60 14.926848102360964, 60 29.853696204721928, 60 60 M60 60 C40.621237982064486 60, 21.24247596412897 60, 0 60 M60 60 C46.29870147630572 60, 32.597402952611446 60, 0 60 M0 60 C0 45.0847695954144, 0 30.1695391908288, 0 0 M0 60 C0 41.18634135648608, 0 22.372682712972164, 0 0" stroke="#000" stroke-width="1" fill="none"></path></g><g transform="translate(370 310) rotate(0 30 30)"><path d="M0 0 C22.46529452875257 0, 44.93058905750514 0, 60 0 M0 0 C13.962599527090788 0, 27.925199054181576 0, 60 0 M60 0 C60 20.77886848524213, 60 41.55773697048426, 60 60 M60 0 C60 17.884749066084627, 60 35.769498132169254, 60 60 M60 60 C39.77863223478198 60, 19.55726446956396 60, 0 60 M60 60 C40.61896275356412 60, 21.23792550712823 60, 0 60 M0 60 C0 38.91314024850726, 0 17.826280497014515, 0 0 M0 60 C0 41.88361893966794, 0 23.767237879335873, 0 0" stroke="#ccc" stroke-width="1" fill="none"></path></g><g transform="translate(430 310) rotate(0 30 30)"><path d="M0 0 C18.232197415083647 0, 36.46439483016729 0, 60 0 M0 0 C20.641772199422125 0, 41.28354439884425 0, 60 0 M60 0 C60 20.760651122778654, 60 41.52130224555731, 60 60 M60 0 C60 22.72216897085309, 60 45.44433794170618, 60 60 M60 60 C46.35660516098142 60, 32.71321032196283 60, 0 60 M60 60 C37.95107729360461 60, 15.902154587209218 60, 0 60 M0 60 C0 40.192935694009066, 0 20.38587138801813, 0 0 M0 60 C0 40.16983671113849, 0 20.339673422276974, 0 0" stroke="#ccc" stroke-width="1" fill="none"></path></g><g transform="translate(490 310) rotate(0 30 30)"><path d="M0 0 C18.401423502713442 0, 36.802847005426884 0, 60 0 M0 0 C14.985838305205109 0, 29.971676610410217 0, 60 0 M60 0 C60 17.390347648411993, 60 34.780695296823986, 60 60 M60 0 C60 21.818392049521208, 60 43.636784099042416, 60 60 M60 60 C39.687725733965635 60, 19.37545146793127 60, 0 60 M60 60 C40.45203958824277 60, 20.90407917648554 60, 0 60 M0 60 C0 41.19888551160693, 0 22.397771023213856, 0 0 M0 60 C0 42.187883365899324, 0 24.37576673179864, 0 0" stroke="#ccc" stroke-width="1" fill="none"></path></g><g transform="translate(550 310) rotate(0 30 30)"><path d="M0 0 C15.113899480551483 0, 30.227798961102966 0, 60 0 M0 0 C21.400830555707216 0, 42.80166111141443 0, 60 0 M60 0 C60 13.471336495131254, 60 26.94267299026251, 60 60 M60 0 C60 15.602622438222172, 60 31.205244876444343, 60 60 M60 60 C38.20890425518155 60, 16.417808510363095 60, 0 60 M60 60 C44.40296406671405 60, 28.80592813342809 60, 0 60 M0 60 C0 47.402530778199434, 0 34.80506155639887, 0 0 M0 60 C0 39.31795532628894, 0 18.63591065257787, 0 0" stroke="#000000" stroke-width="1" fill="none"></path></g><g transform="translate(610 310) rotate(0 30 30)"><path d="M0 0 C23.04182570055127 0, 46.08365140110254 0, 60 0 M0 0 C19.491754543036222 0, 38.983509086072445 0, 60 0 M60 0 C60 18.883956480771303, 60 37.767912961542606, 60 60 M60 0 C60 22.18771542236209, 60 44.37543084472418, 60 60 M60 60 C42.01730186864734 60, 24.034603737294667 60, 0 60 M60 60 C43.47846435382962 60, 26.956928707659245 60, 0 60 M0 60 C0 43.56319446489215, 0 27.126388929784298, 0 0 M0 60 C0 45.02155529335141, 0 30.043110586702824, 0 0" stroke="#ccc" stroke-width="1" fill="none"></path></g><g transform="translate(670 310) rotate(0 30 30)"><path d="M0 0 C19.968391310423613 0, 39.936782620847225 0, 60 0 M0 0 C14.483546901494265 0, 28.96709380298853 0, 60 0 M60 0 C60 15.463283311575651, 60 30.926566623151302, 60 60 M60 0 C60 23.211152840405703, 60 46.422305680811405, 60 60 M60 60 C37.17850147560239 60, 14.35700295120477 60, 0 60 M60 60 C44.95282370969653 60, 29.90564741939306 60, 0 60 M0 60 C0 42.960014808923006, 0 25.920029617846012, 0 0 M0 60 C0 47.49556536599994, 0 34.991130731999874, 0 0" stroke="#000000" stroke-width="1" fill="none"></path></g><g transform="translate(10 370) rotate(0 30 30)"><path d="M0 0 C12.673540245741606 0, 25.34708049148321 0, 60 0 M0 0 C20.148679185658693 0, 40.29735837131739 0, 60 0 M60 0 C60 12.07734490558505, 60 24.1546898111701, 60 60 M60 0 C60 13.640101958066227, 60 27.280203916132454, 60 60 M60 60 C41.05372058227658 60, 22.107441164553165 60, 0 60 M60 60 C42.287645649164915 60, 24.57529129832983 60, 0 60 M0 60 C0 37.308645475655794, 0 14.617290951311588, 0 0 M0 60 C0 41.66080875322223, 0 23.321617506444454, 0 0" stroke="#000000" stroke-width="1" fill="none"></path></g><g transform="translate(70 370) rotate(0 30 30)"><path d="M0 0 C16.461202193051577 0, 32.92240438610315 0, 60 0 M0 0 C20.89297093078494 0, 41.78594186156988 0, 60 0 M60 0 C60 13.515937495976686, 60 27.031874991953373, 60 60 M60 0 C60 17.36161781474948, 60 34.72323562949896, 60 60 M60 60 C36.146227072924376 60, 12.292454145848744 60, 0 60 M60 60 C42.94313083961606 60, 25.886261679232113 60, 0 60 M0 60 C0 37.62575538083911, 0 15.251510761678219, 0 0 M0 60 C0 36.89932679012418, 0 13.798653580248356, 0 0" stroke="#000000" stroke-width="1" fill="none"></path></g><g transform="translate(130 370) rotate(0 30 30)"><path d="M0 0 C18.691060792654753 0, 37.382121585309505 0, 60 0 M0 0 C20.599799919873476 0, 41.19959983974695 0, 60 0 M60 0 C60 23.818868290632967, 60 47.63773658126593, 60 60 M60 0 C60 18.653535772114996, 60 37.30707154422999, 60 60 M60 60 C38.527037132531404 60, 17.05407426506281 60, 0 60 M60 60 C39.868759106844664 60, 19.737518213689327 60, 0 60 M0 60 C0 44.83798848465085, 0 29.6759769693017, 0 0 M0 60 C0 43.40348608419299, 0 26.806972168385975, 0 0" stroke="#000000" stroke-width="1" fill="none"></path></g><g transform="translate(190 370) rotate(0 30 30)"><path d="M0 0 C16.195522237569094 0, 32.39104447513819 0, 60 0 M0 0 C16.94193221256137 0, 33.88386442512274 0, 60 0 M60 0 C60 16.591257143765688, 60 33.182514287531376, 60 60 M60 0 C60 16.825255762785677, 60 33.65051152557135, 60 60 M60 60 C38.60942442342639 60, 17.21884884685278 60, 0 60 M60 60 C40.8708464987576 60, 21.741692997515194 60, 0 60 M0 60 C0 42.54214258119464, 0 25.08428516238928, 0 0 M0 60 C0 37.67677007988095, 0 15.353540159761899, 0 0" stroke="#000000" stroke-width="1" fill="none"></path></g><g transform="translate(250 370) rotate(0 30 30)"><path d="M0 0 C22.053929697722197 0, 44.10785939544439 0, 60 0 M0 0 C16.009832549840215 0, 32.01966509968043 0, 60 0 M60 0 C60 20.573586713522673, 60 41.147173427045345, 60 60 M60 0 C60 23.920925427228212, 60 47.841850854456425, 60 60 M60 60 C43.52634321525693 60, 27.05268643051385 60, 0 60 M60 60 C40.63134152814746 60, 21.262683056294918 60, 0 60 M0 60 C0 39.76453684642911, 0 19.52907369285822, 0 0 M0 60 C0 47.3685259334743, 0 34.737051866948605, 0 0" stroke="#000000" stroke-width="1" fill="none"></path></g><g transform="translate(310 370) rotate(0 30 30)"><path d="M0 0 C21.240438748151067 0, 42.480877496302135 0, 60 0 M0 0 C22.627013336867098 0, 45.254026673734195 0, 60 0 M60 0 C60 23.604248452931643, 60 47.208496905863285, 60 60 M60 0 C60 22.991297733038667, 60 45.982595466077335, 60 60 M60 60 C40.11334366723895 60, 20.2266873344779 60, 0 60 M60 60 C47.486905205994844 60, 34.97381041198969 60, 0 60 M0 60 C0 37.958113979548216, 0 15.916227959096432, 0 0 M0 60 C0 46.11533473804593, 0 32.23066947609186, 0 0" stroke="#000000" stroke-width="1" fill="none"></path></g><g transform="translate(370 370) rotate(0 30 30)"><path d="M0 0 C17.21881200000644 0, 34.43762400001288 0, 60 0 M0 0 C12.5607839114964 0, 25.1215678229928 0, 60 0 M60 0 C60 12.67707146331668, 60 25.35414292663336, 60 60 M60 0 C60 16.932871509343386, 60 33.86574301868677, 60 60 M60 60 C39.21216129139066 60, 18.424322582781308 60, 0 60 M60 60 C36.4011985771358 60, 12.802397154271596 60, 0 60 M0 60 C0 44.11990677192807, 0 28.239813543856144, 0 0 M0 60 C0 45.32314021512866, 0 30.646280430257317, 0 0" stroke="#000000" stroke-width="1" fill="none"></path></g><g transform="translate(430 370) rotate(0 30 30)"><path d="M0 0 C13.274052310734987 0, 26.548104621469975 0, 60 0 M0 0 C21.600191842764616 0, 43.20038368552923 0, 60 0 M60 0 C60 18.916605759412054, 60 37.83321151882411, 60 60 M60 0 C60 22.640627514570955, 60 45.28125502914191, 60 60 M60 60 C38.23769671842456 60, 16.475393436849117 60, 0 60 M60 60 C46.25651692226529 60, 32.51303384453058 60, 0 60 M0 60 C0 36.01978773996234, 0 12.039575479924672, 0 0 M0 60 C0 37.30132447555661, 0 14.602648951113224, 0 0" stroke="#ccc" stroke-width="1" fill="none"></path></g><g transform="translate(490 370) rotate(0 30 30)"><path d="M0 0 C23.779091488569975 0, 47.55818297713995 0, 60 0 M0 0 C18.860442090779546 0, 37.72088418155909 0, 60 0 M60 0 C60 19.476612579077482, 60 38.953225158154964, 60 60 M60 0 C60 21.730755854398012, 60 43.461511708796024, 60 60 M60 60 C39.85829507187009 60, 19.716590143740177 60, 0 60 M60 60 C44.32835466787219 60, 28.656709335744377 60, 0 60 M0 60 C0 43.17399572208524, 0 26.347991444170468, 0 0 M0 60 C0 44.233759593218565, 0 28.467519186437123, 0 0" stroke="#000000" stroke-width="1" fill="none"></path></g><g transform="translate(550 370) rotate(0 30 30)"><path d="M0 0 C16.525244761258367 0, 33.050489522516735 0, 60 0 M0 0 C20.400164019316435 0, 40.80032803863287 0, 60 0 M60 0 C60 15.565804649144413, 60 31.131609298288826, 60 60 M60 0 C60 21.31584764644504, 60 42.63169529289008, 60 60 M60 60 C39.76141424104571 60, 19.522828482091427 60, 0 60 M60 60 C42.00817285850644 60, 24.016345717012875 60, 0 60 M0 60 C0 47.94750077649951, 0 35.89500155299902, 0 0 M0 60 C0 47.809324253350496, 0 35.61864850670099, 0 0" stroke="#ccc" stroke-width="1" fill="none"></path></g><g transform="translate(610 370) rotate(0 30 30)"><path d="M0 0 C14.08987070247531 0, 28.17974140495062 0, 60 0 M0 0 C16.31737642362714 0, 32.63475284725428 0, 60 0 M60 0 C60 20.956218849867586, 60 41.91243769973517, 60 60 M60 0 C60 21.28174154832959, 60 42.56348309665918, 60 60 M60 60 C43.22682951763272 60, 26.453659035265446 60, 0 60 M60 60 C40.51205296441913 60, 21.024105928838253 60, 0 60 M0 60 C0 45.809982407838106, 0 31.61996481567621, 0 0 M0 60 C0 47.89103348180652, 0 35.78206696361303, 0 0" stroke="#ccc" stroke-width="1" fill="none"></path></g><g transform="translate(670 370) rotate(0 30 30)"><path d="M0 0 C20.148679185658693 0, 40.29735837131739 0, 60 0 M0 0 C12.07734490558505 0, 24.1546898111701 0, 60 0 M60 0 C60 13.640101958066227, 60 27.280203916132454, 60 60 M60 0 C60 18.946279417723417, 60 37.892558835446835, 60 60 M60 60 C42.287645649164915 60, 24.57529129832983 60, 0 60 M60 60 C37.308645475655794 60, 14.617290951311588 60, 0 60 M0 60 C0 41.66080875322223, 0 23.321617506444454, 0 0 M0 60 C0 44.077200282365084, 0 28.15440056473016, 0 0" stroke="#000000" stroke-width="1" fill="none"></path></g><g transform="translate(10 430) rotate(0 30 30)"><path d="M0 0 C20.89297093078494 0, 41.78594186156988 0, 60 0 M0 0 C13.515937495976686 0, 27.031874991953373 0, 60 0 M60 0 C60 17.36161781474948, 60 34.72323562949896, 60 60 M60 0 C60 23.853772927075628, 60 47.707545854151256, 60 60 M60 60 C42.94313083961606 60, 25.886261679232113 60, 0 60 M60 60 C37.62575538083911 60, 15.251510761678219 60, 0 60 M0 60 C0 36.89932679012418, 0 13.798653580248356, 0 0 M0 60 C0 38.534830044955015, 0 17.06966008991003, 0 0" stroke="#ccc" stroke-width="1" fill="none"></path></g><g transform="translate(70 430) rotate(0 30 30)"><path d="M0 0 C20.599799919873476 0, 41.19959983974695 0, 60 0 M0 0 C23.818868290632967 0, 47.63773658126593 0, 60 0 M60 0 C60 18.653535772114996, 60 37.30707154422999, 60 60 M60 0 C60 21.472962867468596, 60 42.94592573493719, 60 60 M60 60 C39.868759106844664 60, 19.737518213689327 60, 0 60 M60 60 C44.83798848465085 60, 29.6759769693017 60, 0 60 M0 60 C0 43.40348608419299, 0 26.806972168385975, 0 0 M0 60 C0 42.781100023537874, 0 25.56220004707575, 0 0" stroke="#ccc" stroke-width="1" fill="none"></path></g><g transform="translate(130 430) rotate(0 30 30)"><path d="M0 0 C16.94193221256137 0, 33.88386442512274 0, 60 0 M0 0 C16.591257143765688 0, 33.182514287531376 0, 60 0 M60 0 C60 16.825255762785677, 60 33.65051152557135, 60 60 M60 0 C60 21.39057557657361, 60 42.78115115314722, 60 60 M60 60 C40.8708464987576 60, 21.741692997515194 60, 0 60 M60 60 C42.54214258119464 60, 25.08428516238928 60, 0 60 M0 60 C0 37.67677007988095, 0 15.353540159761899, 0 0 M0 60 C0 42.47923619672656, 0 24.958472393453114, 0 0" stroke="#ccc" stroke-width="1" fill="none"></path></g><g transform="translate(190 430) rotate(0 30 30)"><path d="M0 0 C16.009832549840215 0, 32.01966509968043 0, 60 0 M0 0 C20.573586713522673 0, 41.147173427045345 0, 60 0 M60 0 C60 23.920925427228212, 60 47.841850854456425, 60 60 M60 0 C60 16.473656784743074, 60 32.94731356948615, 60 60 M60 60 C40.63134152814746 60, 21.262683056294918 60, 0 60 M60 60 C39.76453684642911 60, 19.52907369285822 60, 0 60 M0 60 C0 47.3685259334743, 0 34.737051866948605, 0 0 M0 60 C0 39.21045218780637, 0 18.420904375612736, 0 0" stroke="#000000" stroke-width="1" fill="none"></path></g><g transform="translate(250 430) rotate(0 30 30)"><path d="M0 0 C22.627013336867098 0, 45.254026673734195 0, 60 0 M0 0 C23.604248452931643 0, 47.208496905863285 0, 60 0 M60 0 C60 22.991297733038667, 60 45.982595466077335, 60 60 M60 0 C60 19.88665633276105, 60 39.7733126655221, 60 60 M60 60 C47.486905205994844 60, 34.97381041198969 60, 0 60 M60 60 C37.958113979548216 60, 15.916227959096432 60, 0 60 M0 60 C0 46.11533473804593, 0 32.23066947609186, 0 0 M0 60 C0 39.73755760118365, 0 19.475115202367306, 0 0" stroke="#ccc" stroke-width="1" fill="none"></path></g><g transform="translate(310 430) rotate(0 30 30)"><path d="M0 0 C12.5607839114964 0, 25.1215678229928 0, 60 0 M0 0 C12.67707146331668 0, 25.35414292663336 0, 60 0 M60 0 C60 16.932871509343386, 60 33.86574301868677, 60 60 M60 0 C60 20.787838708609346, 60 41.57567741721869, 60 60 M60 60 C36.4011985771358 60, 12.802397154271596 60, 0 60 M60 60 C44.11990677192807 60, 28.239813543856144 60, 0 60 M0 60 C0 45.32314021512866, 0 30.646280430257317, 0 0 M0 60 C0 43.642966736108065, 0 27.285933472216122, 0 0" stroke="#000000" stroke-width="1" fill="none"></path></g><g transform="translate(370 430) rotate(0 30 30)"><path d="M0 0 C21.600191842764616 0, 43.20038368552923 0, 60 0 M0 0 C18.916605759412054 0, 37.83321151882411 0, 60 0 M60 0 C60 22.640627514570955, 60 45.28125502914191, 60 60 M60 0 C60 21.76230328157544, 60 43.52460656315088, 60 60 M60 60 C46.25651692226529 60, 32.51303384453058 60, 0 60 M60 60 C36.01978773996234 60, 12.039575479924672 60, 0 60 M0 60 C0 37.30132447555661, 0 14.602648951113224, 0 0 M0 60 C0 41.64731867238879, 0 23.294637344777577, 0 0" stroke="#000000" stroke-width="1" fill="none"></path></g><g transform="translate(430 430) rotate(0 30 30)"><path d="M0 0 C18.860442090779546 0, 37.72088418155909 0, 60 0 M0 0 C19.476612579077482 0, 38.953225158154964 0, 60 0 M60 0 C60 21.730755854398012, 60 43.461511708796024, 60 60 M60 0 C60 20.14170492812991, 60 40.28340985625982, 60 60 M60 60 C44.32835466787219 60, 28.656709335744377 60, 0 60 M60 60 C43.17399572208524 60, 26.347991444170468 60, 0 60 M0 60 C0 44.233759593218565, 0 28.467519186437123, 0 0 M0 60 C0 45.719634879380465, 0 31.439269758760926, 0 0" stroke="#000000" stroke-width="1" fill="none"></path></g><g transform="translate(490 430) rotate(0 30 30)"><path d="M0 0 C20.400164019316435 0, 40.80032803863287 0, 60 0 M0 0 C15.565804649144413 0, 31.131609298288826 0, 60 0 M60 0 C60 21.31584764644504, 60 42.63169529289008, 60 60 M60 0 C60 20.238585758954287, 60 40.47717151790857, 60 60 M60 60 C42.00817285850644 60, 24.016345717012875 60, 0 60 M60 60 C47.94750077649951 60, 35.89500155299902 60, 0 60 M0 60 C0 47.809324253350496, 0 35.61864850670099, 0 0 M0 60 C0 36.49526257440448, 0 12.990525148808956, 0 0" stroke="#000000" stroke-width="1" fill="none"></path></g><g transform="translate(550 430) rotate(0 30 30)"><path d="M0 0 C16.31737642362714 0, 32.63475284725428 0, 60 0 M0 0 C20.956218849867586 0, 41.91243769973517 0, 60 0 M60 0 C60 21.28174154832959, 60 42.56348309665918, 60 60 M60 0 C60 16.773170482367277, 60 33.546340964734554, 60 60 M60 60 C40.51205296441913 60, 21.024105928838253 60, 0 60 M60 60 C45.809982407838106 60, 31.61996481567621 60, 0 60 M0 60 C0 47.89103348180652, 0 35.78206696361303, 0 0 M0 60 C0 38.81972907856107, 0 17.639458157122128, 0 0" stroke="#000000" stroke-width="1" fill="none"></path></g><g transform="translate(610 430) rotate(0 30 30)"><path d="M0 0 C12.07734490558505 0, 24.1546898111701 0, 60 0 M0 0 C13.640101958066227 0, 27.280203916132454 0, 60 0 M60 0 C60 18.946279417723417, 60 37.892558835446835, 60 60 M60 0 C60 17.712354350835085, 60 35.42470870167017, 60 60 M60 60 C37.308645475655794 60, 14.617290951311588 60, 0 60 M60 60 C41.66080875322223 60, 23.321617506444454 60, 0 60 M0 60 C0 44.077200282365084, 0 28.15440056473016, 0 0 M0 60 C0 43.14235122129321, 0 26.284702442586422, 0 0" stroke="#000000" stroke-width="1" fill="none"></path></g><g transform="translate(670 430) rotate(0 30 30)"><path d="M0 0 C13.515937495976686 0, 27.031874991953373 0, 60 0 M0 0 C17.36161781474948 0, 34.72323562949896 0, 60 0 M60 0 C60 23.853772927075628, 60 47.707545854151256, 60 60 M60 0 C60 17.056869160383943, 60 34.11373832076789, 60 60 M60 60 C37.62575538083911 60, 15.251510761678219 60, 0 60 M60 60 C36.89932679012418 60, 13.798653580248356 60, 0 60 M0 60 C0 38.534830044955015, 0 17.06966008991003, 0 0 M0 60 C0 44.435803044587374, 0 28.871606089174747, 0 0" stroke="#ccc" stroke-width="1" fill="none"></path></g><g transform="translate(10 490) rotate(0 30 30)"><path d="M0 0 C23.818868290632967 0, 47.63773658126593 0, 60 0 M0 0 C18.653535772114996 0, 37.30707154422999 0, 60 0 M60 0 C60 21.472962867468596, 60 42.94592573493719, 60 60 M60 0 C60 20.131240893155336, 60 40.26248178631067, 60 60 M60 60 C44.83798848465085 60, 29.6759769693017 60, 0 60 M60 60 C43.40348608419299 60, 26.806972168385975 60, 0 60 M0 60 C0 42.781100023537874, 0 25.56220004707575, 0 0 M0 60 C0 44.64876527711749, 0 29.297530554234974, 0 0" stroke="#ccc" stroke-width="1" fill="none"></path></g><g transform="translate(70 490) rotate(0 30 30)"><path d="M0 0 C16.591257143765688 0, 33.182514287531376 0, 60 0 M0 0 C16.825255762785677 0, 33.65051152557135 0, 60 0 M60 0 C60 21.39057557657361, 60 42.78115115314722, 60 60 M60 0 C60 19.129153501242403, 60 38.258307002484806, 60 60 M60 60 C42.54214258119464 60, 25.08428516238928 60, 0 60 M60 60 C37.67677007988095 60, 15.353540159761899 60, 0 60 M0 60 C0 42.47923619672656, 0 24.958472393453114, 0 0 M0 60 C0 40.54869173839688, 0 21.09738347679376, 0 0" stroke="#000000" stroke-width="1" fill="none"></path></g><g transform="translate(130 490) rotate(0 30 30)"><path d="M0 0 C20.573586713522673 0, 41.147173427045345 0, 60 0 M0 0 C23.920925427228212 0, 47.841850854456425 0, 60 0 M60 0 C60 16.473656784743074, 60 32.94731356948615, 60 60 M60 0 C60 19.36865847185254, 60 38.73731694370508, 60 60 M60 60 C39.76453684642911 60, 19.52907369285822 60, 0 60 M60 60 C47.3685259334743 60, 34.737051866948605 60, 0 60 M0 60 C0 39.21045218780637, 0 18.420904375612736, 0 0 M0 60 C0 41.89890415593982, 0 23.797808311879635, 0 0" stroke="#ccc" stroke-width="1" fill="none"></path></g><g transform="translate(190 490) rotate(0 30 30)"><path d="M0 0 C23.604248452931643 0, 47.208496905863285 0, 60 0 M0 0 C22.991297733038667 0, 45.982595466077335 0, 60 0 M60 0 C60 19.88665633276105, 60 39.7733126655221, 60 60 M60 0 C60 12.513094794005156, 60 25.02618958801031, 60 60 M60 60 C37.958113979548216 60, 15.916227959096432 60, 0 60 M60 60 C46.11533473804593 60, 32.23066947609186 60, 0 60 M0 60 C0 39.73755760118365, 0 19.475115202367306, 0 0 M0 60 C0 46.002511370927095, 0 32.00502274185419, 0 0" stroke="#000000" stroke-width="1" fill="none"></path></g><g transform="translate(250 490) rotate(0 30 30)"><path d="M0 0 C12.67707146331668 0, 25.35414292663336 0, 60 0 M0 0 C16.932871509343386 0, 33.86574301868677 0, 60 0 M60 0 C60 20.787838708609346, 60 41.57567741721869, 60 60 M60 0 C60 23.598801422864202, 60 47.197602845728404, 60 60 M60 60 C44.11990677192807 60, 28.239813543856144 60, 0 60 M60 60 C45.32314021512866 60, 30.646280430257317 60, 0 60 M0 60 C0 43.642966736108065, 0 27.285933472216122, 0 0 M0 60 C0 47.22638602182269, 0 34.45277204364538, 0 0" stroke="#ccc" stroke-width="1" fill="none"></path></g><g transform="translate(310 490) rotate(0 30 30)"><path d="M0 0 C18.916605759412054 0, 37.83321151882411 0, 60 0 M0 0 C22.640627514570955 0, 45.28125502914191 0, 60 0 M60 0 C60 21.76230328157544, 60 43.52460656315088, 60 60 M60 0 C60 13.743483077734709, 60 27.486966155469418, 60 60 M60 60 C36.01978773996234 60, 12.039575479924672 60, 0 60 M60 60 C37.30132447555661 60, 14.602648951113224 60, 0 60 M0 60 C0 41.64731867238879, 0 23.294637344777577, 0 0 M0 60 C0 36.87965940311551, 0 13.759318806231015, 0 0" stroke="#ccc" stroke-width="1" fill="none"></path></g><g transform="translate(370 490) rotate(0 30 30)"><path d="M0 0 C19.476612579077482 0, 38.953225158154964 0, 60 0 M0 0 C21.730755854398012 0, 43.461511708796024 0, 60 0 M60 0 C60 20.14170492812991, 60 40.28340985625982, 60 60 M60 0 C60 15.671645332127811, 60 31.343290664255623, 60 60 M60 60 C43.17399572208524 60, 26.347991444170468 60, 0 60 M60 60 C44.233759593218565 60, 28.467519186437123 60, 0 60 M0 60 C0 45.719634879380465, 0 31.439269758760926, 0 0 M0 60 C0 42.03904778882861, 0 24.078095577657223, 0 0" stroke="#000000" stroke-width="1" fill="none"></path></g><g transform="translate(430 490) rotate(0 30 30)"><path d="M0 0 C15.565804649144413 0, 31.131609298288826 0, 60 0 M0 0 C21.31584764644504 0, 42.63169529289008 0, 60 0 M60 0 C60 20.238585758954287, 60 40.47717151790857, 60 60 M60 0 C60 17.991827141493562, 60 35.983654282987125, 60 60 M60 60 C47.94750077649951 60, 35.89500155299902 60, 0 60 M60 60 C47.809324253350496 60, 35.61864850670099 60, 0 60 M0 60 C0 36.49526257440448, 0 12.990525148808956, 0 0 M0 60 C0 42.87581454589963, 0 25.751629091799252, 0 0" stroke="#ccc" stroke-width="1" fill="none"></path></g><g transform="translate(490 490) rotate(0 30 30)"><path d="M0 0 C20.956218849867586 0, 41.91243769973517 0, 60 0 M0 0 C21.28174154832959 0, 42.56348309665918 0, 60 0 M60 0 C60 16.773170482367277, 60 33.546340964734554, 60 60 M60 0 C60 19.487947035580873, 60 38.97589407116175, 60 60 M60 60 C45.809982407838106 60, 31.61996481567621 60, 0 60 M60 60 C47.89103348180652 60, 35.78206696361303 60, 0 60 M0 60 C0 38.81972907856107, 0 17.639458157122128, 0 0 M0 60 C0 42.44394512102008, 0 24.887890242040157, 0 0" stroke="#000000" stroke-width="1" fill="none"></path></g><g transform="translate(550 490) rotate(0 30 30)"><path d="M0 0 C13.640101958066227 0, 27.280203916132454 0, 60 0 M0 0 C18.946279417723417 0, 37.892558835446835 0, 60 0 M60 0 C60 17.712354350835085, 60 35.42470870167017, 60 60 M60 0 C60 22.691354524344206, 60 45.38270904868841, 60 60 M60 60 C41.66080875322223 60, 23.321617506444454 60, 0 60 M60 60 C44.077200282365084 60, 28.15440056473016 60, 0 60 M0 60 C0 43.14235122129321, 0 26.284702442586422, 0 0 M0 60 C0 39.67493676021695, 0 19.349873520433903, 0 0" stroke="#ccc" stroke-width="1" fill="none"></path></g><g transform="translate(610 490) rotate(0 30 30)"><path d="M0 0 C17.36161781474948 0, 34.72323562949896 0, 60 0 M0 0 C23.853772927075628 0, 47.707545854151256 0, 60 0 M60 0 C60 17.056869160383943, 60 34.11373832076789, 60 60 M60 0 C60 22.37424461916089, 60 44.74848923832178, 60 60 M60 60 C36.89932679012418 60, 13.798653580248356 60, 0 60 M60 60 C38.534830044955015 60, 17.06966008991003 60, 0 60 M0 60 C0 44.435803044587374, 0 28.871606089174747, 0 0 M0 60 C0 44.87235243245959, 0 29.74470486491918, 0 0" stroke="#000000" stroke-width="1" fill="none"></path></g><g transform="translate(670 490) rotate(0 30 30)"><path d="M0 0 C18.653535772114996 0, 37.30707154422999 0, 60 0 M0 0 C21.472962867468596 0, 42.94592573493719 0, 60 0 M60 0 C60 20.131240893155336, 60 40.26248178631067, 60 60 M60 0 C60 15.16201151534915, 60 30.3240230306983, 60 60 M60 60 C43.40348608419299 60, 26.806972168385975 60, 0 60 M60 60 C42.781100023537874 60, 25.56220004707575 60, 0 60 M0 60 C0 44.64876527711749, 0 29.297530554234974, 0 0 M0 60 C0 45.324267257004976, 0 30.648534514009953, 0 0" stroke="#ccc" stroke-width="1" fill="none"></path></g><g transform="translate(10 550) rotate(0 30 30)"><path d="M0 0 C21.923412334173918 0, 43.846824668347836 0, 60 0 M0 0 C12.435056257992983 0, 24.870112515985966 0, 60 0 M60 0 C60 18.584033858031038, 60 37.168067716062076, 60 60 M60 0 C60 12.732223201543093, 60 25.464446403086185, 60 60 M60 60 C42.36553214862943 60, 24.731064297258854 60, 0 60 M60 60 C44.77344722673297 60, 29.54689445346594 60, 0 60 M0 60 C0 39.12755619361997, 0 18.255112387239933, 0 0 M0 60 C0 38.9324188940227, 0 17.8648377880454, 0 0" stroke="#000000" stroke-width="1" fill="none"></path></g><g transform="translate(70 550) rotate(0 30 30)"><path d="M0 0 C21.036782909184698 0, 42.073565818369396 0, 60 0 M0 0 C12.600629579275846 0, 25.201259158551693 0, 60 0 M60 0 C60 21.898361016064882, 60 43.796722032129765, 60 60 M60 0 C60 17.14616168662906, 60 34.29232337325812, 60 60 M60 60 C46.6023464910686 60, 33.2046929821372 60, 0 60 M60 60 C47.07108162716031 60, 34.14216325432062 60, 0 60 M0 60 C0 46.26502222940326, 0 32.530044458806515, 0 0 M0 60 C0 46.79243336990476, 0 33.58486673980951, 0 0" stroke="#000000" stroke-width="1" fill="none"></path></g><g transform="translate(130 550) rotate(0 30 30)"><path d="M0 0 C14.54780925437808 0, 29.09561850875616 0, 60 0 M0 0 C12.9904212243855 0, 25.980842448771 0, 60 0 M60 0 C60 23.784606467932466, 60 47.56921293586493, 60 60 M60 0 C60 22.370775271207098, 60 44.741550542414195, 60 60 M60 60 C45.86747037246823 60, 31.734940744936466 60, 0 60 M60 60 C40.18122465535998 60, 20.362449310719967 60, 0 60 M0 60 C0 46.88803552463651, 0 33.776071049273014, 0 0 M0 60 C0 41.55119867250323, 0 23.102397345006466, 0 0" stroke="#000000" stroke-width="1" fill="none"></path></g><g transform="translate(190 550) rotate(0 30 30)"><path d="M0 0 C21.300518084317446 0, 42.60103616863489 0, 60 0 M0 0 C12.62292231246829 0, 25.24584462493658 0, 60 0 M60 0 C60 18.738813567906618, 60 37.477627135813236, 60 60 M60 0 C60 15.693116437643766, 60 31.386232875287533, 60 60 M60 60 C44.66234941408038 60, 29.32469882816076 60, 0 60 M60 60 C39.895338881760836 60, 19.79067776352167 60, 0 60 M0 60 C0 36.36280972883105, 0 12.725619457662106, 0 0 M0 60 C0 37.911120403558016, 0 15.822240807116032, 0 0" stroke="#000000" stroke-width="1" fill="none"></path></g><g transform="translate(250 550) rotate(0 30 30)"><path d="M0 0 C13.30844808742404 0, 26.61689617484808 0, 60 0 M0 0 C21.08294515684247 0, 42.16589031368494 0, 60 0 M60 0 C60 17.26973642036319, 60 34.53947284072638, 60 60 M60 0 C60 22.42356150224805, 60 44.8471230044961, 60 60 M60 60 C36.26856707409024 60, 12.537134148180485 60, 0 60 M60 60 C39.903161477297544 60, 19.806322954595082 60, 0 60 M0 60 C0 41.18842040374875, 0 22.3768408074975, 0 0 M0 60 C0 43.69300014898181, 0 27.386000297963612, 0 0" stroke="#ccc" stroke-width="1" fill="none"></path></g><g transform="translate(310 550) rotate(0 30 30)"><path d="M0 0 C16.09762804582715 0, 32.1952560916543 0, 60 0 M0 0 C22.84566594287753 0, 45.69133188575506 0, 60 0 M60 0 C60 23.446747351437807, 60 46.893494702875614, 60 60 M60 0 C60 19.737275015562773, 60 39.474550031125546, 60 60 M60 60 C40.00123341009021 60, 20.002466820180416 60, 0 60 M60 60 C45.507670629769564 60, 31.015341259539124 60, 0 60 M0 60 C0 46.241309355944395, 0 32.48261871188879, 0 0 M0 60 C0 44.81019150093198, 0 29.620383001863953, 0 0" stroke="#ccc" stroke-width="1" fill="none"></path></g><g transform="translate(370 550) rotate(0 30 30)"><path d="M0 0 C12.603400122374298 0, 25.206800244748596 0, 60 0 M0 0 C19.140728641301397 0, 38.281457282602794 0, 60 0 M60 0 C60 17.94140125438571, 60 35.88280250877142, 60 60 M60 0 C60 22.00227623060346, 60 44.00455246120692, 60 60 M60 60 C39.537938464432955 60, 19.07587692886591 60, 0 60 M60 60 C40.76896960660815 60, 21.537939213216298 60, 0 60 M0 60 C0 42.2439207918942, 0 24.487841583788395, 0 0 M0 60 C0 44.75394148752093, 0 29.507882975041863, 0 0" stroke="#000000" stroke-width="1" fill="none"></path></g><g transform="translate(430 550) rotate(0 30 30)"><path d="M0 0 C14.727307129651308 0, 29.454614259302616 0, 60 0 M0 0 C14.11224425956607 0, 28.22448851913214 0, 60 0 M60 0 C60 21.37995045259595, 60 42.7599009051919, 60 60 M60 0 C60 23.875927459448576, 60 47.75185491889715, 60 60 M60 60 C43.82761664316058 60, 27.655233286321156 60, 0 60 M60 60 C42.931880582123995 60, 25.86376116424799 60, 0 60 M0 60 C0 44.300545524805784, 0 28.601091049611565, 0 0 M0 60 C0 41.509544122964144, 0 23.019088245928288, 0 0" stroke="#ccc" stroke-width="1" fill="none"></path></g><g transform="translate(490 550) rotate(0 30 30)"><path d="M0 0 C21.84245539829135 0, 43.6849107965827 0, 60 0 M0 0 C20.14265351369977 0, 40.28530702739954 0, 60 0 M60 0 C60 19.58829725906253, 60 39.17659451812506, 60 60 M60 0 C60 22.89439504221082, 60 45.78879008442164, 60 60 M60 60 C38.88298200443387 60, 17.76596400886774 60, 0 60 M60 60 C36.80757970735431 60, 13.615159414708614 60, 0 60 M0 60 C0 43.63302790001035, 0 27.266055800020695, 0 0 M0 60 C0 43.204359602183104, 0 26.408719204366207, 0 0" stroke="#000000" stroke-width="1" fill="none"></path></g><g transform="translate(550 550) rotate(0 30 30)"><path d="M0 0 C13.164530921727419 0, 26.329061843454838 0, 60 0 M0 0 C18.027759801596407 0, 36.05551960319281 0, 60 0 M60 0 C60 18.696992207318544, 60 37.39398441463709, 60 60 M60 0 C60 19.343082558363676, 60 38.68616511672735, 60 60 M60 60 C36.424336027354 60, 12.848672054708004 60, 0 60 M60 60 C42.68005369976163 60, 25.36010739952325 60, 0 60 M0 60 C0 41.88976139947772, 0 23.77952279895544, 0 0 M0 60 C0 37.64235698059201, 0 15.284713961184025, 0 0" stroke="#ccc" stroke-width="1" fill="none"></path></g><g transform="translate(610 550) rotate(0 30 30)"><path d="M0 0 C17.072122704237703 0, 34.144245408475406 0, 60 0 M0 0 C13.993382859975101 0, 27.986765719950203 0, 60 0 M60 0 C60 14.510839473456144, 60 29.02167894691229, 60 60 M60 0 C60 13.938174773007631, 60 27.876349546015263, 60 60 M60 60 C47.12437640503049 60, 34.24875281006098 60, 0 60 M60 60 C36.87214119359851 60, 13.744282387197018 60, 0 60 M0 60 C0 36.6725141890347, 0 13.345028378069394, 0 0 M0 60 C0 42.21381015703082, 0 24.427620314061635, 0 0" stroke="#000000" stroke-width="1" fill="none"></path></g><g transform="translate(670 550) rotate(0 30 30)"><path d="M0 0 C12.435056257992983 0, 24.870112515985966 0, 60 0 M0 0 C18.584033858031038 0, 37.168067716062076 0, 60 0 M60 0 C60 12.732223201543093, 60 25.464446403086185, 60 60 M60 0 C60 17.634467851370573, 60 35.268935702741146, 60 60 M60 60 C44.77344722673297 60, 29.54689445346594 60, 0 60 M60 60 C39.12755619361997 60, 18.255112387239933 60, 0 60 M0 60 C0 38.9324188940227, 0 17.8648377880454, 0 0 M0 60 C0 42.830090034753084, 0 25.66018006950616, 0 0" stroke="#ccc" stroke-width="1" fill="none"></path></g><g transform="translate(10 610) rotate(0 30 30)"><path d="M0 0 C19.998766589909792 0, 39.997533179819584 0, 60 0 M0 0 C14.492329370230438 0, 28.984658740460876 0, 60 0 M60 0 C60 13.758690644055605, 60 27.51738128811121, 60 60 M60 0 C60 15.189808499068024, 60 30.379616998136047, 60 60 M60 60 C46.905194353312254 60, 33.81038870662451 60, 0 60 M60 60 C46.01708935573697 60, 32.03417871147394 60, 0 60 M0 60 C0 41.136321019381285, 0 22.27264203876257, 0 0 M0 60 C0 47.02594720199704, 0 34.05189440399408, 0 0" stroke="#ccc" stroke-width="1" fill="none"></path></g><g transform="translate(70 610) rotate(0 30 30)"><path d="M0 0 C20.462061535567045 0, 40.92412307113409 0, 60 0 M0 0 C19.23103039339185 0, 38.4620607867837 0, 60 0 M60 0 C60 17.756079208105803, 60 35.512158416211605, 60 60 M60 0 C60 15.246058512479069, 60 30.492117024958137, 60 60 M60 60 C36.63662873581052 60, 13.273257471621037 60, 0 60 M60 60 C42.920290779322386 60, 25.840581558644764 60, 0 60 M0 60 C0 39.35192655399442, 0 18.703853107988834, 0 0 M0 60 C0 45.49738759920001, 0 30.994775198400017, 0 0" stroke="#000000" stroke-width="1" fill="none"></path></g><g transform="translate(130 610) rotate(0 30 30)"><path d="M0 0 C16.172383356839422 0, 32.344766713678844 0, 60 0 M0 0 C17.068119417876005 0, 34.13623883575201 0, 60 0 M60 0 C60 15.699454475194218, 60 31.398908950388435, 60 60 M60 0 C60 18.490455877035856, 60 36.98091175407171, 60 60 M60 60 C46.70570630952716 60, 33.41141261905432 60, 0 60 M60 60 C41.35620867088437 60, 22.71241734176874 60, 0 60 M0 60 C0 40.846687864512205, 0 21.69337572902441, 0 0 M0 60 C0 36.396800983697176, 0 12.793601967394345, 0 0" stroke="#ccc" stroke-width="1" fill="none"></path></g><g transform="translate(190 610) rotate(0 30 30)"><path d="M0 0 C21.11701799556613 0, 42.23403599113226 0, 60 0 M0 0 C23.192420292645693 0, 46.384840585291386 0, 60 0 M60 0 C60 16.366972099989653, 60 32.733944199979305, 60 60 M60 0 C60 16.795640397816896, 60 33.59128079563379, 60 60 M60 60 C43.1492671854794 60, 26.298534370958805 60, 0 60 M60 60 C45.54875225946307 60, 31.097504518926144 60, 0 60 M0 60 C0 38.469907868653536, 0 16.93981573730707, 0 0 M0 60 C0 37.98028404638171, 0 15.960568092763417, 0 0" stroke="#000000" stroke-width="1" fill="none"></path></g><g transform="translate(250 610) rotate(0 30 30)"><path d="M0 0 C23.575663972645998 0, 47.151327945291996 0, 60 0 M0 0 C17.319946300238374 0, 34.63989260047675 0, 60 0 M60 0 C60 18.11023860052228, 60 36.22047720104456, 60 60 M60 0 C60 22.357643019407988, 60 44.715286038815975, 60 60 M60 60 C42.27631027624011 60, 24.552620552480214 60, 0 60 M60 60 C43.820316541939974 60, 27.640633083879948 60, 0 60 M0 60 C0 40.92272777482867, 0 21.845455549657345, 0 0 M0 60 C0 46.29120289161801, 0 32.58240578323603, 0 0" stroke="#ccc" stroke-width="1" fill="none"></path></g><g transform="translate(310 610) rotate(0 30 30)"><path d="M0 0 C12.875623594969511 0, 25.751247189939022 0, 60 0 M0 0 C23.12785880640149 0, 46.25571761280298 0, 60 0 M60 0 C60 23.327485810965303, 60 46.654971621930606, 60 60 M60 0 C60 17.786189842969183, 60 35.572379685938365, 60 60 M60 60 C47.77334438636899 60, 35.54668877273798 60, 0 60 M60 60 C46.499795984476805 60, 32.99959196895361 60, 0 60 M0 60 C0 36.99241875484586, 0 13.984837509691708, 0 0 M0 60 C0 38.65478129312396, 0 17.30956258624792, 0 0" stroke="#ccc" stroke-width="1" fill="none"></path></g><g transform="translate(370 610) rotate(0 30 30)"><path d="M0 0 C15.22655277326703 0, 30.45310554653406 0, 60 0 M0 0 C20.872443806380033 0, 41.74488761276007 0, 60 0 M60 0 C60 21.0675811059773, 60 42.1351622119546, 60 60 M60 0 C60 17.16990996524692, 60 34.33981993049384, 60 60 M60 60 C39.10687441751361 60, 18.21374883502721 60, 0 60 M60 60 C39.65196667984128 60, 19.303933359682553 60, 0 60 M0 60 C0 37.04571516439319, 0 14.091430328786373, 0 0 M0 60 C0 36.947800386697054, 0 13.895600773394108, 0 0" stroke="#ccc" stroke-width="1" fill="none"></path></g><g transform="translate(430 610) rotate(0 30 30)"><path d="M0 0 C12.928918372839691 0, 25.857836745679382 0, 60 0 M0 0 C13.734977770596743 0, 27.469955541193485 0, 60 0 M60 0 C60 13.207566630095243, 60 26.415133260190487, 60 60 M60 0 C60 16.723932433873415, 60 33.44786486774683, 60 60 M60 60 C43.93500779941678 60, 27.87001559883356 60, 0 60 M60 60 C40.083602618426085 60, 20.167205236852162 60, 0 60 M0 60 C0 41.71670042350888, 0 23.433400847017765, 0 0 M0 60 C0 43.272466253489256, 0 26.544932506978512, 0 0" stroke="#ccc" stroke-width="1" fill="none"></path></g><g transform="translate(490 610) rotate(0 30 30)"><path d="M0 0 C19.818775344640017 0, 39.63755068928003 0, 60 0 M0 0 C13.111964475363495 0, 26.22392895072699 0, 60 0 M60 0 C60 18.448801327496767, 60 36.897602654993534, 60 60 M60 0 C60 16.94251550361514, 60 33.88503100723028, 60 60 M60 60 C38.761485647410154 60, 17.52297129482031 60, 0 60 M60 60 C43.58199404552579 60, 27.16398809105158 60, 0 60 M0 60 C0 46.84614319726825, 0 33.692286394536495, 0 0 M0 60 C0 37.2185221798718, 0 14.437044359743595, 0 0" stroke="#000000" stroke-width="1" fill="none"></path></g><g transform="translate(550 610) rotate(0 30 30)"><path d="M0 0 C20.104661118239164 0, 40.20932223647833 0, 60 0 M0 0 C23.637190271168947 0, 47.274380542337894 0, 60 0 M60 0 C60 22.088879596441984, 60 44.17775919288397, 60 60 M60 0 C60 20.165875006467108, 60 40.331750012934215, 60 60 M60 60 C39.673686135560274 60, 19.34737227112055 60, 0 60 M60 60 C38.43457157537341 60, 16.869143150746815 60, 0 60 M0 60 C0 42.17827533558011, 0 24.35655067116022, 0 0 M0 60 C0 43.2841445915401, 0 26.568289183080196, 0 0" stroke="#ccc" stroke-width="1" fill="none"></path></g><g transform="translate(610 610) rotate(0 30 30)"><path d="M0 0 C20.09683852270246 0, 40.19367704540492 0, 60 0 M0 0 C18.81157959625125 0, 37.6231591925025 0, 60 0 M60 0 C60 16.306999851018194, 60 32.61399970203639, 60 60 M60 0 C60 22.952437173575163, 60 45.904874347150326, 60 60 M60 60 C44.50344962999225 60, 29.006899259984493 60, 0 60 M60 60 C39.204514849931 60, 18.409029699862003 60, 0 60 M0 60 C0 43.528723787516356, 0 27.057447575032704, 0 0 M0 60 C0 36.943578232079744, 0 13.887156464159482, 0 0" stroke="#ccc" stroke-width="1" fill="none"></path></g><g transform="translate(670 610) rotate(0 30 30)"><path d="M0 0 C14.492329370230438 0, 28.984658740460876 0, 60 0 M0 0 C13.758690644055605 0, 27.51738128811121 0, 60 0 M60 0 C60 15.189808499068024, 60 30.379616998136047, 60 60 M60 0 C60 13.094805646687746, 60 26.189611293375492, 60 60 M60 60 C46.01708935573697 60, 32.03417871147394 60, 0 60 M60 60 C41.136321019381285 60, 22.27264203876257 60, 0 60 M0 60 C0 47.02594720199704, 0 34.05189440399408, 0 0 M0 60 C0 43.46484072133899, 0 26.929681442677968, 0 0" stroke="#ccc" stroke-width="1" fill="none"></path></g><g transform="translate(10 670) rotate(0 30 30)"><path d="M0 0 C14.997027564793827 0, 29.994055129587654 0, 60 0 M0 0 C14.512523900717497 0, 29.025047801434994 0, 60 0 M60 0 C60 18.77973299100995, 60 37.5594659820199, 60 60 M60 0 C60 17.776821266859773, 60 35.55364253371955, 60 60 M60 60 C43.927288603037596 60, 27.854577206075184 60, 0 60 M60 60 C46.586402881890535 60, 33.17280576378107 60, 0 60 M0 60 C0 36.564344834536314, 0 13.128689669072621, 0 0 M0 60 C0 38.42785655334592, 0 16.85571310669183, 0 0" stroke="#000000" stroke-width="1" fill="none"></path></g><g transform="translate(70 670) rotate(0 30 30)"><path d="M0 0 C21.517580162733797 0, 43.035160325467594 0, 60 0 M0 0 C22.041211534291506 0, 44.08242306858301 0, 60 0 M60 0 C60 12.491209041327238, 60 24.982418082654476, 60 60 M60 0 C60 20.939372587949038, 60 41.878745175898075, 60 60 M60 60 C38.148157227784395 60, 16.29631445556879 60, 0 60 M60 60 C44.2535117380321 60, 28.507023476064205 60, 0 60 M0 60 C0 37.48950790241361, 0 14.979015804827206, 0 0 M0 60 C0 39.063686560839415, 0 18.12737312167883, 0 0" stroke="#000000" stroke-width="1" fill="none"></path></g><g transform="translate(130 670) rotate(0 30 30)"><path d="M0 0 C15.112035322934393 0, 30.224070645868785 0, 60 0 M0 0 C19.321971785277128 0, 38.643943570554256 0, 60 0 M60 0 C60 23.1516339071095, 60 46.303267814219, 60 60 M60 0 C60 16.45419288799167, 60 32.90838577598334, 60 60 M60 60 C37.69754238054156 60, 15.395084761083119 60, 0 60 M60 60 C41.26510654762387 60, 22.530213095247746 60, 0 60 M0 60 C0 44.0359574072063, 0 28.071914814412587, 0 0 M0 60 C0 47.21397827938199, 0 34.42795655876398, 0 0" stroke="#000000" stroke-width="1" fill="none"></path></g><g transform="translate(190 670) rotate(0 30 30)"><path d="M0 0 C17.05707336589694 0, 34.11414673179388 0, 60 0 M0 0 C14.900047112256289 0, 29.800094224512577 0, 60 0 M60 0 C60 16.52033008262515, 60 33.0406601652503, 60 60 M60 0 C60 16.344896245747805, 60 32.68979249149561, 60 60 M60 60 C42.06825112178922 60, 24.136502243578434 60, 0 60 M60 60 C39.95816035196185 60, 19.916320703923702 60, 0 60 M0 60 C0 39.70000325515866, 0 19.40000651031732, 0 0 M0 60 C0 37.94552404806018, 0 15.891048096120358, 0 0" stroke="#000000" stroke-width="1" fill="none"></path></g><g transform="translate(250 670) rotate(0 30 30)"><path d="M0 0 C17.98844521120191 0, 35.97689042240382 0, 60 0 M0 0 C20.174155723303556 0, 40.34831144660711 0, 60 0 M60 0 C60 16.853418398648504, 60 33.70683679729701, 60 60 M60 0 C60 20.486678492277864, 60 40.97335698455573, 60 60 M60 60 C36.54989988729358 60, 13.099799774587154 60, 0 60 M60 60 C36.35834955051541 60, 12.716699101030827 60, 0 60 M0 60 C0 42.85712976381183, 0 25.714259527623653, 0 0 M0 60 C0 36.391323912888765, 0 12.782647825777524, 0 0" stroke="#000000" stroke-width="1" fill="none"></path></g><g transform="translate(310 670) rotate(0 30 30)"><path d="M0 0 C12.238789927214384 0, 24.477579854428768 0, 60 0 M0 0 C14.670919585973026 0, 29.341839171946052 0, 60 0 M60 0 C60 15.35952116176486, 60 30.71904232352972, 60 60 M60 0 C60 16.457500744611025, 60 32.91500148922205, 60 60 M60 60 C36.21745954826474 60, 12.434919096529477 60, 0 60 M60 60 C41.89115292951465 60, 23.782305859029286 60, 0 60 M0 60 C0 40.51082896068692, 0 21.021657921373844, 0 0 M0 60 C0 37.59659905359149, 0 15.19319810718298, 0 0" stroke="#000000" stroke-width="1" fill="none"></path></g><g transform="translate(370 670) rotate(0 30 30)"><path d="M0 0 C12.72860599681735 0, 25.4572119936347 0, 60 0 M0 0 C17.074141312390566 0, 34.14828262478113 0, 60 0 M60 0 C60 16.532103192061186, 60 33.06420638412237, 60 60 M60 0 C60 15.814980436116457, 60 31.629960872232914, 60 60 M60 60 C37.82463597133756 60, 15.649271942675114 60, 0 60 M60 60 C47.536812733858824 60, 35.07362546771765 60, 0 60 M0 60 C0 44.17669450119138, 0 28.353389002382755, 0 0 M0 60 C0 36.573889564722776, 0 13.147779129445553, 0 0" stroke="#ccc" stroke-width="1" fill="none"></path></g><g transform="translate(430 670) rotate(0 30 30)"><path d="M0 0 C22.54007237032056 0, 45.08014474064112 0, 60 0 M0 0 C13.875290405005217 0, 27.750580810010433 0, 60 0 M60 0 C60 21.153183985501528, 60 42.306367971003056, 60 60 M60 0 C60 12.920631777495148, 60 25.841263554990295, 60 60 M60 60 C45.002972435206175 60, 30.005944870412346 60, 0 60 M60 60 C45.4874760992825 60, 30.974952198565006 60, 0 60 M0 60 C0 41.22026700899005, 0 22.4405340179801, 0 0 M0 60 C0 42.22317873314023, 0 24.446357466280453, 0 0" stroke="#000000" stroke-width="1" fill="none"></path></g><g transform="translate(490 670) rotate(0 30 30)"><path d="M0 0 C15.833387743681671 0, 31.666775487363342 0, 60 0 M0 0 C18.14314000681043 0, 36.28628001362086 0, 60 0 M60 0 C60 17.344164144247774, 60 34.68832828849555, 60 60 M60 0 C60 15.816531468182802, 60 31.633062936365604, 60 60 M60 60 C38.48241983726621 60, 16.964839674532406 60, 0 60 M60 60 C37.958788465708494 60, 15.917576931416988 60, 0 60 M0 60 C0 47.50879095867276, 0 35.017581917345524, 0 0 M0 60 C0 39.06062741205096, 0 18.121254824101925, 0 0" stroke="#000000" stroke-width="1" fill="none"></path></g><g transform="translate(550 670) rotate(0 30 30)"><path d="M0 0 C17.187844086438417 0, 34.375688172876835 0, 60 0 M0 0 C19.94986404106021 0, 39.89972808212042 0, 60 0 M60 0 C60 22.54007237032056, 60 45.08014474064112, 60 60 M60 0 C60 13.875290405005217, 60 27.750580810010433, 60 60 M60 60 C38.84681601449847 60, 17.693632028996944 60, 0 60 M60 60 C47.079368222504854 60, 34.15873644500971 60, 0 60 M0 60 C0 45.002972435206175, 0 30.005944870412346, 0 0 M0 60 C0 45.4874760992825, 0 30.974952198565006, 0 0" stroke="#000000" stroke-width="1" fill="none"></path></g><g transform="translate(610 670) rotate(0 30 30)"><path d="M0 0 C20.240373384207487 0, 40.480746768414974 0, 60 0 M0 0 C15.789562035351992 0, 31.579124070703983 0, 60 0 M60 0 C60 22.9749924056232, 60 45.9499848112464, 60 60 M60 0 C60 19.394689489156008, 60 38.789378978312016, 60 60 M60 60 C38.98675774410367 60, 17.97351548820734 60, 0 60 M60 60 C38.04105753824115 60, 16.08211507648229 60, 0 60 M0 60 C0 47.761210072785616, 0 35.52242014557123, 0 0 M0 60 C0 45.329080414026976, 0 30.658160828053948, 0 0" stroke="#000000" stroke-width="1" fill="none"></path></g><g transform="translate(670 670) rotate(0 30 30)"><path d="M0 0 C21.69049664027989 0, 43.38099328055978 0, 60 0 M0 0 C18.199830187484626 0, 36.39966037496925 0, 60 0 M60 0 C60 23.592315690591935, 60 47.18463138118387, 60 60 M60 0 C60 13.268293691799045, 60 26.53658738359809, 60 60 M60 60 C42.570865793153644 60, 25.14173158630728 60, 0 60 M60 60 C38.88867806084454 60, 17.77735612168908 60, 0 60 M0 60 C0 39.213781697675586, 0 18.42756339535117, 0 0 M0 60 C0 38.279202746227384, 0 16.55840549245476, 0 0" stroke="#000000" stroke-width="1" fill="none"></path></g><g transform="translate(31.5 22) rotate(0 8.5 18)"><text x="8.5" y="25" font-family="Virgil, Segoe UI Emoji" font-size="28px" fill="#000" text-anchor="middle" style="white-space: pre;" direction="ltr">X</text></g><g transform="translate(28.5 82) rotate(0 11.5 18)"><text x="11.5" y="25" font-family="Virgil, Segoe UI Emoji" font-size="28px" fill="#000" text-anchor="middle" style="white-space: pre;" direction="ltr">C</text></g><g transform="translate(30 142) rotate(0 10 18)"><text x="10" y="25" font-family="Virgil, Segoe UI Emoji" font-size="28px" fill="#000" text-anchor="middle" style="white-space: pre;" direction="ltr">O</text></g><g transform="translate(30 202) rotate(0 10 18)"><text x="10" y="25" font-family="Virgil, Segoe UI Emoji" font-size="28px" fill="#000" text-anchor="middle" style="white-space: pre;" direction="ltr">M</text></g><g transform="translate(91.5 82) rotate(0 8.5 18)"><text x="8.5" y="25" font-family="Virgil, Segoe UI Emoji" font-size="28px" fill="#000" text-anchor="middle" style="white-space: pre;" direction="ltr">L</text></g><g transform="translate(151 82) rotate(0 9 18)"><text x="9" y="25" font-family="Virgil, Segoe UI Emoji" font-size="28px" fill="#000" text-anchor="middle" style="white-space: pre;" direction="ltr">A</text></g><g transform="translate(208.5 82) rotate(0 11.5 18)"><text x="11.5" y="25" font-family="Virgil, Segoe UI Emoji" font-size="28px" fill="#000" text-anchor="middle" style="white-space: pre;" direction="ltr">W</text></g><g transform="translate(152 22) rotate(0 8 18)"><text x="8" y="25" font-family="Virgil, Segoe UI Emoji" font-size="28px" fill="#000" text-anchor="middle" style="white-space: pre;" direction="ltr">F</text></g><g transform="translate(151.5 142) rotate(0 8.5 18)"><text x="8.5" y="25" font-family="Virgil, Segoe UI Emoji" font-size="28px" fill="#000" text-anchor="middle" style="white-space: pre;" direction="ltr">L</text></g><g transform="translate(151.5 202) rotate(0 8.5 18)"><text x="8.5" y="25" font-family="Virgil, Segoe UI Emoji" font-size="28px" fill="#000" text-anchor="middle" style="white-space: pre;" direction="ltr">L</text></g><g transform="translate(150 262) rotate(0 10 18)"><text x="10" y="25" font-family="Virgil, Segoe UI Emoji" font-size="28px" fill="#000" text-anchor="middle" style="white-space: pre;" direction="ltr">O</text></g><g transform="translate(151.5 322) rotate(0 8.5 18)"><text x="8.5" y="25" font-family="Virgil, Segoe UI Emoji" font-size="28px" fill="#000" text-anchor="middle" style="white-space: pre;" direction="ltr">U</text></g><g transform="translate(147 382) rotate(0 13 18)"><text x="13" y="25" font-family="Virgil, Segoe UI Emoji" font-size="28px" fill="#000" text-anchor="middle" style="white-space: pre;" direction="ltr">T</text></g><g transform="translate(88.5 262) rotate(0 11.5 18)"><text x="11.5" y="25" font-family="Virgil, Segoe UI Emoji" font-size="28px" fill="#000" text-anchor="middle" style="white-space: pre;" direction="ltr">C</text></g><g transform="translate(210 262) rotate(0 10 18)"><text x="10" y="25" font-family="Virgil, Segoe UI Emoji" font-size="28px" fill="#000" text-anchor="middle" style="white-space: pre;" direction="ltr">M</text></g><g transform="translate(270 262) rotate(0 10 18)"><text x="10" y="25" font-family="Virgil, Segoe UI Emoji" font-size="28px" fill="#000" text-anchor="middle" style="white-space: pre;" direction="ltr">M</text></g><g transform="translate(331 262) rotate(0 9 18)"><text x="9" y="25" font-family="Virgil, Segoe UI Emoji" font-size="28px" fill="#000" text-anchor="middle" style="white-space: pre;" direction="ltr">A</text></g><g transform="translate(391.5 262) rotate(0 8.5 18)"><text x="8.5" y="25" font-family="Virgil, Segoe UI Emoji" font-size="28px" fill="#000" text-anchor="middle" style="white-space: pre;" direction="ltr">N</text></g><g transform="translate(446 262) rotate(0 14 18)"><text x="14" y="25" font-family="Virgil, Segoe UI Emoji" font-size="28px" fill="#000" text-anchor="middle" style="white-space: pre;" direction="ltr">D</text></g><g transform="translate(510 262) rotate(0 10 18)"><text x="10" y="25" font-family="Virgil, Segoe UI Emoji" font-size="28px" fill="#000" text-anchor="middle" style="white-space: pre;" direction="ltr">O</text></g><g transform="translate(571.5 262) rotate(0 8.5 18)"><text x="8.5" y="25" font-family="Virgil, Segoe UI Emoji" font-size="28px" fill="#000" text-anchor="middle" style="white-space: pre;" direction="ltr">S</text></g><g transform="translate(570 142) rotate(0 10 18)"><text x="10" y="25" font-family="Virgil, Segoe UI Emoji" font-size="28px" fill="#000" text-anchor="middle" style="white-space: pre;" direction="ltr">M</text></g><g transform="translate(573 202) rotate(0 7 18)"><text x="7" y="25" font-family="Virgil, Segoe UI Emoji" font-size="28px" fill="#000" text-anchor="middle" style="white-space: pre;" direction="ltr">Y</text></g><g transform="translate(567 322) rotate(0 13 18)"><text x="13" y="25" font-family="Virgil, Segoe UI Emoji" font-size="28px" fill="#000" text-anchor="middle" style="white-space: pre;" direction="ltr">T</text></g><g transform="translate(450 22) rotate(0 10 18)"><text x="10" y="25" font-family="Virgil, Segoe UI Emoji" font-size="28px" fill="#000" text-anchor="middle" style="white-space: pre;" direction="ltr">B</text></g><g transform="translate(451.5 82) rotate(0 8.5 18)"><text x="8.5" y="25" font-family="Virgil, Segoe UI Emoji" font-size="28px" fill="#000" text-anchor="middle" style="white-space: pre;" direction="ltr">L</text></g><g transform="translate(450 142) rotate(0 10 18)"><text x="10" y="25" font-family="Virgil, Segoe UI Emoji" font-size="28px" fill="#000" text-anchor="middle" style="white-space: pre;" direction="ltr">O</text></g><g transform="translate(450 202) rotate(0 10 18)"><text x="10" y="25" font-family="Virgil, Segoe UI Emoji" font-size="28px" fill="#000" text-anchor="middle" style="white-space: pre;" direction="ltr">O</text></g><g transform="translate(329 22) rotate(0 11 18)"><text x="11" y="25" font-family="Virgil, Segoe UI Emoji" font-size="28px" fill="#000" text-anchor="middle" style="white-space: pre;" direction="ltr">G</text></g><g transform="translate(390 22) rotate(0 10 18)"><text x="10" y="25" font-family="Virgil, Segoe UI Emoji" font-size="28px" fill="#000" text-anchor="middle" style="white-space: pre;" direction="ltr">O</text></g><g transform="translate(511.5 22) rotate(0 8.5 18)"><text x="8.5" y="25" font-family="Virgil, Segoe UI Emoji" font-size="28px" fill="#000" text-anchor="middle" style="white-space: pre;" direction="ltr">L</text></g><g transform="translate(572.5 22) rotate(0 7.5 18)"><text x="7.5" y="25" font-family="Virgil, Segoe UI Emoji" font-size="28px" fill="#000" text-anchor="middle" style="white-space: pre;" direction="ltr">I</text></g><g transform="translate(631.5 22) rotate(0 8.5 18)"><text x="8.5" y="25" font-family="Virgil, Segoe UI Emoji" font-size="28px" fill="#000" text-anchor="middle" style="white-space: pre;" direction="ltr">N</text></g><g transform="translate(691.5 22) rotate(0 8.5 18)"><text x="8.5" y="25" font-family="Virgil, Segoe UI Emoji" font-size="28px" fill="#000" text-anchor="middle" style="white-space: pre;" direction="ltr">S</text></g><g transform="translate(692.5 82) rotate(0 7.5 18)"><text x="7.5" y="25" font-family="Virgil, Segoe UI Emoji" font-size="28px" fill="#000" text-anchor="middle" style="white-space: pre;" direction="ltr">I</text></g><g transform="translate(690 142) rotate(0 10 18)"><text x="10" y="25" font-family="Virgil, Segoe UI Emoji" font-size="28px" fill="#000" text-anchor="middle" style="white-space: pre;" direction="ltr">M</text></g><g transform="translate(688.5 202) rotate(0 11.5 18)"><text x="11.5" y="25" font-family="Virgil, Segoe UI Emoji" font-size="28px" fill="#000" text-anchor="middle" style="white-space: pre;" direction="ltr">C</text></g><g transform="translate(692.5 262) rotate(0 7.5 18)"><text x="7.5" y="25" font-family="Virgil, Segoe UI Emoji" font-size="28px" fill="#000" text-anchor="middle" style="white-space: pre;" direction="ltr">I</text></g><g transform="translate(687 322) rotate(0 13 18)"><text x="13" y="25" font-family="Virgil, Segoe UI Emoji" font-size="28px" fill="#000" text-anchor="middle" style="white-space: pre;" direction="ltr">T</text></g><g transform="translate(693 382) rotate(0 7 18)"><text x="7" y="25" font-family="Virgil, Segoe UI Emoji" font-size="28px" fill="#000" text-anchor="middle" style="white-space: pre;" direction="ltr">Y</text></g><g transform="translate(30 382) rotate(0 10 18)"><text x="10" y="25" font-family="Virgil, Segoe UI Emoji" font-size="28px" fill="#000" text-anchor="middle" style="white-space: pre;" direction="ltr">M</text></g><g transform="translate(91 382) rotate(0 9 18)"><text x="9" y="25" font-family="Virgil, Segoe UI Emoji" font-size="28px" fill="#000" text-anchor="middle" style="white-space: pre;" direction="ltr">E</text></g><g transform="translate(211 382) rotate(0 9 18)"><text x="9" y="25" font-family="Virgil, Segoe UI Emoji" font-size="28px" fill="#000" text-anchor="middle" style="white-space: pre;" direction="ltr">R</text></g><g transform="translate(270 382) rotate(0 10 18)"><text x="10" y="25" font-family="Virgil, Segoe UI Emoji" font-size="28px" fill="#000" text-anchor="middle" style="white-space: pre;" direction="ltr">O</text></g><g transform="translate(332.5 382) rotate(0 7.5 18)"><text x="7.5" y="25" font-family="Virgil, Segoe UI Emoji" font-size="28px" fill="#000" text-anchor="middle" style="white-space: pre;" direction="ltr">I</text></g><g transform="translate(386 382) rotate(0 14 18)"><text x="14" y="25" font-family="Virgil, Segoe UI Emoji" font-size="28px" fill="#000" text-anchor="middle" style="white-space: pre;" direction="ltr">D</text></g><g transform="translate(211 442) rotate(0 9 18)"><text x="9" y="25" font-family="Virgil, Segoe UI Emoji" font-size="28px" fill="#000" text-anchor="middle" style="white-space: pre;" direction="ltr">A</text></g><g transform="translate(213 502) rotate(0 7 18)"><text x="7" y="25" font-family="Virgil, Segoe UI Emoji" font-size="28px" fill="#000" text-anchor="middle" style="white-space: pre;" direction="ltr">Y</text></g><g transform="translate(210 562) rotate(0 10 18)"><text x="10" y="25" font-family="Virgil, Segoe UI Emoji" font-size="28px" fill="#000" text-anchor="middle" style="white-space: pre;" direction="ltr">M</text></g><g transform="translate(211 622) rotate(0 9 18)"><text x="9" y="25" font-family="Virgil, Segoe UI Emoji" font-size="28px" fill="#000" text-anchor="middle" style="white-space: pre;" direction="ltr">A</text></g><g transform="translate(211.5 682) rotate(0 8.5 18)"><text x="8.5" y="25" font-family="Virgil, Segoe UI Emoji" font-size="28px" fill="#000" text-anchor="middle" style="white-space: pre;" direction="ltr">N</text></g><g transform="translate(26 562) rotate(0 14 18)"><text x="14" y="25" font-family="Virgil, Segoe UI Emoji" font-size="28px" fill="#000" text-anchor="middle" style="white-space: pre;" direction="ltr">D</text></g><g transform="translate(90 562) rotate(0 10 18)"><text x="10" y="25" font-family="Virgil, Segoe UI Emoji" font-size="28px" fill="#000" text-anchor="middle" style="white-space: pre;" direction="ltr">O</text></g><g transform="translate(150 562) rotate(0 10 18)"><text x="10" y="25" font-family="Virgil, Segoe UI Emoji" font-size="28px" fill="#000" text-anchor="middle" style="white-space: pre;" direction="ltr">O</text></g><g transform="translate(87.5 502) rotate(0 12.5 18)"><text x="12.5" y="25" font-family="Virgil, Segoe UI Emoji" font-size="28px" fill="#000" text-anchor="middle" style="white-space: pre;" direction="ltr">Z</text></g><g transform="translate(91 622) rotate(0 9 18)"><text x="9" y="25" font-family="Virgil, Segoe UI Emoji" font-size="28px" fill="#000" text-anchor="middle" style="white-space: pre;" direction="ltr">R</text></g><g transform="translate(90.5 682) rotate(0 9.5 18)"><text x="9.5" y="25" font-family="Virgil, Segoe UI Emoji" font-size="28px" fill="#000" text-anchor="middle" style="white-space: pre;" direction="ltr">K</text></g><g transform="translate(31.5 682) rotate(0 8.5 18)"><text x="8.5" y="25" font-family="Virgil, Segoe UI Emoji" font-size="28px" fill="#000" text-anchor="middle" style="white-space: pre;" direction="ltr">S</text></g><g transform="translate(151.5 682) rotate(0 8.5 18)"><text x="8.5" y="25" font-family="Virgil, Segoe UI Emoji" font-size="28px" fill="#000" text-anchor="middle" style="white-space: pre;" direction="ltr">U</text></g><g transform="translate(271.5 682) rotate(0 8.5 18)"><text x="8.5" y="25" font-family="Virgil, Segoe UI Emoji" font-size="28px" fill="#000" text-anchor="middle" style="white-space: pre;" direction="ltr">N</text></g><g transform="translate(333 682) rotate(0 7 18)"><text x="7" y="25" font-family="Virgil, Segoe UI Emoji" font-size="28px" fill="#000" text-anchor="middle" style="white-space: pre;" direction="ltr">Y</text></g><g transform="translate(447.5 682) rotate(0 12.5 18)"><text x="12.5" y="25" font-family="Virgil, Segoe UI Emoji" font-size="28px" fill="#000" text-anchor="middle" style="white-space: pre;" direction="ltr">Z</text></g><g transform="translate(511 682) rotate(0 9 18)"><text x="9" y="25" font-family="Virgil, Segoe UI Emoji" font-size="28px" fill="#000" text-anchor="middle" style="white-space: pre;" direction="ltr">E</text></g><g transform="translate(571.5 682) rotate(0 8.5 18)"><text x="8.5" y="25" font-family="Virgil, Segoe UI Emoji" font-size="28px" fill="#000" text-anchor="middle" style="white-space: pre;" direction="ltr">L</text></g><g transform="translate(626 682) rotate(0 14 18)"><text x="14" y="25" font-family="Virgil, Segoe UI Emoji" font-size="28px" fill="#000" text-anchor="middle" style="white-space: pre;" direction="ltr">D</text></g><g transform="translate(691 682) rotate(0 9 18)"><text x="9" y="25" font-family="Virgil, Segoe UI Emoji" font-size="28px" fill="#000" text-anchor="middle" style="white-space: pre;" direction="ltr">A</text></g><g transform="translate(391.5 442) rotate(0 8.5 18)"><text x="8.5" y="25" font-family="Virgil, Segoe UI Emoji" font-size="28px" fill="#000" text-anchor="middle" style="white-space: pre;" direction="ltr">U</text></g><g transform="translate(391.5 502) rotate(0 8.5 18)"><text x="8.5" y="25" font-family="Virgil, Segoe UI Emoji" font-size="28px" fill="#000" text-anchor="middle" style="white-space: pre;" direction="ltr">N</text></g><g transform="translate(391 562) rotate(0 9 18)"><text x="9" y="25" font-family="Virgil, Segoe UI Emoji" font-size="28px" fill="#000" text-anchor="middle" style="white-space: pre;" direction="ltr">E</text></g><g transform="translate(330 442) rotate(0 10 18)"><text x="10" y="25" font-family="Virgil, Segoe UI Emoji" font-size="28px" fill="#000" text-anchor="middle" style="white-space: pre;" direction="ltr">O</text></g><g transform="translate(447 442) rotate(0 13 18)"><text x="13" y="25" font-family="Virgil, Segoe UI Emoji" font-size="28px" fill="#000" text-anchor="middle" style="white-space: pre;" direction="ltr">T</text></g><g transform="translate(511 442) rotate(0 9 18)"><text x="9" y="25" font-family="Virgil, Segoe UI Emoji" font-size="28px" fill="#000" text-anchor="middle" style="white-space: pre;" direction="ltr">R</text></g><g transform="translate(571.5 442) rotate(0 8.5 18)"><text x="8.5" y="25" font-family="Virgil, Segoe UI Emoji" font-size="28px" fill="#000" text-anchor="middle" style="white-space: pre;" direction="ltr">U</text></g><g transform="translate(631.5 442) rotate(0 8.5 18)"><text x="8.5" y="25" font-family="Virgil, Segoe UI Emoji" font-size="28px" fill="#000" text-anchor="middle" style="white-space: pre;" direction="ltr">N</text></g><g transform="translate(630 502) rotate(0 10 18)"><text x="10" y="25" font-family="Virgil, Segoe UI Emoji" font-size="28px" fill="#000" text-anchor="middle" style="white-space: pre;" direction="ltr">O</text></g><g transform="translate(631.5 562) rotate(0 8.5 18)"><text x="8.5" y="25" font-family="Virgil, Segoe UI Emoji" font-size="28px" fill="#000" text-anchor="middle" style="white-space: pre;" direction="ltr">X</text></g><g transform="translate(511 382) rotate(0 9 18)"><text x="9" y="25" font-family="Virgil, Segoe UI Emoji" font-size="28px" fill="#000" text-anchor="middle" style="white-space: pre;" direction="ltr">P</text></g><g transform="translate(512.5 502) rotate(0 7.5 18)"><text x="7.5" y="25" font-family="Virgil, Segoe UI Emoji" font-size="28px" fill="#000" text-anchor="middle" style="white-space: pre;" direction="ltr">I</text></g><g transform="translate(511.5 562) rotate(0 8.5 18)"><text x="8.5" y="25" font-family="Virgil, Segoe UI Emoji" font-size="28px" fill="#000" text-anchor="middle" style="white-space: pre;" direction="ltr">N</text></g><g transform="translate(508.5 622) rotate(0 11.5 18)"><text x="11.5" y="25" font-family="Virgil, Segoe UI Emoji" font-size="28px" fill="#000" text-anchor="middle" style="white-space: pre;" direction="ltr">C</text></g><g transform="translate(330 202) rotate(0 10 18)"><text x="10" y="25" font-family="Virgil, Segoe UI Emoji" font-size="28px" fill="#000" text-anchor="middle" style="white-space: pre;" direction="ltr">M</text></g><g transform="translate(331 322) rotate(0 9 18)"><text x="9" y="25" font-family="Virgil, Segoe UI Emoji" font-size="28px" fill="#000" text-anchor="middle" style="white-space: pre;" direction="ltr">R</text></g></svg>