<svg version="1.1" xmlns="http://www.w3.org/2000/svg" viewBox="0 0 740 740">
  <!-- svg-source:excalidraw -->
  <defs>
    <style>
      @font-face {
        font-family: "Virgil";
        src: url("https://excalidraw.com/FG_Virgil.woff2");
      }
      @font-face {
        font-family: "Cascadia";
        src: url("https://excalidraw.com/Cascadia.woff2");
      }
    </style>
  </defs>
  <rect x="0" y="0" width="740" height="740" fill="#ffffff"></rect><g transform="translate(10 10) rotate(0 30 30)"><path d="M0 0 C16.530372155830264 0, 33.06074431166053 0, 60 0 M0 0 C15.562144892290238 0, 31.124289784580476 0, 60 0 M60 0 C60 15.850968075916173, 60 31.701936151832346, 60 60 M60 0 C60 23.386882262304425, 60 46.77376452460885, 60 60 M60 60 C40.65213786251843 60, 21.304275725036852 60, 0 60 M60 60 C42.85539506189525 60, 25.710790123790503 60, 0 60 M0 60 C0 44.02221958525479, 0 28.044439170509573, 0 0 M0 60 C0 39.432936592027545, 0 18.86587318405509, 0 0" stroke="#000000" stroke-width="1" fill="none"></path></g><g transform="translate(70 10) rotate(0 30 30)"><path d="M0 0 C21.59433408267796 0, 43.18866816535592 0, 60 0 M0 0 C12.296095741912723 0, 24.592191483825445 0, 60 0 M60 0 C60 22.079992549493912, 60 44.159985098987825, 60 60 M60 0 C60 20.19368369691074, 60 40.38736739382148, 60 60 M60 60 C43.34676162712276 60, 26.69352325424552 60, 0 60 M60 60 C40.77503274567425 60, 21.550065491348505 60, 0 60 M0 60 C0 36.561599833890796, 0 13.123199667781591, 0 0 M0 60 C0 39.2822337616235, 0 18.564467523247004, 0 0" stroke="#ccc" stroke-width="1" fill="none"></path></g><g transform="translate(130 10) rotate(0 30 30)"><path d="M0 0 C12.100504947826266 0, 24.201009895652533 0, 60 0 M0 0 C12.837557869032027 0, 25.675115738064054 0, 60 0 M60 0 C60 19.32035662047565, 60 38.6407132409513, 60 60 M60 0 C60 21.305733578279618, 60 42.611467156559236, 60 60 M60 60 C47.530502842739224 60, 35.06100568547845 60, 0 60 M60 60 C47.605666441842914 60, 35.21133288368583 60, 0 60 M0 60 C0 36.98558174259961, 0 13.971163485199213, 0 0 M0 60 C0 36.70590732805431, 0 13.41181465610861, 0 0" stroke="#000000" stroke-width="1" fill="none"></path></g><g transform="translate(190 10) rotate(0 30 30)"><path d="M0 0 C15.474336521700028 0, 30.948673043400056 0, 60 0 M0 0 C13.755896044895053 0, 27.511792089790106 0, 60 0 M60 0 C60 20.93442698009312, 60 41.86885396018624, 60 60 M60 0 C60 13.065557135269046, 60 26.13111427053809, 60 60 M60 60 C40.90272186510265 60, 21.805443730205297 60, 0 60 M60 60 C45.12481419928372 60, 30.249628398567438 60, 0 60 M0 60 C0 43.016297025606036, 0 26.032594051212072, 0 0 M0 60 C0 42.85263250954449, 0 25.705265019088984, 0 0" stroke="#ccc" stroke-width="1" fill="none"></path></g><g transform="translate(250 10) rotate(0 30 30)"><path d="M0 0 C21.6982389818877 0, 43.3964779637754 0, 60 0 M0 0 C14.857983129099013 0, 29.715966258198026 0, 60 0 M60 0 C60 17.72475607506931, 60 35.44951215013862, 60 60 M60 0 C60 15.508476572111253, 60 31.016953144222505, 60 60 M60 60 C43.28715036995709 60, 26.57430073991418 60, 0 60 M60 60 C39.90621362440288 60, 19.81242724880576 60, 0 60 M0 60 C0 43.673723028972745, 0 27.347446057945483, 0 0 M0 60 C0 39.42386822216213, 0 18.847736444324255, 0 0" stroke="#000000" stroke-width="1" fill="none"></path></g><g transform="translate(310 10) rotate(0 30 30)"><path d="M0 0 C23.693894701078538 0, 47.387789402157075 0, 60 0 M0 0 C17.703624738380313 0, 35.407249476760626 0, 60 0 M60 0 C60 15.700499670580031, 60 31.400999341160063, 60 60 M60 0 C60 13.672612382099032, 60 27.345224764198065, 60 60 M60 60 C38.03550819866359 60, 16.071016397327185 60, 0 60 M60 60 C36.837863551452756 60, 13.675727102905512 60, 0 60 M0 60 C0 38.28433154337108, 0 16.568663086742163, 0 0 M0 60 C0 45.5429519880563, 0 31.0859039761126, 0 0" stroke="#000000" stroke-width="1" fill="none"></path></g><g transform="translate(370 10) rotate(0 30 30)"><path d="M0 0 C19.991115761920813 0, 39.98223152384163 0, 60 0 M0 0 C15.669746356084945 0, 31.33949271216989 0, 60 0 M60 0 C60 18.8195985686034, 60 37.6391971372068, 60 60 M60 0 C60 14.672296302393079, 60 29.344592604786158, 60 60 M60 60 C36.016257690265775 60, 12.032515380531542 60, 0 60 M60 60 C40.5114921759814 60, 21.022984351962805 60, 0 60 M0 60 C0 46.967930065467954, 0 33.93586013093591, 0 0 M0 60 C0 39.83541546575725, 0 19.6708309315145, 0 0" stroke="#000000" stroke-width="1" fill="none"></path></g><g transform="translate(430 10) rotate(0 30 30)"><path d="M0 0 C23.14894367940724 0, 46.29788735881448 0, 60 0 M0 0 C22.326354576274753 0, 44.652709152549505 0, 60 0 M60 0 C60 16.842505054548383, 60 33.685010109096766, 60 60 M60 0 C60 18.414812816306952, 60 36.829625632613904, 60 60 M60 60 C40.77496681921184 60, 21.549933638423674 60, 0 60 M60 60 C46.23882679827511 60, 32.477653596550226 60, 0 60 M0 60 C0 40.95219020359218, 0 21.904380407184355, 0 0 M0 60 C0 39.33994756825268, 0 18.67989513650536, 0 0" stroke="#000000" stroke-width="1" fill="none"></path></g><g transform="translate(490 10) rotate(0 30 30)"><path d="M0 0 C18.660348666831855 0, 37.32069733366371 0, 60 0 M0 0 C19.461751358583573 0, 38.923502717167146 0, 60 0 M60 0 C60 16.561488104984164, 60 33.12297620996833, 60 60 M60 0 C60 13.429455952718854, 60 26.858911905437708, 60 60 M60 60 C44.42333017475903 60, 28.84666034951806 60, 0 60 M60 60 C42.40837953798473 60, 24.81675907596945 60, 0 60 M0 60 C0 43.17331759817898, 0 26.34663519635796, 0 0 M0 60 C0 38.60906712524593, 0 17.21813425049185, 0 0" stroke="#000000" stroke-width="1" fill="none"></path></g><g transform="translate(550 10) rotate(0 30 30)"><path d="M0 0 C21.69049664027989 0, 43.38099328055978 0, 60 0 M0 0 C18.199830187484626 0, 36.39966037496925 0, 60 0 M60 0 C60 23.592315690591935, 60 47.18463138118387, 60 60 M60 0 C60 13.268293691799045, 60 26.53658738359809, 60 60 M60 60 C42.570865793153644 60, 25.14173158630728 60, 0 60 M60 60 C38.88867806084454 60, 17.77735612168908 60, 0 60 M0 60 C0 39.213781697675586, 0 18.42756339535117, 0 0 M0 60 C0 38.279202746227384, 0 16.55840549245476, 0 0" stroke="#000000" stroke-width="1" fill="none"></path></g><g transform="translate(610 10) rotate(0 30 30)"><path d="M0 0 C21.963322950527072 0, 43.926645901054144 0, 60 0 M0 0 C16.00298007018864 0, 32.00596014037728 0, 60 0 M60 0 C60 12.670700563117862, 60 25.341401126235723, 60 60 M60 0 C60 21.804796831682328, 60 43.609593663364656, 60 60 M60 60 C46.262701319530606 60, 32.52540263906121 60, 0 60 M60 60 C47.37867502681911 60, 34.75735005363822 60, 0 60 M0 60 C0 44.45632849819958, 0 28.912656996399164, 0 0 M0 60 C0 39.39576314203441, 0 18.791526284068823, 0 0" stroke="#ccc" stroke-width="1" fill="none"></path></g><g transform="translate(670 10) rotate(0 30 30)"><path d="M0 0 C15.562144892290238 0, 31.124289784580476 0, 60 0 M0 0 C15.850968075916173 0, 31.701936151832346 0, 60 0 M60 0 C60 23.386882262304425, 60 46.77376452460885, 60 60 M60 0 C60 19.347862137481574, 60 38.69572427496315, 60 60 M60 60 C42.85539506189525 60, 25.710790123790503 60, 0 60 M60 60 C44.02221958525479 60, 28.044439170509573 60, 0 60 M0 60 C0 39.432936592027545, 0 18.86587318405509, 0 0 M0 60 C0 44.882629143074155, 0 29.76525828614831, 0 0" stroke="#ccc" stroke-width="1" fill="none"></path></g><g transform="translate(10 70) rotate(0 30 30)"><path d="M0 0 C12.296095741912723 0, 24.592191483825445 0, 60 0 M0 0 C22.079992549493912 0, 44.159985098987825 0, 60 0 M60 0 C60 20.19368369691074, 60 40.38736739382148, 60 60 M60 0 C60 16.65323837287724, 60 33.30647674575448, 60 60 M60 60 C40.77503274567425 60, 21.550065491348505 60, 0 60 M60 60 C36.561599833890796 60, 13.123199667781591 60, 0 60 M0 60 C0 39.2822337616235, 0 18.564467523247004, 0 0 M0 60 C0 37.39136533252895, 0 14.782730665057898, 0 0" stroke="#000000" stroke-width="1" fill="none"></path></g><g transform="translate(70 70) rotate(0 30 30)"><path d="M0 0 C12.837557869032027 0, 25.675115738064054 0, 60 0 M0 0 C19.32035662047565 0, 38.6407132409513 0, 60 0 M60 0 C60 21.305733578279618, 60 42.611467156559236, 60 60 M60 0 C60 12.469497157260777, 60 24.938994314521555, 60 60 M60 60 C47.605666441842914 60, 35.21133288368583 60, 0 60 M60 60 C36.98558174259961 60, 13.971163485199213 60, 0 60 M0 60 C0 36.70590732805431, 0 13.41181465610861, 0 0 M0 60 C0 46.595966504886746, 0 33.19193300977349, 0 0" stroke="#ccc" stroke-width="1" fill="none"></path></g><g transform="translate(130 70) rotate(0 30 30)"><path d="M0 0 C13.755896044895053 0, 27.511792089790106 0, 60 0 M0 0 C20.93442698009312 0, 41.86885396018624 0, 60 0 M60 0 C60 13.065557135269046, 60 26.13111427053809, 60 60 M60 0 C60 19.09727813489735, 60 38.1945562697947, 60 60 M60 60 C45.12481419928372 60, 30.249628398567438 60, 0 60 M60 60 C43.016297025606036 60, 26.032594051212072 60, 0 60 M0 60 C0 42.85263250954449, 0 25.705265019088984, 0 0 M0 60 C0 37.89915738813579, 0 15.798314776271582, 0 0" stroke="#000000" stroke-width="1" fill="none"></path></g><g transform="translate(190 70) rotate(0 30 30)"><path d="M0 0 C14.857983129099013 0, 29.715966258198026 0, 60 0 M0 0 C17.72475607506931 0, 35.44951215013862 0, 60 0 M60 0 C60 15.508476572111253, 60 31.016953144222505, 60 60 M60 0 C60 16.71284963004291, 60 33.42569926008582, 60 60 M60 60 C39.90621362440288 60, 19.81242724880576 60, 0 60 M60 60 C43.673723028972745 60, 27.347446057945483 60, 0 60 M0 60 C0 39.42386822216213, 0 18.847736444324255, 0 0 M0 60 C0 42.22628270275891, 0 24.452565405517817, 0 0" stroke="#ccc" stroke-width="1" fill="none"></path></g><g transform="translate(250 70) rotate(0 30 30)"><path d="M0 0 C17.703624738380313 0, 35.407249476760626 0, 60 0 M0 0 C15.700499670580031 0, 31.400999341160063 0, 60 0 M60 0 C60 13.672612382099032, 60 27.345224764198065, 60 60 M60 0 C60 21.964491801336408, 60 43.928983602672815, 60 60 M60 60 C36.837863551452756 60, 13.675727102905512 60, 0 60 M60 60 C38.28433154337108 60, 16.568663086742163 60, 0 60 M0 60 C0 45.5429519880563, 0 31.0859039761126, 0 0 M0 60 C0 44.89234487526119, 0 29.784689750522375, 0 0" stroke="#ccc" stroke-width="1" fill="none"></path></g><g transform="translate(310 70) rotate(0 30 30)"><path d="M0 0 C15.669746356084945 0, 31.33949271216989 0, 60 0 M0 0 C18.8195985686034 0, 37.6391971372068 0, 60 0 M60 0 C60 14.672296302393079, 60 29.344592604786158, 60 60 M60 0 C60 23.98374230973423, 60 47.96748461946846, 60 60 M60 60 C40.5114921759814 60, 21.022984351962805 60, 0 60 M60 60 C46.967930065467954 60, 33.93586013093591 60, 0 60 M0 60 C0 39.83541546575725, 0 19.6708309315145, 0 0 M0 60 C0 38.37947373278439, 0 16.75894746556878, 0 0" stroke="#ccc" stroke-width="1" fill="none"></path></g><g transform="translate(370 70) rotate(0 30 30)"><path d="M0 0 C22.326354576274753 0, 44.652709152549505 0, 60 0 M0 0 C16.842505054548383 0, 33.685010109096766 0, 60 0 M60 0 C60 18.414812816306952, 60 36.829625632613904, 60 60 M60 0 C60 19.225033180788163, 60 38.450066361576326, 60 60 M60 60 C46.23882679827511 60, 32.477653596550226 60, 0 60 M60 60 C40.95219020359218 60, 21.904380407184355 60, 0 60 M0 60 C0 39.33994756825268, 0 18.67989513650536, 0 0 M0 60 C0 43.57655523531139, 0 27.153110470622778, 0 0" stroke="#ccc" stroke-width="1" fill="none"></path></g><g transform="translate(430 70) rotate(0 30 30)"><path d="M0 0 C19.461751358583573 0, 38.923502717167146 0, 60 0 M0 0 C16.561488104984164 0, 33.12297620996833 0, 60 0 M60 0 C60 13.429455952718854, 60 26.858911905437708, 60 60 M60 0 C60 15.57666982524097, 60 31.15333965048194, 60 60 M60 60 C42.40837953798473 60, 24.81675907596945 60, 0 60 M60 60 C43.17331759817898 60, 26.34663519635796 60, 0 60 M0 60 C0 38.60906712524593, 0 17.21813425049185, 0 0 M0 60 C0 39.89776371605694, 0 19.795527432113886, 0 0" stroke="#ccc" stroke-width="1" fill="none"></path></g><g transform="translate(490 70) rotate(0 30 30)"><path d="M0 0 C18.199830187484626 0, 36.39966037496925 0, 60 0 M0 0 C23.592315690591935 0, 47.18463138118387 0, 60 0 M60 0 C60 13.268293691799045, 60 26.53658738359809, 60 60 M60 0 C60 17.42913420684636, 60 34.85826841369272, 60 60 M60 60 C38.88867806084454 60, 17.77735612168908 60, 0 60 M60 60 C39.213781697675586 60, 18.42756339535117 60, 0 60 M0 60 C0 38.279202746227384, 0 16.55840549245476, 0 0 M0 60 C0 36.952337784692645, 0 13.90467556938529, 0 0" stroke="#ccc" stroke-width="1" fill="none"></path></g><g transform="translate(550 70) rotate(0 30 30)"><path d="M0 0 C16.00298007018864 0, 32.00596014037728 0, 60 0 M0 0 C12.670700563117862 0, 25.341401126235723 0, 60 0 M60 0 C60 21.804796831682328, 60 43.609593663364656, 60 60 M60 0 C60 13.737298680469396, 60 27.47459736093879, 60 60 M60 60 C47.37867502681911 60, 34.75735005363822 60, 0 60 M60 60 C44.45632849819958 60, 28.912656996399164 60, 0 60 M0 60 C0 39.39576314203441, 0 18.791526284068823, 0 0 M0 60 C0 46.297204898670316, 0 32.59440979734063, 0 0" stroke="#000000" stroke-width="1" fill="none"></path></g><g transform="translate(610 70) rotate(0 30 30)"><path d="M0 0 C15.850968075916173 0, 31.701936151832346 0, 60 0 M0 0 C23.386882262304425 0, 46.77376452460885 0, 60 0 M60 0 C60 19.347862137481574, 60 38.69572427496315, 60 60 M60 0 C60 17.14460493810475, 60 34.2892098762095, 60 60 M60 60 C44.02221958525479 60, 28.044439170509573 60, 0 60 M60 60 C39.432936592027545 60, 18.86587318405509 60, 0 60 M0 60 C0 44.882629143074155, 0 29.76525828614831, 0 0 M0 60 C0 40.377663714811206, 0 20.75532742962241, 0 0" stroke="#ccc" stroke-width="1" fill="none"></path></g><g transform="translate(670 70) rotate(0 30 30)"><path d="M0 0 C22.079992549493912 0, 44.159985098987825 0, 60 0 M0 0 C20.19368369691074 0, 40.38736739382148 0, 60 0 M60 0 C60 16.65323837287724, 60 33.30647674575448, 60 60 M60 0 C60 19.224967254325747, 60 38.449934508651495, 60 60 M60 60 C36.561599833890796 60, 13.123199667781591 60, 0 60 M60 60 C39.2822337616235 60, 18.564467523247004 60, 0 60 M0 60 C0 37.39136533252895, 0 14.782730665057898, 0 0 M0 60 C0 42.20517765171826, 0 24.410355303436518, 0 0" stroke="#000000" stroke-width="1" fill="none"></path></g><g transform="translate(10 130) rotate(0 30 30)"><path d="M0 0 C19.32035662047565 0, 38.6407132409513 0, 60 0 M0 0 C21.305733578279618 0, 42.611467156559236 0, 60 0 M60 0 C60 12.469497157260777, 60 24.938994314521555, 60 60 M60 0 C60 12.394333558157088, 60 24.788667116314176, 60 60 M60 60 C36.98558174259961 60, 13.971163485199213 60, 0 60 M60 60 C36.70590732805431 60, 13.41181465610861 60, 0 60 M0 60 C0 46.595966504886746, 0 33.19193300977349, 0 0 M0 60 C0 46.13042609207332, 0 32.26085218414664, 0 0" stroke="#000000" stroke-width="1" fill="none"></path></g><g transform="translate(70 130) rotate(0 30 30)"><path d="M0 0 C20.93442698009312 0, 41.86885396018624 0, 60 0 M0 0 C13.065557135269046 0, 26.13111427053809 0, 60 0 M60 0 C60 19.09727813489735, 60 38.1945562697947, 60 60 M60 0 C60 14.875185800716281, 60 29.750371601432562, 60 60 M60 60 C43.016297025606036 60, 26.032594051212072 60, 0 60 M60 60 C42.85263250954449 60, 25.705265019088984 60, 0 60 M0 60 C0 37.89915738813579, 0 15.798314776271582, 0 0 M0 60 C0 41.79789047129452, 0 23.595780942589045, 0 0" stroke="#000000" stroke-width="1" fill="none"></path></g><g transform="translate(130 130) rotate(0 30 30)"><path d="M0 0 C17.72475607506931 0, 35.44951215013862 0, 60 0 M0 0 C15.508476572111253 0, 31.016953144222505 0, 60 0 M60 0 C60 16.71284963004291, 60 33.42569926008582, 60 60 M60 0 C60 20.09378637559712, 60 40.18757275119424, 60 60 M60 60 C43.673723028972745 60, 27.347446057945483 60, 0 60 M60 60 C39.42386822216213 60, 18.847736444324255 60, 0 60 M0 60 C0 42.22628270275891, 0 24.452565405517817, 0 0 M0 60 C0 41.97093985788524, 0 23.941879715770476, 0 0" stroke="#000000" stroke-width="1" fill="none"></path></g><g transform="translate(190 130) rotate(0 30 30)"><path d="M0 0 C15.700499670580031 0, 31.400999341160063 0, 60 0 M0 0 C13.672612382099032 0, 27.345224764198065 0, 60 0 M60 0 C60 21.964491801336408, 60 43.928983602672815, 60 60 M60 0 C60 23.162136448547244, 60 46.32427289709449, 60 60 M60 60 C38.28433154337108 60, 16.568663086742163 60, 0 60 M60 60 C45.5429519880563 60, 31.0859039761126 60, 0 60 M0 60 C0 44.89234487526119, 0 29.784689750522375, 0 0 M0 60 C0 43.237879978492856, 0 26.475759956985712, 0 0" stroke="#000000" stroke-width="1" fill="none"></path></g><g transform="translate(250 130) rotate(0 30 30)"><path d="M0 0 C18.8195985686034 0, 37.6391971372068 0, 60 0 M0 0 C14.672296302393079 0, 29.344592604786158 0, 60 0 M60 0 C60 23.98374230973423, 60 47.96748461946846, 60 60 M60 0 C60 19.488507824018598, 60 38.977015648037195, 60 60 M60 60 C46.967930065467954 60, 33.93586013093591 60, 0 60 M60 60 C39.83541546575725 60, 19.6708309315145 60, 0 60 M0 60 C0 38.37947373278439, 0 16.75894746556878, 0 0 M0 60 C0 47.704441828653216, 0 35.40888365730643, 0 0" stroke="#000000" stroke-width="1" fill="none"></path></g><g transform="translate(310 130) rotate(0 30 30)"><path d="M0 0 C16.842505054548383 0, 33.685010109096766 0, 60 0 M0 0 C18.414812816306952 0, 36.829625632613904 0, 60 0 M60 0 C60 19.225033180788163, 60 38.450066361576326, 60 60 M60 0 C60 13.761173201724887, 60 27.522346403449774, 60 60 M60 60 C40.95219020359218 60, 21.904380407184355 60, 0 60 M60 60 C39.33994756825268 60, 18.67989513650536 60, 0 60 M0 60 C0 43.57655523531139, 0 27.153110470622778, 0 0 M0 60 C0 37.11151091940701, 0 14.223021838814013, 0 0" stroke="#000000" stroke-width="1" fill="none"></path></g><g transform="translate(370 130) rotate(0 30 30)"><path d="M0 0 C16.561488104984164 0, 33.12297620996833 0, 60 0 M0 0 C13.429455952718854 0, 26.858911905437708 0, 60 0 M60 0 C60 15.57666982524097, 60 31.15333965048194, 60 60 M60 0 C60 17.591620462015275, 60 35.18324092403055, 60 60 M60 60 C43.17331759817898 60, 26.34663519635796 60, 0 60 M60 60 C38.60906712524593 60, 17.21813425049185 60, 0 60 M0 60 C0 39.89776371605694, 0 19.795527432113886, 0 0 M0 60 C0 37.743590695783496, 0 15.487181391566985, 0 0" stroke="#000000" stroke-width="1" fill="none"></path></g><g transform="translate(430 130) rotate(0 30 30)"><path d="M0 0 C23.592315690591935 0, 47.18463138118387 0, 60 0 M0 0 C13.268293691799045 0, 26.53658738359809 0, 60 0 M60 0 C60 17.42913420684636, 60 34.85826841369272, 60 60 M60 0 C60 21.11132193915546, 60 42.22264387831092, 60 60 M60 60 C39.213781697675586 60, 18.42756339535117 60, 0 60 M60 60 C38.279202746227384 60, 16.55840549245476 60, 0 60 M0 60 C0 36.952337784692645, 0 13.90467556938529, 0 0 M0 60 C0 44.866476165130734, 0 29.732952330261465, 0 0" stroke="#ccc" stroke-width="1" fill="none"></path></g><g transform="translate(490 130) rotate(0 30 30)"><path d="M0 0 C12.670700563117862 0, 25.341401126235723 0, 60 0 M0 0 C21.804796831682328 0, 43.609593663364656 0, 60 0 M60 0 C60 13.737298680469396, 60 27.47459736093879, 60 60 M60 0 C60 12.62132497318089, 60 25.24264994636178, 60 60 M60 60 C44.45632849819958 60, 28.912656996399164 60, 0 60 M60 60 C39.39576314203441 60, 18.791526284068823 60, 0 60 M0 60 C0 46.297204898670316, 0 32.59440979734063, 0 0 M0 60 C0 37.67096702568233, 0 15.341934051364653, 0 0" stroke="#000000" stroke-width="1" fill="none"></path></g><g transform="translate(550 130) rotate(0 30 30)"><path d="M0 0 C23.386882262304425 0, 46.77376452460885 0, 60 0 M0 0 C19.347862137481574 0, 38.69572427496315 0, 60 0 M60 0 C60 17.14460493810475, 60 34.2892098762095, 60 60 M60 0 C60 15.977780414745213, 60 31.955560829490427, 60 60 M60 60 C39.432936592027545 60, 18.86587318405509 60, 0 60 M60 60 C44.882629143074155 60, 29.76525828614831 60, 0 60 M0 60 C0 40.377663714811206, 0 20.75532742962241, 0 0 M0 60 C0 43.24929671175778, 0 26.49859342351555, 0 0" stroke="#000000" stroke-width="1" fill="none"></path></g><g transform="translate(610 130) rotate(0 30 30)"><path d="M0 0 C20.19368369691074 0, 40.38736739382148 0, 60 0 M0 0 C16.65323837287724 0, 33.30647674575448 0, 60 0 M60 0 C60 19.224967254325747, 60 38.449934508651495, 60 60 M60 0 C60 23.438400166109204, 60 46.87680033221841, 60 60 M60 60 C39.2822337616235 60, 18.564467523247004 60, 0 60 M60 60 C37.39136533252895 60, 14.782730665057898 60, 0 60 M0 60 C0 42.20517765171826, 0 24.410355303436518, 0 0 M0 60 C0 46.80157325975597, 0 33.60314651951194, 0 0" stroke="#000000" stroke-width="1" fill="none"></path></g><g transform="translate(670 130) rotate(0 30 30)"><path d="M0 0 C21.305733578279618 0, 42.611467156559236 0, 60 0 M0 0 C12.469497157260777 0, 24.938994314521555 0, 60 0 M60 0 C60 12.394333558157088, 60 24.788667116314176, 60 60 M60 0 C60 23.014418257400393, 60 46.02883651480079, 60 60 M60 60 C36.70590732805431 60, 13.41181465610861 60, 0 60 M60 60 C46.595966504886746 60, 33.19193300977349 60, 0 60 M0 60 C0 46.13042609207332, 0 32.26085218414664, 0 0 M0 60 C0 38.742821680381894, 0 17.48564336076378, 0 0" stroke="#000000" stroke-width="1" fill="none"></path></g><g transform="translate(10 190) rotate(0 30 30)"><path d="M0 0 C13.065557135269046 0, 26.13111427053809 0, 60 0 M0 0 C19.09727813489735 0, 38.1945562697947 0, 60 0 M60 0 C60 14.875185800716281, 60 29.750371601432562, 60 60 M60 0 C60 16.983702974393964, 60 33.96740594878793, 60 60 M60 60 C42.85263250954449 60, 25.705265019088984 60, 0 60 M60 60 C37.89915738813579 60, 15.798314776271582 60, 0 60 M0 60 C0 41.79789047129452, 0 23.595780942589045, 0 0 M0 60 C0 38.74533371441066, 0 17.490667428821325, 0 0" stroke="#000000" stroke-width="1" fill="none"></path></g><g transform="translate(70 190) rotate(0 30 30)"><path d="M0 0 C15.508476572111253 0, 31.016953144222505 0, 60 0 M0 0 C16.71284963004291 0, 33.42569926008582 0, 60 0 M60 0 C60 20.09378637559712, 60 40.18757275119424, 60 60 M60 0 C60 16.32627697102726, 60 32.65255394205452, 60 60 M60 60 C39.42386822216213 60, 18.847736444324255 60, 0 60 M60 60 C42.22628270275891 60, 24.452565405517817 60, 0 60 M0 60 C0 41.97093985788524, 0 23.941879715770476, 0 0 M0 60 C0 40.00372831709683, 0 20.00745663419366, 0 0" stroke="#ccc" stroke-width="1" fill="none"></path></g><g transform="translate(130 190) rotate(0 30 30)"><path d="M0 0 C13.672612382099032 0, 27.345224764198065 0, 60 0 M0 0 C21.964491801336408 0, 43.928983602672815 0, 60 0 M60 0 C60 23.162136448547244, 60 46.32427289709449, 60 60 M60 0 C60 21.71566845662892, 60 43.43133691325784, 60 60 M60 60 C45.5429519880563 60, 31.0859039761126 60, 0 60 M60 60 C44.89234487526119 60, 29.784689750522375 60, 0 60 M0 60 C0 43.237879978492856, 0 26.475759956985712, 0 0 M0 60 C0 39.96959458105266, 0 19.939189162105322, 0 0" stroke="#000000" stroke-width="1" fill="none"></path></g><g transform="translate(190 190) rotate(0 30 30)"><path d="M0 0 C14.672296302393079 0, 29.344592604786158 0, 60 0 M0 0 C23.98374230973423 0, 47.96748461946846 0, 60 0 M60 0 C60 19.488507824018598, 60 38.977015648037195, 60 60 M60 0 C60 13.032069934532048, 60 26.064139869064096, 60 60 M60 60 C39.83541546575725 60, 19.6708309315145 60, 0 60 M60 60 C38.37947373278439 60, 16.75894746556878 60, 0 60 M0 60 C0 47.704441828653216, 0 35.40888365730643, 0 0 M0 60 C0 36.300021992996335, 0 12.600043985992663, 0 0" stroke="#ccc" stroke-width="1" fill="none"></path></g><g transform="translate(250 190) rotate(0 30 30)"><path d="M0 0 C18.414812816306952 0, 36.829625632613904 0, 60 0 M0 0 C19.225033180788163 0, 38.450066361576326 0, 60 0 M60 0 C60 13.761173201724887, 60 27.522346403449774, 60 60 M60 0 C60 19.047809796407822, 60 38.095619592815645, 60 60 M60 60 C39.33994756825268 60, 18.67989513650536 60, 0 60 M60 60 C43.57655523531139 60, 27.153110470622778 60, 0 60 M0 60 C0 37.11151091940701, 0 14.223021838814013, 0 0 M0 60 C0 46.361623926088214, 0 32.72324785217643, 0 0" stroke="#ccc" stroke-width="1" fill="none"></path></g><g transform="translate(310 190) rotate(0 30 30)"><path d="M0 0 C13.429455952718854 0, 26.858911905437708 0, 60 0 M0 0 C15.57666982524097 0, 31.15333965048194 0, 60 0 M60 0 C60 17.591620462015275, 60 35.18324092403055, 60 60 M60 0 C60 16.82668240182102, 60 33.65336480364204, 60 60 M60 60 C38.60906712524593 60, 17.21813425049185 60, 0 60 M60 60 C39.89776371605694 60, 19.795527432113886 60, 0 60 M0 60 C0 37.743590695783496, 0 15.487181391566985, 0 0 M0 60 C0 41.94853620417416, 0 23.897072408348315, 0 0" stroke="#ccc" stroke-width="1" fill="none"></path></g><g transform="translate(370 190) rotate(0 30 30)"><path d="M0 0 C13.268293691799045 0, 26.53658738359809 0, 60 0 M0 0 C17.42913420684636 0, 34.85826841369272 0, 60 0 M60 0 C60 21.11132193915546, 60 42.22264387831092, 60 60 M60 0 C60 20.786218302324414, 60 41.57243660464883, 60 60 M60 60 C38.279202746227384 60, 16.55840549245476 60, 0 60 M60 60 C36.952337784692645 60, 13.90467556938529 60, 0 60 M0 60 C0 44.866476165130734, 0 29.732952330261465, 0 0 M0 60 C0 41.79111169092357, 0 23.582223381847143, 0 0" stroke="#000000" stroke-width="1" fill="none"></path></g><g transform="translate(430 190) rotate(0 30 30)"><path d="M0 0 C21.804796831682328 0, 43.609593663364656 0, 60 0 M0 0 C13.737298680469396 0, 27.47459736093879 0, 60 0 M60 0 C60 12.62132497318089, 60 25.24264994636178, 60 60 M60 0 C60 15.543671501800418, 60 31.087343003600836, 60 60 M60 60 C39.39576314203441 60, 18.791526284068823 60, 0 60 M60 60 C46.297204898670316 60, 32.59440979734063 60, 0 60 M0 60 C0 37.67096702568233, 0 15.341934051364653, 0 0 M0 60 C0 38.75243257172406, 0 17.504865143448114, 0 0" stroke="#ccc" stroke-width="1" fill="none"></path></g><g transform="translate(490 190) rotate(0 30 30)"><path d="M0 0 C19.347862137481574 0, 38.69572427496315 0, 60 0 M0 0 C17.14460493810475 0, 34.2892098762095 0, 60 0 M60 0 C60 15.977780414745213, 60 31.955560829490427, 60 60 M60 0 C60 20.567063407972455, 60 41.13412681594491, 60 60 M60 60 C44.882629143074155 60, 29.76525828614831 60, 0 60 M60 60 C40.377663714811206 60, 20.75532742962241 60, 0 60 M0 60 C0 43.24929671175778, 0 26.49859342351555, 0 0 M0 60 C0 46.672669691964984, 0 33.34533938392997, 0 0" stroke="#ccc" stroke-width="1" fill="none"></path></g><g transform="translate(550 190) rotate(0 30 30)"><path d="M0 0 C16.65323837287724 0, 33.30647674575448 0, 60 0 M0 0 C19.224967254325747 0, 38.449934508651495 0, 60 0 M60 0 C60 23.438400166109204, 60 46.87680033221841, 60 60 M60 0 C60 20.717766238376498, 60 41.435532476752996, 60 60 M60 60 C37.39136533252895 60, 14.782730665057898 60, 0 60 M60 60 C42.20517765171826 60, 24.410355303436518 60, 0 60 M0 60 C0 46.80157325975597, 0 33.60314651951194, 0 0 M0 60 C0 44.438700841739774, 0 28.87740168347954, 0 0" stroke="#000000" stroke-width="1" fill="none"></path></g><g transform="translate(610 190) rotate(0 30 30)"><path d="M0 0 C12.469497157260777 0, 24.938994314521555 0, 60 0 M0 0 C12.394333558157088 0, 24.788667116314176 0, 60 0 M60 0 C60 23.014418257400393, 60 46.02883651480079, 60 60 M60 0 C60 23.294092671945695, 60 46.58818534389139, 60 60 M60 60 C46.595966504886746 60, 33.19193300977349 60, 0 60 M60 60 C46.13042609207332 60, 32.26085218414664 60, 0 60 M0 60 C0 38.742821680381894, 0 17.48564336076378, 0 0 M0 60 C0 40.5283316206187, 0 21.056663241237395, 0 0" stroke="#ccc" stroke-width="1" fill="none"></path></g><g transform="translate(670 190) rotate(0 30 30)"><path d="M0 0 C19.09727813489735 0, 38.1945562697947 0, 60 0 M0 0 C14.875185800716281 0, 29.750371601432562 0, 60 0 M60 0 C60 16.983702974393964, 60 33.96740594878793, 60 60 M60 0 C60 17.14736749045551, 60 34.29473498091102, 60 60 M60 60 C37.89915738813579 60, 15.798314776271582 60, 0 60 M60 60 C41.79789047129452 60, 23.595780942589045 60, 0 60 M0 60 C0 38.74533371441066, 0 17.490667428821325, 0 0 M0 60 C0 43.09565888531506, 0 26.191317770630114, 0 0" stroke="#000000" stroke-width="1" fill="none"></path></g><g transform="translate(10 250) rotate(0 30 30)"><path d="M0 0 C16.71284963004291 0, 33.42569926008582 0, 60 0 M0 0 C20.09378637559712 0, 40.18757275119424 0, 60 0 M60 0 C60 16.32627697102726, 60 32.65255394205452, 60 60 M60 0 C60 20.576131777837873, 60 41.152263555675745, 60 60 M60 60 C42.22628270275891 60, 24.452565405517817 60, 0 60 M60 60 C41.97093985788524 60, 23.941879715770476 60, 0 60 M0 60 C0 40.00372831709683, 0 20.00745663419366, 0 0 M0 60 C0 46.55005304329097, 0 33.100106086581945, 0 0" stroke="#000000" stroke-width="1" fill="none"></path></g><g transform="translate(70 250) rotate(0 30 30)"><path d="M0 0 C21.964491801336408 0, 43.928983602672815 0, 60 0 M0 0 C23.162136448547244 0, 46.32427289709449 0, 60 0 M60 0 C60 21.71566845662892, 60 43.43133691325784, 60 60 M60 0 C60 14.4570480119437, 60 28.9140960238874, 60 60 M60 60 C44.89234487526119 60, 29.784689750522375 60, 0 60 M60 60 C43.237879978492856 60, 26.475759956985712 60, 0 60 M0 60 C0 39.96959458105266, 0 19.939189162105322, 0 0 M0 60 C0 41.61045269854367, 0 23.22090539708733, 0 0" stroke="#ccc" stroke-width="1" fill="none"></path></g><g transform="translate(130 250) rotate(0 30 30)"><path d="M0 0 C23.98374230973423 0, 47.96748461946846 0, 60 0 M0 0 C19.488507824018598 0, 38.977015648037195 0, 60 0 M60 0 C60 13.032069934532048, 60 26.064139869064096, 60 60 M60 0 C60 20.16458453424275, 60 40.3291690684855, 60 60 M60 60 C38.37947373278439 60, 16.75894746556878 60, 0 60 M60 60 C47.704441828653216 60, 35.40888365730643 60, 0 60 M0 60 C0 36.300021992996335, 0 12.600043985992663, 0 0 M0 60 C0 42.16221140138805, 0 24.3244228027761, 0 0" stroke="#000000" stroke-width="1" fill="none"></path></g><g transform="translate(190 250) rotate(0 30 30)"><path d="M0 0 C19.225033180788163 0, 38.450066361576326 0, 60 0 M0 0 C13.761173201724887 0, 27.522346403449774 0, 60 0 M60 0 C60 19.047809796407822, 60 38.095619592815645, 60 60 M60 0 C60 20.66005243174732, 60 41.32010486349464, 60 60 M60 60 C43.57655523531139 60, 27.153110470622778 60, 0 60 M60 60 C37.11151091940701 60, 14.223021838814013 60, 0 60 M0 60 C0 46.361623926088214, 0 32.72324785217643, 0 0 M0 60 C0 36.106556402519345, 0 12.21311280503869, 0 0" stroke="#000000" stroke-width="1" fill="none"></path></g><g transform="translate(250 250) rotate(0 30 30)"><path d="M0 0 C15.57666982524097 0, 31.15333965048194 0, 60 0 M0 0 C17.591620462015275 0, 35.18324092403055 0, 60 0 M60 0 C60 16.82668240182102, 60 33.65336480364204, 60 60 M60 0 C60 21.390932874754075, 60 42.78186574950815, 60 60 M60 60 C39.89776371605694 60, 19.795527432113886 60, 0 60 M60 60 C37.743590695783496 60, 15.487181391566985 60, 0 60 M0 60 C0 41.94853620417416, 0 23.897072408348315, 0 0 M0 60 C0 43.58410601131618, 0 27.168212022632353, 0 0" stroke="#000000" stroke-width="1" fill="none"></path></g><g transform="translate(310 250) rotate(0 30 30)"><path d="M0 0 C17.42913420684636 0, 34.85826841369272 0, 60 0 M0 0 C21.11132193915546 0, 42.22264387831092 0, 60 0 M60 0 C60 20.786218302324414, 60 41.57243660464883, 60 60 M60 0 C60 21.72079725377262, 60 43.44159450754524, 60 60 M60 60 C36.952337784692645 60, 13.90467556938529 60, 0 60 M60 60 C44.866476165130734 60, 29.732952330261465 60, 0 60 M0 60 C0 41.79111169092357, 0 23.582223381847143, 0 0 M0 60 C0 44.38127224333584, 0 28.762544486671686, 0 0" stroke="#000000" stroke-width="1" fill="none"></path></g><g transform="translate(370 250) rotate(0 30 30)"><path d="M0 0 C13.737298680469396 0, 27.47459736093879 0, 60 0 M0 0 C12.62132497318089 0, 25.24264994636178 0, 60 0 M60 0 C60 15.543671501800418, 60 31.087343003600836, 60 60 M60 0 C60 20.60423685796559, 60 41.20847371593118, 60 60 M60 60 C46.297204898670316 60, 32.59440979734063 60, 0 60 M60 60 C37.67096702568233 60, 15.341934051364653 60, 0 60 M0 60 C0 38.75243257172406, 0 17.504865143448114, 0 0 M0 60 C0 40.392458064481616, 0 20.784916128963225, 0 0" stroke="#000000" stroke-width="1" fill="none"></path></g><g transform="translate(430 250) rotate(0 30 30)"><path d="M0 0 C17.14460493810475 0, 34.2892098762095 0, 60 0 M0 0 C15.977780414745213 0, 31.955560829490427 0, 60 0 M60 0 C60 20.567063407972455, 60 41.13412681594491, 60 60 M60 0 C60 15.117370856925845, 60 30.23474171385169, 60 60 M60 60 C40.377663714811206 60, 20.75532742962241 60, 0 60 M60 60 C43.24929671175778 60, 26.49859342351555 60, 0 60 M0 60 C0 46.672669691964984, 0 33.34533938392997, 0 0 M0 60 C0 36.34323059208691, 0 12.686461184173815, 0 0" stroke="#000000" stroke-width="1" fill="none"></path></g><g transform="translate(490 250) rotate(0 30 30)"><path d="M0 0 C19.224967254325747 0, 38.449934508651495 0, 60 0 M0 0 C23.438400166109204 0, 46.87680033221841 0, 60 0 M60 0 C60 20.717766238376498, 60 41.435532476752996, 60 60 M60 0 C60 22.60863466747105, 60 45.2172693349421, 60 60 M60 60 C42.20517765171826 60, 24.410355303436518 60, 0 60 M60 60 C46.80157325975597 60, 33.60314651951194 60, 0 60 M0 60 C0 44.438700841739774, 0 28.87740168347954, 0 0 M0 60 C0 44.08391062729061, 0 28.16782125458121, 0 0" stroke="#ccc" stroke-width="1" fill="none"></path></g><g transform="translate(550 250) rotate(0 30 30)"><path d="M0 0 C12.394333558157088 0, 24.788667116314176 0, 60 0 M0 0 C23.014418257400393 0, 46.02883651480079 0, 60 0 M60 0 C60 23.294092671945695, 60 46.58818534389139, 60 60 M60 0 C60 13.404033495113254, 60 26.808066990226507, 60 60 M60 60 C46.13042609207332 60, 32.26085218414664 60, 0 60 M60 60 C38.742821680381894 60, 17.48564336076378 60, 0 60 M0 60 C0 40.5283316206187, 0 21.056663241237395, 0 0 M0 60 C0 38.4498899448663, 0 16.8997798897326, 0 0" stroke="#000000" stroke-width="1" fill="none"></path></g><g transform="translate(610 250) rotate(0 30 30)"><path d="M0 0 C14.875185800716281 0, 29.750371601432562 0, 60 0 M0 0 C16.983702974393964 0, 33.96740594878793 0, 60 0 M60 0 C60 17.14736749045551, 60 34.29473498091102, 60 60 M60 0 C60 22.10084261186421, 60 44.20168522372842, 60 60 M60 60 C41.79789047129452 60, 23.595780942589045 60, 0 60 M60 60 C38.74533371441066 60, 17.490667428821325 60, 0 60 M0 60 C0 43.09565888531506, 0 26.191317770630114, 0 0 M0 60 C0 46.6375286411494, 0 33.2750572822988, 0 0" stroke="#ccc" stroke-width="1" fill="none"></path></g><g transform="translate(670 250) rotate(0 30 30)"><path d="M0 0 C20.09378637559712 0, 40.18757275119424 0, 60 0 M0 0 C16.32627697102726 0, 32.65255394205452 0, 60 0 M60 0 C60 20.576131777837873, 60 41.152263555675745, 60 60 M60 0 C60 17.77371729724109, 60 35.54743459448218, 60 60 M60 60 C41.97093985788524 60, 23.941879715770476 60, 0 60 M60 60 C40.00372831709683 60, 20.00745663419366 60, 0 60 M0 60 C0 46.55005304329097, 0 33.100106086581945, 0 0 M0 60 C0 40.14503692276776, 0 20.290073845535517, 0 0" stroke="#000000" stroke-width="1" fill="none"></path></g><g transform="translate(10 310) rotate(0 30 30)"><path d="M0 0 C23.162136448547244 0, 46.32427289709449 0, 60 0 M0 0 C21.71566845662892 0, 43.43133691325784 0, 60 0 M60 0 C60 14.4570480119437, 60 28.9140960238874, 60 60 M60 0 C60 15.107655124738812, 60 30.215310249477625, 60 60 M60 60 C43.237879978492856 60, 26.475759956985712 60, 0 60 M60 60 C39.96959458105266 60, 19.939189162105322 60, 0 60 M0 60 C0 41.61045269854367, 0 23.22090539708733, 0 0 M0 60 C0 45.07729892246425, 0 30.154597844928503, 0 0" stroke="#000000" stroke-width="1" fill="none"></path></g><g transform="translate(70 310) rotate(0 30 30)"><path d="M0 0 C19.488507824018598 0, 38.977015648037195 0, 60 0 M0 0 C13.032069934532048 0, 26.064139869064096 0, 60 0 M60 0 C60 20.16458453424275, 60 40.3291690684855, 60 60 M60 0 C60 21.62052626721561, 60 43.24105253443122, 60 60 M60 60 C47.704441828653216 60, 35.40888365730643 60, 0 60 M60 60 C36.300021992996335 60, 12.600043985992663 60, 0 60 M0 60 C0 42.16221140138805, 0 24.3244228027761, 0 0 M0 60 C0 38.29628627188504, 0 16.592572543770075, 0 0" stroke="#ccc" stroke-width="1" fill="none"></path></g><g transform="translate(130 310) rotate(0 30 30)"><path d="M0 0 C13.761173201724887 0, 27.522346403449774 0, 60 0 M0 0 C19.047809796407822 0, 38.095619592815645 0, 60 0 M60 0 C60 20.66005243174732, 60 41.32010486349464, 60 60 M60 0 C60 16.42344476468861, 60 32.84688952937722, 60 60 M60 60 C37.11151091940701 60, 14.223021838814013 60, 0 60 M60 60 C46.361623926088214 60, 32.72324785217643 60, 0 60 M0 60 C0 36.106556402519345, 0 12.21311280503869, 0 0 M0 60 C0 36.034630162641406, 0 12.069260325282805, 0 0" stroke="#ccc" stroke-width="1" fill="none"></path></g><g transform="translate(190 310) rotate(0 30 30)"><path d="M0 0 C17.591620462015275 0, 35.18324092403055 0, 60 0 M0 0 C16.82668240182102 0, 33.65336480364204 0, 60 0 M60 0 C60 21.390932874754075, 60 42.78186574950815, 60 60 M60 0 C60 20.102236283943057, 60 40.204472567886114, 60 60 M60 60 C37.743590695783496 60, 15.487181391566985 60, 0 60 M60 60 C41.94853620417416 60, 23.897072408348315 60, 0 60 M0 60 C0 43.58410601131618, 0 27.168212022632353, 0 0 M0 60 C0 39.63258086331189, 0 19.265161726623774, 0 0" stroke="#ccc" stroke-width="1" fill="none"></path></g><g transform="translate(250 310) rotate(0 30 30)"><path d="M0 0 C21.11132193915546 0, 42.22264387831092 0, 60 0 M0 0 C20.786218302324414 0, 41.57243660464883 0, 60 0 M60 0 C60 21.72079725377262, 60 43.44159450754524, 60 60 M60 0 C60 23.047662215307355, 60 46.09532443061471, 60 60 M60 60 C44.866476165130734 60, 29.732952330261465 60, 0 60 M60 60 C41.79111169092357 60, 23.582223381847143 60, 0 60 M0 60 C0 44.38127224333584, 0 28.762544486671686, 0 0 M0 60 C0 40.310852928087115, 0 20.62170585617423, 0 0" stroke="#ccc" stroke-width="1" fill="none"></path></g><g transform="translate(310 310) rotate(0 30 30)"><path d="M0 0 C12.62132497318089 0, 25.24264994636178 0, 60 0 M0 0 C15.543671501800418 0, 31.087343003600836 0, 60 0 M60 0 C60 20.60423685796559, 60 41.20847371593118, 60 60 M60 0 C60 13.702795101329686, 60 27.405590202659372, 60 60 M60 60 C37.67096702568233 60, 15.341934051364653 60, 0 60 M60 60 C38.75243257172406 60, 17.504865143448114 60, 0 60 M0 60 C0 40.392458064481616, 0 20.784916128963225, 0 0 M0 60 C0 45.18169169314206, 0 30.363383386284113, 0 0" stroke="#ccc" stroke-width="1" fill="none"></path></g><g transform="translate(370 310) rotate(0 30 30)"><path d="M0 0 C15.977780414745213 0, 31.955560829490427 0, 60 0 M0 0 C20.567063407972455 0, 41.13412681594491 0, 60 0 M60 0 C60 15.117370856925845, 60 30.23474171385169, 60 60 M60 0 C60 19.622336285188794, 60 39.24467257037759, 60 60 M60 60 C43.24929671175778 60, 26.49859342351555 60, 0 60 M60 60 C46.672669691964984 60, 33.34533938392997 60, 0 60 M0 60 C0 36.34323059208691, 0 12.686461184173815, 0 0 M0 60 C0 37.43971966020763, 0 14.879439320415251, 0 0" stroke="#000000" stroke-width="1" fill="none"></path></g><g transform="translate(430 310) rotate(0 30 30)"><path d="M0 0 C23.438400166109204 0, 46.87680033221841 0, 60 0 M0 0 C20.717766238376498 0, 41.435532476752996 0, 60 0 M60 0 C60 22.60863466747105, 60 45.2172693349421, 60 60 M60 0 C60 17.79482234828174, 60 35.58964469656348, 60 60 M60 60 C46.80157325975597 60, 33.60314651951194 60, 0 60 M60 60 C44.438700841739774 60, 28.87740168347954 60, 0 60 M0 60 C0 44.08391062729061, 0 28.16782125458121, 0 0 M0 60 C0 40.7077178824693, 0 21.415435764938593, 0 0" stroke="#ccc" stroke-width="1" fill="none"></path></g><g transform="translate(490 310) rotate(0 30 30)"><path d="M0 0 C23.014418257400393 0, 46.02883651480079 0, 60 0 M0 0 C23.294092671945695 0, 46.58818534389139 0, 60 0 M60 0 C60 13.404033495113254, 60 26.808066990226507, 60 60 M60 0 C60 13.86957390792668, 60 27.73914781585336, 60 60 M60 60 C38.742821680381894 60, 17.48564336076378 60, 0 60 M60 60 C40.5283316206187 60, 21.056663241237395 60, 0 60 M0 60 C0 38.4498899448663, 0 16.8997798897326, 0 0 M0 60 C0 38.2499046754092, 0 16.499809350818396, 0 0" stroke="#ccc" stroke-width="1" fill="none"></path></g><g transform="translate(550 310) rotate(0 30 30)"><path d="M0 0 C16.983702974393964 0, 33.96740594878793 0, 60 0 M0 0 C17.14736749045551 0, 34.29473498091102 0, 60 0 M60 0 C60 22.10084261186421, 60 44.20168522372842, 60 60 M60 0 C60 18.202109528705478, 60 36.404219057410955, 60 60 M60 60 C38.74533371441066 60, 17.490667428821325 60, 0 60 M60 60 C43.09565888531506 60, 26.191317770630114 60, 0 60 M0 60 C0 46.6375286411494, 0 33.2750572822988, 0 0 M0 60 C0 41.14858667738736, 0 22.297173354774714, 0 0" stroke="#ccc" stroke-width="1" fill="none"></path></g><g transform="translate(610 310) rotate(0 30 30)"><path d="M0 0 C16.32627697102726 0, 32.65255394205452 0, 60 0 M0 0 C20.576131777837873 0, 41.152263555675745 0, 60 0 M60 0 C60 17.77371729724109, 60 35.54743459448218, 60 60 M60 0 C60 18.029060142114762, 60 36.058120284229524, 60 60 M60 60 C40.00372831709683 60, 20.00745663419366 60, 0 60 M60 60 C46.55005304329097 60, 33.100106086581945 60, 0 60 M0 60 C0 40.14503692276776, 0 20.290073845535517, 0 0 M0 60 C0 43.42750416509807, 0 26.855008330196142, 0 0" stroke="#ccc" stroke-width="1" fill="none"></path></g><g transform="translate(670 310) rotate(0 30 30)"><path d="M0 0 C21.71566845662892 0, 43.43133691325784 0, 60 0 M0 0 C14.4570480119437 0, 28.9140960238874 0, 60 0 M60 0 C60 15.107655124738812, 60 30.215310249477625, 60 60 M60 0 C60 16.762120021507144, 60 33.52424004301429, 60 60 M60 60 C39.96959458105266 60, 19.939189162105322 60, 0 60 M60 60 C41.61045269854367 60, 23.22090539708733 60, 0 60 M0 60 C0 45.07729892246425, 0 30.154597844928503, 0 0 M0 60 C0 45.05355344898999, 0 30.10710689797997, 0 0" stroke="#000000" stroke-width="1" fill="none"></path></g><g transform="translate(10 370) rotate(0 30 30)"><path d="M0 0 C13.230237973853946 0, 26.46047594770789 0, 60 0 M0 0 C15.640286581590775 0, 31.28057316318155 0, 60 0 M60 0 C60 14.848944855853915, 60 29.69788971170783, 60 60 M60 0 C60 18.4254579115659, 60 36.8509158231318, 60 60 M60 60 C38.90048371441662 60, 17.80096742883324 60, 0 60 M60 60 C41.56976435892284 60, 23.13952871784567 60, 0 60 M0 60 C0 44.92069666273892, 0 29.84139332547784, 0 0 M0 60 C0 44.004254741594195, 0 28.00850948318839, 0 0" stroke="#000000" stroke-width="1" fill="none"></path></g><g transform="translate(70 370) rotate(0 30 30)"><path d="M0 0 C20.817235903814435 0, 41.63447180762887 0, 60 0 M0 0 C16.27357996813953 0, 32.54715993627906 0, 60 0 M60 0 C60 13.417136924341321, 60 26.834273848682642, 60 60 M60 0 C60 23.278849197551608, 60 46.557698395103216, 60 60 M60 60 C41.24937860481441 60, 22.49875720962882 60, 0 60 M60 60 C46.09536956436932 60, 32.19073912873864 60, 0 60 M0 60 C0 38.94860707037151, 0 17.89721414074301, 0 0 M0 60 C0 45.38063149340451, 0 30.76126298680901, 0 0" stroke="#000000" stroke-width="1" fill="none"></path></g><g transform="translate(130 370) rotate(0 30 30)"><path d="M0 0 C12.794313026592137 0, 25.588626053184274 0, 60 0 M0 0 C21.978642063215375 0, 43.95728412643075 0, 60 0 M60 0 C60 18.616474879905585, 60 37.23294975981117, 60 60 M60 0 C60 13.329615013673902, 60 26.659230027347803, 60 60 M60 60 C36.75463299639523 60, 13.50926599279046 60, 0 60 M60 60 C41.58424167148769 60, 23.168483342975378 60, 0 60 M0 60 C0 36.21189390309155, 0 12.4237878061831, 0 0 M0 60 C0 40.46281812898815, 0 20.925636257976294, 0 0" stroke="#000000" stroke-width="1" fill="none"></path></g><g transform="translate(190 370) rotate(0 30 30)"><path d="M0 0 C14.284106628969313 0, 28.568213257938627 0, 60 0 M0 0 C23.031033469364047 0, 46.062066938728094 0, 60 0 M60 0 C60 15.858927922323348, 60 31.717855844646696, 60 60 M60 0 C60 17.846325052902106, 60 35.69265010580421, 60 60 M60 60 C42.88936899416149 60, 25.778737988322973 60, 0 60 M60 60 C36.9297243822366 60, 13.859448764473193 60, 0 60 M0 60 C0 40.33059613220394, 0 20.661192264407873, 0 0 M0 60 C0 36.69390438683331, 0 13.387808773666613, 0 0" stroke="#000000" stroke-width="1" fill="none"></path></g><g transform="translate(250 370) rotate(0 30 30)"><path d="M0 0 C12.111086977645757 0, 24.222173955291513 0, 60 0 M0 0 C15.016599671915177 0, 30.033199343830354 0, 60 0 M60 0 C60 22.309738470241427, 60 44.619476940482855, 60 60 M60 0 C60 15.956628637388349, 60 31.913257274776697, 60 60 M60 60 C36.73071716912091 60, 13.461434338241816 60, 0 60 M60 60 C46.725654942914844 60, 33.45130988582969 60, 0 60 M0 60 C0 38.2058976162225, 0 16.411795232445, 0 0 M0 60 C0 39.45865683071315, 0 18.9173136614263, 0 0" stroke="#000000" stroke-width="1" fill="none"></path></g><g transform="translate(310 370) rotate(0 30 30)"><path d="M0 0 C22.279497938230637 0, 44.558995876461275 0, 60 0 M0 0 C18.282763017341495 0, 36.56552603468299 0, 60 0 M60 0 C60 21.385697023943067, 60 42.77139404788613, 60 60 M60 0 C60 22.420955372974277, 60 44.84191074594855, 60 60 M60 60 C40.44847063533962 60, 20.89694127067923 60, 0 60 M60 60 C46.08974944241345 60, 32.1794988848269 60, 0 60 M0 60 C0 40.88383267633617, 0 21.76766535267234, 0 0 M0 60 C0 44.82387535460293, 0 29.647750709205866, 0 0" stroke="#000000" stroke-width="1" fill="none"></path></g><g transform="translate(370 370) rotate(0 30 30)"><path d="M0 0 C13.644976330921054 0, 27.289952661842108 0, 60 0 M0 0 C23.25361009128392 0, 46.50722018256784 0, 60 0 M60 0 C60 20.981042755767703, 60 41.962085511535406, 60 60 M60 0 C60 13.936808841302993, 60 27.873617682605985, 60 60 M60 60 C40.126038478687406 60, 20.25207695737481 60, 0 60 M60 60 C46.29533473961055 60, 32.590669479221106 60, 0 60 M0 60 C0 43.48711942322552, 0 26.974238846451044, 0 0 M0 60 C0 45.287242038175464, 0 30.574484076350927, 0 0" stroke="#ccc" stroke-width="1" fill="none"></path></g><g transform="translate(430 370) rotate(0 30 30)"><path d="M0 0 C12.652469890192151 0, 25.304939780384302 0, 60 0 M0 0 C19.01271636597812 0, 38.02543273195624 0, 60 0 M60 0 C60 23.914863662794232, 60 47.829727325588465, 60 60 M60 0 C60 23.69957853667438, 60 47.39915707334876, 60 60 M60 60 C40.00340471975505 60, 20.006809439510107 60, 0 60 M60 60 C46.10321574099362 60, 32.20643148198724 60, 0 60 M0 60 C0 42.74167851917446, 0 25.483357038348913, 0 0 M0 60 C0 44.460424767807126, 0 28.92084953561425, 0 0" stroke="#000000" stroke-width="1" fill="none"></path></g><g transform="translate(490 370) rotate(0 30 30)"><path d="M0 0 C19.374069465324283 0, 38.748138930648565 0, 60 0 M0 0 C14.831702129915357 0, 29.663404259830713 0, 60 0 M60 0 C60 18.38386674039066, 60 36.76773348078132, 60 60 M60 0 C60 18.35554380901158, 60 36.71108761802316, 60 60 M60 60 C36.349227296188474 60, 12.69845459237694 60, 0 60 M60 60 C36.32703350298107 60, 12.654067005962133 60, 0 60 M0 60 C0 47.563799070194364, 0 35.12759814038873, 0 0 M0 60 C0 45.16396681778133, 0 30.32793363556266, 0 0" stroke="#ccc" stroke-width="1" fill="none"></path></g><g transform="translate(550 370) rotate(0 30 30)"><path d="M0 0 C21.707160668447614 0, 43.41432133689523 0, 60 0 M0 0 C21.09351314418018 0, 42.18702628836036 0, 60 0 M60 0 C60 19.631425397470593, 60 39.26285079494119, 60 60 M60 0 C60 20.455204797908664, 60 40.91040959581733, 60 60 M60 60 C45.550814313814044 60, 31.101628627628088 60, 0 60 M60 60 C42.23422239907086 60, 24.468444798141718 60, 0 60 M0 60 C0 40.14491735212505, 0 20.289834704250097, 0 0 M0 60 C0 45.84226112253964, 0 31.684522245079275, 0 0" stroke="#ccc" stroke-width="1" fill="none"></path></g><g transform="translate(610 370) rotate(0 30 30)"><path d="M0 0 C22.352626634761695 0, 44.70525326952339 0, 60 0 M0 0 C16.97298272140324 0, 33.94596544280648 0, 60 0 M60 0 C60 12.535361303016543, 60 25.070722606033087, 60 60 M60 0 C60 21.190799849107865, 60 42.38159969821573, 60 60 M60 60 C47.35774211771786 60, 34.715484235435724 60, 0 60 M60 60 C44.149425549432635 60, 28.298851098865264 60, 0 60 M0 60 C0 39.305504428222775, 0 18.611008856445544, 0 0 M0 60 C0 39.786646110937, 0 19.573292221874, 0 0" stroke="#ccc" stroke-width="1" fill="none"></path></g><g transform="translate(670 370) rotate(0 30 30)"><path d="M0 0 C15.640286581590775 0, 31.28057316318155 0, 60 0 M0 0 C14.848944855853915 0, 29.69788971170783 0, 60 0 M60 0 C60 18.4254579115659, 60 36.8509158231318, 60 60 M60 0 C60 21.09951628558338, 60 42.19903257116676, 60 60 M60 60 C41.56976435892284 60, 23.13952871784567 60, 0 60 M60 60 C44.92069666273892 60, 29.84139332547784 60, 0 60 M0 60 C0 44.004254741594195, 0 28.00850948318839, 0 0 M0 60 C0 37.19442103989422, 0 14.388842079788446, 0 0" stroke="#000000" stroke-width="1" fill="none"></path></g><g transform="translate(10 430) rotate(0 30 30)"><path d="M0 0 C16.27357996813953 0, 32.54715993627906 0, 60 0 M0 0 C13.417136924341321 0, 26.834273848682642 0, 60 0 M60 0 C60 23.278849197551608, 60 46.557698395103216, 60 60 M60 0 C60 18.75062139518559, 60 37.50124279037118, 60 60 M60 60 C46.09536956436932 60, 32.19073912873864 60, 0 60 M60 60 C38.94860707037151 60, 17.89721414074301 60, 0 60 M0 60 C0 45.38063149340451, 0 30.76126298680901, 0 0 M0 60 C0 43.898016734048724, 0 27.79603346809744, 0 0" stroke="#000000" stroke-width="1" fill="none"></path></g><g transform="translate(70 430) rotate(0 30 30)"><path d="M0 0 C21.978642063215375 0, 43.95728412643075 0, 60 0 M0 0 C18.616474879905585 0, 37.23294975981117 0, 60 0 M60 0 C60 13.329615013673902, 60 26.659230027347803, 60 60 M60 0 C60 23.24536700360477, 60 46.49073400720954, 60 60 M60 60 C41.58424167148769 60, 23.168483342975378 60, 0 60 M60 60 C36.21189390309155 60, 12.4237878061831 60, 0 60 M0 60 C0 40.46281812898815, 0 20.925636257976294, 0 0 M0 60 C0 41.16576926596463, 0 22.331538531929247, 0 0" stroke="#ccc" stroke-width="1" fill="none"></path></g><g transform="translate(130 430) rotate(0 30 30)"><path d="M0 0 C23.031033469364047 0, 46.062066938728094 0, 60 0 M0 0 C15.858927922323348 0, 31.717855844646696 0, 60 0 M60 0 C60 17.846325052902106, 60 35.69265010580421, 60 60 M60 0 C60 17.110631005838513, 60 34.22126201167703, 60 60 M60 60 C36.9297243822366 60, 13.859448764473193 60, 0 60 M60 60 C40.33059613220394 60, 20.661192264407873 60, 0 60 M0 60 C0 36.69390438683331, 0 13.387808773666613, 0 0 M0 60 C0 44.848237378522754, 0 29.696474757045504, 0 0" stroke="#ccc" stroke-width="1" fill="none"></path></g><g transform="translate(190 430) rotate(0 30 30)"><path d="M0 0 C15.016599671915177 0, 30.033199343830354 0, 60 0 M0 0 C22.309738470241427 0, 44.619476940482855 0, 60 0 M60 0 C60 15.956628637388349, 60 31.913257274776697, 60 60 M60 0 C60 23.269282830879092, 60 46.538565661758184, 60 60 M60 60 C46.725654942914844 60, 33.45130988582969 60, 0 60 M60 60 C38.2058976162225 60, 16.411795232445 60, 0 60 M0 60 C0 39.45865683071315, 0 18.9173136614263, 0 0 M0 60 C0 45.2664986718446, 0 30.532997343689203, 0 0" stroke="#000000" stroke-width="1" fill="none"></path></g><g transform="translate(250 430) rotate(0 30 30)"><path d="M0 0 C18.282763017341495 0, 36.56552603468299 0, 60 0 M0 0 C21.385697023943067 0, 42.77139404788613 0, 60 0 M60 0 C60 22.420955372974277, 60 44.84191074594855, 60 60 M60 0 C60 19.551529364660386, 60 39.10305872932077, 60 60 M60 60 C46.08974944241345 60, 32.1794988848269 60, 0 60 M60 60 C40.88383267633617 60, 21.76766535267234 60, 0 60 M0 60 C0 44.82387535460293, 0 29.647750709205866, 0 0 M0 60 C0 39.15738861076534, 0 18.314777221530676, 0 0" stroke="#ccc" stroke-width="1" fill="none"></path></g><g transform="translate(310 430) rotate(0 30 30)"><path d="M0 0 C23.25361009128392 0, 46.50722018256784 0, 60 0 M0 0 C20.981042755767703 0, 41.962085511535406 0, 60 0 M60 0 C60 13.936808841302993, 60 27.873617682605985, 60 60 M60 0 C60 19.873961521312594, 60 39.74792304262519, 60 60 M60 60 C46.29533473961055 60, 32.590669479221106 60, 0 60 M60 60 C43.48711942322552 60, 26.974238846451044 60, 0 60 M0 60 C0 45.287242038175464, 0 30.574484076350927, 0 0 M0 60 C0 46.305630253627896, 0 32.61126050725579, 0 0" stroke="#000000" stroke-width="1" fill="none"></path></g><g transform="translate(370 430) rotate(0 30 30)"><path d="M0 0 C19.01271636597812 0, 38.02543273195624 0, 60 0 M0 0 C23.914863662794232 0, 47.829727325588465 0, 60 0 M60 0 C60 23.69957853667438, 60 47.39915707334876, 60 60 M60 0 C60 19.996595280244946, 60 39.99319056048989, 60 60 M60 60 C46.10321574099362 60, 32.20643148198724 60, 0 60 M60 60 C42.74167851917446 60, 25.483357038348913 60, 0 60 M0 60 C0 44.460424767807126, 0 28.92084953561425, 0 0 M0 60 C0 39.07797287218273, 0 18.155945744365454, 0 0" stroke="#000000" stroke-width="1" fill="none"></path></g><g transform="translate(430 430) rotate(0 30 30)"><path d="M0 0 C14.831702129915357 0, 29.663404259830713 0, 60 0 M0 0 C18.38386674039066 0, 36.76773348078132 0, 60 0 M60 0 C60 18.35554380901158, 60 36.71108761802316, 60 60 M60 0 C60 23.65077270381153, 60 47.30154540762306, 60 60 M60 60 C36.32703350298107 60, 12.654067005962133 60, 0 60 M60 60 C47.563799070194364 60, 35.12759814038873 60, 0 60 M0 60 C0 45.16396681778133, 0 30.32793363556266, 0 0 M0 60 C0 40.82851313240826, 0 21.657026264816523, 0 0" stroke="#000000" stroke-width="1" fill="none"></path></g><g transform="translate(490 430) rotate(0 30 30)"><path d="M0 0 C21.09351314418018 0, 42.18702628836036 0, 60 0 M0 0 C19.631425397470593 0, 39.26285079494119 0, 60 0 M60 0 C60 20.455204797908664, 60 40.91040959581733, 60 60 M60 0 C60 14.449185686185956, 60 28.898371372371912, 60 60 M60 60 C42.23422239907086 60, 24.468444798141718 60, 0 60 M60 60 C40.14491735212505 60, 20.289834704250097 60, 0 60 M0 60 C0 45.84226112253964, 0 31.684522245079275, 0 0 M0 60 C0 37.15741447918117, 0 14.314828958362334, 0 0" stroke="#000000" stroke-width="1" fill="none"></path></g><g transform="translate(550 430) rotate(0 30 30)"><path d="M0 0 C16.97298272140324 0, 33.94596544280648 0, 60 0 M0 0 C12.535361303016543 0, 25.070722606033087 0, 60 0 M60 0 C60 21.190799849107865, 60 42.38159969821573, 60 60 M60 0 C60 12.642257882282138, 60 25.284515764564276, 60 60 M60 60 C44.149425549432635 60, 28.298851098865264 60, 0 60 M60 60 C39.305504428222775 60, 18.611008856445544 60, 0 60 M0 60 C0 39.786646110937, 0 19.573292221874, 0 0 M0 60 C0 45.55432455427945, 0 31.10864910855889, 0 0" stroke="#000000" stroke-width="1" fill="none"></path></g><g transform="translate(610 430) rotate(0 30 30)"><path d="M0 0 C14.848944855853915 0, 29.69788971170783 0, 60 0 M0 0 C18.4254579115659 0, 36.8509158231318 0, 60 0 M60 0 C60 21.09951628558338, 60 42.19903257116676, 60 60 M60 0 C60 18.430235641077164, 60 36.86047128215433, 60 60 M60 60 C44.92069666273892 60, 29.84139332547784 60, 0 60 M60 60 C44.004254741594195 60, 28.00850948318839 60, 0 60 M0 60 C0 37.19442103989422, 0 14.388842079788446, 0 0 M0 60 C0 36.80055962316692, 0 13.601119246333838, 0 0" stroke="#000000" stroke-width="1" fill="none"></path></g><g transform="translate(670 430) rotate(0 30 30)"><path d="M0 0 C13.417136924341321 0, 26.834273848682642 0, 60 0 M0 0 C23.278849197551608 0, 46.557698395103216 0, 60 0 M60 0 C60 18.75062139518559, 60 37.50124279037118, 60 60 M60 0 C60 13.904630435630681, 60 27.809260871261362, 60 60 M60 60 C38.94860707037151 60, 17.89721414074301 60, 0 60 M60 60 C45.38063149340451 60, 30.76126298680901 60, 0 60 M0 60 C0 43.898016734048724, 0 27.79603346809744, 0 0 M0 60 C0 39.8135698903352, 0 19.627139780670404, 0 0" stroke="#000000" stroke-width="1" fill="none"></path></g><g transform="translate(10 490) rotate(0 30 30)"><path d="M0 0 C18.616474879905585 0, 37.23294975981117 0, 60 0 M0 0 C13.329615013673902 0, 26.659230027347803 0, 60 0 M60 0 C60 23.24536700360477, 60 46.49073400720954, 60 60 M60 0 C60 18.41575832851231, 60 36.83151665702462, 60 60 M60 60 C36.21189390309155 60, 12.4237878061831 60, 0 60 M60 60 C40.46281812898815 60, 20.925636257976294 60, 0 60 M0 60 C0 41.16576926596463, 0 22.331538531929247, 0 0 M0 60 C0 40.83217637054622, 0 21.664352741092443, 0 0" stroke="#000000" stroke-width="1" fill="none"></path></g><g transform="translate(70 490) rotate(0 30 30)"><path d="M0 0 C15.858927922323348 0, 31.717855844646696 0, 60 0 M0 0 C17.846325052902106 0, 35.69265010580421 0, 60 0 M60 0 C60 17.110631005838513, 60 34.22126201167703, 60 60 M60 0 C60 23.070275617763404, 60 46.14055123552681, 60 60 M60 60 C40.33059613220394 60, 20.661192264407873 60, 0 60 M60 60 C36.69390438683331 60, 13.387808773666613 60, 0 60 M0 60 C0 44.848237378522754, 0 29.696474757045504, 0 0 M0 60 C0 45.98558263666928, 0 31.971165273338553, 0 0" stroke="#ccc" stroke-width="1" fill="none"></path></g><g transform="translate(130 490) rotate(0 30 30)"><path d="M0 0 C22.309738470241427 0, 44.619476940482855 0, 60 0 M0 0 C15.956628637388349 0, 31.913257274776697 0, 60 0 M60 0 C60 23.269282830879092, 60 46.538565661758184, 60 60 M60 0 C60 13.274345057085156, 60 26.548690114170313, 60 60 M60 60 C38.2058976162225 60, 16.411795232445 60, 0 60 M60 60 C39.45865683071315 60, 18.9173136614263 60, 0 60 M0 60 C0 45.2664986718446, 0 30.532997343689203, 0 0 M0 60 C0 46.05945466272533, 0 32.11890932545066, 0 0" stroke="#ccc" stroke-width="1" fill="none"></path></g><g transform="translate(190 490) rotate(0 30 30)"><path d="M0 0 C21.385697023943067 0, 42.77139404788613 0, 60 0 M0 0 C22.420955372974277 0, 44.84191074594855 0, 60 0 M60 0 C60 19.551529364660386, 60 39.10305872932077, 60 60 M60 0 C60 13.910250557586552, 60 27.820501115173105, 60 60 M60 60 C40.88383267633617 60, 21.76766535267234 60, 0 60 M60 60 C44.82387535460293 60, 29.647750709205866 60, 0 60 M0 60 C0 39.15738861076534, 0 18.314777221530676, 0 0 M0 60 C0 47.936024414375424, 0 35.87204882875085, 0 0" stroke="#000000" stroke-width="1" fill="none"></path></g><g transform="translate(250 490) rotate(0 30 30)"><path d="M0 0 C20.981042755767703 0, 41.962085511535406 0, 60 0 M0 0 C13.936808841302993 0, 27.873617682605985 0, 60 0 M60 0 C60 19.873961521312594, 60 39.74792304262519, 60 60 M60 0 C60 13.704665260389447, 60 27.409330520778894, 60 60 M60 60 C43.48711942322552 60, 26.974238846451044 60, 0 60 M60 60 C45.287242038175464 60, 30.574484076350927 60, 0 60 M0 60 C0 46.305630253627896, 0 32.61126050725579, 0 0 M0 60 C0 43.83450631611049, 0 27.669012632220976, 0 0" stroke="#ccc" stroke-width="1" fill="none"></path></g><g transform="translate(310 490) rotate(0 30 30)"><path d="M0 0 C23.914863662794232 0, 47.829727325588465 0, 60 0 M0 0 C23.69957853667438 0, 47.39915707334876 0, 60 0 M60 0 C60 19.996595280244946, 60 39.99319056048989, 60 60 M60 0 C60 13.896784259006381, 60 27.793568518012762, 60 60 M60 60 C42.74167851917446 60, 25.483357038348913 60, 0 60 M60 60 C44.460424767807126 60, 28.92084953561425 60, 0 60 M0 60 C0 39.07797287218273, 0 18.155945744365454, 0 0 M0 60 C0 47.45438496954739, 0 34.90876993909478, 0 0" stroke="#000000" stroke-width="1" fill="none"></path></g><g transform="translate(370 490) rotate(0 30 30)"><path d="M0 0 C18.38386674039066 0, 36.76773348078132 0, 60 0 M0 0 C18.35554380901158 0, 36.71108761802316 0, 60 0 M60 0 C60 23.65077270381153, 60 47.30154540762306, 60 60 M60 0 C60 23.672966497018933, 60 47.34593299403787, 60 60 M60 60 C47.563799070194364 60, 35.12759814038873 60, 0 60 M60 60 C45.16396681778133 60, 30.32793363556266 60, 0 60 M0 60 C0 40.82851313240826, 0 21.657026264816523, 0 0 M0 60 C0 38.61686502210796, 0 17.23373004421591, 0 0" stroke="#ccc" stroke-width="1" fill="none"></path></g><g transform="translate(430 490) rotate(0 30 30)"><path d="M0 0 C19.631425397470593 0, 39.26285079494119 0, 60 0 M0 0 C20.455204797908664 0, 40.91040959581733 0, 60 0 M60 0 C60 14.449185686185956, 60 28.898371372371912, 60 60 M60 0 C60 17.76577760092914, 60 35.53155520185828, 60 60 M60 60 C40.14491735212505 60, 20.289834704250097 60, 0 60 M60 60 C45.84226112253964 60, 31.684522245079275 60, 0 60 M0 60 C0 37.15741447918117, 0 14.314828958362334, 0 0 M0 60 C0 42.69148217327893, 0 25.38296434655785, 0 0" stroke="#000000" stroke-width="1" fill="none"></path></g><g transform="translate(490 490) rotate(0 30 30)"><path d="M0 0 C12.535361303016543 0, 25.070722606033087 0, 60 0 M0 0 C21.190799849107865 0, 42.38159969821573 0, 60 0 M60 0 C60 12.642257882282138, 60 25.284515764564276, 60 60 M60 0 C60 15.850574450567368, 60 31.701148901134736, 60 60 M60 60 C39.305504428222775 60, 18.611008856445544 60, 0 60 M60 60 C39.786646110937 60, 19.573292221874 60, 0 60 M0 60 C0 45.55432455427945, 0 31.10864910855889, 0 0 M0 60 C0 36.53598634712398, 0 13.071972694247961, 0 0" stroke="#ccc" stroke-width="1" fill="none"></path></g><g transform="translate(550 490) rotate(0 30 30)"><path d="M0 0 C18.4254579115659 0, 36.8509158231318 0, 60 0 M0 0 C21.09951628558338 0, 42.19903257116676 0, 60 0 M60 0 C60 18.430235641077164, 60 36.86047128215433, 60 60 M60 0 C60 15.07930333726108, 60 30.15860667452216, 60 60 M60 60 C44.004254741594195 60, 28.00850948318839 60, 0 60 M60 60 C37.19442103989422 60, 14.388842079788446 60, 0 60 M0 60 C0 36.80055962316692, 0 13.601119246333838, 0 0 M0 60 C0 36.596962021663785, 0 13.19392404332757, 0 0" stroke="#000000" stroke-width="1" fill="none"></path></g><g transform="translate(610 490) rotate(0 30 30)"><path d="M0 0 C23.278849197551608 0, 46.557698395103216 0, 60 0 M0 0 C18.75062139518559 0, 37.50124279037118 0, 60 0 M60 0 C60 13.904630435630681, 60 27.809260871261362, 60 60 M60 0 C60 21.051392929628495, 60 42.10278585925699, 60 60 M60 60 C45.38063149340451 60, 30.76126298680901 60, 0 60 M60 60 C43.898016734048724 60, 27.79603346809744 60, 0 60 M0 60 C0 39.8135698903352, 0 19.627139780670404, 0 0 M0 60 C0 39.95374773256481, 0 19.907495465129614, 0 0" stroke="#ccc" stroke-width="1" fill="none"></path></g><g transform="translate(670 490) rotate(0 30 30)"><path d="M0 0 C13.329615013673902 0, 26.659230027347803 0, 60 0 M0 0 C23.24536700360477 0, 46.49073400720954 0, 60 0 M60 0 C60 18.41575832851231, 60 36.83151665702462, 60 60 M60 0 C60 23.78810609690845, 60 47.5762121938169, 60 60 M60 60 C40.46281812898815 60, 20.925636257976294 60, 0 60 M60 60 C41.16576926596463 60, 22.331538531929247 60, 0 60 M0 60 C0 40.83217637054622, 0 21.664352741092443, 0 0 M0 60 C0 39.35679863579571, 0 18.713597271591425, 0 0" stroke="#000000" stroke-width="1" fill="none"></path></g><g transform="translate(10 550) rotate(0 30 30)"><path d="M0 0 C17.938023643568158 0, 35.876047287136316 0, 60 0 M0 0 C21.949962867423892 0, 43.899925734847784 0, 60 0 M60 0 C60 18.684824841096997, 60 37.369649682193995, 60 60 M60 0 C60 22.178876353427768, 60 44.357752706855536, 60 60 M60 60 C40.21162156574428 60, 20.42324313148856 60, 0 60 M60 60 C37.089007722213864 60, 14.178015444427729 60, 0 60 M0 60 C0 46.748080713674426, 0 33.49616142734885, 0 0 M0 60 C0 37.217275785282254, 0 14.434551570564501, 0 0" stroke="#ccc" stroke-width="1" fill="none"></path></g><g transform="translate(70 550) rotate(0 30 30)"><path d="M0 0 C14.339298678562045 0, 28.67859735712409 0, 60 0 M0 0 C18.657573418691758 0, 37.315146837383516 0, 60 0 M60 0 C60 15.17990459315479, 60 30.35980918630958, 60 60 M60 0 C60 16.540456311777234, 60 33.08091262355447, 60 60 M60 60 C43.18460004217923 60, 26.369200084358447 60, 0 60 M60 60 C43.4917589854449 60, 26.983517970889807 60, 0 60 M0 60 C0 36.60412977822125, 0 13.2082595564425, 0 0 M0 60 C0 43.11943135969341, 0 26.23886271938681, 0 0" stroke="#ccc" stroke-width="1" fill="none"></path></g><g transform="translate(130 550) rotate(0 30 30)"><path d="M0 0 C12.286512868478894 0, 24.57302573695779 0, 60 0 M0 0 C19.7264936696738 0, 39.4529873393476 0, 60 0 M60 0 C60 17.174616174772382, 60 34.349232349544764, 60 60 M60 0 C60 16.366625798866153, 60 32.733251597732306, 60 60 M60 60 C43.8286360334605 60, 27.65727206692099 60, 0 60 M60 60 C38.69798641093075 60, 17.395972821861506 60, 0 60 M0 60 C0 37.948524517938495, 0 15.89704903587699, 0 0 M0 60 C0 42.071163760498166, 0 24.142327520996332, 0 0" stroke="#ccc" stroke-width="1" fill="none"></path></g><g transform="translate(190 550) rotate(0 30 30)"><path d="M0 0 C18.26267434470356 0, 36.52534868940712 0, 60 0 M0 0 C17.575928824022416 0, 35.15185764804483 0, 60 0 M60 0 C60 15.897372437641025, 60 31.79474487528205, 60 60 M60 0 C60 13.39393706806004, 60 26.78787413612008, 60 60 M60 60 C40.089971171692014 60, 20.179942343384027 60, 0 60 M60 60 C46.5020420383662 60, 33.0040840767324 60, 0 60 M0 60 C0 37.22700540907681, 0 14.45401081815362, 0 0 M0 60 C0 45.145883006975055, 0 30.29176601395011, 0 0" stroke="#000000" stroke-width="1" fill="none"></path></g><g transform="translate(250 550) rotate(0 30 30)"><path d="M0 0 C13.553293185308577 0, 27.106586370617155 0, 60 0 M0 0 C19.660264385864142 0, 39.320528771728284 0, 60 0 M60 0 C60 18.064937369897965, 60 36.12987473979593, 60 60 M60 0 C60 14.73621232621372, 60 29.47242465242744, 60 60 M60 60 C38.99842874519527 60, 17.99685749039054 60, 0 60 M60 60 C40.07123397476971 60, 20.142467949539416 60, 0 60 M0 60 C0 44.77810154668987, 0 29.556203093379736, 0 0 M0 60 C0 36.9186296928674, 0 13.83725938573479, 0 0" stroke="#ccc" stroke-width="1" fill="none"></path></g><g transform="translate(310 550) rotate(0 30 30)"><path d="M0 0 C15.015348030254248 0, 30.030696060508497 0, 60 0 M0 0 C12.622170047834516 0, 25.24434009566903 0, 60 0 M60 0 C60 20.59178234450519, 60 41.18356468901038, 60 60 M60 0 C60 19.705198662355542, 60 39.410397324711084, 60 60 M60 60 C41.15395932085812 60, 22.307918641716235 60, 0 60 M60 60 C46.53519610874355 60, 33.0703922174871 60, 0 60 M0 60 C0 43.73976026661694, 0 27.47952053323388, 0 0 M0 60 C0 39.173904402181506, 0 18.347808804363012, 0 0" stroke="#000000" stroke-width="1" fill="none"></path></g><g transform="translate(370 550) rotate(0 30 30)"><path d="M0 0 C17.864768402650952 0, 35.729536805301905 0, 60 0 M0 0 C20.770379019901156 0, 41.54075803980231 0, 60 0 M60 0 C60 13.925551610067489, 60 27.851103220134977, 60 60 M60 0 C60 21.644630564376715, 60 43.28926112875343, 60 60 M60 60 C38.770377142354846 60, 17.540754284709692 60, 0 60 M60 60 C44.45136515982449 60, 28.902730319648978 60, 0 60 M0 60 C0 45.967829866334796, 0 31.935659732669592, 0 0 M0 60 C0 39.5393977034837, 0 19.0787954069674, 0 0" stroke="#000000" stroke-width="1" fill="none"></path></g><g transform="translate(430 550) rotate(0 30 30)"><path d="M0 0 C18.235564364120368 0, 36.471128728240735 0, 60 0 M0 0 C18.965669648721818 0, 37.931339297443635 0, 60 0 M60 0 C60 20.301769567653537, 60 40.603539135307074, 60 60 M60 0 C60 15.961973028257491, 60 31.923946056514982, 60 60 M60 60 C36.8750386107713 60, 13.75007722154259 60, 0 60 M60 60 C39.8476298879832 60, 19.6952597759664 60, 0 60 M0 60 C0 41.11547784693539, 0 22.230955693870776, 0 0 M0 60 C0 42.26654486171901, 0 24.533089723438025, 0 0" stroke="#000000" stroke-width="1" fill="none"></path></g><g transform="translate(490 550) rotate(0 30 30)"><path d="M0 0 C12.927420454099774 0, 25.85484090819955 0, 60 0 M0 0 C23.839613450691104 0, 47.67922690138221 0, 60 0 M60 0 C60 18.71880020387471, 60 37.43760040774942, 60 60 M60 0 C60 16.400047017261386, 60 32.80009403452277, 60 60 M60 60 C46.98878054134548 60, 33.977561082690954 60, 0 60 M60 60 C40.94232283718884 60, 21.88464567437768 60, 0 60 M0 60 C0 41.23114941827953, 0 22.462298836559057, 0 0 M0 60 C0 44.387020038440824, 0 28.77404007688164, 0 0" stroke="#000000" stroke-width="1" fill="none"></path></g><g transform="translate(550 550) rotate(0 30 30)"><path d="M0 0 C19.512739850208163 0, 39.02547970041633 0, 60 0 M0 0 C21.980878310278058 0, 43.961756620556116 0, 60 0 M60 0 C60 23.204641235992312, 60 46.409282471984625, 60 60 M60 0 C60 18.66957022435963, 60 37.33914044871926, 60 60 M60 60 C39.425511287525296 60, 18.851022575050592 60, 0 60 M60 60 C46.86567394249141 60, 33.731347884982824 60, 0 60 M0 60 C0 44.81356977112591, 0 29.627139542251822, 0 0 M0 60 C0 41.84427557699382, 0 23.688551153987646, 0 0" stroke="#000000" stroke-width="1" fill="none"></path></g><g transform="translate(610 550) rotate(0 30 30)"><path d="M0 0 C19.46530939824879 0, 38.93061879649758 0, 60 0 M0 0 C22.97691543214023 0, 45.95383086428046 0, 60 0 M60 0 C60 19.237102584913373, 60 38.474205169826746, 60 60 M60 0 C60 22.824300063773993, 60 45.64860012754799, 60 60 M60 60 C40.85536013357341 60, 21.710720267146826 60, 0 60 M60 60 C36.94687800295651 60, 13.893756005913012 60, 0 60 M0 60 C0 39.826422018930316, 0 19.652844037860632, 0 0 M0 60 C0 37.02637706883252, 0 14.052754137665033, 0 0" stroke="#ccc" stroke-width="1" fill="none"></path></g><g transform="translate(670 550) rotate(0 30 30)"><path d="M0 0 C21.949962867423892 0, 43.899925734847784 0, 60 0 M0 0 C18.684824841096997 0, 37.369649682193995 0, 60 0 M60 0 C60 22.178876353427768, 60 44.357752706855536, 60 60 M60 0 C60 19.78837843425572, 60 39.57675686851144, 60 60 M60 60 C37.089007722213864 60, 14.178015444427729 60, 0 60 M60 60 C46.748080713674426 60, 33.49616142734885 60, 0 60 M0 60 C0 37.217275785282254, 0 14.434551570564501, 0 0 M0 60 C0 44.24748961441219, 0 28.494979228824374, 0 0" stroke="#000000" stroke-width="1" fill="none"></path></g><g transform="translate(10 610) rotate(0 30 30)"><path d="M0 0 C18.846040679141883 0, 37.692081358283765 0, 60 0 M0 0 C13.464803891256452 0, 26.929607782512903 0, 60 0 M60 0 C60 16.26023973338306, 60 32.52047946676612, 60 60 M60 0 C60 20.826095597818494, 60 41.65219119563699, 60 60 M60 60 C39.20108191855252 60, 18.402163837105036 60, 0 60 M60 60 C43.11198822967708 60, 26.223976459354155 60, 0 60 M0 60 C0 41.9034638274461, 0 23.806927654892206, 0 0 M0 60 C0 42.26418147794902, 0 24.528362955898046, 0 0" stroke="#000000" stroke-width="1" fill="none"></path></g><g transform="translate(70 610) rotate(0 30 30)"><path d="M0 0 C21.229622857645154 0, 42.45924571529031 0, 60 0 M0 0 C15.548634840175511 0, 31.097269680351022 0, 60 0 M60 0 C60 14.032170133665204, 60 28.064340267330408, 60 60 M60 0 C60 20.4606022965163, 60 40.9212045930326, 60 60 M60 60 C43.42529044859111 60, 26.850580897182226 60, 0 60 M60 60 C42.78383474238217 60, 25.567669484764338 60, 0 60 M0 60 C0 38.10241465084255, 0 16.204829301685088, 0 0 M0 60 C0 38.304122077301145, 0 16.608244154602282, 0 0" stroke="#000000" stroke-width="1" fill="none"></path></g><g transform="translate(130 610) rotate(0 30 30)"><path d="M0 0 C23.124961389228705 0, 46.24992277845741 0, 60 0 M0 0 C20.1523701120168 0, 40.3047402240336 0, 60 0 M60 0 C60 18.884522153064612, 60 37.769044306129224, 60 60 M60 0 C60 17.733455138280988, 60 35.466910276561975, 60 60 M60 60 C46.19524394161999 60, 32.390487883239985 60, 0 60 M60 60 C42.48684952966869 60, 24.973699059337378 60, 0 60 M0 60 C0 37.65761082060635, 0 15.315221641212702, 0 0 M0 60 C0 42.27679340355098, 0 24.553586807101965, 0 0" stroke="#000000" stroke-width="1" fill="none"></path></g><g transform="translate(190 610) rotate(0 30 30)"><path d="M0 0 C13.011219458654523 0, 26.022438917309046 0, 60 0 M0 0 C19.05767716281116 0, 38.11535432562232 0, 60 0 M60 0 C60 18.76885058172047, 60 37.53770116344094, 60 60 M60 0 C60 15.61297996155918, 60 31.22595992311836, 60 60 M60 60 C38.6203059386462 60, 17.240611877292395 60, 0 60 M60 60 C46.713646637275815 60, 33.42729327455163 60, 0 60 M0 60 C0 46.53192148916423, 0 33.063842978328466, 0 0 M0 60 C0 47.094382809475064, 0 34.18876561895013, 0 0" stroke="#000000" stroke-width="1" fill="none"></path></g><g transform="translate(250 610) rotate(0 30 30)"><path d="M0 0 C20.574488712474704 0, 41.14897742494941 0, 60 0 M0 0 C13.134326057508588 0, 26.268652115017176 0, 60 0 M60 0 C60 15.186430228874089, 60 30.372860457748178, 60 60 M60 0 C60 18.155724423006177, 60 36.311448846012354, 60 60 M60 60 C40.78796439059079 60, 21.575928781181574 60, 0 60 M60 60 C42.43682794086635 60, 24.873655881732695 60, 0 60 M0 60 C0 42.38220344670117, 0 24.764406893402338, 0 0 M0 60 C0 36.952596170827746, 0 13.905192341655493, 0 0" stroke="#000000" stroke-width="1" fill="none"></path></g><g transform="translate(310 610) rotate(0 30 30)"><path d="M0 0 C19.144639866426587 0, 38.289279732853174 0, 60 0 M0 0 C23.053121997043494 0, 46.10624399408699 0, 60 0 M60 0 C60 20.173577981069684, 60 40.34715596213937, 60 60 M60 0 C60 22.973622931167483, 60 45.94724586233497, 60 60 M60 60 C47.829098207876086 60, 35.65819641575217 60, 0 60 M60 60 C44.12153355963528 60, 28.243067119270563 60, 0 60 M0 60 C0 47.342575712129474, 0 34.68515142425895, 0 0 M0 60 C0 46.769762026146054, 0 33.53952405229211, 0 0" stroke="#000000" stroke-width="1" fill="none"></path></g><g transform="translate(370 610) rotate(0 30 30)"><path d="M0 0 C22.910992277786136 0, 45.82198455557227 0, 60 0 M0 0 C13.251919286325576 0, 26.50383857265115 0, 60 0 M60 0 C60 22.78272421471775, 60 45.5654484294355, 60 60 M60 0 C60 15.752510385587813, 60 31.505020771175626, 60 60 M60 60 C42.39959238655865 60, 24.799184773117297 60, 0 60 M60 60 C42.54645715467632 60, 25.092914309352636 60, 0 60 M0 60 C0 41.47220020182431, 0 22.944400403648615, 0 0 M0 60 C0 39.182764096185565, 0 18.36552819237113, 0 0" stroke="#ccc" stroke-width="1" fill="none"></path></g><g transform="translate(430 610) rotate(0 30 30)"><path d="M0 0 C16.508241014555097 0, 33.01648202911019 0, 60 0 M0 0 C23.39587022177875 0, 46.7917404435575 0, 60 0 M60 0 C60 16.880568640306596, 60 33.76113728061319, 60 60 M60 0 C60 21.428822709247473, 60 42.85764541849495, 60 60 M60 60 C46.72409157268703 60, 33.44818314537406 60, 0 60 M60 60 C44.03331338055432 60, 28.066626761108633 60, 0 60 M0 60 C0 40.57594226114452, 0 21.151884522289038, 0 0 M0 60 C0 47.205686973407865, 0 34.41137394681573, 0 0" stroke="#000000" stroke-width="1" fill="none"></path></g><g transform="translate(490 610) rotate(0 30 30)"><path d="M0 0 C21.302013589069247 0, 42.604027178138494 0, 60 0 M0 0 C22.051475482061505 0, 44.10295096412301 0, 60 0 M60 0 C60 17.928836239501834, 60 35.85767247900367, 60 60 M60 0 C60 14.700998084619641, 60 29.401996169239283, 60 60 M60 60 C42.62430517561734 60, 25.248610351234667 60, 0 60 M60 60 C44.07019273750484 60, 28.140385475009676 60, 0 60 M0 60 C0 37.308887707069516, 0 14.617775414139025, 0 0 M0 60 C0 45.71589337103069, 0 31.431786742061373, 0 0" stroke="#ccc" stroke-width="1" fill="none"></path></g><g transform="translate(550 610) rotate(0 30 30)"><path d="M0 0 C13.497957961633803 0, 26.995915923267606 0, 60 0 M0 0 C22.77299459092319 0, 45.54598918184638 0, 60 0 M60 0 C60 14.854116993024945, 60 29.70823398604989, 60 60 M60 0 C60 23.878542674705386, 60 47.75708534941077, 60 60 M60 60 C45.83513222448528 60, 31.670264448970553 60, 0 60 M60 60 C36.273632096126676 60, 12.547264192253351 60, 0 60 M0 60 C0 37.31850795261562, 0 14.63701590523123, 0 0 M0 60 C0 47.888913022354245, 0 35.77782604470849, 0 0" stroke="#000000" stroke-width="1" fill="none"></path></g><g transform="translate(610 610) rotate(0 30 30)"><path d="M0 0 C19.928766025230292 0, 39.857532050460584 0, 60 0 M0 0 C15.221898453310132 0, 30.443796906620264 0, 60 0 M60 0 C60 23.081370307132605, 60 46.16274061426521, 60 60 M60 0 C60 17.133450703695416, 60 34.26690140739083, 60 60 M60 60 C43.66760812886059 60, 27.335216257721186 60, 0 60 M60 60 C44.494912130758166 60, 28.989824261516333 60, 0 60 M0 60 C0 45.697380708530545, 0 31.394761417061087, 0 0 M0 60 C0 37.720502061769366, 0 15.441004123538725, 0 0" stroke="#ccc" stroke-width="1" fill="none"></path></g><g transform="translate(670 610) rotate(0 30 30)"><path d="M0 0 C13.464803891256452 0, 26.929607782512903 0, 60 0 M0 0 C16.26023973338306 0, 32.52047946676612 0, 60 0 M60 0 C60 20.826095597818494, 60 41.65219119563699, 60 60 M60 0 C60 20.798918081447482, 60 41.597836162894964, 60 60 M60 60 C43.11198822967708 60, 26.223976459354155 60, 0 60 M60 60 C41.9034638274461 60, 23.806927654892206 60, 0 60 M0 60 C0 42.26418147794902, 0 24.528362955898046, 0 0 M0 60 C0 46.355023669078946, 0 32.71004733815789, 0 0" stroke="#000000" stroke-width="1" fill="none"></path></g><g transform="translate(10 670) rotate(0 30 30)"><path d="M0 0 C16.129654007032517 0, 32.259308014065034 0, 60 0 M0 0 C17.753709090873603 0, 35.507418181747205 0, 60 0 M60 0 C60 19.112996952608228, 60 38.225993905216455, 60 60 M60 0 C60 16.7641472350806, 60 33.5282944701612, 60 60 M60 60 C36.840853018686175 60, 13.681706037372344 60, 0 60 M60 60 C44.28764186985791 60, 28.575283739715815 60, 0 60 M0 60 C0 45.259911043569446, 0 30.519822087138888, 0 0 M0 60 C0 42.73399464972317, 0 25.467989299446344, 0 0" stroke="#ccc" stroke-width="1" fill="none"></path></g><g transform="translate(70 670) rotate(0 30 30)"><path d="M0 0 C19.24826295487583 0, 38.49652590975166 0, 60 0 M0 0 C18.82283361442387 0, 37.64566722884774 0, 60 0 M60 0 C60 15.757589114829898, 60 31.515178229659796, 60 60 M60 0 C60 16.212716476991776, 60 32.42543295398355, 60 60 M60 60 C37.90194039233029 60, 15.803880784660578 60, 0 60 M60 60 C47.76476935856044 60, 35.529538717120886 60, 0 60 M0 60 C0 44.21695886738598, 0 28.433917734771963, 0 0 M0 60 C0 43.715764028951526, 0 27.431528057903044, 0 0" stroke="#ccc" stroke-width="1" fill="none"></path></g><g transform="translate(130 670) rotate(0 30 30)"><path d="M0 0 C21.29152555949986 0, 42.58305111899972 0, 60 0 M0 0 C19.47589935176075 0, 38.9517987035215 0, 60 0 M60 0 C60 14.151184575632215, 60 28.30236915126443, 60 60 M60 0 C60 19.183934999629855, 60 38.36786999925971, 60 60 M60 60 C44.76069991104305 60, 29.521399822086092 60, 0 60 M60 60 C45.16598414070904 60, 30.33196828141808 60, 0 60 M0 60 C0 36.65573678724468, 0 13.311473574489348, 0 0 M0 60 C0 45.0351007450372, 0 30.070201490074393, 0 0" stroke="#ccc" stroke-width="1" fill="none"></path></g><g transform="translate(190 670) rotate(0 30 30)"><path d="M0 0 C17.00140185467899 0, 34.00280370935798 0, 60 0 M0 0 C14.584161954000592 0, 29.168323908001184 0, 60 0 M60 0 C60 12.037060869857669, 60 24.074121739715338, 60 60 M60 0 C60 15.435321824625134, 60 30.87064364925027, 60 60 M60 60 C45.18170707114041 60, 30.363414142280817 60, 0 60 M60 60 C40.82148758880794 60, 21.64297517761588 60, 0 60 M0 60 C0 39.645441519096494, 0 19.290883038192987, 0 0 M0 60 C0 45.47600017301738, 0 30.95200034603476, 0 0" stroke="#000000" stroke-width="1" fill="none"></path></g><g transform="translate(250 670) rotate(0 30 30)"><path d="M0 0 C19.112996952608228 0, 38.225993905216455 0, 60 0 M0 0 C16.7641472350806 0, 33.5282944701612 0, 60 0 M60 0 C60 23.159146981313828, 60 46.318293962627656, 60 60 M60 0 C60 15.712358130142093, 60 31.424716260284185, 60 60 M60 60 C45.259911043569446 60, 30.519822087138888 60, 0 60 M60 60 C42.73399464972317 60, 25.467989299446344 60, 0 60 M0 60 C0 39.99836413376033, 0 19.996728267520666, 0 0 M0 60 C0 41.737325655296445, 0 23.474651310592883, 0 0" stroke="#ccc" stroke-width="1" fill="none"></path></g><g transform="translate(310 670) rotate(0 30 30)"><path d="M0 0 C12.081681562587619 0, 24.163363125175238 0, 60 0 M0 0 C12.965248899534346 0, 25.930497799068693 0, 60 0 M60 0 C60 22.41979647986591, 60 44.83959295973182, 60 60 M60 0 C60 21.817968981340528, 60 43.635937962681055, 60 60 M60 60 C46.02739934809506 60, 32.05479869619012 60, 0 60 M60 60 C37.10756830684841 60, 14.215136613696806 60, 0 60 M0 60 C0 36.004351722076535, 0 12.00870344415307, 0 0 M0 60 C0 40.53469060175121, 0 21.069381203502417, 0 0" stroke="#000000" stroke-width="1" fill="none"></path></g><g transform="translate(370 670) rotate(0 30 30)"><path d="M0 0 C14.151184575632215 0, 28.30236915126443 0, 60 0 M0 0 C19.183934999629855 0, 38.36786999925971 0, 60 0 M60 0 C60 15.239300088956954, 60 30.478600177913908, 60 60 M60 0 C60 14.83401585929096, 60 29.66803171858192, 60 60 M60 60 C36.65573678724468 60, 13.311473574489348 60, 0 60 M60 60 C45.0351007450372 60, 30.070201490074393 60, 0 60 M0 60 C0 46.446706814691424, 0 32.89341362938285, 0 0 M0 60 C0 40.33973561413586, 0 20.679471228271716, 0 0" stroke="#ccc" stroke-width="1" fill="none"></path></g><g transform="translate(430 670) rotate(0 30 30)"><path d="M0 0 C21.529629422351718 0, 43.059258844703436 0, 60 0 M0 0 C17.995879607275132 0, 35.991759214550264 0, 60 0 M60 0 C60 19.180698288604617, 60 38.361396577209234, 60 60 M60 0 C60 23.406068103387952, 60 46.812136206775904, 60 60 M60 60 C39.42973987944424 60, 18.859479758888476 60, 0 60 M60 60 C42.06197635643184 60, 24.123952712863684 60, 0 60 M0 60 C0 38.05003713257611, 0 16.100074265152216, 0 0 M0 60 C0 41.315175158903, 0 22.630350317806005, 0 0" stroke="#ccc" stroke-width="1" fill="none"></path></g><g transform="translate(490 670) rotate(0 30 30)"><path d="M0 0 C21.282801227644086 0, 42.56560245528817 0, 60 0 M0 0 C14.756193889304997 0, 29.512387778609995 0, 60 0 M60 0 C60 23.950607674196362, 60 47.901215348392725, 60 60 M60 0 C60 14.604385329410436, 60 29.20877065882087, 60 60 M60 60 C39.23430613987148 60, 18.46861227974295 60, 0 60 M60 60 C41.764435635879636 60, 23.528871271759265 60, 0 60 M0 60 C0 41.034330351278186, 0 22.068660702556365, 0 0 M0 60 C0 39.69823043234646, 0 19.396460864692926, 0 0" stroke="#ccc" stroke-width="1" fill="none"></path></g><g transform="translate(550 670) rotate(0 30 30)"><path d="M0 0 C23.104522777721286 0, 46.20904555544257 0, 60 0 M0 0 C23.487089233472947 0, 46.974178466945894 0, 60 0 M60 0 C60 22.313418639823794, 60 44.62683727964759, 60 60 M60 0 C60 19.026279347017407, 60 38.052558694034815, 60 60 M60 60 C45.660701321437955 60, 31.32140264287591 60, 0 60 M60 60 C41.342426581308246 60, 22.684853162616484 60, 0 60 M0 60 C0 44.82009540684521, 0 29.64019081369042, 0 0 M0 60 C0 43.459543688222766, 0 26.919087376445532, 0 0" stroke="#ccc" stroke-width="1" fill="none"></path></g><g transform="translate(610 670) rotate(0 30 30)"><path d="M0 0 C17.508954780176285 0, 35.01790956035257 0, 60 0 M0 0 C21.360401703044772 0, 42.720803406089544 0, 60 0 M60 0 C60 15.965913372114303, 60 31.931826744228605, 60 60 M60 0 C60 23.617591632530093, 60 47.235183265060186, 60 60 M60 60 C42.13523159734905 60, 24.270463194698095 60, 0 60 M60 60 C39.229620980098844 60, 18.459241960197687 60, 0 60 M0 60 C0 46.07444838993251, 0 32.14889677986503, 0 0 M0 60 C0 38.35536943562329, 0 16.71073887124657, 0 0" stroke="#ccc" stroke-width="1" fill="none"></path></g><g transform="translate(670 670) rotate(0 30 30)"><path d="M0 0 C19.033050315454606 0, 38.06610063090921 0, 60 0 M0 0 C19.24826295487583 0, 38.49652590975166 0, 60 0 M60 0 C60 18.82283361442387, 60 37.64566722884774, 60 60 M60 0 C60 15.757589114829898, 60 31.515178229659796, 60 60 M60 60 C43.78728352300823 60, 27.574567046016448 60, 0 60 M60 60 C37.90194039233029 60, 15.803880784660578 60, 0 60 M0 60 C0 47.76476935856044, 0 35.529538717120886, 0 0 M0 60 C0 44.21695886738598, 0 28.433917734771963, 0 0" stroke="#000000" stroke-width="1" fill="none"></path></g><g transform="translate(28.5 22) rotate(0 11.5 18)"><text x="11.5" y="25" font-family="Virgil, Segoe UI Emoji" font-size="28px" fill="#000000" text-anchor="middle" style="white-space: pre;" direction="ltr">C</text></g><g transform="translate(30 82) rotate(0 10 18)"><text x="10" y="25" font-family="Virgil, Segoe UI Emoji" font-size="28px" fill="#000000" text-anchor="middle" style="white-space: pre;" direction="ltr">O</text></g><g transform="translate(30 142) rotate(0 10 18)"><text x="10" y="25" font-family="Virgil, Segoe UI Emoji" font-size="28px" fill="#000000" text-anchor="middle" style="white-space: pre;" direction="ltr">M</text></g><g transform="translate(30 202) rotate(0 10 18)"><text x="10" y="25" font-family="Virgil, Segoe UI Emoji" font-size="28px" fill="#000000" text-anchor="middle" style="white-space: pre;" direction="ltr">M</text></g><g transform="translate(31 262) rotate(0 9 18)"><text x="9" y="25" font-family="Virgil, Segoe UI Emoji" font-size="28px" fill="#000000" text-anchor="middle" style="white-space: pre;" direction="ltr">A</text></g><g transform="translate(31.5 322) rotate(0 8.5 18)"><text x="8.5" y="25" font-family="Virgil, Segoe UI Emoji" font-size="28px" fill="#000000" text-anchor="middle" style="white-space: pre;" direction="ltr">N</text></g><g transform="translate(26 382) rotate(0 14 18)"><text x="14" y="25" font-family="Virgil, Segoe UI Emoji" font-size="28px" fill="#000000" text-anchor="middle" style="white-space: pre;" direction="ltr">D</text></g><g transform="translate(30 442) rotate(0 10 18)"><text x="10" y="25" font-family="Virgil, Segoe UI Emoji" font-size="28px" fill="#000000" text-anchor="middle" style="white-space: pre;" direction="ltr">O</text></g><g transform="translate(31.5 502) rotate(0 8.5 18)"><text x="8.5" y="25" font-family="Virgil, Segoe UI Emoji" font-size="28px" fill="#000000" text-anchor="middle" style="white-space: pre;" direction="ltr">S</text></g><g transform="translate(28.5 622) rotate(0 11.5 18)"><text x="11.5" y="25" font-family="Virgil, Segoe UI Emoji" font-size="28px" fill="#000000" text-anchor="middle" style="white-space: pre;" direction="ltr">C</text></g><g transform="translate(90 622) rotate(0 10 18)"><text x="10" y="25" font-family="Virgil, Segoe UI Emoji" font-size="28px" fill="#000000" text-anchor="middle" style="white-space: pre;" direction="ltr">O</text></g><g transform="translate(151.5 622) rotate(0 8.5 18)"><text x="8.5" y="25" font-family="Virgil, Segoe UI Emoji" font-size="28px" fill="#000000" text-anchor="middle" style="white-space: pre;" direction="ltr">N</text></g><g transform="translate(207 622) rotate(0 13 18)"><text x="13" y="25" font-family="Virgil, Segoe UI Emoji" font-size="28px" fill="#000000" text-anchor="middle" style="white-space: pre;" direction="ltr">T</text></g><g transform="translate(271 622) rotate(0 9 18)"><text x="9" y="25" font-family="Virgil, Segoe UI Emoji" font-size="28px" fill="#000000" text-anchor="middle" style="white-space: pre;" direction="ltr">R</text></g><g transform="translate(331 622) rotate(0 9 18)"><text x="9" y="25" font-family="Virgil, Segoe UI Emoji" font-size="28px" fill="#000000" text-anchor="middle" style="white-space: pre;" direction="ltr">A</text></g><g transform="translate(92.5 382) rotate(0 7.5 18)"><text x="7.5" y="25" font-family="Virgil, Segoe UI Emoji" font-size="28px" fill="#000000" text-anchor="middle" style="white-space: pre;" direction="ltr">I</text></g><g transform="translate(149 382) rotate(0 11 18)"><text x="11" y="25" font-family="Virgil, Segoe UI Emoji" font-size="28px" fill="#000000" text-anchor="middle" style="white-space: pre;" direction="ltr">G</text></g><g transform="translate(209 382) rotate(0 11 18)"><text x="11" y="25" font-family="Virgil, Segoe UI Emoji" font-size="28px" fill="#000000" text-anchor="middle" style="white-space: pre;" direction="ltr">G</text></g><g transform="translate(271 382) rotate(0 9 18)"><text x="9" y="25" font-family="Virgil, Segoe UI Emoji" font-size="28px" fill="#000000" text-anchor="middle" style="white-space: pre;" direction="ltr">E</text></g><g transform="translate(331 382) rotate(0 9 18)"><text x="9" y="25" font-family="Virgil, Segoe UI Emoji" font-size="28px" fill="#000000" text-anchor="middle" style="white-space: pre;" direction="ltr">R</text></g><g transform="translate(212.5 442) rotate(0 7.5 18)"><text x="7.5" y="25" font-family="Virgil, Segoe UI Emoji" font-size="28px" fill="#000000" text-anchor="middle" style="white-space: pre;" direction="ltr">I</text></g><g transform="translate(211 502) rotate(0 9 18)"><text x="9" y="25" font-family="Virgil, Segoe UI Emoji" font-size="28px" fill="#000000" text-anchor="middle" style="white-space: pre;" direction="ltr">A</text></g><g transform="translate(211.5 562) rotate(0 8.5 18)"><text x="8.5" y="25" font-family="Virgil, Segoe UI Emoji" font-size="28px" fill="#000000" text-anchor="middle" style="white-space: pre;" direction="ltr">N</text></g><g transform="translate(211.5 682) rotate(0 8.5 18)"><text x="8.5" y="25" font-family="Virgil, Segoe UI Emoji" font-size="28px" fill="#000000" text-anchor="middle" style="white-space: pre;" direction="ltr">S</text></g><g transform="translate(331 442) rotate(0 9 18)"><text x="9" y="25" font-family="Virgil, Segoe UI Emoji" font-size="28px" fill="#000000" text-anchor="middle" style="white-space: pre;" direction="ltr">A</text></g><g transform="translate(333 502) rotate(0 7 18)"><text x="7" y="25" font-family="Virgil, Segoe UI Emoji" font-size="28px" fill="#000000" text-anchor="middle" style="white-space: pre;" direction="ltr">Y</text></g><g transform="translate(330 562) rotate(0 10 18)"><text x="10" y="25" font-family="Virgil, Segoe UI Emoji" font-size="28px" fill="#000000" text-anchor="middle" style="white-space: pre;" direction="ltr">M</text></g><g transform="translate(331.5 682) rotate(0 8.5 18)"><text x="8.5" y="25" font-family="Virgil, Segoe UI Emoji" font-size="28px" fill="#000000" text-anchor="middle" style="white-space: pre;" direction="ltr">N</text></g><g transform="translate(391.5 442) rotate(0 8.5 18)"><text x="8.5" y="25" font-family="Virgil, Segoe UI Emoji" font-size="28px" fill="#000000" text-anchor="middle" style="white-space: pre;" direction="ltr">L</text></g><g transform="translate(451 442) rotate(0 9 18)"><text x="9" y="25" font-family="Virgil, Segoe UI Emoji" font-size="28px" fill="#000000" text-anchor="middle" style="white-space: pre;" direction="ltr">A</text></g><g transform="translate(506 442) rotate(0 14 18)"><text x="14" y="25" font-family="Virgil, Segoe UI Emoji" font-size="28px" fill="#000000" text-anchor="middle" style="white-space: pre;" direction="ltr">D</text></g><g transform="translate(566 442) rotate(0 14 18)"><text x="14" y="25" font-family="Virgil, Segoe UI Emoji" font-size="28px" fill="#000000" text-anchor="middle" style="white-space: pre;" direction="ltr">D</text></g><g transform="translate(632.5 442) rotate(0 7.5 18)"><text x="7.5" y="25" font-family="Virgil, Segoe UI Emoji" font-size="28px" fill="#000000" text-anchor="middle" style="white-space: pre;" direction="ltr">I</text></g><g transform="translate(691.5 442) rotate(0 8.5 18)"><text x="8.5" y="25" font-family="Virgil, Segoe UI Emoji" font-size="28px" fill="#000000" text-anchor="middle" style="white-space: pre;" direction="ltr">N</text></g><g transform="translate(451.5 382) rotate(0 8.5 18)"><text x="8.5" y="25" font-family="Virgil, Segoe UI Emoji" font-size="28px" fill="#000000" text-anchor="middle" style="white-space: pre;" direction="ltr">L</text></g><g transform="translate(451 502) rotate(0 9 18)"><text x="9" y="25" font-family="Virgil, Segoe UI Emoji" font-size="28px" fill="#000000" text-anchor="middle" style="white-space: pre;" direction="ltr">R</text></g><g transform="translate(451 562) rotate(0 9 18)"><text x="9" y="25" font-family="Virgil, Segoe UI Emoji" font-size="28px" fill="#000000" text-anchor="middle" style="white-space: pre;" direction="ltr">R</text></g><g transform="translate(453 622) rotate(0 7 18)"><text x="7" y="25" font-family="Virgil, Segoe UI Emoji" font-size="28px" fill="#000000" text-anchor="middle" style="white-space: pre;" direction="ltr">Y</text></g><g transform="translate(391 562) rotate(0 9 18)"><text x="9" y="25" font-family="Virgil, Segoe UI Emoji" font-size="28px" fill="#000000" text-anchor="middle" style="white-space: pre;" direction="ltr">A</text></g><g transform="translate(512.5 562) rotate(0 7.5 18)"><text x="7.5" y="25" font-family="Virgil, Segoe UI Emoji" font-size="28px" fill="#000000" text-anchor="middle" style="white-space: pre;" direction="ltr">I</text></g><g transform="translate(570 562) rotate(0 10 18)"><text x="10" y="25" font-family="Virgil, Segoe UI Emoji" font-size="28px" fill="#000000" text-anchor="middle" style="white-space: pre;" direction="ltr">O</text></g><g transform="translate(570 502) rotate(0 10 18)"><text x="10" y="25" font-family="Virgil, Segoe UI Emoji" font-size="28px" fill="#000000" text-anchor="middle" style="white-space: pre;" direction="ltr">O</text></g><g transform="translate(570 622) rotate(0 10 18)"><text x="10" y="25" font-family="Virgil, Segoe UI Emoji" font-size="28px" fill="#000000" text-anchor="middle" style="white-space: pre;" direction="ltr">M</text></g><g transform="translate(91 142) rotate(0 9 18)"><text x="9" y="25" font-family="Virgil, Segoe UI Emoji" font-size="28px" fill="#000000" text-anchor="middle" style="white-space: pre;" direction="ltr">E</text></g><g transform="translate(147 142) rotate(0 13 18)"><text x="13" y="25" font-family="Virgil, Segoe UI Emoji" font-size="28px" fill="#000000" text-anchor="middle" style="white-space: pre;" direction="ltr">T</text></g><g transform="translate(211 142) rotate(0 9 18)"><text x="9" y="25" font-family="Virgil, Segoe UI Emoji" font-size="28px" fill="#000000" text-anchor="middle" style="white-space: pre;" direction="ltr">R</text></g><g transform="translate(270 142) rotate(0 10 18)"><text x="10" y="25" font-family="Virgil, Segoe UI Emoji" font-size="28px" fill="#000000" text-anchor="middle" style="white-space: pre;" direction="ltr">O</text></g><g transform="translate(332.5 142) rotate(0 7.5 18)"><text x="7.5" y="25" font-family="Virgil, Segoe UI Emoji" font-size="28px" fill="#000000" text-anchor="middle" style="white-space: pre;" direction="ltr">I</text></g><g transform="translate(386 142) rotate(0 14 18)"><text x="14" y="25" font-family="Virgil, Segoe UI Emoji" font-size="28px" fill="#000000" text-anchor="middle" style="white-space: pre;" direction="ltr">D</text></g><g transform="translate(151.5 22) rotate(0 8.5 18)"><text x="8.5" y="25" font-family="Virgil, Segoe UI Emoji" font-size="28px" fill="#000000" text-anchor="middle" style="white-space: pre;" direction="ltr">L</text></g><g transform="translate(150 82) rotate(0 10 18)"><text x="10" y="25" font-family="Virgil, Segoe UI Emoji" font-size="28px" fill="#000000" text-anchor="middle" style="white-space: pre;" direction="ltr">O</text></g><g transform="translate(151.5 202) rotate(0 8.5 18)"><text x="8.5" y="25" font-family="Virgil, Segoe UI Emoji" font-size="28px" fill="#000000" text-anchor="middle" style="white-space: pre;" direction="ltr">U</text></g><g transform="translate(151.5 262) rotate(0 8.5 18)"><text x="8.5" y="25" font-family="Virgil, Segoe UI Emoji" font-size="28px" fill="#000000" text-anchor="middle" style="white-space: pre;" direction="ltr">S</text></g><g transform="translate(210.5 262) rotate(0 9.5 18)"><text x="9.5" y="25" font-family="Virgil, Segoe UI Emoji" font-size="28px" fill="#000000" text-anchor="middle" style="white-space: pre;" direction="ltr">K</text></g><g transform="translate(271.5 262) rotate(0 8.5 18)"><text x="8.5" y="25" font-family="Virgil, Segoe UI Emoji" font-size="28px" fill="#000000" text-anchor="middle" style="white-space: pre;" direction="ltr">U</text></g><g transform="translate(331.5 262) rotate(0 8.5 18)"><text x="8.5" y="25" font-family="Virgil, Segoe UI Emoji" font-size="28px" fill="#000000" text-anchor="middle" style="white-space: pre;" direction="ltr">N</text></g><g transform="translate(391.5 262) rotate(0 8.5 18)"><text x="8.5" y="25" font-family="Virgil, Segoe UI Emoji" font-size="28px" fill="#000000" text-anchor="middle" style="white-space: pre;" direction="ltr">N</text></g><g transform="translate(453 262) rotate(0 7 18)"><text x="7" y="25" font-family="Virgil, Segoe UI Emoji" font-size="28px" fill="#000000" text-anchor="middle" style="white-space: pre;" direction="ltr">Y</text></g><g transform="translate(391.5 202) rotate(0 8.5 18)"><text x="8.5" y="25" font-family="Virgil, Segoe UI Emoji" font-size="28px" fill="#000000" text-anchor="middle" style="white-space: pre;" direction="ltr">U</text></g><g transform="translate(391 322) rotate(0 9 18)"><text x="9" y="25" font-family="Virgil, Segoe UI Emoji" font-size="28px" fill="#000000" text-anchor="middle" style="white-space: pre;" direction="ltr">E</text></g><g transform="translate(267 22) rotate(0 13 18)"><text x="13" y="25" font-family="Virgil, Segoe UI Emoji" font-size="28px" fill="#000000" text-anchor="middle" style="white-space: pre;" direction="ltr">T</text></g><g transform="translate(331 22) rotate(0 9 18)"><text x="9" y="25" font-family="Virgil, Segoe UI Emoji" font-size="28px" fill="#000000" text-anchor="middle" style="white-space: pre;" direction="ltr">E</text></g><g transform="translate(387 22) rotate(0 13 18)"><text x="13" y="25" font-family="Virgil, Segoe UI Emoji" font-size="28px" fill="#000000" text-anchor="middle" style="white-space: pre;" direction="ltr">T</text></g><g transform="translate(451 22) rotate(0 9 18)"><text x="9" y="25" font-family="Virgil, Segoe UI Emoji" font-size="28px" fill="#000000" text-anchor="middle" style="white-space: pre;" direction="ltr">R</text></g><g transform="translate(512.5 22) rotate(0 7.5 18)"><text x="7.5" y="25" font-family="Virgil, Segoe UI Emoji" font-size="28px" fill="#000000" text-anchor="middle" style="white-space: pre;" direction="ltr">I</text></g><g transform="translate(571.5 22) rotate(0 8.5 18)"><text x="8.5" y="25" font-family="Virgil, Segoe UI Emoji" font-size="28px" fill="#000000" text-anchor="middle" style="white-space: pre;" direction="ltr">S</text></g><g transform="translate(571 82) rotate(0 9 18)"><text x="9" y="25" font-family="Virgil, Segoe UI Emoji" font-size="28px" fill="#000000" text-anchor="middle" style="white-space: pre;" direction="ltr">P</text></g><g transform="translate(573 142) rotate(0 7 18)"><text x="7" y="25" font-family="Virgil, Segoe UI Emoji" font-size="28px" fill="#000000" text-anchor="middle" style="white-space: pre;" direction="ltr">Y</text></g><g transform="translate(571 202) rotate(0 9 18)"><text x="9" y="25" font-family="Virgil, Segoe UI Emoji" font-size="28px" fill="#000000" text-anchor="middle" style="white-space: pre;" direction="ltr">R</text></g><g transform="translate(570 262) rotate(0 10 18)"><text x="10" y="25" font-family="Virgil, Segoe UI Emoji" font-size="28px" fill="#000000" text-anchor="middle" style="white-space: pre;" direction="ltr">O</text></g><g transform="translate(510 142) rotate(0 10 18)"><text x="10" y="25" font-family="Virgil, Segoe UI Emoji" font-size="28px" fill="#000000" text-anchor="middle" style="white-space: pre;" direction="ltr">M</text></g><g transform="translate(631.5 142) rotate(0 8.5 18)"><text x="8.5" y="25" font-family="Virgil, Segoe UI Emoji" font-size="28px" fill="#000000" text-anchor="middle" style="white-space: pre;" direction="ltr">S</text></g><g transform="translate(687 142) rotate(0 13 18)"><text x="13" y="25" font-family="Virgil, Segoe UI Emoji" font-size="28px" fill="#000000" text-anchor="middle" style="white-space: pre;" direction="ltr">T</text></g><g transform="translate(691.5 82) rotate(0 8.5 18)"><text x="8.5" y="25" font-family="Virgil, Segoe UI Emoji" font-size="28px" fill="#000000" text-anchor="middle" style="white-space: pre;" direction="ltr">S</text></g><g transform="translate(691 202) rotate(0 9 18)"><text x="9" y="25" font-family="Virgil, Segoe UI Emoji" font-size="28px" fill="#000000" text-anchor="middle" style="white-space: pre;" direction="ltr">A</text></g><g transform="translate(691 262) rotate(0 9 18)"><text x="9" y="25" font-family="Virgil, Segoe UI Emoji" font-size="28px" fill="#000000" text-anchor="middle" style="white-space: pre;" direction="ltr">R</text></g><g transform="translate(688.5 322) rotate(0 11.5 18)"><text x="11.5" y="25" font-family="Virgil, Segoe UI Emoji" font-size="28px" fill="#000000" text-anchor="middle" style="white-space: pre;" direction="ltr">C</text></g><g transform="translate(690 382) rotate(0 10 18)"><text x="10" y="25" font-family="Virgil, Segoe UI Emoji" font-size="28px" fill="#000000" text-anchor="middle" style="white-space: pre;" direction="ltr">O</text></g><g transform="translate(687 502) rotate(0 13 18)"><text x="13" y="25" font-family="Virgil, Segoe UI Emoji" font-size="28px" fill="#000000" text-anchor="middle" style="white-space: pre;" direction="ltr">T</text></g><g transform="translate(691 562) rotate(0 9 18)"><text x="9" y="25" font-family="Virgil, Segoe UI Emoji" font-size="28px" fill="#000000" text-anchor="middle" style="white-space: pre;" direction="ltr">R</text></g><g transform="translate(690 622) rotate(0 10 18)"><text x="10" y="25" font-family="Virgil, Segoe UI Emoji" font-size="28px" fill="#000000" text-anchor="middle" style="white-space: pre;" direction="ltr">O</text></g><g transform="translate(691.5 682) rotate(0 8.5 18)"><text x="8.5" y="25" font-family="Virgil, Segoe UI Emoji" font-size="28px" fill="#000000" text-anchor="middle" style="white-space: pre;" direction="ltr">L</text></g></svg>