<svg version="1.1" xmlns="http://www.w3.org/2000/svg" viewBox="0 0 900 766">
  <!-- svg-source:excalidraw -->
  <defs>
    <style>
      @font-face {
        font-family: "Virgil";
        src: url("https://excalidraw.com/FG_Virgil.woff2");
      }
      @font-face {
        font-family: "Cascadia";
        src: url("https://excalidraw.com/Cascadia.woff2");
      }
    </style>
  </defs>
  <rect x="0" y="0" width="900" height="766" fill="#ffffff"></rect><g transform="translate(90 50) rotate(0 30 180)"><path d="M0 0 C22.203025577589873 0, 44.406051155179746 0, 60 0 M0 0 C23.854761751368645 0, 47.70952350273729 0, 60 0 M60 0 C60 111.58428059890866, 60 223.16856119781733, 60 360 M60 0 C60 99.63155920431018, 60 199.26311840862036, 60 360 M60 360 C38.22321784682572 360, 16.446435693651438 360, 0 360 M60 360 C44.58050414733589 360, 29.161008294671767 360, 0 360 M0 360 C0 272.0847140662372, 0 184.1694281324744, 0 0 M0 360 C0 281.88034288957715, 0 203.76068577915427, 0 0" stroke="#000000" stroke-width="1" fill="none"></path></g><g transform="translate(210 50) rotate(0 70 30)"><path d="M0 0 C47.51081231795252 0, 95.02162463590504 0, 140 0 M0 0 C35.07888483442367 0, 70.15776966884734 0, 140 0 M140 0 C140 15.973023472353816, 140 31.946046944707632, 140 60 M140 0 C140 13.051483483985068, 140 26.102966967970136, 140 60 M140 60 C92.39497240819037 60, 44.789944816380725 60, 0 60 M140 60 C98.24504197202623 60, 56.49008394405246 60, 0 60 M0 60 C0 36.37310749478638, 0 12.746214989572756, 0 0 M0 60 C0 38.5921297352761, 0 17.184259470552206, 0 0" stroke="#000000" stroke-width="1" fill="none"></path></g><g transform="translate(231 57) rotate(0 49 23)"><text x="49" y="32" font-family="Virgil, Segoe UI Emoji" font-size="36px" fill="#000000" text-anchor="middle" style="white-space: pre;" direction="ltr">FFVII</text></g><g transform="translate(210 150) rotate(0 70 30)"><path d="M0 0 C37.00518677197397 0, 74.01037354394794 0, 140 0 M0 0 C49.033127361908555 0, 98.06625472381711 0, 140 0 M140 0 C140 17.920279501006007, 140 35.840559002012014, 140 60 M140 0 C140 18.760459335520864, 140 37.52091867104173, 140 60 M140 60 C98.23995723761618 60, 56.47991447523235 60, 0 60 M140 60 C97.36861545406282 60, 54.73723090812564 60, 0 60 M0 60 C0 40.82015764899552, 0 21.640315297991037, 0 0 M0 60 C0 37.74269291572273, 0 15.485385831445456, 0 0" stroke="#000000" stroke-width="1" fill="none"></path></g><g transform="translate(228 157) rotate(0 52 23)"><text x="52" y="32" font-family="Virgil, Segoe UI Emoji" font-size="36px" fill="#000000" text-anchor="middle" style="white-space: pre;" direction="ltr">CLAW</text></g><g transform="translate(210 290) rotate(0 100 30)"><path d="M0 0 C59.819143805652864 0, 119.63828761130573 0, 200 0 M0 0 C63.35171332582832 0, 126.70342665165664 0, 200 0 M200 0 C200 15.749523399397734, 200 31.49904679879547, 200 60 M200 0 C200 18.187986524775624, 200 36.37597304955125, 200 60 M200 60 C135.87309857830405 60, 71.7461971566081 60, 0 60 M200 60 C150.98207959905267 60, 101.96415919810534 60, 0 60 M0 60 C0 45.56597173400223, 0 31.131943468004465, 0 0 M0 60 C0 42.98742219619453, 0 25.974844392389052, 0 0" stroke="#000000" stroke-width="1" fill="none"></path></g><g transform="translate(230 294) rotate(0 83 23)"><text x="83" y="32" font-family="Virgil, Segoe UI Emoji" font-size="36px" fill="#000000" text-anchor="middle" style="white-space: pre;" direction="ltr">GOBLINS</text></g><g transform="translate(48.16666666666674 208.5) rotate(270 81.5 23)"><text x="81.5" y="32" font-family="Virgil, Segoe UI Emoji" font-size="36px" fill="#000000" text-anchor="middle" style="white-space: pre;" direction="ltr">FALLOUT</text></g><g><g transform="translate(150 70) rotate(0 30 0)"><path d="M0 0 C10 0, 50 0, 60 0 M0 0 C10 0, 50 0, 60 0" stroke="#000000" stroke-width="1" fill="none"></path></g></g><g><g transform="translate(210 190) rotate(0 -30 0)"><path d="M0 0 C-10 0, -50 0, -60 0 M0 0 C-10 0, -50 0, -60 0" stroke="#000000" stroke-width="1" fill="none"></path></g></g><g><g transform="translate(150 310) rotate(0 30 0)"><path d="M0 0 C10 0, 50 0, 60 0 M0 0 C10 0, 50 0, 60 0" stroke="#000000" stroke-width="1" fill="none"></path></g></g><g transform="translate(490 30) rotate(0 30 160)"><path d="M0 0 C15.62290972284973 0, 31.24581944569946 0, 60 0 M0 0 C21.94315263815224 0, 43.88630527630448 0, 60 0 M60 0 C60 64.68341508507729, 60 129.36683017015457, 60 320 M60 0 C60 76.3075130879879, 60 152.6150261759758, 60 320 M60 320 C40.525978507474065 320, 21.05195701494813 320, 0 320 M60 320 C41.947630075737834 320, 23.895260151475668 320, 0 320 M0 320 C0 227.00211462378502, 0 134.00422924757004, 0 0 M0 320 C0 239.64919963479042, 0 159.2983992695808, 0 0" stroke="#000000" stroke-width="1" fill="none"></path></g><g transform="translate(446 167) rotate(270 74 23)"><text x="74" y="32" font-family="Virgil, Segoe UI Emoji" font-size="36px" fill="#000000" text-anchor="middle" style="white-space: pre;" direction="ltr">GIANTS</text></g><g><g transform="translate(410 310) rotate(0 40 0)"><path d="M0 0 C13.333333333333334 0, 66.66666666666667 0, 80 0 M0 0 C13.333333333333334 0, 66.66666666666667 0, 80 0" stroke="#000000" stroke-width="1" fill="none"></path></g></g><g transform="translate(610 10) rotate(0 80 20)"><path d="M0 0 C60.54322655498982 0, 121.08645310997964 0, 160 0 M0 0 C44.891751691699035 0, 89.78350338339807 0, 160 0 M160 0 C160 8.224192339926958, 160 16.448384679853916, 160 40 M160 0 C160 9.491659384220839, 160 18.983318768441677, 160 40 M160 40 C107.00876681506634 40, 54.017533630132675 40, 0 40 M160 40 C110.10784490406513 40, 60.215689808130264 40, 0 40 M0 40 C0 26.412364047020674, 0 12.824728094041348, 0 0 M0 40 C0 28.333045978099108, 0 16.666091956198215, 0 0" stroke="#000000" stroke-width="1" fill="none"></path></g><g transform="translate(630 10) rotate(0 52 23)"><text x="52" y="32" font-family="Virgil, Segoe UI Emoji" font-size="36px" fill="#000000" text-anchor="middle" style="white-space: pre;" direction="ltr">ZORK</text></g><g transform="translate(630 410) rotate(0 130 30)"><path d="M0 0 C68.89794897846878 0, 137.79589795693755 0, 260 0 M0 0 C63.21733346767724 0, 126.43466693535449 0, 260 0 M260 0 C260 20.329229744151235, 260 40.65845948830247, 260 60 M260 0 C260 13.57004421763122, 260 27.14008843526244, 260 60 M260 60 C205.6371811646968 60, 151.27436232939363 60, 0 60 M260 60 C163.9606082122773 60, 67.92121642455456 60, 0 60 M0 60 C0 37.64590737037361, 0 15.291814740747206, 0 0 M0 60 C0 39.369829120114446, 0 18.73965824022889, 0 0" stroke="#000000" stroke-width="1" fill="none"></path></g><g transform="translate(683 417) rotate(0 77 23)"><text x="77" y="32" font-family="Virgil, Segoe UI Emoji" font-size="36px" fill="#000000" text-anchor="middle" style="white-space: pre;" direction="ltr">TETRIS</text></g><g transform="translate(230 430) rotate(0 80 30)"><path d="M0 0 C51.297223970294006 0, 102.59444794058801 0, 160 0 M0 0 C63.79417641460896 0, 127.58835282921792 0, 160 0 M160 0 C160 17.21845773048699, 160 34.43691546097398, 160 60 M160 0 C160 13.525228081271052, 160 27.050456162542105, 160 60 M160 60 C106.57136066257954 60, 53.14272132515907 60, 0 60 M160 60 C96.9772993773222 60, 33.954598754644394 60, 0 60 M0 60 C0 44.610706178471446, 0 29.221412356942892, 0 0 M0 60 C0 45.44648271985352, 0 30.89296543970704, 0 0" stroke="#000000" stroke-width="1" fill="none"></path></g><g transform="translate(261 437) rotate(0 49 23)"><text x="49" y="32" font-family="Virgil, Segoe UI Emoji" font-size="36px" fill="#000000" text-anchor="middle" style="white-space: pre;" direction="ltr">MYST</text></g><g transform="translate(490 470) rotate(0 30 140)"><path d="M0 0 C18.197923181578517 0, 36.395846363157034 0, 60 0 M0 0 C20.227559002116323 0, 40.455118004232645 0, 60 0 M60 0 C60 90.51415080949664, 60 181.02830161899328, 60 280 M60 0 C60 60.30097614601255, 60 120.6019522920251, 60 280 M60 280 C44.406497122719884 280, 28.81299424543976 280, 0 280 M60 280 C41.421864001080394 280, 22.84372800216078 280, 0 280 M0 280 C0 187.07258801534772, 0 94.14517603069544, 0 0 M0 280 C0 206.10991610214114, 0 132.21983220428228, 0 0" stroke="#000000" stroke-width="1" fill="none"></path></g><g transform="translate(423.5 589.5) rotate(270 102.5 23)"><text x="102.5" y="32" font-family="Virgil, Segoe UI Emoji" font-size="36px" fill="#000000" text-anchor="middle" style="white-space: pre;" direction="ltr">SETTLERS</text></g><g><g transform="translate(410 350) rotate(0 50 60)"><path d="M0 0 C16.666666666666668 20, 83.33333333333333 100, 100 120 M0 0 C16.666666666666668 20, 83.33333333333333 100, 100 120" stroke="#000000" stroke-width="1" fill="none"></path></g></g><g><g transform="translate(550 310) rotate(0 40 60)"><path d="M0 0 C13.333333333333334 20, 66.66666666666667 100, 80 120 M0 0 C13.333333333333334 20, 66.66666666666667 100, 80 120" stroke="#000000" stroke-width="1" fill="none"></path></g></g><g><g transform="translate(550 490) rotate(0 40 -20)"><path d="M0 0 C13.333333333333334 -6.666666666666667, 66.66666666666667 -33.333333333333336, 80 -40 M0 0 C13.333333333333334 -6.666666666666667, 66.66666666666667 -33.333333333333336, 80 -40" stroke="#000000" stroke-width="1" fill="none"></path></g></g><g><g transform="translate(390 450) rotate(0 60 -50)"><path d="M0 0 C20 -16.666666666666668, 100 -83.33333333333333, 120 -100 M0 0 C20 -16.666666666666668, 100 -83.33333333333333, 120 -100" stroke="#000000" stroke-width="1" fill="none"></path></g></g><g><g transform="translate(390 450) rotate(0 50 40)"><path d="M0 0 C16.666666666666668 13.333333333333334, 83.33333333333333 66.66666666666667, 100 80 M0 0 C16.666666666666668 13.333333333333334, 83.33333333333333 66.66666666666667, 100 80" stroke="#000000" stroke-width="1" fill="none"></path></g></g><g transform="translate(690 110) rotate(0 20 100)"><path d="M0 0 C11.269898872822523 0, 22.539797745645046 0, 40 0 M0 0 C14.35674150660634 0, 28.71348301321268 0, 40 0 M40 0 C40 64.54927613958716, 40 129.09855227917433, 40 200 M40 0 C40 42.1839795447886, 40 84.3679590895772, 40 200 M40 200 C24.61143185570836 200, 9.222863711416718 200, 0 200 M40 200 C31.396552246063948 200, 22.793104492127895 200, 0 200 M0 200 C0 120.27901599183679, 0 40.55803198367357, 0 0 M0 200 C0 140.2178575657308, 0 80.43571513146162, 0 0" stroke="#000000" stroke-width="1" fill="none"></path></g><g transform="translate(830 110) rotate(0 30 110)"><path d="M0 0 C23.312331112101674 0, 46.62466222420335 0, 60 0 M0 0 C20.235159097239375 0, 40.47031819447875 0, 60 0 M60 0 C60 66.64677347429098, 60 133.29354694858196, 60 220 M60 0 C60 76.8857624065131, 60 153.7715248130262, 60 220 M60 220 C47.26861044578254 220, 34.537220891565084 220, 0 220 M60 220 C46.435335578396916 220, 32.87067115679383 220, 0 220 M0 220 C0 149.68669055216014, 0 79.37338110432026, 0 0 M0 220 C0 160.46554415114224, 0 100.93108830228446, 0 0" stroke="#000000" stroke-width="1" fill="none"></path></g><g><g transform="translate(710 50) rotate(0 0 30)"><path d="M0 0 C0 10, 0 50, 0 60 M0 0 C0 10, 0 50, 0 60" stroke="#000000" stroke-width="1" fill="none"></path></g></g><g><g transform="translate(710 310) rotate(0 0 50)"><path d="M0 0 C0 16.666666666666668, 0 83.33333333333333, 0 100 M0 0 C0 16.666666666666668, 0 83.33333333333333, 0 100" stroke="#000000" stroke-width="1" fill="none"></path></g></g><g><g transform="translate(870 330) rotate(0 0 40)"><path d="M0 0 C0 13.333333333333334, 0 66.66666666666667, 0 80 M0 0 C0 13.333333333333334, 0 66.66666666666667, 0 80" stroke="#000000" stroke-width="1" fill="none"></path></g></g><g transform="translate(310 550) rotate(0 30 90)"><path d="M0 0 C13.88882443495095 0, 27.7776488699019 0, 60 0 M0 0 C15.506904719397426 0, 31.01380943879485 0, 60 0 M60 0 C60 71.53316197358072, 60 143.06632394716144, 60 180 M60 0 C60 49.69229167141021, 60 99.38458334282042, 60 180 M60 180 C42.69215908460319 180, 25.384318169206374 180, 0 180 M60 180 C39.697788717225194 180, 19.395577434450388 180, 0 180 M0 180 C0 120.08291556872427, 0 60.165831137448535, 0 0 M0 180 C0 136.02028030715883, 0 92.04056061431766, 0 0" stroke="#000000" stroke-width="1" fill="none"></path></g><g><g transform="translate(350 490) rotate(0 0 30)"><path d="M0 0 C0 10, 0 50, 0 60 M0 0 C0 10, 0 50, 0 60" stroke="#000000" stroke-width="1" fill="none"></path></g></g><g transform="translate(90 570) rotate(0 80 20)"><path d="M0 0 C46.154242441058166 0, 92.30848488211633 0, 160 0 M0 0 C54.13923008739948 0, 108.27846017479897 0, 160 0 M160 0 C160 13.314907651394607, 160 26.629815302789215, 160 40 M160 0 C160 9.773271042853594, 160 19.546542085707188, 160 40 M160 40 C112.41179092228413 40, 64.82358184456825 40, 0 40 M160 40 C107.05296103656292 40, 54.105922073125825 40, 0 40 M0 40 C0 31.625283855944872, 0 23.250567711889744, 0 0 M0 40 C0 31.9515574388206, 0 23.9031148776412, 0 0" stroke="#000000" stroke-width="1" fill="none"></path></g><g transform="translate(114 567) rotate(0 56 23)"><text x="56" y="32" font-family="Virgil, Segoe UI Emoji" font-size="36px" fill="#000000" text-anchor="middle" style="white-space: pre;" direction="ltr">LARRY</text></g><g transform="translate(150 690) rotate(0 60 30)"><path d="M0 0 C42.86681329831481 0, 85.73362659662962 0, 120 0 M0 0 C25.340045157819986 0, 50.68009031563997 0, 120 0 M120 0 C120 15.605267046019438, 120 31.210534092038877, 120 60 M120 0 C120 18.83780852146447, 120 37.67561704292894, 120 60 M120 60 C77.75150454416871 60, 35.50300908833742 60, 0 60 M120 60 C85.68274646624923 60, 51.36549293249844 60, 0 60 M0 60 C0 40.885444762185216, 0 21.770889524370432, 0 0 M0 60 C0 40.139190165326, 0 20.278380330652, 0 0" stroke="#000000" stroke-width="1" fill="none"></path></g><g transform="translate(176 697) rotate(0 34 23)"><text x="34" y="32" font-family="Virgil, Segoe UI Emoji" font-size="36px" fill="#000000" text-anchor="middle" style="white-space: pre;" direction="ltr">NOX</text></g><g><g transform="translate(250 590) rotate(0 30 0)"><path d="M0 0 C10 0, 50 0, 60 0 M0 0 C10 0, 50 0, 60 0" stroke="#000000" stroke-width="1" fill="none"></path></g></g><g><g transform="translate(270 710) rotate(0 20 0)"><path d="M0 0 C6.666666666666667 0, 33.333333333333336 0, 40 0 M0 0 C6.666666666666667 0, 33.333333333333336 0, 40 0" stroke="#000000" stroke-width="1" fill="none"></path></g></g><g transform="translate(10 470) rotate(0 30 120)"><path d="M0 0 C12.0726638417691 0, 24.1453276835382 0, 60 0 M0 0 C22.69588455744088 0, 45.39176911488176 0, 60 0 M60 0 C60 84.60611819475889, 60 169.21223638951778, 60 240 M60 0 C60 76.29199279099704, 60 152.58398558199409, 60 240 M60 240 C41.72741609998047 240, 23.454832199960947 240, 0 240 M60 240 C37.91614296846092 240, 15.832285936921835 240, 0 240 M0 240 C0 185.41611624509096, 0 130.83223249018192, 0 0 M0 240 C0 188.0165756866336, 0 136.03315137326717, 0 0" stroke="#000000" stroke-width="1" fill="none"></path></g><g transform="translate(-21.166666666666515 578.7222222222222) rotate(270 67.5 23)"><text x="67.5" y="32" font-family="Virgil, Segoe UI Emoji" font-size="36px" fill="#000000" text-anchor="middle" style="white-space: pre;" direction="ltr">BLOOD</text></g><g><g transform="translate(70 590) rotate(0 10 0)"><path d="M0 0 C3.3333333333333335 0, 16.666666666666668 0, 20 0 M0 0 C3.3333333333333335 0, 16.666666666666668 0, 20 0" stroke="#000000" stroke-width="1" fill="none"></path></g></g><g transform="translate(590 595) rotate(0 100 20)"><path d="M0 0 C49.45695927366614 0, 98.91391854733229 0, 200 0 M0 0 C70.8519838191569 0, 141.7039676383138 0, 200 0 M200 0 C200 11.99201486632228, 200 23.98402973264456, 200 40 M200 0 C200 15.193776208907366, 200 30.38755241781473, 200 40 M200 40 C151.09681198373437 40, 102.19362396746874 40, 0 40 M200 40 C157.81534096226096 40, 115.63068192452192 40, 0 40 M0 40 C0 31.81317450478673, 0 23.62634900957346, 0 0 M0 40 C0 28.504311244934797, 0 17.008622489869595, 0 0" stroke="#000000" stroke-width="1" fill="none"></path></g><g transform="translate(597 592) rotate(0 93 23)"><text x="93" y="32" font-family="Virgil, Segoe UI Emoji" font-size="36px" fill="#000000" text-anchor="middle" style="white-space: pre;" direction="ltr">METROID</text></g><g transform="translate(590 690) rotate(0 100 30)"><path d="M0 0 C47.47277369722725 0, 94.9455473944545 0, 200 0 M0 0 C40.53761402145029 0, 81.07522804290058 0, 200 0 M200 0 C200 21.96054426021874, 200 43.92108852043748, 200 60 M200 0 C200 18.6851248126477, 200 37.3702496252954, 200 60 M200 60 C152.5259972549975 60, 105.05199450999498 60, 0 60 M200 60 C120.80446204170585 60, 41.608924083411694 60, 0 60 M0 60 C0 39.22392818145454, 0 18.44785636290908, 0 0 M0 60 C0 39.86304015107453, 0 19.726080302149057, 0 0" stroke="#000000" stroke-width="1" fill="none"></path></g><g transform="translate(630 710) rotate(0 56.5 23)"><text x="56.5" y="32" font-family="Virgil, Segoe UI Emoji" font-size="36px" fill="#000000" text-anchor="middle" style="white-space: pre;" direction="ltr">SPYRO</text></g><g><g transform="translate(550 612) rotate(0 20 0)"><path d="M0 0 C6.666666666666667 0, 33.333333333333336 0, 40 0 M0 0 C6.666666666666667 0, 33.333333333333336 0, 40 0" stroke="#000000" stroke-width="1" fill="none"></path></g></g><g><g transform="translate(550 710) rotate(0 20 0)"><path d="M0 0 C6.666666666666667 0, 33.333333333333336 0, 40 0 M0 0 C6.666666666666667 0, 33.333333333333336 0, 40 0" stroke="#000000" stroke-width="1" fill="none"></path></g></g><g transform="translate(830 510) rotate(0 30 80)"><path d="M0 0 C17.298269687220454 0, 34.59653937444091 0, 60 0 M0 0 C22.830273600295186 0, 45.66054720059037 0, 60 0 M60 0 C60 59.101265266537666, 60 118.20253053307533, 60 160 M60 0 C60 40.44330160319806, 60 80.88660320639612, 60 160 M60 160 C44.752519788220525 160, 29.505039576441046 160, 0 160 M60 160 C45.1100238841027 160, 30.220047768205404 160, 0 160 M0 160 C0 103.68693415820599, 0 47.37386831641196, 0 0 M0 160 C0 120.06422956287861, 0 80.12845912575722, 0 0" stroke="#000000" stroke-width="1" fill="none"></path></g><g transform="translate(670 510) rotate(0 60 20)"><path d="M0 0 C33.42025553807616 0, 66.84051107615232 0, 120 0 M0 0 C33.864220563322306 0, 67.72844112664461 0, 120 0 M120 0 C120 12.48157985880971, 120 24.96315971761942, 120 40 M120 0 C120 12.340612273663282, 120 24.681224547326565, 120 40 M120 40 C90.55113542452455 40, 61.102270849049084 40, 0 40 M120 40 C91.91316395625472 40, 63.826327912509434 40, 0 40 M0 40 C0 27.509964626282454, 0 15.019929252564907, 0 0 M0 40 C0 28.799393076449633, 0 17.59878615289926, 0 0" stroke="#000000" stroke-width="1" fill="none"></path></g><g transform="translate(678.5 507) rotate(0 51.5 23)"><text x="51.5" y="32" font-family="Virgil, Segoe UI Emoji" font-size="36px" fill="#000000" text-anchor="middle" style="white-space: pre;" direction="ltr">DUNE</text></g><g><g transform="translate(790 530) rotate(0 20 0)"><path d="M0 0 C6.666666666666667 0, 33.333333333333336 0, 40 0 M0 0 C6.666666666666667 0, 33.333333333333336 0, 40 0" stroke="#000000" stroke-width="1" fill="none"></path></g></g><g><g transform="translate(790 610) rotate(0 20 0)"><path d="M0 0 C6.666666666666667 0, 33.333333333333336 0, 40 0 M0 0 C6.666666666666667 0, 33.333333333333336 0, 40 0" stroke="#000000" stroke-width="1" fill="none"></path></g></g><g transform="translate(790 570) rotate(270 67 23)"><text x="67" y="32" font-family="Virgil, Segoe UI Emoji" font-size="36px" fill="#000000" text-anchor="middle" style="white-space: pre;" direction="ltr">ZELDA</text></g><g transform="translate(637 187) rotate(270 73 23)"><text x="73" y="32" font-family="Virgil, Segoe UI Emoji" font-size="36px" fill="#000000" text-anchor="middle" style="white-space: pre;" direction="ltr">RAPTOR</text></g><g transform="translate(797.5 197) rotate(270 62.5 23)"><text x="62.5" y="32" font-family="Virgil, Segoe UI Emoji" font-size="36px" fill="#000000" text-anchor="middle" style="white-space: pre;" direction="ltr">LOTUS</text></g><g transform="translate(281 617) rotate(270 59 23)"><text x="59" y="32" font-family="Virgil, Segoe UI Emoji" font-size="36px" fill="#000000" text-anchor="middle" style="white-space: pre;" direction="ltr">MARIO</text></g></svg>