<?xml version="1.0" encoding="UTF-8"?>
<svg width="720px" height="720px" viewBox="0 0 720 720" version="1.1" xmlns="http://www.w3.org/2000/svg" xmlns:xlink="http://www.w3.org/1999/xlink">
    <!-- Generator: Sketch 54.1 (76490) - https://sketchapp.com -->
    <title>q95</title>
    <desc>Created with Sketch.</desc>
    <g id="q95" stroke="none" stroke-width="1" fill="none" fill-rule="evenodd">
        <g id="Group-10" transform="translate(0.000000, 0.000000)" stroke="#CCCCCC">
            <rect id="Rectangle" x="60" y="0" width="60" height="60"></rect>
            <rect id="Rectangle-Copy-72" x="60" y="360" width="60" height="60"></rect>
            <rect id="Rectangle-Copy-36" x="60" y="180" width="60" height="60"></rect>
            <rect id="Rectangle-Copy-73" x="60" y="540" width="60" height="60"></rect>
            <rect id="Rectangle-Copy-12" x="60" y="60" width="60" height="60"></rect>
            <rect id="Rectangle-Copy-74" x="60" y="420" width="60" height="60"></rect>
            <rect id="Rectangle-Copy-37" x="60" y="240" width="60" height="60"></rect>
            <rect id="Rectangle-Copy-75" x="60" y="600" width="60" height="60"></rect>
            <rect id="Rectangle-Copy-24" x="60" y="120" width="60" height="60"></rect>
            <rect id="Rectangle-Copy-76" x="60" y="480" width="60" height="60"></rect>
            <rect id="Rectangle-Copy-38" x="60" y="300" width="60" height="60"></rect>
            <rect id="Rectangle-Copy-77" x="60" y="660" width="60" height="60"></rect>
            <rect id="Rectangle-Copy-2" x="180" y="0" width="60" height="60"></rect>
            <rect id="Rectangle-Copy-78" x="180" y="360" width="60" height="60"></rect>
            <rect id="Rectangle-Copy-39" x="180" y="180" width="60" height="60"></rect>
            <rect id="Rectangle-Copy-79" x="180" y="540" width="60" height="60"></rect>
            <rect id="Rectangle-Copy-13" x="180" y="60" width="60" height="60"></rect>
            <rect id="Rectangle-Copy-80" x="180" y="420" width="60" height="60"></rect>
            <rect id="Rectangle-Copy-40" x="180" y="240" width="60" height="60"></rect>
            <rect id="Rectangle-Copy-81" x="180" y="600" width="60" height="60"></rect>
            <rect id="Rectangle-Copy-25" x="180" y="120" width="60" height="60"></rect>
            <rect id="Rectangle-Copy-82" x="180" y="480" width="60" height="60"></rect>
            <rect id="Rectangle-Copy-41" x="180" y="300" width="60" height="60"></rect>
            <rect id="Rectangle-Copy-83" x="180" y="660" width="60" height="60"></rect>
            <rect id="Rectangle-Copy-4" x="300" y="0" width="60" height="60"></rect>
            <rect id="Rectangle-Copy-84" x="300" y="360" width="60" height="60"></rect>
            <rect id="Rectangle-Copy-42" x="300" y="180" width="60" height="60"></rect>
            <rect id="Rectangle-Copy-85" x="300" y="540" width="60" height="60"></rect>
            <rect id="Rectangle-Copy-14" x="300" y="60" width="60" height="60"></rect>
            <rect id="Rectangle-Copy-86" x="300" y="420" width="60" height="60"></rect>
            <rect id="Rectangle-Copy-43" x="300" y="240" width="60" height="60"></rect>
            <rect id="Rectangle-Copy-87" x="300" y="600" width="60" height="60"></rect>
            <rect id="Rectangle-Copy-26" x="300" y="120" width="60" height="60"></rect>
            <rect id="Rectangle-Copy-88" x="300" y="480" width="60" height="60"></rect>
            <rect id="Rectangle-Copy-44" x="300" y="300" width="60" height="60"></rect>
            <rect id="Rectangle-Copy-89" x="300" y="660" width="60" height="60"></rect>
            <rect id="Rectangle-Copy-6" x="420" y="0" width="60" height="60"></rect>
            <rect id="Rectangle-Copy-90" x="420" y="360" width="60" height="60"></rect>
            <rect id="Rectangle-Copy-45" x="420" y="180" width="60" height="60"></rect>
            <rect id="Rectangle-Copy-91" x="420" y="540" width="60" height="60"></rect>
            <rect id="Rectangle-Copy-15" x="420" y="60" width="60" height="60"></rect>
            <rect id="Rectangle-Copy-92" x="420" y="420" width="60" height="60"></rect>
            <rect id="Rectangle-Copy-46" x="420" y="240" width="60" height="60"></rect>
            <rect id="Rectangle-Copy-93" x="420" y="600" width="60" height="60"></rect>
            <rect id="Rectangle-Copy-27" x="420" y="120" width="60" height="60"></rect>
            <rect id="Rectangle-Copy-94" x="420" y="480" width="60" height="60"></rect>
            <rect id="Rectangle-Copy-47" x="420" y="300" width="60" height="60"></rect>
            <rect id="Rectangle-Copy-95" x="420" y="660" width="60" height="60"></rect>
            <rect id="Rectangle-Copy-8" x="540" y="0" width="60" height="60"></rect>
            <rect id="Rectangle-Copy-96" x="540" y="360" width="60" height="60"></rect>
            <rect id="Rectangle-Copy-48" x="540" y="180" width="60" height="60"></rect>
            <rect id="Rectangle-Copy-97" x="540" y="540" width="60" height="60"></rect>
            <rect id="Rectangle-Copy-16" x="540" y="60" width="60" height="60"></rect>
            <rect id="Rectangle-Copy-98" x="540" y="420" width="60" height="60"></rect>
            <rect id="Rectangle-Copy-49" x="540" y="240" width="60" height="60"></rect>
            <rect id="Rectangle-Copy-99" x="540" y="600" width="60" height="60"></rect>
            <rect id="Rectangle-Copy-28" x="540" y="120" width="60" height="60"></rect>
            <rect id="Rectangle-Copy-100" x="540" y="480" width="60" height="60"></rect>
            <rect id="Rectangle-Copy-50" x="540" y="300" width="60" height="60"></rect>
            <rect id="Rectangle-Copy-101" x="540" y="660" width="60" height="60"></rect>
            <rect id="Rectangle-Copy-10" x="660" y="0" width="60" height="60"></rect>
            <rect id="Rectangle-Copy-102" x="660" y="360" width="60" height="60"></rect>
            <rect id="Rectangle-Copy-51" x="660" y="180" width="60" height="60"></rect>
            <rect id="Rectangle-Copy-103" x="660" y="540" width="60" height="60"></rect>
            <rect id="Rectangle-Copy-17" x="660" y="60" width="60" height="60"></rect>
            <rect id="Rectangle-Copy-104" x="660" y="420" width="60" height="60"></rect>
            <rect id="Rectangle-Copy-52" x="660" y="240" width="60" height="60"></rect>
            <rect id="Rectangle-Copy-105" x="660" y="600" width="60" height="60"></rect>
            <rect id="Rectangle-Copy-29" x="660" y="120" width="60" height="60"></rect>
            <rect id="Rectangle-Copy-106" x="660" y="480" width="60" height="60"></rect>
            <rect id="Rectangle-Copy-53" x="660" y="300" width="60" height="60"></rect>
            <rect id="Rectangle-Copy-107" x="660" y="660" width="60" height="60"></rect>
            <rect id="Rectangle-Copy" x="0" y="0" width="60" height="60"></rect>
            <rect id="Rectangle-Copy-108" x="0" y="360" width="60" height="60"></rect>
            <rect id="Rectangle-Copy-54" x="0" y="180" width="60" height="60"></rect>
            <rect id="Rectangle-Copy-109" x="0" y="540" width="60" height="60"></rect>
            <rect id="Rectangle-Copy-18" x="0" y="60" width="60" height="60"></rect>
            <rect id="Rectangle-Copy-110" x="0" y="420" width="60" height="60"></rect>
            <rect id="Rectangle-Copy-55" x="0" y="240" width="60" height="60"></rect>
            <rect id="Rectangle-Copy-111" x="0" y="600" width="60" height="60"></rect>
            <rect id="Rectangle-Copy-30" x="0" y="120" width="60" height="60"></rect>
            <rect id="Rectangle-Copy-112" x="0" y="480" width="60" height="60"></rect>
            <rect id="Rectangle-Copy-56" x="0" y="300" width="60" height="60"></rect>
            <rect id="Rectangle-Copy-113" x="0" y="660" width="60" height="60"></rect>
            <rect id="Rectangle-Copy-3" x="120" y="0" width="60" height="60"></rect>
            <rect id="Rectangle-Copy-114" x="120" y="360" width="60" height="60"></rect>
            <rect id="Rectangle-Copy-57" x="120" y="180" width="60" height="60"></rect>
            <rect id="Rectangle-Copy-115" x="120" y="540" width="60" height="60"></rect>
            <rect id="Rectangle-Copy-19" x="120" y="60" width="60" height="60"></rect>
            <rect id="Rectangle-Copy-116" x="120" y="420" width="60" height="60"></rect>
            <rect id="Rectangle-Copy-58" x="120" y="240" width="60" height="60"></rect>
            <rect id="Rectangle-Copy-117" x="120" y="600" width="60" height="60"></rect>
            <rect id="Rectangle-Copy-31" x="120" y="120" width="60" height="60"></rect>
            <rect id="Rectangle-Copy-118" x="120" y="480" width="60" height="60"></rect>
            <rect id="Rectangle-Copy-59" x="120" y="300" width="60" height="60"></rect>
            <rect id="Rectangle-Copy-119" x="120" y="660" width="60" height="60"></rect>
            <rect id="Rectangle-Copy-5" x="240" y="0" width="60" height="60"></rect>
            <rect id="Rectangle-Copy-120" x="240" y="360" width="60" height="60"></rect>
            <rect id="Rectangle-Copy-60" x="240" y="180" width="60" height="60"></rect>
            <rect id="Rectangle-Copy-121" x="240" y="540" width="60" height="60"></rect>
            <rect id="Rectangle-Copy-20" x="240" y="60" width="60" height="60"></rect>
            <rect id="Rectangle-Copy-122" x="240" y="420" width="60" height="60"></rect>
            <rect id="Rectangle-Copy-61" x="240" y="240" width="60" height="60"></rect>
            <rect id="Rectangle-Copy-123" x="240" y="600" width="60" height="60"></rect>
            <rect id="Rectangle-Copy-32" x="240" y="120" width="60" height="60"></rect>
            <rect id="Rectangle-Copy-124" x="240" y="480" width="60" height="60"></rect>
            <rect id="Rectangle-Copy-62" x="240" y="300" width="60" height="60"></rect>
            <rect id="Rectangle-Copy-125" x="240" y="660" width="60" height="60"></rect>
            <rect id="Rectangle-Copy-7" x="360" y="0" width="60" height="60"></rect>
            <rect id="Rectangle-Copy-126" x="360" y="360" width="60" height="60"></rect>
            <rect id="Rectangle-Copy-63" x="360" y="180" width="60" height="60"></rect>
            <rect id="Rectangle-Copy-127" x="360" y="540" width="60" height="60"></rect>
            <rect id="Rectangle-Copy-21" x="360" y="60" width="60" height="60"></rect>
            <rect id="Rectangle-Copy-128" x="360" y="420" width="60" height="60"></rect>
            <rect id="Rectangle-Copy-64" x="360" y="240" width="60" height="60"></rect>
            <rect id="Rectangle-Copy-129" x="360" y="600" width="60" height="60"></rect>
            <rect id="Rectangle-Copy-33" x="360" y="120" width="60" height="60"></rect>
            <rect id="Rectangle-Copy-130" x="360" y="480" width="60" height="60"></rect>
            <rect id="Rectangle-Copy-65" x="360" y="300" width="60" height="60"></rect>
            <rect id="Rectangle-Copy-131" x="360" y="660" width="60" height="60"></rect>
            <rect id="Rectangle-Copy-9" x="480" y="0" width="60" height="60"></rect>
            <rect id="Rectangle-Copy-132" x="480" y="360" width="60" height="60"></rect>
            <rect id="Rectangle-Copy-66" x="480" y="180" width="60" height="60"></rect>
            <rect id="Rectangle-Copy-133" x="480" y="540" width="60" height="60"></rect>
            <rect id="Rectangle-Copy-22" x="480" y="60" width="60" height="60"></rect>
            <rect id="Rectangle-Copy-134" x="480" y="420" width="60" height="60"></rect>
            <rect id="Rectangle-Copy-67" x="480" y="240" width="60" height="60"></rect>
            <rect id="Rectangle-Copy-135" x="480" y="600" width="60" height="60"></rect>
            <rect id="Rectangle-Copy-34" x="480" y="120" width="60" height="60"></rect>
            <rect id="Rectangle-Copy-136" x="480" y="480" width="60" height="60"></rect>
            <rect id="Rectangle-Copy-68" x="480" y="300" width="60" height="60"></rect>
            <rect id="Rectangle-Copy-137" x="480" y="660" width="60" height="60"></rect>
            <rect id="Rectangle-Copy-11" x="600" y="0" width="60" height="60"></rect>
            <rect id="Rectangle-Copy-138" x="600" y="360" width="60" height="60"></rect>
            <rect id="Rectangle-Copy-69" x="600" y="180" width="60" height="60"></rect>
            <rect id="Rectangle-Copy-139" x="600" y="540" width="60" height="60"></rect>
            <rect id="Rectangle-Copy-23" x="600" y="60" width="60" height="60"></rect>
            <rect id="Rectangle-Copy-140" x="600" y="420" width="60" height="60"></rect>
            <rect id="Rectangle-Copy-70" x="600" y="240" width="60" height="60"></rect>
            <rect id="Rectangle-Copy-141" x="600" y="600" width="60" height="60"></rect>
            <rect id="Rectangle-Copy-35" x="600" y="120" width="60" height="60"></rect>
            <rect id="Rectangle-Copy-142" x="600" y="480" width="60" height="60"></rect>
            <rect id="Rectangle-Copy-71" x="600" y="300" width="60" height="60"></rect>
            <rect id="Rectangle-Copy-143" x="600" y="660" width="60" height="60"></rect>
        </g>
        <g id="Group">
            <g id="Group-2">
                <rect id="Rectangle" stroke="#000000" fill="#FFFFFF" x="0" y="0" width="60" height="60"></rect>
                <text id="S" font-family="RobotoSlab-Regular, Roboto Slab" font-size="36" font-weight="normal" fill="#000000">
                    <tspan x="19.0400391" y="44">S</tspan>
                </text>
            </g>
            <g id="Group-2-Copy-7" transform="translate(420.000000, 0.000000)">
                <rect id="Rectangle" stroke="#000000" fill="#FFFFFF" x="0" y="0" width="60" height="60"></rect>
                <text id="S" font-family="RobotoSlab-Regular, Roboto Slab" font-size="36" font-weight="normal" fill="#000000">
                    <tspan x="19.0400391" y="44">S</tspan>
                </text>
            </g>
            <g id="Group-2-Copy-27" transform="translate(660.000000, 300.000000)">
                <rect id="Rectangle" stroke="#000000" fill="#FFFFFF" x="0" y="0" width="60" height="60"></rect>
                <text id="S" font-family="RobotoSlab-Regular, Roboto Slab" font-size="36" font-weight="normal" fill="#000000">
                    <tspan x="19.0400391" y="44">S</tspan>
                </text>
            </g>
            <g id="Group-2-Copy-37" transform="translate(300.000000, 420.000000)">
                <rect id="Rectangle" stroke="#000000" fill="#FFFFFF" x="0" y="0" width="60" height="60"></rect>
                <text id="S" font-family="RobotoSlab-Regular, Roboto Slab" font-size="36" font-weight="normal" fill="#000000">
                    <tspan x="19.0400391" y="44">S</tspan>
                </text>
            </g>
            <g id="Group-2-Copy-8" transform="translate(420.000000, 60.000000)">
                <rect id="Rectangle" stroke="#000000" fill="#FFFFFF" x="0" y="0" width="60" height="60"></rect>
                <text id="A" font-family="RobotoSlab-Regular, Roboto Slab" font-size="36" font-weight="normal" fill="#000000">
                    <tspan x="16.8164062" y="44">A</tspan>
                </text>
            </g>
            <g id="Group-2-Copy-20" transform="translate(540.000000, 120.000000)">
                <rect id="Rectangle" stroke="#000000" fill="#FFFFFF" x="0" y="0" width="60" height="60"></rect>
                <text id="A" font-family="RobotoSlab-Regular, Roboto Slab" font-size="36" font-weight="normal" fill="#000000">
                    <tspan x="16.8164062" y="44">A</tspan>
                </text>
            </g>
            <g id="Group-2-Copy-49" transform="translate(0.000000, 600.000000)">
                <rect id="Rectangle" stroke="#000000" fill="#FFFFFF" x="0" y="0" width="60" height="60"></rect>
                <text id="A" font-family="RobotoSlab-Regular, Roboto Slab" font-size="36" font-weight="normal" fill="#000000">
                    <tspan x="16.8164062" y="44">A</tspan>
                </text>
            </g>
            <g id="Group-2-Copy-77" transform="translate(120.000000, 420.000000)">
                <rect id="Rectangle" stroke="#000000" fill="#FFFFFF" x="0" y="0" width="60" height="60"></rect>
                <text id="A" font-family="RobotoSlab-Regular, Roboto Slab" font-size="36" font-weight="normal" fill="#000000">
                    <tspan x="16.8164062" y="44">A</tspan>
                </text>
            </g>
            <g id="Group-2-Copy-69" transform="translate(600.000000, 480.000000)">
                <rect id="Rectangle" stroke="#000000" fill="#FFFFFF" x="0" y="0" width="60" height="60"></rect>
                <text id="A" font-family="RobotoSlab-Regular, Roboto Slab" font-size="36" font-weight="normal" fill="#000000">
                    <tspan x="16.8164062" y="44">A</tspan>
                </text>
            </g>
            <g id="Group-2-Copy-30" transform="translate(540.000000, 180.000000)">
                <rect id="Rectangle" stroke="#000000" fill="#FFFFFF" x="0" y="0" width="60" height="60"></rect>
                <text id="K" font-family="RobotoSlab-Regular, Roboto Slab" font-size="36" font-weight="normal" fill="#000000">
                    <tspan x="17.2382812" y="44">K</tspan>
                </text>
            </g>
            <g id="Group-2-Copy-36" transform="translate(300.000000, 360.000000)">
                <rect id="Rectangle" stroke="#000000" fill="#FFFFFF" x="0" y="0" width="60" height="60"></rect>
                <text id="K" font-family="RobotoSlab-Regular, Roboto Slab" font-size="36" font-weight="normal" fill="#000000">
                    <tspan x="17.2382812" y="44">K</tspan>
                </text>
            </g>
            <g id="Group-2-Copy-66" transform="translate(360.000000, 660.000000)">
                <rect id="Rectangle" stroke="#000000" fill="#FFFFFF" x="0" y="0" width="60" height="60"></rect>
                <text id="K" font-family="RobotoSlab-Regular, Roboto Slab" font-size="36" font-weight="normal" fill="#000000">
                    <tspan x="17.2382812" y="44">K</tspan>
                </text>
            </g>
            <g id="Group-2-Copy-29" transform="translate(540.000000, 60.000000)">
                <rect id="Rectangle" stroke="#000000" fill="#FFFFFF" x="0" y="0" width="60" height="60"></rect>
                <text id="U" font-family="RobotoSlab-Regular, Roboto Slab" font-size="36" font-weight="normal" fill="#000000">
                    <tspan x="16.4560547" y="44">U</tspan>
                </text>
            </g>
            <g id="Group-2-Copy-28" transform="translate(540.000000, 0.000000)">
                <rect id="Rectangle" stroke="#000000" fill="#FFFFFF" x="0" y="0" width="60" height="60"></rect>
                <text id="Q" font-family="RobotoSlab-Regular, Roboto Slab" font-size="36" font-weight="normal" fill="#000000">
                    <tspan x="17.2910156" y="44">Q</tspan>
                </text>
            </g>
            <g id="Group-2-Copy-18" transform="translate(300.000000, 120.000000)">
                <rect id="Rectangle" stroke="#000000" fill="#FFFFFF" x="0" y="0" width="60" height="60"></rect>
                <text id="A" font-family="RobotoSlab-Regular, Roboto Slab" font-size="36" font-weight="normal" fill="#000000">
                    <tspan x="16.8164062" y="44">A</tspan>
                </text>
            </g>
            <g id="Group-2-Copy-33" transform="translate(300.000000, 180.000000)">
                <rect id="Rectangle" stroke="#000000" fill="#FFFFFF" x="0" y="0" width="60" height="60"></rect>
                <text id="P" font-family="RobotoSlab-Regular, Roboto Slab" font-size="36" font-weight="normal" fill="#000000">
                    <tspan x="18.5654297" y="44">P</tspan>
                </text>
            </g>
            <g id="Group-2-Copy-34" transform="translate(300.000000, 240.000000)">
                <rect id="Rectangle" stroke="#000000" fill="#FFFFFF" x="0" y="0" width="60" height="60"></rect>
                <text id="U" font-family="RobotoSlab-Regular, Roboto Slab" font-size="36" font-weight="normal" fill="#000000">
                    <tspan x="16.4560547" y="44">U</tspan>
                </text>
            </g>
            <g id="Group-2-Copy-41" transform="translate(60.000000, 300.000000)">
                <rect id="Rectangle" stroke="#000000" fill="#FFFFFF" x="0" y="0" width="60" height="60"></rect>
                <text id="U" font-family="RobotoSlab-Regular, Roboto Slab" font-size="36" font-weight="normal" fill="#000000">
                    <tspan x="16.4560547" y="44">U</tspan>
                </text>
            </g>
            <g id="Group-2-Copy-42" transform="translate(0.000000, 300.000000)">
                <rect id="Rectangle" stroke="#000000" fill="#FFFFFF" x="0" y="0" width="60" height="60"></rect>
                <text id="O" font-family="RobotoSlab-Regular, Roboto Slab" font-size="36" font-weight="normal" fill="#000000">
                    <tspan x="17.2998047" y="44">O</tspan>
                </text>
            </g>
            <g id="Group-2-Copy-52" transform="translate(120.000000, 600.000000)">
                <rect id="Rectangle" stroke="#000000" fill="#FFFFFF" x="0" y="0" width="60" height="60"></rect>
                <text id="O" font-family="RobotoSlab-Regular, Roboto Slab" font-size="36" font-weight="normal" fill="#000000">
                    <tspan x="17.2998047" y="44">O</tspan>
                </text>
            </g>
            <g id="Group-2-Copy-64" transform="translate(360.000000, 540.000000)">
                <rect id="Rectangle" stroke="#000000" fill="#FFFFFF" x="0" y="0" width="60" height="60"></rect>
                <text id="O" font-family="RobotoSlab-Regular, Roboto Slab" font-size="36" font-weight="normal" fill="#000000">
                    <tspan x="17.2998047" y="44">O</tspan>
                </text>
            </g>
            <g id="Group-2-Copy-65" transform="translate(360.000000, 480.000000)">
                <rect id="Rectangle" stroke="#000000" fill="#FFFFFF" x="0" y="0" width="60" height="60"></rect>
                <text id="Z" font-family="RobotoSlab-Regular, Roboto Slab" font-size="36" font-weight="normal" fill="#000000">
                    <tspan x="19.2773438" y="44">Z</tspan>
                </text>
            </g>
            <g id="Group-2-Copy-58" transform="translate(480.000000, 600.000000)">
                <rect id="Rectangle" stroke="#000000" fill="#FFFFFF" x="0" y="0" width="60" height="60"></rect>
                <text id="O" font-family="RobotoSlab-Regular, Roboto Slab" font-size="36" font-weight="normal" fill="#000000">
                    <tspan x="17.2998047" y="44">O</tspan>
                </text>
            </g>
            <g id="Group-2-Copy-78" transform="translate(600.000000, 660.000000)">
                <rect id="Rectangle" stroke="#000000" fill="#FFFFFF" x="0" y="0" width="60" height="60"></rect>
                <text id="O" font-family="RobotoSlab-Regular, Roboto Slab" font-size="36" font-weight="normal" fill="#000000">
                    <tspan x="17.2998047" y="44">O</tspan>
                </text>
            </g>
            <g id="Group-2-Copy-46" transform="translate(0.000000, 360.000000)">
                <rect id="Rectangle" stroke="#000000" fill="#FFFFFF" x="0" y="0" width="60" height="60"></rect>
                <text id="D" font-family="RobotoSlab-Regular, Roboto Slab" font-size="36" font-weight="normal" fill="#000000">
                    <tspan x="17.5283203" y="44">D</tspan>
                </text>
            </g>
            <g id="Group-2-Copy-61" transform="translate(660.000000, 600.000000)">
                <rect id="Rectangle" stroke="#000000" fill="#FFFFFF" x="0" y="0" width="60" height="60"></rect>
                <text id="D" font-family="RobotoSlab-Regular, Roboto Slab" font-size="36" font-weight="normal" fill="#000000">
                    <tspan x="17.5283203" y="44">D</tspan>
                </text>
            </g>
            <g id="Group-2-Copy-68" transform="translate(540.000000, 480.000000)">
                <rect id="Rectangle" stroke="#000000" fill="#FFFFFF" x="0" y="0" width="60" height="60"></rect>
                <text id="D" font-family="RobotoSlab-Regular, Roboto Slab" font-size="36" font-weight="normal" fill="#000000">
                    <tspan x="17.5283203" y="44">D</tspan>
                </text>
            </g>
            <g id="Group-2-Copy-70" transform="translate(600.000000, 360.000000)">
                <rect id="Rectangle" stroke="#000000" fill="#FFFFFF" x="0" y="0" width="60" height="60"></rect>
                <text id="D" font-family="RobotoSlab-Regular, Roboto Slab" font-size="36" font-weight="normal" fill="#000000">
                    <tspan x="17.5283203" y="44">D</tspan>
                </text>
            </g>
            <g id="Group-2-Copy-43" transform="translate(0.000000, 240.000000)">
                <rect id="Rectangle" stroke="#000000" fill="#FFFFFF" x="0" y="0" width="60" height="60"></rect>
                <text id="O" font-family="RobotoSlab-Regular, Roboto Slab" font-size="36" font-weight="normal" fill="#000000">
                    <tspan x="17.2998047" y="44">O</tspan>
                </text>
            </g>
            <g id="Group-2-Copy-74" transform="translate(120.000000, 180.000000)">
                <rect id="Rectangle" stroke="#000000" fill="#FFFFFF" x="0" y="0" width="60" height="60"></rect>
                <text id="O" font-family="RobotoSlab-Regular, Roboto Slab" font-size="36" font-weight="normal" fill="#000000">
                    <tspan x="17.2998047" y="44">O</tspan>
                </text>
            </g>
            <g id="Group-2-Copy-39" transform="translate(240.000000, 300.000000)">
                <rect id="Rectangle" stroke="#000000" fill="#FFFFFF" x="0" y="0" width="60" height="60"></rect>
                <text id="U" font-family="RobotoSlab-Regular, Roboto Slab" font-size="36" font-weight="normal" fill="#000000">
                    <tspan x="16.4560547" y="44">U</tspan>
                </text>
            </g>
            <g id="Group-2-Copy-35" transform="translate(300.000000, 300.000000)">
                <rect id="Rectangle" stroke="#000000" fill="#FFFFFF" x="0" y="0" width="60" height="60"></rect>
                <text id="N" font-family="RobotoSlab-Regular, Roboto Slab" font-size="36" font-weight="normal" fill="#000000">
                    <tspan x="16.2890625" y="44">N</tspan>
                </text>
            </g>
            <g id="Group-2-Copy-51" transform="translate(60.000000, 600.000000)">
                <rect id="Rectangle" stroke="#000000" fill="#FFFFFF" x="0" y="0" width="60" height="60"></rect>
                <text id="N" font-family="RobotoSlab-Regular, Roboto Slab" font-size="36" font-weight="normal" fill="#000000">
                    <tspan x="16.2890625" y="44">N</tspan>
                </text>
            </g>
            <g id="Group-2-Copy-75" transform="translate(120.000000, 240.000000)">
                <rect id="Rectangle" stroke="#000000" fill="#FFFFFF" x="0" y="0" width="60" height="60"></rect>
                <text id="N" font-family="RobotoSlab-Regular, Roboto Slab" font-size="36" font-weight="normal" fill="#000000">
                    <tspan x="16.2890625" y="44">N</tspan>
                </text>
            </g>
            <g id="Group-2-Copy-62" transform="translate(120.000000, 540.000000)">
                <rect id="Rectangle" stroke="#000000" fill="#FFFFFF" x="0" y="0" width="60" height="60"></rect>
                <text id="N" font-family="RobotoSlab-Regular, Roboto Slab" font-size="36" font-weight="normal" fill="#000000">
                    <tspan x="16.2890625" y="44">N</tspan>
                </text>
            </g>
            <g id="Group-2-Copy-32" transform="translate(300.000000, 60.000000)">
                <rect id="Rectangle" stroke="#000000" fill="#FFFFFF" x="0" y="0" width="60" height="60"></rect>
                <text id="X" font-family="RobotoSlab-Regular, Roboto Slab" font-size="36" font-weight="normal" fill="#000000">
                    <tspan x="17.6601562" y="44">X</tspan>
                </text>
            </g>
            <g id="Group-2-Copy-63" transform="translate(120.000000, 660.000000)">
                <rect id="Rectangle" stroke="#000000" fill="#FFFFFF" x="0" y="0" width="60" height="60"></rect>
                <text id="X" font-family="RobotoSlab-Regular, Roboto Slab" font-size="36" font-weight="normal" fill="#000000">
                    <tspan x="17.6601562" y="44">X</tspan>
                </text>
            </g>
            <g id="Group-2-Copy-19" transform="translate(240.000000, 120.000000)">
                <rect id="Rectangle" stroke="#000000" fill="#FFFFFF" x="0" y="0" width="60" height="60"></rect>
                <text id="W" font-family="RobotoSlab-Regular, Roboto Slab" font-size="36" font-weight="normal" fill="#000000">
                    <tspan x="13.2128906" y="44">W</tspan>
                </text>
            </g>
            <g id="Group-2-Copy-57" transform="translate(420.000000, 600.000000)">
                <rect id="Rectangle" stroke="#000000" fill="#FFFFFF" x="0" y="0" width="60" height="60"></rect>
                <text id="W" font-family="RobotoSlab-Regular, Roboto Slab" font-size="36" font-weight="normal" fill="#000000">
                    <tspan x="13.2128906" y="44">W</tspan>
                </text>
            </g>
            <g id="Group-2-Copy-50" transform="translate(0.000000, 660.000000)">
                <rect id="Rectangle" stroke="#000000" fill="#FFFFFF" x="0" y="0" width="60" height="60"></rect>
                <text id="W" font-family="RobotoSlab-Regular, Roboto Slab" font-size="36" font-weight="normal" fill="#000000">
                    <tspan x="13.2128906" y="44">W</tspan>
                </text>
            </g>
            <g id="Group-2-Copy-9" transform="translate(420.000000, 120.000000)">
                <rect id="Rectangle" stroke="#000000" fill="#FFFFFF" x="0" y="0" width="60" height="60"></rect>
                <text id="C" font-family="RobotoSlab-Regular, Roboto Slab" font-size="36" font-weight="normal" fill="#000000">
                    <tspan x="18.3896484" y="44">C</tspan>
                </text>
            </g>
            <g id="Group-2-Copy-73" transform="translate(120.000000, 120.000000)">
                <rect id="Rectangle" stroke="#000000" fill="#FFFFFF" x="0" y="0" width="60" height="60"></rect>
                <text id="C" font-family="RobotoSlab-Regular, Roboto Slab" font-size="36" font-weight="normal" fill="#000000">
                    <tspan x="18.3896484" y="44">C</tspan>
                </text>
            </g>
            <g id="Group-2-Copy-14" transform="translate(420.000000, 420.000000)">
                <rect id="Rectangle" stroke="#000000" fill="#FFFFFF" x="0" y="0" width="60" height="60"></rect>
                <text id="C" font-family="RobotoSlab-Regular, Roboto Slab" font-size="36" font-weight="normal" fill="#000000">
                    <tspan x="18.3896484" y="44">C</tspan>
                </text>
            </g>
            <g id="Group-2-Copy" transform="translate(60.000000, 0.000000)">
                <rect id="Rectangle" stroke="#000000" fill="#FFFFFF" x="0" y="0" width="60" height="60"></rect>
                <text id="E" font-family="RobotoSlab-Regular, Roboto Slab" font-size="36" font-weight="normal" fill="#000000">
                    <tspan x="18.5214844" y="44">E</tspan>
                </text>
            </g>
            <g id="Group-2-Copy-5" transform="translate(300.000000, 0.000000)">
                <rect id="Rectangle" stroke="#000000" fill="#FFFFFF" x="0" y="0" width="60" height="60"></rect>
                <text id="E" font-family="RobotoSlab-Regular, Roboto Slab" font-size="36" font-weight="normal" fill="#000000">
                    <tspan x="18.5214844" y="44">E</tspan>
                </text>
            </g>
            <g id="Group-2-Copy-55" transform="translate(300.000000, 600.000000)">
                <rect id="Rectangle" stroke="#000000" fill="#FFFFFF" x="0" y="0" width="60" height="60"></rect>
                <text id="E" font-family="RobotoSlab-Regular, Roboto Slab" font-size="36" font-weight="normal" fill="#000000">
                    <tspan x="18.5214844" y="44">E</tspan>
                </text>
            </g>
            <g id="Group-2-Copy-24" transform="translate(660.000000, 60.000000)">
                <rect id="Rectangle" stroke="#000000" fill="#FFFFFF" x="0" y="0" width="60" height="60"></rect>
                <text id="E" font-family="RobotoSlab-Regular, Roboto Slab" font-size="36" font-weight="normal" fill="#000000">
                    <tspan x="18.5214844" y="44">E</tspan>
                </text>
            </g>
            <g id="Group-2-Copy-31" transform="translate(540.000000, 240.000000)">
                <rect id="Rectangle" stroke="#000000" fill="#FFFFFF" x="0" y="0" width="60" height="60"></rect>
                <text id="E" font-family="RobotoSlab-Regular, Roboto Slab" font-size="36" font-weight="normal" fill="#000000">
                    <tspan x="18.5214844" y="44">E</tspan>
                </text>
            </g>
            <g id="Group-2-Copy-15" transform="translate(420.000000, 480.000000)">
                <rect id="Rectangle" stroke="#000000" fill="#FFFFFF" x="0" y="0" width="60" height="60"></rect>
                <text id="E" font-family="RobotoSlab-Regular, Roboto Slab" font-size="36" font-weight="normal" fill="#000000">
                    <tspan x="18.5214844" y="44">E</tspan>
                </text>
            </g>
            <g id="Group-2-Copy-6" transform="translate(360.000000, 0.000000)">
                <rect id="Rectangle" stroke="#000000" fill="#FFFFFF" x="0" y="0" width="60" height="60"></rect>
                <text id="R" font-family="RobotoSlab-Regular, Roboto Slab" font-size="36" font-weight="normal" fill="#000000">
                    <tspan x="17.8183594" y="44">R</tspan>
                </text>
            </g>
            <g id="Group-2-Copy-56" transform="translate(360.000000, 600.000000)">
                <rect id="Rectangle" stroke="#000000" fill="#FFFFFF" x="0" y="0" width="60" height="60"></rect>
                <text id="R" font-family="RobotoSlab-Regular, Roboto Slab" font-size="36" font-weight="normal" fill="#000000">
                    <tspan x="17.8183594" y="44">R</tspan>
                </text>
            </g>
            <g id="Group-2-Copy-59" transform="translate(540.000000, 600.000000)">
                <rect id="Rectangle" stroke="#000000" fill="#FFFFFF" x="0" y="0" width="60" height="60"></rect>
                <text id="R" font-family="RobotoSlab-Regular, Roboto Slab" font-size="36" font-weight="normal" fill="#000000">
                    <tspan x="17.8183594" y="44">R</tspan>
                </text>
            </g>
            <g id="Group-2-Copy-10" transform="translate(420.000000, 180.000000)">
                <rect id="Rectangle" stroke="#000000" fill="#FFFFFF" x="0" y="0" width="60" height="60"></rect>
                <text id="R" font-family="RobotoSlab-Regular, Roboto Slab" font-size="36" font-weight="normal" fill="#000000">
                    <tspan x="17.8183594" y="44">R</tspan>
                </text>
            </g>
            <g id="Group-2-Copy-38" transform="translate(180.000000, 300.000000)">
                <rect id="Rectangle" stroke="#000000" fill="#FFFFFF" x="0" y="0" width="60" height="60"></rect>
                <text id="R" font-family="RobotoSlab-Regular, Roboto Slab" font-size="36" font-weight="normal" fill="#000000">
                    <tspan x="17.8183594" y="44">R</tspan>
                </text>
            </g>
            <g id="Group-2-Copy-76" transform="translate(120.000000, 360.000000)">
                <rect id="Rectangle" stroke="#000000" fill="#FFFFFF" x="0" y="0" width="60" height="60"></rect>
                <text id="R" font-family="RobotoSlab-Regular, Roboto Slab" font-size="36" font-weight="normal" fill="#000000">
                    <tspan x="17.8183594" y="44">R</tspan>
                </text>
            </g>
            <g id="Group-2-Copy-16" transform="translate(480.000000, 120.000000)">
                <rect id="Rectangle" stroke="#000000" fill="#FFFFFF" x="0" y="0" width="60" height="60"></rect>
                <text id="R" font-family="RobotoSlab-Regular, Roboto Slab" font-size="36" font-weight="normal" fill="#000000">
                    <tspan x="17.8183594" y="44">R</tspan>
                </text>
            </g>
            <g id="Group-2-Copy-25" transform="translate(660.000000, 180.000000)">
                <rect id="Rectangle" stroke="#000000" fill="#FFFFFF" x="0" y="0" width="60" height="60"></rect>
                <text id="R" font-family="RobotoSlab-Regular, Roboto Slab" font-size="36" font-weight="normal" fill="#000000">
                    <tspan x="17.8183594" y="44">R</tspan>
                </text>
            </g>
            <g id="Group-2-Copy-17" transform="translate(360.000000, 120.000000)">
                <rect id="Rectangle" stroke="#000000" fill="#FFFFFF" x="0" y="0" width="60" height="60"></rect>
                <text id="R" font-family="RobotoSlab-Regular, Roboto Slab" font-size="36" font-weight="normal" fill="#000000">
                    <tspan x="17.8183594" y="44">R</tspan>
                </text>
            </g>
            <g id="Group-2-Copy-11" transform="translate(420.000000, 240.000000)">
                <rect id="Rectangle" stroke="#000000" fill="#FFFFFF" x="0" y="0" width="60" height="60"></rect>
                <text id="I" font-family="RobotoSlab-Regular, Roboto Slab" font-size="36" font-weight="normal" fill="#000000">
                    <tspan x="24.1816406" y="44">I</tspan>
                </text>
            </g>
            <g id="Group-2-Copy-26" transform="translate(660.000000, 240.000000)">
                <rect id="Rectangle" stroke="#000000" fill="#FFFFFF" x="0" y="0" width="60" height="60"></rect>
                <text id="I" font-family="RobotoSlab-Regular, Roboto Slab" font-size="36" font-weight="normal" fill="#000000">
                    <tspan x="24.1816406" y="44">I</tspan>
                </text>
            </g>
            <g id="Group-2-Copy-13" transform="translate(420.000000, 360.000000)">
                <rect id="Rectangle" stroke="#000000" fill="#FFFFFF" x="0" y="0" width="60" height="60"></rect>
                <text id="I" font-family="RobotoSlab-Regular, Roboto Slab" font-size="36" font-weight="normal" fill="#000000">
                    <tspan x="24.1816406" y="44">I</tspan>
                </text>
            </g>
            <g id="Group-2-Copy-71" transform="translate(600.000000, 420.000000)">
                <rect id="Rectangle" stroke="#000000" fill="#FFFFFF" x="0" y="0" width="60" height="60"></rect>
                <text id="I" font-family="RobotoSlab-Regular, Roboto Slab" font-size="36" font-weight="normal" fill="#000000">
                    <tspan x="24.1816406" y="44">I</tspan>
                </text>
            </g>
            <g id="Group-2-Copy-12" transform="translate(420.000000, 300.000000)">
                <rect id="Rectangle" stroke="#000000" fill="#FFFFFF" x="0" y="0" width="60" height="60"></rect>
                <text id="F" font-family="RobotoSlab-Regular, Roboto Slab" font-size="36" font-weight="normal" fill="#000000">
                    <tspan x="18.8115234" y="44">F</tspan>
                </text>
            </g>
            <g id="Group-2-Copy-21" transform="translate(600.000000, 120.000000)">
                <rect id="Rectangle" stroke="#000000" fill="#FFFFFF" x="0" y="0" width="60" height="60"></rect>
                <text id="F" font-family="RobotoSlab-Regular, Roboto Slab" font-size="36" font-weight="normal" fill="#000000">
                    <tspan x="18.8115234" y="44">F</tspan>
                </text>
            </g>
            <g id="Group-2-Copy-2" transform="translate(120.000000, 0.000000)">
                <rect id="Rectangle" stroke="#000000" fill="#FFFFFF" x="0" y="0" width="60" height="60"></rect>
                <text id="T" font-family="RobotoSlab-Regular, Roboto Slab" font-size="36" font-weight="normal" fill="#000000">
                    <tspan x="18.7148438" y="44">T</tspan>
                </text>
            </g>
            <g id="Group-2-Copy-3" transform="translate(180.000000, 0.000000)">
                <rect id="Rectangle" stroke="#000000" fill="#FFFFFF" x="0" y="0" width="60" height="60"></rect>
                <text id="T" font-family="RobotoSlab-Regular, Roboto Slab" font-size="36" font-weight="normal" fill="#000000">
                    <tspan x="18.7148438" y="44">T</tspan>
                </text>
            </g>
            <g id="Group-2-Copy-40" transform="translate(120.000000, 300.000000)">
                <rect id="Rectangle" stroke="#000000" fill="#FFFFFF" x="0" y="0" width="60" height="60"></rect>
                <text id="T" font-family="RobotoSlab-Regular, Roboto Slab" font-size="36" font-weight="normal" fill="#000000">
                    <tspan x="18.7148438" y="44">T</tspan>
                </text>
            </g>
            <g id="Group-2-Copy-53" transform="translate(180.000000, 600.000000)">
                <rect id="Rectangle" stroke="#000000" fill="#FFFFFF" x="0" y="0" width="60" height="60"></rect>
                <text id="T" font-family="RobotoSlab-Regular, Roboto Slab" font-size="36" font-weight="normal" fill="#000000">
                    <tspan x="18.7148438" y="44">T</tspan>
                </text>
            </g>
            <g id="Group-2-Copy-54" transform="translate(240.000000, 600.000000)">
                <rect id="Rectangle" stroke="#000000" fill="#FFFFFF" x="0" y="0" width="60" height="60"></rect>
                <text id="H" font-family="RobotoSlab-Regular, Roboto Slab" font-size="36" font-weight="normal" fill="#000000">
                    <tspan x="16.1748047" y="44">H</tspan>
                </text>
            </g>
            <g id="Group-2-Copy-22" transform="translate(660.000000, 120.000000)">
                <rect id="Rectangle" stroke="#000000" fill="#FFFFFF" x="0" y="0" width="60" height="60"></rect>
                <text id="T" font-family="RobotoSlab-Regular, Roboto Slab" font-size="36" font-weight="normal" fill="#000000">
                    <tspan x="18.7148438" y="44">T</tspan>
                </text>
            </g>
            <g id="Group-2-Copy-23" transform="translate(660.000000, 0.000000)">
                <rect id="Rectangle" stroke="#000000" fill="#FFFFFF" x="0" y="0" width="60" height="60"></rect>
                <text id="T" font-family="RobotoSlab-Regular, Roboto Slab" font-size="36" font-weight="normal" fill="#000000">
                    <tspan x="18.7148438" y="44">T</tspan>
                </text>
            </g>
            <g id="Group-2-Copy-4" transform="translate(240.000000, 0.000000)">
                <rect id="Rectangle" stroke="#000000" fill="#FFFFFF" x="0" y="0" width="60" height="60"></rect>
                <text id="L" font-family="RobotoSlab-Regular, Roboto Slab" font-size="36" font-weight="normal" fill="#000000">
                    <tspan x="19.4619141" y="44">L</tspan>
                </text>
            </g>
            <g id="Group-2-Copy-60" transform="translate(600.000000, 600.000000)">
                <rect id="Rectangle" stroke="#000000" fill="#FFFFFF" x="0" y="0" width="60" height="60"></rect>
                <text id="L" font-family="RobotoSlab-Regular, Roboto Slab" font-size="36" font-weight="normal" fill="#000000">
                    <tspan x="19.4619141" y="44">L</tspan>
                </text>
            </g>
            <g id="Group-2-Copy-67" transform="translate(480.000000, 480.000000)">
                <rect id="Rectangle" stroke="#000000" fill="#FFFFFF" x="0" y="0" width="60" height="60"></rect>
                <text id="L" font-family="RobotoSlab-Regular, Roboto Slab" font-size="36" font-weight="normal" fill="#000000">
                    <tspan x="19.4619141" y="44">L</tspan>
                </text>
            </g>
            <g id="Group-2-Copy-44" transform="translate(0.000000, 180.000000)">
                <rect id="Rectangle" stroke="#000000" fill="#FFFFFF" x="0" y="0" width="60" height="60"></rect>
                <text id="L" font-family="RobotoSlab-Regular, Roboto Slab" font-size="36" font-weight="normal" fill="#000000">
                    <tspan x="19.4619141" y="44">L</tspan>
                </text>
            </g>
            <g id="Group-2-Copy-47" transform="translate(0.000000, 540.000000)">
                <rect id="Rectangle" stroke="#000000" fill="#FFFFFF" x="0" y="0" width="60" height="60"></rect>
                <text id="L" font-family="RobotoSlab-Regular, Roboto Slab" font-size="36" font-weight="normal" fill="#000000">
                    <tspan x="19.4619141" y="44">L</tspan>
                </text>
            </g>
            <g id="Group-2-Copy-48" transform="translate(0.000000, 480.000000)">
                <rect id="Rectangle" stroke="#000000" fill="#FFFFFF" x="0" y="0" width="60" height="60"></rect>
                <text id="C" font-family="RobotoSlab-Regular, Roboto Slab" font-size="36" font-weight="normal" fill="#000000">
                    <tspan x="18.3896484" y="44">C</tspan>
                </text>
            </g>
            <g id="Group-2-Copy-45" transform="translate(0.000000, 120.000000)">
                <rect id="Rectangle" stroke="#000000" fill="#FFFFFF" x="0" y="0" width="60" height="60"></rect>
                <text id="B" font-family="RobotoSlab-Regular, Roboto Slab" font-size="36" font-weight="normal" fill="#000000">
                    <tspan x="18.1787109" y="44">B</tspan>
                </text>
            </g>
            <g id="Group-2-Copy-72" transform="translate(600.000000, 540.000000)">
                <rect id="Rectangle" stroke="#000000" fill="#FFFFFF" x="0" y="0" width="60" height="60"></rect>
                <text id="B" font-family="RobotoSlab-Regular, Roboto Slab" font-size="36" font-weight="normal" fill="#000000">
                    <tspan x="18.1787109" y="44">B</tspan>
                </text>
            </g>
        </g>
    </g>
</svg>